<svg xmlns="http://www.w3.org/2000/svg" width="23.441" height="22.005" viewBox="0 0 23.441 22.005"><defs><style>.a{fill:#646464;}</style></defs><g transform="translate(-0.289 -0.995)"><path class="a" d="M16.37,23a7.39,7.39,0,0,1-7.26-7.35A7.311,7.311,0,1,1,16.37,23Zm0-1.11A6.2,6.2,0,0,0,16.62,9.5a6.09,6.09,0,0,0-6.38,6.19,6.08,6.08,0,0,0,6.12,6.22Z"/><path class="a" d="M.29,11.58c0-2,.05-3.93,0-5.89A2.63,2.63,0,0,1,3,3H4.74c.57,0,.68-.09.62-.59a6.76,6.76,0,0,1,0-.9A.49.49,0,0,1,5.86,1a.49.49,0,0,1,.56.5q0,2,0,4.08a.51.51,0,0,1-.55.53.51.51,0,0,1-.54-.58V5.16c0-1.06,0-1.06-1.09-1.06H2.68A1.22,1.22,0,0,0,1.39,5.39V17.83a1.27,1.27,0,0,0,1.42,1.29H8c.33,0,.61.05.72.41a.55.55,0,0,1-.6.69H2.59A2.49,2.49,0,0,1,.29,17.7q0-3.06,0-6.12Z"/><path class="a" d="M15.5,3.55v1.8c0,.41-.09.76-.57.75s-.53-.33-.55-.72.19-1-.1-1.2S13.44,4.1,13,4.1H8c-.37,0-.62-.18-.61-.58S7.61,3,8,3h5.76c.51,0,.76-.1.67-.65a3.37,3.37,0,0,1,0-.84A.52.52,0,0,1,15,1a.51.51,0,0,1,.54.53v2Z"/><path class="a" d="M6.8,8.87h3.43c.37,0,.71.08.72.53s-.33.58-.74.58H3.31c-.4,0-.75-.08-.75-.57s.38-.53.76-.53Z"/><path class="a" d="M19.41,6.37v-1a1.21,1.21,0,0,0-1.26-1.3H17a.55.55,0,0,1-.58-.56A.5.5,0,0,1,17,3a6.7,6.7,0,0,1,1.73.08,2.54,2.54,0,0,1,1.79,2.31V7.61c0,.37-.15.65-.54.65s-.57-.27-.58-.63S19.41,6.79,19.41,6.37Z"/><path class="a" d="M15.89,14.61v-2c0-.38.16-.64.55-.63s.55.27.55.65V15.8a.59.59,0,0,0,.39.64c.64.29,1.25.61,1.88.92.36.18.54.45.35.82s-.5.35-.82.19l-2.51-1.25a.67.67,0,0,1-.39-.68C15.89,15.85,15.89,15.23,15.89,14.61Z"/></g></svg>