<svg width="423" height="400" viewBox="0 0 423 400" fill="none" xmlns="http://www.w3.org/2000/svg">
<path d="M139.919 42.8789C139.919 42.8789 99.3406 45.5736 74.4011 55.1985C49.4616 64.8235 10.3928 82.2479 4.07104 136.054C-2.25076 189.861 -2.25076 247.263 11.5861 283.036C25.4229 318.81 44.0485 360.297 85.5275 378.306C127.006 396.315 141.428 399.342 203.65 399.942C265.873 400.543 288.102 396.339 314.851 393.62C341.6 390.902 396.608 381.633 409.836 348.846C423.064 316.06 434.175 263.794 398.709 239.147C363.244 214.5 295.917 196.475 295.917 196.475C295.917 196.475 259.851 136.963 254.746 120.732C249.641 104.501 236.626 47.1619 184.709 45.8897L139.919 42.8789Z" fill="#8367C7"/>
<path d="M61.6865 60.4852C61.6865 60.4852 30.2671 157.209 56.7159 225.208C56.7159 233.56 33.4517 243.501 39.813 243.106C46.1743 242.711 61.6865 236.895 61.6865 236.895C61.6865 236.895 87.4557 227.902 91.9442 231.174C96.4327 234.445 119.752 263.099 119.752 263.099L153.684 292.709C153.684 292.709 155.715 301.204 159.216 301.994C162.717 302.784 198.506 305.811 218.396 304.499C238.286 303.187 230.724 322.089 230.724 322.089L207.752 347.337C207.752 347.337 206.258 363.244 213.52 364.437C220.782 365.631 223.959 363.647 234.698 347.732C245.438 331.817 269.697 307.96 269.697 307.96L283.218 307.565L323.385 306.775L346.452 302.405L224.923 122.597C224.923 122.597 227.088 119.705 224.923 112.205C222.758 104.706 198.103 62.5477 198.103 62.5477L188.81 44.7913C188.81 44.7913 158.939 44.1512 150.966 43.6218C142.993 43.0923 111.328 46.0557 104.801 47.3042C98.2739 48.5528 67.3524 54.4795 61.6865 60.4852Z" fill="#5C3BAD"/>
<path d="M128.279 23.4709C128.279 23.4709 121.593 11.902 126.832 5.58022C132.072 -0.741583 138.939 -2.5512 146.707 4.69516C154.474 11.9415 133.699 23.4867 133.699 23.4867L128.279 23.4709Z" fill="#593139"/>
<path d="M142.187 51.3184C142.187 51.3184 136.592 62.1602 132.791 64.689C128.99 67.2177 103.703 81.2837 103.703 81.2837L130.807 105.133L192.176 103.141L177.423 70.0783L142.187 51.3184Z" fill="#C96156"/>
<path d="M102.778 78.1861C104.678 78.048 106.586 78.2968 108.387 78.9175C110.189 79.5383 111.845 80.518 113.256 81.7974C117.95 86.1358 124.636 95.8951 137.469 97.1594C150.302 98.4238 171.449 98.0603 174.689 91.7385C177.928 85.4167 178.324 74.3535 178.324 74.3535C178.324 74.3535 187.016 76.7242 192.152 79.6164C197.289 82.5086 212.453 98.0445 219.502 110.151C226.551 122.257 232.691 132.917 232.691 132.917L214.84 224.259L147.939 291.547C147.939 291.547 131.392 285.897 125.465 275.395C119.539 264.893 116.852 264.094 115.777 257.093C114.703 250.092 110.396 200.3 99.625 187.372L96.4009 203.255C96.4009 203.255 92.3629 222.371 96.4009 234.485C96.4009 234.485 63.5592 249.554 56.8265 237.171C55.7517 220.751 62.7531 142.155 62.7531 142.155C62.7531 142.155 61.8286 99.6486 102.778 78.1861Z" fill="#45354F"/>
<path d="M162.519 86.4755C162.519 86.4755 152.088 87.4948 147.939 82.1134C143.791 76.732 140.298 63.6696 143.056 59.3075C145.814 54.9455 168.043 78.186 168.043 78.186C168.043 78.186 170.074 84.2628 162.511 86.4438" fill="#AD413F"/>
<path d="M187.719 26.9004C187.719 26.9004 189.165 40.4528 188.81 44.7911C188.454 49.1294 185.918 53.8234 185.918 54.906C185.918 55.9886 188.446 60.8722 184.653 66.1114C180.86 71.3506 175.795 77.4906 174.689 79.3002C173.582 81.1098 167.64 86.349 160.954 81.4733C154.269 76.5976 141.08 63.4009 140.543 58.5568C140.006 53.7127 132.807 44.6093 132.807 44.6093L136.655 28.5283L187.719 26.9004Z" fill="#E47B78"/>
<path d="M139.215 56.5415C139.215 56.5415 121.949 39.2435 127.362 21.6926C132.775 4.14169 154.648 3.41468 159.706 4.86079C164.763 6.3069 184.1 12.8105 188.438 17.6861C192.777 22.5618 193.496 29.2471 189.703 31.4203C185.91 33.5934 170.911 38.4612 153.566 31.0568C153.566 31.0568 146.335 41.5351 147.6 51.6579L144.707 49.6666C144.707 49.6666 140.756 37.023 142.542 33.7672C142.542 33.7672 128.271 35.7586 140.013 53.6414L139.215 56.5415Z" fill="#5D343C"/>
<path d="M227.389 286.805C227.389 286.805 212.848 307.217 206.353 313.712C199.857 320.208 187.174 337.23 188.407 347.747C189.64 358.265 192.429 363.212 202.631 355.168C212.833 347.123 245.635 317.735 245.635 317.735L254.604 284.948L227.389 286.805Z" fill="#441825"/>
<path d="M302.966 296.588L333.745 303.89C333.745 303.89 356.661 308.062 365.046 293.981C373.43 279.899 374.434 263.099 374.434 263.099L302.966 296.588Z" fill="#461A27"/>
<path d="M207.744 149.599C207.744 149.599 123.474 166.454 106.374 164.218L99.6172 187.332C99.6172 187.332 104.619 193.156 107.519 206.242C110.42 219.328 112.853 232.991 114.315 245.018C115.777 257.046 118.116 263.889 120.163 266.868C122.21 269.847 125.963 277.362 129.385 280.349C132.807 283.336 145.553 291.547 145.553 291.547L175.479 212.714L207.744 149.599Z" fill="#402C45"/>
<path d="M99.6172 187.332C99.6172 187.332 108.033 149.725 108.033 137.967C108.033 126.208 109.732 164.21 109.116 172.879C108.499 181.548 110.751 202.512 110.751 202.512L106.571 202.82L99.6172 187.332Z" fill="#36253A"/>
<path d="M213.512 131.447C213.512 131.447 205.452 121.38 205.681 112.205C205.681 112.205 203.018 140.226 204.796 142.107C206.574 143.988 213.489 131.447 213.489 131.447" fill="#372942"/>
<path d="M160.986 33.5618C160.108 38.8947 159.515 44.2706 159.208 49.6666C158.513 60.0027 158.694 70.7893 160.362 74.4006C162.029 78.012 165.206 83.3539 165.206 83.3539C163.005 82.9303 160.944 81.9663 159.208 80.5486C156.727 78.5888 153.779 76.2893 152.886 75.42C150.998 73.5551 142.463 63.8432 142.013 61.9467C141.934 61.5911 141.507 61.0695 141.009 60.058C140.244 58.0809 139.636 56.0463 139.192 53.9733C137.65 51.2449 136.272 48.4266 135.067 45.5337C133.257 40.9188 134.988 35.4978 142.542 33.7673C142.076 36.5409 144.715 49.6666 144.715 49.6666L147.22 51.3893C147.22 51.3893 147.687 30.1875 153.542 31.0568C158.607 31.847 160.954 33.5618 160.954 33.5618" fill="#C75554"/>
<path d="M175.953 50.1096C175.953 50.1096 177.699 63.4091 175.953 64.7446C174.206 66.0801 170.216 66.3251 171.409 64.7446C172.602 63.1642 174.246 51.9667 174.246 51.0737C174.246 50.1808 175.273 48.1025 175.953 50.1096Z" fill="#C75554"/>
<path d="M82.501 206.242L121.744 202.433C121.744 202.433 132.585 178.237 139.539 175.178C146.493 172.12 155.107 171.291 159.295 175.178C163.483 179.066 165.411 187.135 165.411 187.135C165.411 187.135 159.572 186.834 156.513 182.954C153.455 179.074 147.979 182.385 147.979 182.385C147.979 182.385 158.829 186.028 160.868 191.307C162.906 196.586 166.241 205.61 162.63 206.242C159.018 206.874 149.401 206.321 144.755 203.824C140.108 201.327 138.994 206.487 138.994 206.487C138.994 206.487 140.108 215.496 131.21 219.392C122.313 223.287 90.4348 236.895 90.4348 236.895L82.501 206.242Z" fill="#E37264"/>
<path d="M137.975 212.106L292.393 210.193L286.126 223.453H137.975V212.106Z" fill="#CFC6DB"/>
<path d="M137.975 212.106L292.393 210.193L289.255 216.823L137.975 216.128V212.106Z" fill="#ACA9BE"/>
<path d="M147.69 220.341C147.69 220.341 164.948 209.278 174.391 208.29C183.835 207.303 176.991 205.69 196.202 212.241C215.412 218.792 221.923 220.381 221.923 220.381H295.501L301.033 217.449C301.033 217.449 311.448 220.104 331.314 213.893C351.181 207.682 373.307 202.474 390.889 204.41C408.472 206.346 407.484 212.55 410.1 220.365C412.715 228.18 413.355 244.127 403.912 252.598C394.469 261.069 318.291 300.13 318.291 300.13C318.291 300.13 305.592 302.082 299.729 301.758C295.501 305.986 293.044 315.397 283.229 316.417C273.415 317.436 252.75 317.65 252.75 317.65L252.134 289.273C244.912 291.14 237.53 292.32 230.086 292.797C217.783 293.587 168.299 300.652 159.401 292.275C150.503 283.899 133.742 269.233 134.003 259.544C134.264 249.856 139.914 228.338 147.69 220.381" fill="#6872A5"/>
<path d="M224.923 228.589C224.923 228.589 279.085 225.428 284.008 228.589C288.931 231.75 287.367 236.492 297.893 236.895C308.418 237.298 335.492 226.827 346.681 221.438C357.871 216.048 305.502 252.533 300.571 255.418C295.64 258.302 281.329 257.662 265.881 249.823C250.432 241.984 224.923 228.566 224.923 228.566" fill="#5C5A8C"/>
<path d="M147.939 287.114C147.939 287.114 152.981 286.411 177.439 287.114C201.896 287.817 241.502 291.547 241.502 291.547L222.576 294.787L171.061 298.564C171.061 298.564 159.785 301.085 152.886 296.676C143.617 290.773 133.439 285.012 147.963 287.114" fill="#585B90"/>
<path d="M222.892 127.544C222.892 127.544 212.232 125.529 208.028 134.6C203.287 144.834 175.984 211.173 175.984 211.173L180.813 212.841L290.417 214.476L324.152 142.194C324.152 142.194 330.955 128.334 321.631 128.334C312.306 128.334 222.853 127.544 222.853 127.544" fill="#C4B8D0"/>
<path d="M220.458 131.637C220.458 131.637 213.512 131.447 211.102 137.753C207.593 146.935 180.52 209.363 180.52 209.363C180.52 209.363 180.52 212.809 181.635 212.809C182.749 212.809 288.094 214.444 288.094 214.444L323.006 139.199C323.006 139.199 325.163 131.479 319.41 131.202C313.657 130.925 220.458 131.637 220.458 131.637Z" fill="#CFC6DB"/>
<path d="M271.223 131.423L211.268 213.504H228.045L287.43 131.423H271.223Z" fill="#E0DAE8"/>
<path d="M293.12 131.423H301.362L241.083 213.504H233.126L293.12 131.423Z" fill="#E0DAE8"/>
<path d="M254.904 164.953C259.575 164.629 263.597 167.9 263.913 172.254C264.229 176.609 260.681 180.41 256.011 180.742C251.34 181.073 247.318 177.794 247.002 173.44C246.686 169.086 250.242 165.285 254.904 164.953Z" fill="#FBFDFA"/>
<path d="M157.952 46.7825C157.952 46.7825 168.975 39.3465 174.997 47.8098L172.689 48.8371C172.689 48.8371 168.975 42.5153 157.952 46.7825Z" fill="#2C0C19"/>
<path d="M181.01 47.9994C181.01 47.9994 185.602 43.5584 188.913 43.7006V45.85C188.913 45.85 182.425 47.8572 181.698 48.6553C180.971 49.4535 181.042 47.9994 181.042 47.9994" fill="#2C0C19"/>
<path d="M162.124 50.1094C162.124 50.1094 171.662 50.0461 172.587 50.947C173.511 51.8478 171.235 53.2228 169.268 53.1359C167.3 53.049 162.156 50.1094 162.156 50.1094" fill="#402C45"/>
<path d="M185.989 49.7852L180.9 51.1285C180.9 51.1285 180.678 51.9188 181.184 52.3139C182.978 53.6335 185.989 49.7852 185.989 49.7852Z" fill="#402C45"/>
<path d="M67.6605 209.364C67.6605 209.364 81.0944 203.674 120.866 201.943C120.866 201.943 128.603 176.656 142.993 173.685C147.252 172.737 161.342 168.762 165.008 185.744C165.008 185.744 155.779 174.309 150.097 175.258C144.415 176.206 132.254 175.099 122.945 204.148C122.945 204.148 78.2653 207.467 67.6842 209.364" fill="#F5AF96"/>
<path d="M165.403 71.7379C165.403 71.7379 167.537 74.6775 170.145 74.962C172.03 75.2895 173.97 74.9217 175.605 73.9268C176.846 73.1366 178.316 69.8809 178.316 69.8809L164.431 69.9283C164.61 70.5925 164.931 71.21 165.372 71.7379" fill="white"/>
<path d="M164.463 69.9283C164.463 69.9283 172.057 68.4269 173.037 68.8457C174.017 69.2646 177.043 68.7746 178.26 69.391C178.9 69.715 178.031 70.7107 174.309 70.8845C164.676 71.3586 164.431 69.9283 164.431 69.9283" fill="#CE4C4A"/>
</svg>
