<svg width="60" height="60" viewBox="0 0 60 60" fill="none" xmlns="http://www.w3.org/2000/svg">
<path d="M58.9263 2.39716C58.7914 2.08097 58.6057 1.78905 58.3763 1.53302H58.2978L57.6693 1.06167C52.9558 -1.84499 35.7516 0.983108 24.2035 12.4526C22.6606 13.9874 21.2421 15.6423 19.9613 17.4018L11.3199 19.6014C8.50136 20.3087 5.95769 21.8404 4.01402 24.0007L0.793132 27.6144C0.326692 28.1394 0.049587 28.8056 0.00604696 29.5065C-0.037493 30.2075 0.155043 30.9028 0.552921 31.4816C0.9508 32.0603 1.53108 32.4891 2.20115 32.6994C2.87122 32.9098 3.59244 32.8896 4.2497 32.6421L6.44933 31.778C7.29619 31.4589 8.21103 31.3635 9.10549 31.5011C9.99995 31.6387 10.8438 32.0047 11.5556 32.5635L13.3625 33.9776L25.8532 46.5469L27.2673 48.4323C27.8262 49.1441 28.1921 49.988 28.3297 50.8824C28.4673 51.7769 28.3719 52.6917 28.0529 53.5386L27.1887 55.7382C26.9295 56.3952 26.9052 57.1215 27.1199 57.7943C27.3346 58.4672 27.7752 59.0451 28.3671 59.4305C28.9386 59.8381 29.6328 60.0372 30.3335 59.9943C31.0342 59.9514 31.6989 59.6691 32.2164 59.1948L35.7516 55.9739C37.9252 54.0092 39.4579 51.4363 40.1508 48.5894L42.3505 39.948C44.1369 38.6704 45.8181 37.2518 47.3782 35.7059C58.8477 24.2364 61.6758 7.18921 58.9263 2.39716ZM5.34951 28.8713L3.14988 29.7354L6.37077 26.2003C7.89599 24.5034 9.89268 23.2999 12.1055 22.7437L17.4475 21.4083C15.8331 24.2227 14.5167 27.1978 13.5196 30.2853H13.441C12.3259 29.3771 10.9964 28.7702 9.57975 28.5226C8.16306 28.2751 6.70655 28.3951 5.34951 28.8713ZM37.1656 47.8824C36.6095 50.0952 35.406 52.0919 33.709 53.6171L30.1739 56.838L31.0381 54.6384C31.5466 53.3009 31.7053 51.8557 31.4991 50.4397C31.2929 49.0237 30.7286 47.6838 29.8597 46.5469L29.7026 46.3898C32.7903 45.3932 35.7655 44.0767 38.5797 42.4619L37.1656 47.8824ZM45.2571 33.4277C40.2904 38.2856 34.1869 41.8234 27.5029 43.7188L16.1906 32.3279C18.0752 25.6798 21.5849 19.6054 26.4031 14.6522C37.4798 3.57553 53.1129 1.84725 56.0196 3.73265H56.1767C57.8264 6.71786 56.4909 22.1938 45.2571 33.4277Z" fill="#FF7D59"/>
<path d="M4.79967 55.1098L5.11391 55.3455C6.13909 55.9314 7.31337 56.2045 8.49191 56.131L10.7701 55.8954C13.4063 55.4566 15.8457 54.2232 17.7618 52.3602C18.7522 51.3658 19.6223 50.2584 20.3542 49.0608C20.5262 48.7639 20.5962 48.4189 20.5537 48.0784C20.5111 47.738 20.3583 47.4208 20.1185 47.1754L12.7341 39.6338C12.4981 39.3814 12.1855 39.2138 11.8446 39.157C11.5038 39.1002 11.1537 39.1573 10.8487 39.3196C9.61617 40.0663 8.48144 40.9635 7.47065 41.9905C3.6213 45.8399 2.99283 52.2031 4.40688 54.4813L4.79967 54.9527V55.1098ZM9.67029 44.2687L11.3986 42.8547L16.9762 48.5894L15.5622 50.2392C12.6555 53.1458 8.09912 53.3029 7.07786 52.8316C6.0566 52.3602 6.76363 47.254 9.67029 44.3473V44.2687Z" fill="#FF7D59"/>
<path d="M39.5223 11.4313C38.653 12.314 38.064 13.4339 37.8293 14.6504C37.5946 15.8669 37.7246 17.1255 38.2031 18.2683C38.6816 19.4111 39.4871 20.3869 40.5186 21.0732C41.55 21.7596 42.7612 22.1257 44.0001 22.1257C45.239 22.1257 46.4503 21.7596 47.4817 21.0732C48.5131 20.3869 49.3187 19.4111 49.7971 18.2683C50.2756 17.1255 50.4057 15.8669 50.171 14.6504C49.9362 13.4339 49.3472 12.314 48.4779 11.4313C47.8932 10.8375 47.1961 10.3659 46.4274 10.044C45.6586 9.72216 44.8335 9.5564 44.0001 9.5564C43.1667 9.5564 42.3416 9.72216 41.5729 10.044C40.8041 10.3659 40.1071 10.8375 39.5223 11.4313ZM46.1997 18.1087C45.7584 18.5434 45.1984 18.8379 44.5902 18.9553C43.982 19.0726 43.3526 19.0076 42.7812 18.7683C42.2099 18.5291 41.7219 18.1263 41.3788 17.6106C41.0356 17.0949 40.8525 16.4893 40.8525 15.8698C40.8525 15.2504 41.0356 14.6448 41.3788 14.129C41.7219 13.6133 42.2099 13.2106 42.7812 12.9713C43.3526 12.7321 43.982 12.6671 44.5902 12.7844C45.1984 12.9018 45.7584 13.1963 46.1997 13.6309C46.4967 13.9233 46.7324 14.2718 46.8934 14.6562C47.0543 15.0406 47.1372 15.4531 47.1372 15.8698C47.1372 16.2865 47.0543 16.6991 46.8934 17.0835C46.7324 17.4678 46.4967 17.8163 46.1997 18.1087Z" fill="#FF7D59"/>
</svg>
