<svg width="60" height="60" viewBox="0 0 60 60" fill="none" xmlns="http://www.w3.org/2000/svg">
<path d="M0.988598 56.3501H10.8746H14.829C15.3757 56.3501 15.8176 55.9072 15.8176 55.3615V54.3729H18.5501L29.1192 59.6579C29.5769 59.8863 30.0712 60.001 30.5655 60C31.127 60 31.6895 59.8527 32.1927 59.559L53.76 46.9782C54.7476 46.4008 55.3615 45.3311 55.3615 44.1873C55.3615 43.2314 54.9413 42.3298 54.2108 41.7149C53.4782 41.099 52.5104 40.8429 51.5771 41.0041L31.9713 44.4137L26.4025 38.845C26.2176 38.6591 25.9665 38.5553 25.7035 38.5553H14.829H10.8746H0.988598C0.441903 38.5553 0 38.9982 0 39.5439V55.3615C0 55.9072 0.441903 56.3501 0.988598 56.3501ZM33.0834 48.3207C33.4245 48.6627 33.6123 49.1165 33.6123 49.5989C33.6123 50.5964 32.8017 51.4071 31.8052 51.4071C31.3297 51.4071 30.864 51.2143 30.5269 50.8772L25.4139 45.7651L24.016 47.163L29.129 52.2751C29.8438 52.9908 30.7929 53.3843 31.8052 53.3843C33.8911 53.3843 35.5895 51.6868 35.5895 49.5989C35.5895 48.5886 35.1961 47.6385 34.4813 46.9228L33.6815 46.123L51.9152 42.9516C52.284 42.8863 52.6537 42.9892 52.9374 43.2274C53.2212 43.4667 53.3843 43.8166 53.3843 44.1873C53.3843 44.6312 53.146 45.0464 52.7625 45.2708L31.1962 57.8508C30.8304 58.0643 30.3846 58.0781 30.0039 57.8893L19.2263 52.5005C19.0888 52.4313 18.9366 52.3957 18.7834 52.3957H15.8176V40.5325H25.2943L33.0834 48.3207ZM13.8404 54.3729H11.8632V40.5325H13.8404V54.3729ZM1.9772 40.5325H9.88598V54.3729H1.9772V40.5325Z" fill="#FF7D59"/>
<path d="M54.3729 6.92019H42.5097V2.96579C42.5097 1.33065 41.179 0 39.5439 0H33.6123C31.9772 0 30.6465 1.33065 30.6465 2.96579V6.92019H18.7833C16.0578 6.92019 13.8403 9.13761 13.8403 11.8632V31.6351C13.8403 34.3607 16.0578 36.5781 18.7833 36.5781H54.3729C57.0984 36.5781 59.3158 34.3607 59.3158 31.6351V11.8632C59.3158 9.13761 57.0984 6.92019 54.3729 6.92019ZM15.8175 18.204L17.0958 19.4823C17.2807 19.6682 17.5318 19.772 17.7947 19.772H31.6351V24.715C31.6351 25.2607 32.077 25.7035 32.6237 25.7035H40.5325C41.0792 25.7035 41.5211 25.2607 41.5211 24.715V19.772H55.3615C55.6244 19.772 55.8755 19.6682 56.0604 19.4823L57.3386 18.204V27.749C53.7678 28.1968 50.9355 31.0301 50.4867 34.6009H22.6695C22.2217 31.0301 19.3883 28.1978 15.8175 27.749V18.204ZM37.5667 21.7492V19.772H39.5439V23.7264H33.6123V19.772H35.5895V21.7492H37.5667ZM32.6237 2.96579C32.6237 2.42108 33.0666 1.9772 33.6123 1.9772H39.5439C40.0896 1.9772 40.5325 2.42108 40.5325 2.96579V6.92019H32.6237V2.96579ZM18.7833 8.89738H31.6351H41.5211H54.3729C56.008 8.89738 57.3386 10.228 57.3386 11.8632V15.4083L54.9522 17.7948H40.5325H32.6237H18.204L15.8175 15.4083V11.8632C15.8175 10.228 17.1482 8.89738 18.7833 8.89738ZM15.8175 31.6351V29.7469C18.2959 30.1651 20.2524 32.1225 20.6715 34.6009H18.7833C17.1482 34.6009 15.8175 33.2703 15.8175 31.6351ZM54.3729 34.6009H52.4846C52.9028 32.1225 54.8602 30.1661 57.3386 29.7469V31.6351C57.3386 33.2703 56.008 34.6009 54.3729 34.6009Z" fill="#FF7D59"/>
</svg>
