<svg width="63" height="62" viewBox="0 0 63 62" fill="none" xmlns="http://www.w3.org/2000/svg">
<path d="M3.564 24.2147C2.38594 24.2147 1.41577 23.2446 1.41577 22.0665V3.42542C1.41577 2.24736 2.38594 1.27719 3.564 1.27719H23.1753C24.2147 1.27719 25.1849 1.69298 25.1849 2.73244V10.9789C25.1849 11.5332 24.3533 11.3253 24.3533 11.3253C23.6603 11.3253 23.0367 10.9789 22.6902 10.3552C21.9279 8.96923 20.4726 7.86047 18.7402 7.86047C16.3148 7.86047 14.3051 9.7315 14.3051 12.1569C14.3051 15.1367 17.3542 17.2156 20.1954 16.3841C21.027 16.1762 21.72 15.6911 22.2051 14.9288C22.6209 14.3745 23.1753 14.028 23.8682 14.028C23.8682 14.028 25.1156 13.6122 25.1156 14.6516V22.2744C25.1156 23.3138 23.8682 24.284 22.8288 24.284L3.564 24.2147ZM25.2542 22.413C25.2542 23.4524 26.5015 24.6998 27.541 24.6998H35.1637C36.2032 24.6998 35.7874 23.4524 35.7874 23.4524C35.7874 22.7595 35.4409 22.2051 34.8866 21.7893C34.1243 21.3042 33.7085 20.5419 33.4313 19.7797C32.5997 16.9385 34.6787 13.8894 37.6585 13.8894C40.0839 13.8894 41.9549 15.899 41.9549 18.3244C41.9549 20.0569 40.8462 21.5121 39.4602 22.2744C38.8365 22.5516 38.49 23.2446 38.49 23.9375C38.49 23.9375 38.2821 24.7691 38.8365 24.7691H47.083C48.1224 24.7691 48.5382 23.7296 48.5382 22.7595V3.14822C48.5382 1.97016 47.568 1 46.39 1H27.8875C26.7094 1 25.3235 2.03946 25.3235 3.21752L25.2542 22.413ZM34.2629 34.6094C33.5006 32.3918 30.9366 31.0752 28.5805 31.7682C27.7489 31.9761 26.9866 32.4611 26.5015 33.2234C26.0858 33.7778 25.0463 34.1243 24.4226 34.1243L23.591 34.1936V25.8779C23.591 24.8384 23.3831 24.284 22.3437 24.284H14.7209C13.6815 24.284 14.0973 25.4621 14.0973 25.4621C14.0973 26.155 14.4437 26.5708 14.9981 26.9866C15.7604 27.4717 16.1762 28.1647 16.4534 28.9963C17.2849 31.8375 15.206 34.8866 12.2262 34.8866C9.80079 34.8866 7.92977 32.9462 7.92977 30.4515C7.92977 28.7191 9.03851 27.2638 10.4245 26.5708C11.0481 26.2936 11.3947 25.67 11.3947 24.977C11.3947 24.977 11.6025 24.2147 11.0482 24.2147H2.80172C1.76226 24.2147 1 24.977 1 26.0165V45.6277C1 46.8058 2.31664 49.3005 3.4947 49.3005H22.1358C23.3139 49.3005 23.6603 46.8058 23.6603 45.6277V36.8269C24.284 36.8269 25.3235 36.9655 25.6007 37.4506C26.6401 39.3909 29.7585 40.9848 32.1147 39.7374C33.9164 38.7672 34.9559 36.619 34.2629 34.6094ZM60.3881 40.1532L53.2505 36.7576C53.6662 35.8567 54.2899 35.4409 54.9136 35.4409C57.0618 35.3716 59.4179 33.5699 59.2793 30.9366C59.1407 28.7884 57.6855 26.9173 55.5373 26.6401C53.2504 26.3629 50.9636 28.0261 50.5478 30.5208C50.4092 31.3524 50.5478 32.184 50.9636 32.9462C51.3101 33.5006 51.2408 34.4708 50.9636 35.0944C50.9636 35.0944 50.8943 35.3023 50.825 35.5795L42.5093 31.6296C41.6084 31.2138 40.4997 32.0454 40.0839 32.9462L36.8269 39.876C36.4111 40.7769 37.6585 40.9155 37.6585 40.9155C38.2821 41.1927 38.8365 41.054 39.3909 40.7076C40.1532 40.2918 40.9848 40.1532 41.8163 40.2918C44.7961 40.7769 46.5979 43.9646 45.3505 46.5979C44.3111 48.8154 41.747 49.647 39.5295 48.6075C38.0049 47.8452 37.1041 46.2514 37.1041 44.6575C37.1041 43.9646 36.6883 43.4102 36.0646 43.133C36.0646 43.133 35.4409 42.6479 35.2331 43.133L31.6989 50.6171C31.2831 51.5873 31.976 51.8645 32.9462 52.2803L50.6864 60.6653C51.7259 61.1504 53.0425 61.2197 53.5276 60.1109L61.4969 43.2716C61.9127 42.44 61.4276 40.7076 60.3881 40.1532Z" stroke="#FF7D59" stroke-width="2" stroke-miterlimit="10" stroke-linecap="round" stroke-linejoin="round"/>
</svg>
