<svg width="57" height="59" viewBox="0 0 57 59" fill="none" xmlns="http://www.w3.org/2000/svg">
<path d="M55.7174 9.60333C55.3745 9.26129 54.9191 9.07258 54.4355 9.07258H29.0323V8.16532C29.0323 7.43861 28.7483 6.75454 28.2348 6.24103C27.7213 5.72661 27.0372 5.44355 26.3105 5.44355H20.8669C20.6247 5.44355 20.397 5.34919 20.2255 5.17772C20.054 5.00625 19.9597 4.77853 19.9597 4.53629C19.9597 4.29405 20.054 4.06633 20.2255 3.89486C20.397 3.72339 20.6247 3.62903 20.8669 3.62903H31.754C32.4817 3.62903 33.1657 3.34506 33.6792 2.83155C34.1927 2.31804 34.4758 1.63306 34.4758 0.907258V0H32.6613V0.907258C32.6613 1.1495 32.5669 1.37722 32.3946 1.5496C32.224 1.72016 31.9972 1.81452 31.754 1.81452H20.8669C20.1402 1.81452 19.4562 2.09758 18.9426 2.612C18.4282 3.1255 18.1452 3.80958 18.1452 4.53629C18.1452 5.263 18.4282 5.94708 18.9426 6.46058C19.4562 6.975 20.1402 7.25806 20.8669 7.25806H26.3105C26.5527 7.25806 26.7804 7.35242 26.9519 7.52389C27.1234 7.69536 27.2177 7.92308 27.2177 8.16532V9.07258H1.81452C1.33004 9.07258 0.874597 9.26129 0.531653 9.60423C0.18871 9.94718 0 10.4026 0 10.8871V30.8468C0 31.3303 0.18871 31.7858 0.530746 32.1287C0.872782 32.4726 1.32913 32.6613 1.81452 32.6613H5.44355V41.899L8.16532 49.1571V51.0578C8.03105 51.1367 7.90131 51.2265 7.78881 51.3399C7.44677 51.682 7.25806 52.1374 7.25806 52.621V58.0645H9.07258V52.621H19.9597V58.0645H21.7742V52.621C21.7742 52.1374 21.5855 51.682 21.2434 51.339C21.13 51.2256 21.0012 51.1358 20.8669 51.0569V49.3576C21.884 48.2779 25.4032 44.2896 25.4032 40.8457V36.2903C25.4032 35.5627 25.1193 34.8786 24.6057 34.3651C23.8663 33.6266 22.735 33.4279 21.7742 33.7509V32.6613H34.4758V33.7518C33.5141 33.4288 32.3828 33.6266 31.6443 34.366C31.1307 34.8795 30.8468 35.5636 30.8468 36.2903V40.8457C30.8468 44.2896 34.366 48.277 35.3831 49.3576V51.0569C35.2488 51.1358 35.12 51.2256 35.0075 51.3381C34.6645 51.681 34.4758 52.1365 34.4758 52.621V58.0645H36.2903V52.621H47.1774V58.0645H48.9919V52.621C48.9919 52.1365 48.8032 51.681 48.4603 51.3381C48.3478 51.2256 48.219 51.1358 48.0847 51.0569V49.1562L50.8065 41.8981V32.6613H54.4355C54.92 32.6613 55.3754 32.4726 55.7183 32.1296C56.0613 31.7867 56.25 31.3313 56.25 30.8468V10.8871C56.25 10.4017 56.0613 9.94536 55.7174 9.60333ZM22.0391 35.6498C22.383 35.3059 22.979 35.3059 23.3229 35.6498C23.4944 35.8204 23.5887 36.0472 23.5887 36.2903V40.8457C23.5887 43.4921 20.5058 47.1602 19.3173 48.3496L19.0524 48.6163V50.8065H9.97984V48.8268L7.25806 41.5688V29.9395C7.25806 29.6973 7.35242 29.4696 7.52389 29.2981C7.86684 28.9551 8.46381 28.9551 8.80675 29.2981C8.97823 29.4696 9.07258 29.6973 9.07258 29.9395V35.3831H10.8871V29.9395V28.125C10.8871 27.8828 10.9815 27.655 11.1529 27.4836C11.4959 27.1406 12.0928 27.1406 12.4358 27.4836C12.6073 27.655 12.7016 27.8828 12.7016 28.125V35.3831H14.5161V28.125V26.3105C14.5161 26.0682 14.6105 25.8405 14.782 25.6691C15.1249 25.3261 15.7219 25.3261 16.0648 25.6691C16.2363 25.8405 16.3306 26.0682 16.3306 26.3105V28.125V35.3831H18.1452V28.125C18.1452 27.8828 18.2395 27.655 18.411 27.4836C18.7539 27.1406 19.3509 27.1406 19.6939 27.4836C19.8653 27.655 19.9597 27.8828 19.9597 28.125V39.9194H21.7742V36.2903C21.7742 36.0472 21.8685 35.8204 22.0391 35.6498ZM48.9919 41.5688L46.2702 48.8268V50.8065H37.1976V48.6163L36.9318 48.3505C35.7442 47.1602 32.6613 43.4921 32.6613 40.8457V36.2903C32.6613 36.0481 32.7556 35.8204 32.9271 35.6489C33.271 35.3069 33.8661 35.3069 34.21 35.6489C34.3815 35.8204 34.4758 36.0481 34.4758 36.2903V39.9194H36.2903V28.125C36.2903 27.8828 36.3847 27.655 36.5571 27.4827C36.8991 27.1406 37.4961 27.1406 37.8381 27.4827C38.0105 27.655 38.1048 27.8828 38.1048 28.125V35.3831H39.9194V28.125V26.3105C39.9194 26.0682 40.0137 25.8405 40.1861 25.6681C40.5281 25.3261 41.1251 25.3261 41.4671 25.6681C41.6395 25.8405 41.7339 26.0682 41.7339 26.3105V28.125V35.3831H43.5484V28.125C43.5484 27.8828 43.6427 27.655 43.8151 27.4827C44.1572 27.1406 44.7541 27.1406 45.0962 27.4827C45.2686 27.655 45.3629 27.8828 45.3629 28.125V29.9395V35.3831H47.1774V29.9395C47.1774 29.6973 47.2718 29.4696 47.4442 29.2972C47.7862 28.9551 48.3832 28.9551 48.7252 29.2972C48.8976 29.4696 48.9919 29.6973 48.9919 29.9395V41.5688ZM54.4355 30.8468H50.8065V29.9395C50.8065 29.2137 50.5234 28.5296 50.0099 28.0152C49.246 27.2504 48.0584 27.0563 47.0767 27.4291C46.9551 26.9701 46.7256 26.5455 46.3808 26.2007C45.6169 25.4359 44.4293 25.2417 43.4477 25.6146C43.3261 25.1555 43.0966 24.7309 42.7518 24.3862C41.7239 23.3574 39.9293 23.3574 38.9014 24.3862C38.5567 24.7309 38.3271 25.1555 38.2055 25.6146C37.2239 25.2417 36.0363 25.4359 35.2724 26.2007C34.7589 26.7151 34.4758 27.3992 34.4758 28.125V30.8468H21.7742V28.125C21.7742 27.3983 21.4911 26.7142 20.9767 26.2007C20.2128 25.4359 19.0252 25.2417 18.0445 25.6146C17.9229 25.1555 17.6933 24.7309 17.3477 24.3862C16.3198 23.3574 14.527 23.3574 13.4991 24.3862C13.1543 24.7309 12.9239 25.1555 12.8023 25.6146C11.8207 25.2417 10.634 25.4359 9.87006 26.2007C9.5253 26.5455 9.29486 26.9701 9.17329 27.4291C8.19163 27.0563 7.00494 27.2504 6.24103 28.0152C5.72661 28.5287 5.44355 29.2128 5.44355 29.9395V30.8468H1.81452V10.8871H54.4355V30.8468Z" fill="#FF7D59"/>
</svg>
