<svg xmlns="http://www.w3.org/2000/svg" width="25" height="25.131" viewBox="0 0 25 25.131"><defs><style>.a{fill:#707070;stroke:#fff;}</style></defs><g transform="translate(0.5 0.5)"><path class="a" d="M763.188,618.5a5.964,5.964,0,0,1-2.235-.95,4.435,4.435,0,0,1-1.856-3.577c-.023-4.271-.035-8.542,0-12.812a4.6,4.6,0,0,1,4.615-4.543c3-.022,6-.008,9.006-.005a1.037,1.037,0,1,1,0,2.053q-4.342,0-8.684,0a2.66,2.66,0,0,0-2.9,2.9q-.006,5.978,0,11.955a2.687,2.687,0,0,0,2.936,2.926q6,.005,12.009,0a2.685,2.685,0,0,0,2.915-2.9c.008-2.716,0-5.432,0-8.149a3.018,3.018,0,0,1,.053-.691,1.007,1.007,0,0,1,1.951.007,2.818,2.818,0,0,1,.048.638q0,4.02,0,8.041A4.678,4.678,0,0,1,777,618.435c-.031.007-.056.04-.083.062Z" transform="translate(-759.074 -594.365)"/><path class="a" d="M784.766,592.874a3.911,3.911,0,0,1,1.534.716,3.006,3.006,0,0,1,.256,4.387c-1.97,2.191-3.968,4.356-5.955,6.532q-2.221,2.433-4.439,4.868a2.854,2.854,0,0,1-1.028.743c-1.051.444-2.1.9-3.138,1.364a1.451,1.451,0,0,1-2.033-1.837c.4-1.163.784-2.33,1.169-3.5a1.849,1.849,0,0,1,.409-.68q5.259-5.752,10.508-11.513a3.964,3.964,0,0,1,1.859-1.081Zm-.4,2.062a1.274,1.274,0,0,0-.88.505q-4.022,4.411-8.045,8.821c-.295.325-.853.629-.792,1,.057.351.6.61.9.937.277.3.451.3.743-.023,2.561-2.833,5.144-5.646,7.72-8.467.373-.408.751-.813,1.105-1.237a.848.848,0,0,0,.086-1A.992.992,0,0,0,784.368,594.936Zm-12.032,14.138c.338-.143.576-.224.794-.34a5.242,5.242,0,0,0,1.357-.682c-.373-.356-.751-.708-1.119-1.07-.167-.164-.285-.2-.37.064C772.791,607.685,772.581,608.325,772.336,609.073Z" transform="translate(-763.385 -592.874)"/></g></svg>