<svg xmlns="http://www.w3.org/2000/svg" width="33.034" height="33" viewBox="0 0 33.034 33"><defs><style>.a{fill:#503c6e;}</style></defs><g transform="translate(0 -0.009)"><path class="a" d="M30.746.009C32.452.7,33.082,1.538,33.03,3.03a2.918,2.918,0,0,1-1.022,2.022c-3.12,3.056-6.227,6.122-9.358,9.165a1.557,1.557,0,0,0-.508,1.246c.02,3.814-.013,7.629.022,11.443a3.219,3.219,0,0,1-1.984,3.228c-1.7.807-3.36,1.679-5.047,2.5a2.828,2.828,0,0,1-4.272-2.646q-.022-7.229.006-14.456a1.727,1.727,0,0,0-.56-1.375c-3.045-2.953-5.992-6.01-9.117-8.87C-.534,3.714-.556.875,2.263.009ZM2.757,2.885c.334.3.525.464.7.639Q8.3,8.272,13.142,13.017a1.649,1.649,0,0,1,.551,1.31c-.022,5.049-.006,10.1-.022,15.144,0,.591.066.763.674.44q2.155-1.145,4.37-2.178A.969.969,0,0,0,19.34,26.7c-.02-4.144,0-8.288-.02-12.432a1.493,1.493,0,0,1,.485-1.186q3.411-3.3,6.781-6.642c1.167-1.158,2.294-2.356,3.454-3.553Z" transform="translate(0 0)"/></g></svg>