<svg xmlns="http://www.w3.org/2000/svg" width="609.709" height="567.113" viewBox="0 0 609.709 567.113">
  <g id="Group_15" data-name="Group 15" transform="translate(-1348.085 1220.052)">
    <path id="Path_1" data-name="Path 1" d="M1999.252-962.3c-12.707,10.33-30.764,21.795-45.634,26.731l22.092,4.16L1884.453-823.8l-181.889,52.347L1487.313-541.9l169.558-.058,86.4-138.71,173.092-102.838,67.225-143.258,14.321,17.336C1995.04-924.833,1996.353-946.182,1999.252-962.3Z" transform="translate(-60.628 -112.239)" fill="#f7cc7f"/>
    <path id="Path_2" data-name="Path 2" d="M1410.467-574.193s-9.858-17.671-12.257-21.427-8.646-18.682-8.87-19.271,4.3-7.652,3.292-7.894-2.128,3.724-3.206,3.25-4.227-10.021-4.841-9.548c-1.149.886,1.7,5.923,1.085,6.24s-2.468-5.541-3.672-5.369,2.289,5.37,1.952,5.829-3.961-4.438-4.616-3.394c-.356.567,3.333,4.275,2.624,4.622s-3.99-2.046-4.337-1.356,3.034,1.635,4.046,3.5,2.734,2.665,3.449,6.111,1.784,15.914,5.448,22.135,11.721,19.989,11.721,19.989Z" transform="translate(-12.851 -257.334)" fill="#f79c8d"/>
    <path id="Path_3" data-name="Path 3" d="M1425.021-541.985s10.9,11.753,12.526,16.489-1.581,11.512-6,11.809-14.261-20.861-14.261-20.861Z" transform="translate(-30.133 -295.268)" fill="#355389"/>
    <path id="Path_4" data-name="Path 4" d="M1503.088-430.115c-.794-.664-1.753-.363-4.509-1.637a16.86,16.86,0,0,0-2.565-.766.316.316,0,0,1-.242-.23c-.838-3.168-4.506-17.817-4.909-22.041-.412-4.32-3.2-22.634-3.623-25.419a.319.319,0,0,0-.4-.259l-8,2.232a.319.319,0,0,0-.226.378c.494,2.183,3.571,15.889,4.475,22.826.72,5.53,8.959,23.271,9.124,24.405l0,.032a.694.694,0,0,0,.687.594c2.032,0,8.548,0,8.92,0C1502.158-430,1503.335-429.907,1503.088-430.115Z" transform="translate(-56.834 -322.052)" fill="#f48c7f"/>
    <path id="Path_5" data-name="Path 5" d="M1483.445-503.543c-4.26-12.92-9.023-12.37-9.023-12.37l3.684,27.164c2.63-.719,6.055-2.32,8.682-3.062A118.468,118.468,0,0,0,1483.445-503.543Z" transform="translate(-55.014 -306.62)" fill="#13375b"/>
    <path id="Path_6" data-name="Path 6" d="M1464.718-562.615c-1.3-8.5-8.992-14.607-17.032-10.484a19.081,19.081,0,0,0-5.505,4.412c-3.377,4.333-4.24,9.686-7.728,13.894a34.446,34.446,0,0,0,4.676,2.97l2.172-2.9-.748,3.614c5.4,2.583,13.021,4.714,23.447,4.654A45.068,45.068,0,0,0,1464.718-562.615Z" transform="translate(-37.609 -281.145)" fill="#f7cc7f"/>
    <path id="Path_7" data-name="Path 7" d="M1477.023-310.8a34.408,34.408,0,0,0-6.137-3.4c-.255-.124-1.186-.717-1.522-.922a11.844,11.844,0,0,1-2.442-2.162c-.7-.784-1.037-3.3-1.2-5.3.4-4.473,6.885-76.212,8.252-83.978,1.411-8.016-.738-20.244-.738-20.244l-5-1.887-9.5,32.923.749,25.061s-2.233,7.224-2.516,11.54,3.229,39.356,3.229,39.356h0a18.305,18.305,0,0,1-.188,3.094c-.258,1.311-1.693,4.009-1.035,5.242a3.31,3.31,0,0,0,1.411,1.542l17.069.276C1478.387-309.644,1477.772-310.244,1477.023-310.8Z" transform="translate(-47.408 -344.602)" fill="#f48c7f"/>
    <path id="Path_8" data-name="Path 8" d="M1426.915-432.045s-5.927,8.941-7.338,16.341,1.036,30.142-1.679,39.838c-1.469,5.25-7.039,13.355-7.886,20.139s-3.793,26.361-3.793,26.361h0c-.446,2.055-1.144,4.6-2.051,5.779a17.016,17.016,0,0,0-2.233,2.946c-1.035,2.035-.463,5.065.3,6.733.392.856-.027.854.865,1.13a5.48,5.48,0,0,0,6.582-3.1,15.75,15.75,0,0,0,1.291-5.691,26.56,26.56,0,0,1,.934-6.016h0l18.946-46.474,13.716-40.108,3.514-20.657Z" transform="translate(-23.205 -341.933)" fill="#f79c8d"/>
    <path id="Path_9" data-name="Path 9" d="M1409.748-229.155a8.4,8.4,0,0,1-8.248-3.455c-1.042,2.039-1.551,5.081-.784,6.756.675,1.475,2.649,1.433,4.2,1.491a4.056,4.056,0,0,0,3.729-2.288A13.672,13.672,0,0,0,1409.748-229.155Z" transform="translate(-22.757 -429.987)" fill="#86b1f2"/>
    <path id="Path_10" data-name="Path 10" d="M1470.76-227.817a15.42,15.42,0,0,1-9.718-.383c-.482,1.367-1.119,3.082-.781,4.071.414,1.212,1,1.485,1.525,1.5,4.124.108,15.1.256,18.247.3a.515.515,0,0,0,.4-.846C1479.653-224.112,1471.1-227.611,1470.76-227.817Z" transform="translate(-48.806 -431.907)" fill="#86b1f2"/>
    <path id="Path_11" data-name="Path 11" d="M1442.94-373.635q.531.036,1.069.069l.055,0q.527.031,1.059.059l.064,0q.533.028,1.068.051l.054,0q.544.024,1.089.042a70.584,70.584,0,0,0,12.25-.464c1.634-16.364,2.244-31.3,2.849-34.6,1.467-8.017-1.279-20.67-1.279-20.67l-1.311-.235.829-4.686-22.013,2.775s-6.163,8.941-7.631,16.341,1.077,30.141-1.746,39.838C1429.348-375.112,1435.632-374.133,1442.94-373.635Z" transform="translate(-35.386 -342.262)" fill="#f7cc7f"/>
    <path id="Path_12" data-name="Path 12" d="M1446.206-520.039s-7.847-.5-10.952,2.891,6.887,30.221,7.451,34.537-2.878,15.794-2.878,15.794,18.435,3.718,23.7.224c0,0,.565-31.04,0-34.123s-5.269-15.623-6.4-16.856S1446.206-520.039,1446.206-520.039Z" transform="translate(-37.698 -304.813)" fill="#355389"/>
    <path id="Path_13" data-name="Path 13" d="M1457.522-538.77s-.041.231-.113.625c-.35,1.891-1.7,8.164-2.608,9.889-1.1,2.084,3.766,8.731,8.449,7.919,1.394-.241-1.178-6.107-1.055-6.728.236-1.189.558-2.812.886-4.476.186-.939.373-1.891.549-2.784.5-2.542.909-4.621.909-4.621Z" transform="translate(-46.401 -296.591)" fill="#f7a491"/>
    <path id="Path_14" data-name="Path 14" d="M1459.377-538.145c.073-.394.114-.625.114-.625l7.018-.176s-.409,2.079-.91,4.621c-.175.889-.362,1.835-.546,2.768a6.568,6.568,0,0,1-3.351-1.683,8.876,8.876,0,0,1-2.538-3.784C1459.25-537.469,1459.323-537.851,1459.377-538.145Z" transform="translate(-48.37 -296.591)" fill="#f47458"/>
    <path id="Path_15" data-name="Path 15" d="M1462.175-566.971a6.318,6.318,0,0,0-5.381,2.305c-2.074,2.688-4.309,11,.842,15.518s10.24-.6,10.995-6.02S1469.678-567.166,1462.175-566.971Z" transform="translate(-46.331 -284.38)" fill="#f7a491"/>
    <path id="Path_16" data-name="Path 16" d="M1480.066-548.476c-.615,1.2-1.647,1.861-2.305,1.482s-.693-1.659-.078-2.857,1.647-1.861,2.305-1.481S1480.681-549.673,1480.066-548.476Z" transform="translate(-56.243 -291.151)" fill="#f7a491"/>
    <path id="Path_17" data-name="Path 17" d="M1460.158-568.595s-4.419,7.9-7.581,8.269S1449-555.76,1449-555.76s1.13-9.678,4.26-11.544A11.6,11.6,0,0,1,1460.158-568.595Z" transform="translate(-43.944 -283.644)" fill="#f7cc7f"/>
    <path id="Path_18" data-name="Path 18" d="M1454.254-552.084c.257,1.4-.26,2.691-1.155,2.875s-1.829-.8-2.086-2.208.26-2.691,1.155-2.875S1454-553.488,1454.254-552.084Z" transform="translate(-44.792 -289.899)" fill="#f7a491"/>
    <path id="Path_19" data-name="Path 19" d="M1463.687-541.332l4.782.941a2.13,2.13,0,0,1-2.582,1.442C1463.308-539.38,1463.687-541.332,1463.687-541.332Z" transform="translate(-50.331 -295.552)" fill="#fff"/>
    <g id="Group_5" data-name="Group 5" transform="translate(1710.372 -821.083)">
      <rect id="Rectangle_20" data-name="Rectangle 20" width="1.996" height="45.73" transform="translate(98.916 167.051) rotate(169.264)" fill="#3c8f7c"/>
      <path id="Path_20" data-name="Path 20" d="M1999.03-251.518h-2.358l8.789-45.514,1.961.371Z" transform="translate(-1992.802 419.149)" fill="#3c8f7c"/>
      <path id="Path_21" data-name="Path 21" d="M2120.991-251.518h-2.358l8.789-45.514,1.961.371Z" transform="translate(-2045.91 419.149)" fill="#3c8f7c"/>
      <path id="Path_22" data-name="Path 22" d="M2032.379-251.36l1.915.023-8.427-45.333-1.96.372Z" transform="translate(-2004.661 418.992)" fill="#184655"/>
      <path id="Path_23" data-name="Path 23" d="M2051.472-471.953c10.468,1.121,24.016,2.3,37.617,25.384,14.865,25.225,7.04,62.906-4.692,73.376s-50.051,23.4-82.262,4.044c0,0-19.449-11.729-9.468-31.2,15.361-29.957,13.19-36.2,20.058-47.944S2029.25-474.333,2051.472-471.953Z" transform="translate(-1989.817 495.433)" fill="#f47458"/>
      <path id="Path_24" data-name="Path 24" d="M2093.963-444.989c-9.283-15.753-18.541-21.3-26.812-23.6a69.28,69.28,0,0,1,9.689,13.079c14.865,25.226,7.04,62.906-4.692,73.377-10.4,9.286-41.717,20.5-71.137,9.422a29.876,29.876,0,0,0,6,5.14c32.211,19.355,70.53,6.427,82.262-4.044S2108.828-419.764,2093.963-444.989Z" transform="translate(-1994.691 493.853)" fill="#b75742"/>
      <path id="Path_25" data-name="Path 25" d="M2037.417-403.836l-2.69,8.072,8.2-3.226Z" transform="translate(-2009.373 465.657)" fill="#f79c8d"/>
      <path id="Path_26" data-name="Path 26" d="M2045.888-446.386c-.546.023-2.045.522-4.235,4.648-2.8,5.269-6.886,21.186-6.886,21.186l12.2,4.529,1.568-3.322,2.583-25.577S2046.041-446.392,2045.888-446.386Z" transform="translate(-2009.39 484.186)" fill="#6394db"/>
      <path id="Path_27" data-name="Path 27" d="M2070-450.45c-3.49,0-12.125,1.02-16.133,2.3,0,0-2.944,25.22,2.651,44.383,1.252,4.29-1.036,17.783-1.036,17.783l36.163-.475s-4.284-32.62-2.67-37.889,1.652-23.632,1.652-23.632-.248-.038-8.125-1.395A82.053,82.053,0,0,0,2070-450.45Z" transform="translate(-2017.372 485.956)" fill="#86b1f2"/>
      <path id="Path_28" data-name="Path 28" d="M2088.269-253.352s-.8,9.2-2.271,11.751.077,6.881.155,7.476,3.1,1.444,7.9.934,4.723-1.614,4.336-3.4-2.942-4.078-3.1-5.776,1.471-7.815,1.471-7.815Z" transform="translate(-2031.424 400.128)" fill="#f7a491"/>
      <path id="Path_29" data-name="Path 29" d="M2039.272-350.157s-24.964-1.381-30.538,1.983,1.008,10.274,1.008,10.274,20.323,8.806,54.346,10.763c8.057.464,8.752-20.937,7.245-22.708S2039.272-350.157,2039.272-350.157Z" transform="translate(-1997.079 442.528)" fill="#e5b05c"/>
      <path id="Path_30" data-name="Path 30" d="M2094.248-222.986c4.943-.525,4.332-2.945,3.933-4.782-.249-1.151-1.668-2.506-2.513-3.789a8.253,8.253,0,0,1-3.307,1.6c-2.229.656-5.284-.642-7.231-1.455a23.7,23.7,0,0,0-.661,6.354C2084.549-224.443,2089.3-222.461,2094.248-222.986Z" transform="translate(-2031.024 390.637)" fill="#f47458"/>
      <path id="Path_31" data-name="Path 31" d="M2092.4-332.167c-1,7.521-5.936,44.965-5.936,44.965l11.458,1.416s14.09-48.872,13.368-56.348-6-8.1-6-8.1S2095.037-352.078,2092.4-332.167Z" transform="translate(-2031.901 442.337)" fill="#f7cc7f"/>
      <path id="Path_32" data-name="Path 32" d="M2087.875-441.148c-3.381-1.264-5.035,29.1-5.491,41.6-5.988.574-16.424,0-19.023-.19-1.222-.091-4.04-1.12-5.256-1.279a12.216,12.216,0,0,0-2.987-.141c-.225.039-6.466,2.583-7,3.141-.662.692-2.451,2.437-2.149,3.191s3.443-2.1,3.443-2.1l1.535-.858c-1.911,1.86-5.556,4.31-5.031,5.2.512.87,3.8-1.616,6.143-3.31-2.01,1.809-4.507,5.046-3.932,5.551.517.454,3.357-3.294,6.393-4.373,1.125-.4,2.246.707,3.13.841a6.389,6.389,0,0,0,2.292.128l3.286-.929c1.119.1,1.147.761,2.278,1,1.312.278,3.465.571,5.137.978,9.624,2.343,12.834,3.432,15.781,3.43C2095.348-389.279,2095.866-438.16,2087.875-441.148Z" transform="translate(-2014.223 481.921)" fill="#f7a491"/>
      <path id="Path_33" data-name="Path 33" d="M2121.067-414.832c.634-12.8.541-28.578-6.66-31.271-2.841-1.062-7.849,5.325-6.948,31.531C2111.3-414.255,2116.946-414,2121.067-414.832Z" transform="translate(-2040.998 484.11)" fill="#86b1f2"/>
      <path id="Path_34" data-name="Path 34" d="M2021.979-239.408s1,3.194-.791,5.307-9.229,4.185-10.205,5.329a3.2,3.2,0,0,0-.9,2.119l20.878-.572-.227-6.285-.961-4.516Z" transform="translate(-1998.641 394.056)" fill="#f7a491"/>
      <path id="Path_35" data-name="Path 35" d="M2017.406-228.511s5.365,2.163,7.956.882,2.513-1.635,3.263-1.158,1.019,6.9,1.019,6.9l-23.478.158c-1.634-.037-2.46-1.237-1.132-2.263a19.239,19.239,0,0,1,2.56-1.517C2009.43-226.56,2017.406-228.511,2017.406-228.511Z" transform="translate(-1996.155 389.52)" fill="#f47458"/>
      <path id="Path_36" data-name="Path 36" d="M2018.383-343.864c-1.614-3.384-5.284-7.791-11.741-5.137-6.159,2.531-7.812,8.752-5.869,15.122s14.736,43.817,15.182,48.966l10.214.068s-1.857-29.652-2.312-36.819C2023.419-328.56,2021.175-338.007,2018.383-343.864Z" transform="translate(-1994.252 442.133)" fill="#f7cc7f"/>
      <path id="Path_37" data-name="Path 37" d="M2001.469-400.37h34.144a2.227,2.227,0,0,1,2.06,1.382l10.513,25.641h18.824a.953.953,0,0,1,.953.952h0a.953.953,0,0,1-.953.952h-53.574a3.74,3.74,0,0,1-3.412-2.208l-10.586-23.581A2.226,2.226,0,0,1,2001.469-400.37Z" transform="translate(-1993.92 464.148)" fill="#355389"/>
      <path id="Path_38" data-name="Path 38" d="M2035.714-375.836a2.008,2.008,0,0,0,2.243,1.72,2.008,2.008,0,0,0,1.409-2.451,2.009,2.009,0,0,0-2.244-1.72A2.007,2.007,0,0,0,2035.714-375.836Z" transform="translate(-2009.782 454.546)" fill="#fff"/>
      <path id="Path_39" data-name="Path 39" d="M2082.819-470.1l1.671,11.011s-6.1,13.11-9.743,11.973c-3.056-.954-1.176-12.554-1.176-12.554s1.666-6.23,1.166-9.347S2082.819-470.1,2082.819-470.1Z" transform="translate(-2026.039 494.798)" fill="#f7a491"/>
      <path id="Path_40" data-name="Path 40" d="M2075.913-469.02c-.5-3.117,8.082-1.083,8.082-1.083l.138.913a5.08,5.08,0,0,1-.93,1.534,11.3,11.3,0,0,1-7.5,3.4A17,17,0,0,0,2075.913-469.02Z" transform="translate(-2027.215 494.798)" fill="#f47458" opacity="0.2"/>
      <g id="Group_4" data-name="Group 4" transform="translate(43.534)">
        <path id="Path_41" data-name="Path 41" d="M2081.585-499.846c.242-.088,1.944,12.541-1.285,16.016s-9.521,4.612-11.777,1.875c-2.5-3.027-2.371-16.6,2.65-20.175S2081.585-499.846,2081.585-499.846Z" transform="translate(-2066.931 508.963)" fill="#f7a491"/>
        <path id="Path_42" data-name="Path 42" d="M2074.466-513.264a13.941,13.941,0,0,1,7.317,4.174c1.762.208,4.157,1.182,6.63,5.276,3.041,5.035.8,10.612-2.745,13.349s-3.49,5.9-3.49,5.9l-.559-1.635a9.134,9.134,0,0,1-.443-3.851,7.509,7.509,0,0,1,.573-2.315c.851-1.828-1.829-3.042-2.58-4.563-.578-1.171-.607-3.849-1.519-5.785l-1.089-1.477s-2.512-1.954-4.969-1.4S2069.488-514.279,2074.466-513.264Z" transform="translate(-2068.314 513.342)" fill="#f7cc7f"/>
        <path id="Path_43" data-name="Path 43" d="M2086.449-482.424c-.025,1.541.675,2.8,1.565,2.817s1.632-1.221,1.657-2.762-.674-2.8-1.563-2.818S2086.475-483.964,2086.449-482.424Z" transform="translate(-2075.43 501.082)" fill="#f7a491"/>
      </g>
      <path id="Path_44" data-name="Path 44" d="M2074.974-472.922l-4.867-.252a2.131,2.131,0,0,0,2.154,2.027C2074.866-470.936,2074.974-472.922,2074.974-472.922Z" transform="translate(-2024.78 495.851)" fill="#fff"/>
    </g>
    <g id="Group_6" data-name="Group 6" transform="translate(1857.271 -879.164)">
      <path id="Path_45" data-name="Path 45" d="M2250.286-592.163c.531,2.182,1.489,5.631,1.489,5.631-.076.948-.356,4.894-.689,9.729l7.107-2.845s-.085-7.879.232-8.361c.269-.408.719.1,2.9-3.017a6.085,6.085,0,0,0,.747-2.507s.13-1.979-.315-2.163a.923.923,0,0,0-1.115.453c-.161.342-.119,1.139-.28,1.481a2.464,2.464,0,0,1-1.622.733c-.433-.021.054-5.854.054-5.854s.241-1.654.364-2.195c.105-.462.524-1.814.524-1.814s.494-1.963-.116-2.113c-.359-.088-1.275,1.507-1.9,3.2-.676,1.823-1.059,3.756-1.252,3.73-.454-.061-.213-3.259-.213-3.259a10.261,10.261,0,0,0,.441-2.156c.427-.847.71-2.419-.041-2.548a12.985,12.985,0,0,0-1.13,1.972s-.389,1.406-.617,2.062c-.4,1.158-.46,2.988-.67,3.795-.173.671-.331.395-.4.423a17,17,0,0,1,.153-2.176,12.89,12.89,0,0,1,.161-2.11,15.3,15.3,0,0,0,.3-2.227c.121-1.654-.92-1.485-1.28.028-.137.576-.281,1.2-.425,1.842-.559,2.479-.544,4.869-.811,4.888-.347.026-.118-4.324-.118-4.324s-.533-2.407-1.062-.173a19.4,19.4,0,0,0-.541,4.8A18.773,18.773,0,0,0,2250.286-592.163Z" transform="translate(-2250.026 611.79)" fill="#f8a492"/>
      <path id="Path_46" data-name="Path 46" d="M2375.011-602.345c-.531,2.182-1.489,5.631-1.489,5.631.076.948.356,4.894.689,9.729l-7.108-2.844s.085-7.879-.232-8.362c-.268-.408-.719.1-2.9-3.016a6.085,6.085,0,0,1-.747-2.508s-.13-1.979.315-2.163a.922.922,0,0,1,1.115.453c.161.342.12,1.138.281,1.48a2.46,2.46,0,0,0,1.622.733c.433-.021-.054-5.854-.054-5.854s-.241-1.654-.364-2.2c-.1-.461-.525-1.814-.525-1.814s-.493-1.963.116-2.113c.359-.088,1.275,1.507,1.9,3.2.676,1.823,1.059,3.756,1.253,3.73.453-.061.212-3.259.212-3.259a10.226,10.226,0,0,1-.44-2.156c-.427-.847-.711-2.418.041-2.548a13.017,13.017,0,0,1,1.13,1.972s.39,1.405.616,2.062a38.5,38.5,0,0,1,.67,3.795c.174.671.331.4.4.423a16.714,16.714,0,0,0-.152-2.176,12.8,12.8,0,0,0-.161-2.11,15.418,15.418,0,0,1-.3-2.228c-.122-1.654.92-1.485,1.28.028.137.576.281,1.2.425,1.843.559,2.479.543,4.868.811,4.888.347.026.118-4.323.118-4.323s.533-2.408,1.062-.173a19.492,19.492,0,0,1,.541,4.8A18.776,18.776,0,0,1,2375.011-602.345Z" transform="translate(-2299.312 616.223)" fill="#f8a492"/>
      <path id="Path_47" data-name="Path 47" d="M2345.255-263.253s3.94,4.886,4.923,5.487-.438,7.7-3.112,8.166c-1.508.263-2.345-1.4-2.345-1.4l.433-2.044-5.63-5.8Z" transform="translate(-2288.997 462.521)" fill="#f7a491"/>
      <path id="Path_48" data-name="Path 48" d="M2308.895-261.114s3.284,5.349,4.181,6.071-1.418,7.581-4.13,7.7c-1.529.067-2.147-1.685-2.147-1.685l.69-1.973-4.843-6.473Z" transform="translate(-2272.939 461.589)" fill="#f7a491"/>
      <path id="Path_49" data-name="Path 49" d="M2312.5-250.733a41.511,41.511,0,0,1-2.916,3.364,34.682,34.682,0,0,1-3.031,2.444s-1.927,3.5-2.455,4.719c-1.173,2.718-2.49,5.746-2.3,7.267.061.488,1.158,1.005,2.073.725,3.807-1.17,13.54-10.074,14.769-12.464C2320.061-247.435,2312.5-250.733,2312.5-250.733Z" transform="translate(-2272.564 457.069)" fill="#13375b"/>
      <path id="Path_50" data-name="Path 50" d="M2268.631-397.191c.353-.99.693-1.9,1.02-2.766,4.049.884,8.622,1.856,13.326,2.858l.573,17.243c0-1.332-3.536,27.5-3.536,27.5s9.141,20.239,15.393,32.035a21.579,21.579,0,0,1-7.486,6.417c-9.706-11.635-22.407-32.924-22.934-36.465C2264.684-352.4,2264.411-385.318,2268.631-397.191Z" transform="translate(-2256.475 522.049)" fill="#3c8f7c"/>
      <path id="Path_51" data-name="Path 51" d="M2318.762-390c-1.237,13.436-3.987,39.122-3.757,41.188.69,2.575,12.925,26.344,15.127,29.805-1.749,2.633-4.457,5.479-7.367,6.266-.574.155-20.765-28.577-21.866-30.857-1.244-2.578-3.317-16.642-3.354-34.052l-.573-17.243C2304.808-393.223,2312.016-391.585,2318.762-390Z" transform="translate(-2270.468 519.844)" fill="#50bfa5"/>
      <path id="Path_52" data-name="Path 52" d="M2279.816-494.712l9.226,1.267s7.38.134,8.3.134,6.725,33.7,8.4,46.368.378,14.909.378,14.909-11.7,2.631-20.352,1.864c-9-.8-19.124-5.656-19.124-5.656s7.693-24.34,9.217-31.94S2279.816-494.712,2279.816-494.712Z" transform="translate(-2257.262 563.311)" fill="#355389"/>
      <path id="Path_53" data-name="Path 53" d="M2250.209-567.954s-.592,25.094.354,27.013c1.376,2.792,16.868,22.59,16.868,22.59s-7.4,30.97-10.512,41.665c-.313,1.077-1.7,8.035-1.7,8.713,0,1.5,6.546,3.413,7.324,3.3.7-.1,6.408-29.561,10.055-43.977a41.23,41.23,0,0,1,6.255-13.621l2.536-3.6-19.463-19.508s-2.4-21.715-2.4-23.514C2259.528-569.369,2251.153-569.723,2250.209-567.954Z" transform="translate(-2250.026 595.782)" fill="#86b1f2"/>
      <path id="Path_54" data-name="Path 54" d="M2315.015-531.231l24.271-24.729s3.382-23.386,3.621-24.266c.236-.865,6.264-1.333,8.693-1.569.78-.076-.407,24.907-1.57,29.1-1.372,4.947-19.718,27.488-19.718,27.488s-3.288,12.209-2.5,21.165c1.315,14.874,4.861,35.335,4.225,35.977-3.944,2.484-19.083,2.75-20.041,1.208C2301.421-483.9,2315.015-531.231,2315.015-531.231Z" transform="translate(-2275.258 601.232)" fill="#86b1f2"/>
      <path id="Path_55" data-name="Path 55" d="M2351.5-253.857a41.553,41.553,0,0,1-2.463,3.709,34.7,34.7,0,0,1-2.693,2.811s-1.465,3.715-1.831,4.993c-.817,2.845-1.738,6.279-1.355,7.764.123.476,1.171,1.387,2.036.824,3.337-2.173,12.256-12.353,13.169-14.881C2359.415-251.553,2351.5-253.857,2351.5-253.857Z" transform="translate(-2290.541 458.429)" fill="#13375b"/>
      <path id="Path_56" data-name="Path 56" d="M2301.246-549.432a24.93,24.93,0,0,0,3.094-.062,14.426,14.426,0,0,1,3.5,0c1.795.378,4.642,1.652,5.593,4.005,1.184,2.931,5.418,2.493.4,13.61-5.677,12.584-12.31,8.464-12.4,8.18s-3.28-10.659-3.28-10.659-3.969,3.935-3.9,3.76S2288.846-549.879,2301.246-549.432Z" transform="translate(-2268.784 587.212)" fill="#0e2e35"/>
      <path id="Path_57" data-name="Path 57" d="M2305.607-506.543l-.661,4.923s-1.481,7.092.425,8.46,8.105-8.662,8.105-8.662l-.655-12.475Z" transform="translate(-2273.702 571.839)" fill="#f7a491"/>
      <path id="Path_58" data-name="Path 58" d="M2313.533-510.253a14.126,14.126,0,0,1-7.986,7.885l.561-4.174,7.214-7.754Z" transform="translate(-2274.203 571.839)" fill="#f47458"/>
      <path id="Path_59" data-name="Path 59" d="M2306.631-539.947a6.565,6.565,0,0,0-9.418,3.541,49.891,49.891,0,0,0-1.712,6.1c-1.186,5.627.675,11.678,3.231,12.165s10.322-1.821,12.115-9.789C2311.956-532.845,2310.354-537.81,2306.631-539.947Z" transform="translate(-2269.669 583.381)" fill="#f7a491"/>
      <path id="Path_60" data-name="Path 60" d="M2319.378-519a2.114,2.114,0,0,0,1.406,2.606,2.119,2.119,0,0,0,2.271-1.905,2.113,2.113,0,0,0-1.406-2.605A2.12,2.12,0,0,0,2319.378-519Z" transform="translate(-2280.204 574.727)" fill="#f7a491"/>
      <path id="Path_61" data-name="Path 61" d="M2313.2-530.8s-3.172-.374-3.544-2.646-2.7-7.749-8.224-7.927,5.836-2.433,6.228-2.285,5.1,1.887,5.1,1.887,2.5,4.344,2.5,4.72-.3,4.338-.3,4.338Z" transform="translate(-2271.752 584.629)" fill="#0e2e35"/>
      <path id="Path_62" data-name="Path 62" d="M2304.47-511.4l-5.658-.982a2.511,2.511,0,0,0,2.229,2.682C2304.059-509.087,2304.47-511.4,2304.47-511.4Z" transform="translate(-2271.267 571.006)" fill="#fff"/>
    </g>
    <g id="Group_9" data-name="Group 9" transform="translate(1597.011 -861.147)">
      <path id="Path_63" data-name="Path 63" d="M1802.27-472.369a5.777,5.777,0,0,0,.607,1.472,55.9,55.9,0,0,0,5.809,7.729l3.14-7.075s-.512-2.221-1.4-5.4C1807.394-474.848,1804.506-474.39,1802.27-472.369Z" transform="translate(-1794.788 536.989)" fill="#f8a492"/>
      <path id="Path_64" data-name="Path 64" d="M1814.617-499.8s-17.514,7.543-18.081,7.4c-.365-.093-7.185-11.508-7.257-22.242-.034-4.958,5.115-10.922,10.86-9.742,2.892.594,2.847,1.4,7.126,7.616S1814.617-499.8,1814.617-499.8Z" transform="translate(-1789.131 558.28)" fill="#13375b"/>
      <path id="Path_65" data-name="Path 65" d="M1859.741-241.183s-.415,6.878-.418,6.893a37.629,37.629,0,0,0-.754,3.825c0,2.982,14.163-2.532,10.988-3.854-.287-.12-1.792-1.025-1.886-2.04-.146-1.564-.515-4.729-.515-4.729Z" transform="translate(-1819.304 434.894)" fill="#f7a491"/>
      <path id="Path_66" data-name="Path 66" d="M1869.135-229.169s-3.325.913-5.028,1.141-3.948-1.693-5.153-1.174c-1.326.571-1.274,5.711-1.274,5.711s17.831,1.463,22.846-.051C1882.513-224.141,1875.933-227.044,1869.135-229.169Z" transform="translate(-1818.917 429.715)" fill="#dd513a"/>
      <path id="Path_67" data-name="Path 67" d="M1808.421-241.183s-.416,6.878-.418,6.893a37.628,37.628,0,0,0-.754,3.825c0,2.982,14.163-2.532,10.988-3.854-.287-.12-2.238-1.7-2.333-2.715-.146-1.564-.069-4.053-.069-4.053Z" transform="translate(-1796.956 434.894)" fill="#f7a491"/>
      <path id="Path_68" data-name="Path 68" d="M1817.735-229.169s-3.325.913-5.028,1.141-3.948-1.693-5.153-1.174c-1.325.571-1.378,5.711-1.378,5.711s17.912,1.705,22.95-.051C1831.082-224.224,1824.533-227.044,1817.735-229.169Z" transform="translate(-1796.489 429.715)" fill="#dd513a"/>
      <g id="Group_7" data-name="Group 7" transform="translate(15.794 14.423)">
        <path id="Path_69" data-name="Path 69" d="M1816.993-504.753l12.474-17.474c.052-.154.165-.466.339-.944.628-1.734,1.936-5.342,3.074-8.932l.012-.038c.358-1.255,1.116-3.443,1.85-5.561.816-2.354,1.827-5.273,1.863-5.772-.031-.085-.09-.238-.168-.44a40.386,40.386,0,0,1-1.295-5.244c-.139-.783-.278-2.686.653-2.686,1.463,0,.766,1.9,1.44,3.087a29.975,29.975,0,0,0,1.014-3.96l.244-3.715c.047-.28-.251-2.329.776-2.329l.049,0c.922.067.9,2.246,1.284,5.932.121-.425.242-.935.334-1.406a13.493,13.493,0,0,1,.312-1.945c-.185-1.027-.078-2.647,1.016-2.494.548.077.5,2.337.5,2.337-.006.31-.038,2.7-.021,3.173.113-.8.551-4.222,1.408-4.222.712,0,.769.921.754,1.648-.009.431-.456,4.137-.481,4.568.335-.562.732-3.828,1.064-3.828,1.388,0,.886,4.643.376,5.853a5.345,5.345,0,0,0-.158.647,11.408,11.408,0,0,1-1.19,3.454c-.871,1.49-2.073,3.86-2.256,4.223-.134.74-.551,3.4-1.077,6.75-.225,1.433-.471,3-.727,4.63l-.014,0c-.047.352-.307,1.472-1.294,5.673-1.35,5.749-1.49,6-1.55,6.1-.586,1.038-14.036,19.3-14.608,20.079l-.338.458Z" transform="translate(-1816.993 558.761)" fill="#f7a491"/>
        <path id="Path_70" data-name="Path 70" d="M1855.918-537.36s-1.012-2.59-2.815-2.594a2.073,2.073,0,0,1,1.871.32A3.57,3.57,0,0,1,1855.918-537.36Z" transform="translate(-1832.717 550.614)" fill="#f47458"/>
      </g>
      <g id="Group_8" data-name="Group 8">
        <path id="Path_71" data-name="Path 71" d="M1810.416-544.6l-1.606,10.155s6.118,4.913,9.685,3.876c2.992-.869.94-4.782.94-4.782s-1.594-5.421-1.1-8.263S1810.416-544.6,1810.416-544.6Z" transform="translate(-1797.636 567.279)" fill="#f7a491"/>
        <path id="Path_72" data-name="Path 72" d="M1812.569-541.534a25.013,25.013,0,0,0,6.925,1.952,13.481,13.481,0,0,1-.163-4.035c.225-1.311-1.444-1.622-3.305-1.577-2.437.209-4.609.59-4.609.59l-.309,1.951A5.04,5.04,0,0,0,1812.569-541.534Z" transform="translate(-1798.636 567.279)" fill="#fe875e"/>
        <path id="Path_73" data-name="Path 73" d="M1797.963-569.105c-.252,0,2.419,11.345,6.553,13.3s10.3.935,11.455-2.121c1.279-3.379-3.388-14.953-9.2-16.423S1797.963-569.105,1797.963-569.105Z" transform="translate(-1792.906 580.066)" fill="#f7a491"/>
        <path id="Path_74" data-name="Path 74" d="M1798.859-583.774a13.021,13.021,0,0,0-5.328,5.886c-1.55.736-3.424,2.326-4.325,6.612-1.107,5.27,2.828,9.332,7,10.554s4.816,3.983,4.816,3.983l.473-2.971a11.762,11.762,0,0,0-2.323-3.881c-1.4-1.295.661-3.181.842-4.72.14-1.185-.733-3.486-.544-5.43,0,0,2.318-3.513,4.6-4.381C1807.968-579.6,1803.1-586.217,1798.859-583.774Z" transform="translate(-1789.017 584.31)" fill="#13375b"/>
        <path id="Path_75" data-name="Path 75" d="M1807.064-553.937c.54,1.31.32,2.611-.493,2.905s-1.909-.529-2.449-1.839-.32-2.611.493-2.905S1806.524-555.247,1807.064-553.937Z" transform="translate(-1795.465 571.911)" fill="#f7a491"/>
      </g>
      <path id="Path_76" data-name="Path 76" d="M1836.837-470.939l24.061-3.923s-2.738-6.892-3.716-6.892-18.194,7.515-18.194,7.515l-1.369,2.75Z" transform="translate(-1809.841 539.651)" fill="#f8a492"/>
      <path id="Path_77" data-name="Path 77" d="M1811.844-434.224s-2.4,11.6-1.422,20.4,1.055,40.053,1.055,40.053l-3.733,50.008,8.857.193s10.5-49.984,10.306-48.7,3.521-35.194,3.521-35.194l-12.52-27.862Z" transform="translate(-1797.172 519.433)" fill="#184655"/>
      <path id="Path_78" data-name="Path 78" d="M1818.707-437.319s-1.565,10.449.391,15.031,16.779,49.546,16.975,53.211,5.125,44.186,5.125,44.186l10.3-.289,2.228-45.051-4.665-56.622-4.529-14.316Z" transform="translate(-1801.688 521.978)" fill="#13375b"/>
      <path id="Path_79" data-name="Path 79" d="M1808.81-528.693a9.247,9.247,0,0,0,4.908,1.473c2.369-.193,5.718-2.378,5.718-2.378l-.465-1.578s-6.128-.892-6.282-.8S1808.81-528.693,1808.81-528.693Z" transform="translate(-1797.636 561.522)" fill="#f7a491"/>
      <path id="Path_80" data-name="Path 80" d="M1856.753-488.924s9.1,8.588,13.21,7.122,5.808-6.479-4.216-13.813C1856.776-502.178,1856.753-488.924,1856.753-488.924Z" transform="translate(-1818.513 546.482)" fill="#f8a492"/>
      <path id="Path_81" data-name="Path 81" d="M1835.491-491.651c-1.352-7.355-11.151-30.245-11.933-34.46-.38-2.05-5.666-2.1-10.7-1.828-5.318.282-10.6.955-10.6.955s-4.708.773-6.778,2.714-2.622,7.308.356,17.5c2.35,8.042,5.264,12.459,6.706,18.317.292,1.965.543,3.9.874,6.169.53,8.759-.006,20.331-.006,20.331s25.627,5.316,35.213-2.749C1838.621-464.706,1836.876-484.115,1835.491-491.651Z" transform="translate(-1791.084 559.813)" fill="#355389"/>
      <path id="Path_82" data-name="Path 82" d="M1857.135-507.24s-10.055,8.3-10.642,8.3c-.378,0-14.35-10.278-17.575-18.721-1.783-4.668,1.957-9.89,6.228-9.873,2.961.012,4.277.775,10.146,5.724S1857.135-507.24,1857.135-507.24Z" transform="translate(-1806.194 559.587)" fill="#466eb6"/>
    </g>
    <path id="Path_83" data-name="Path 83" d="M1874.915-869.344c-2.46-1.66-4.978-3.234-7.4-4.941a2.146,2.146,0,0,1-.784-1.641c.318-3.422.834-6.826,1.13-10.249a1.817,1.817,0,0,1,1.267-1.892c3.367-1.316,6.7-2.723,10.042-4.1.542-.223,1.076-.465,2.012-.871-1.6-5.132-3.175-10.205-4.794-15.407-4.3.854-8.229,1.567-12.119,2.44a2.383,2.383,0,0,1-3-1.123c-1.8-2.6-3.969-4.944-5.911-7.45a1.948,1.948,0,0,1-.253-1.608c1.322-3.422,2.64-6.851,4.167-10.184.732-1.6.367-2.46-1.066-3.2a10,10,0,0,1-1.494-1.165l-7.419-3.99a5.022,5.022,0,0,1-.93-.193c-3.017-1.234-2.436-1.209-4.149,1.309-2.088,3.069-4.125,6.173-5.911,8.854l-13.4-1.253c-1.689-4.1-3.454-8.384-5.23-12.7a51.54,51.54,0,0,0-15.357,4.775c.849,4.232,1.665,8.36,2.512,12.483a1.426,1.426,0,0,1-.618,1.73c-2.839,2.123-5.627,4.322-8.312,6.634a1.678,1.678,0,0,1-2.1.32c-3.432-1.444-6.9-2.807-10.337-4.237a1.445,1.445,0,0,0-2.04.507,45.94,45.94,0,0,0-6.359,12.326c-.315.868.1,1.244.759,1.67,3.033,1.971,6.018,4.016,9.064,5.966a1.811,1.811,0,0,1,.97,2.18c-.606,3.919-.984,7.873-1.486,12.131l-12.182,5.018a48.038,48.038,0,0,0,4.669,15.579l13.166-2.706c2.535,2.923,4.822,5.7,7.279,8.317a2.3,2.3,0,0,1,.55,2.957c-1.446,3.255-2.766,6.567-4.1,9.869-.264.653-.784,1.412.235,1.95q6.216,3.282,12.431,6.567c.881.465,1.437.168,1.97-.662,1.984-3.087,4.1-6.09,6.035-9.209.745-1.2,1.546-1.249,2.8-1.082a84.5,84.5,0,0,0,9.3.841,2.026,2.026,0,0,1,2.282,1.57c1.452,3.826,3.055,7.6,4.567,11.307,3.318,0,12.358-2.833,15.616-4.858-.854-4.073-1.673-8.2-2.608-12.3a1.747,1.747,0,0,1,.855-2.084c2.532-1.993,4.924-4.164,7.437-6.182a2.127,2.127,0,0,1,1.764-.338c3.066,1.2,6.089,2.507,9.111,3.813,1.69.731,2.37,1.032,3.018.6l7.079-13.165C1877.638-867.495,1876.9-868,1874.915-869.344Zm-26.307-4.617a24.191,24.191,0,0,1-32.763,9.85h0a24.192,24.192,0,0,1-9.85-32.764h0a24.191,24.191,0,0,1,32.763-9.849h0a24.191,24.191,0,0,1,9.85,32.763Z" transform="translate(-185.542 -122.513)" fill="#d5c0f4"/>
    <path id="Path_84" data-name="Path 84" d="M1630.014-753.29c-3.979.387-7.944.915-11.927,1.223a2.9,2.9,0,0,1-2.223-1.031c-2.606-3.826-4.992-7.8-7.623-11.611-.766-1.108-.98-1.844-.308-3.053,2.366-4.256,4.617-8.577,6.907-12.876.371-.7.718-1.407,1.34-2.631l-18.2-11.882c-3.736,4.581-7.2,8.691-10.488,12.935-1.159,1.5-2.072,1.973-4.079,1.411-4.1-1.149-8.364-1.726-12.533-2.661a2.627,2.627,0,0,1-1.643-1.453c-1.564-4.687-3.139-9.379-4.415-14.149-.612-2.289-1.73-2.868-3.856-2.411a13.438,13.438,0,0,1-2.55.072l-11.127,2.225a6.792,6.792,0,0,1-1.131.6c-4.192,1.309-3.567.836-3.185,4.921.466,4.978,1.016,9.948,1.462,14.266l-14.992,10.2-16.326-8.692a69.425,69.425,0,0,0-11.846,18.138c4.514,3.666,8.9,7.251,13.322,10.8a1.919,1.919,0,0,1,.843,2.327c-1.125,4.64-2.133,9.317-2.936,14.022a2.26,2.26,0,0,1-1.909,2.137c-4.8,1.448-9.572,3.006-14.369,4.473a1.945,1.945,0,0,0-1.684,2.277,61.9,61.9,0,0,0,3.976,18.255c.419,1.171,1.175,1.2,2.221,1.082,4.84-.556,9.695-.995,14.531-1.585a2.44,2.44,0,0,1,2.878,1.431c2.734,4.589,5.735,9.018,8.869,13.87l-8.341,15.665a64.688,64.688,0,0,0,18.218,12.168l11.347-14.11c5.14.859,9.9,1.781,14.7,2.389a3.1,3.1,0,0,1,3.109,2.6c1.292,4.62,2.764,9.191,4.21,13.768.286.9.4,2.14,1.917,1.824q9.271-1.928,18.543-3.851c1.314-.274,1.636-1.059,1.478-2.378-.59-4.909-.966-9.844-1.639-14.741-.26-1.889.533-2.625,1.974-3.522a113.619,113.619,0,0,0,10.378-7.11c1.417-1.117,2.225-1.176,3.716-.328,4.792,2.726,9.69,5.264,14.446,7.82,3.445-2.849,10.4-13.548,12.044-18.446-4.381-3.5-8.775-7.078-13.266-10.534-1.124-.864-1.186-1.584-.9-2.9.92-4.241,1.539-8.548,2.416-12.8a2.865,2.865,0,0,1,1.541-1.864c4.213-1.385,8.474-2.623,12.733-3.86,2.381-.691,3.345-.963,3.645-1.97l-3.949-19.744C1634.428-753.708,1633.232-753.6,1630.014-753.29Zm-31.275,17.784a32.587,32.587,0,0,1-25.563,38.346h0a32.587,32.587,0,0,1-38.346-25.563h0a32.587,32.587,0,0,1,25.563-38.346h0a32.587,32.587,0,0,1,38.346,25.563Z" transform="translate(-63.772 -182.207)" fill="#91a0d3"/>
    <path id="Path_85" data-name="Path 85" d="M1673.062-925.9c-1.594-.756-3.215-1.457-4.793-2.245a1.277,1.277,0,0,1-.607-.9c-.118-2.04-.119-4.088-.25-6.127a1.081,1.081,0,0,1,.577-1.226c1.862-1.074,3.7-2.2,5.538-3.307.3-.18.592-.37,1.1-.692l-4.192-8.631c-2.455.886-4.7,1.656-6.908,2.516a1.417,1.417,0,0,1-1.865-.392c-1.292-1.367-2.775-2.553-4.141-3.854a1.157,1.157,0,0,1-.292-.923c.472-2.129.941-4.263,1.541-6.359.288-1.006,0-1.479-.913-1.788a5.948,5.948,0,0,1-.982-.552l-4.718-1.683a3.049,3.049,0,0,1-.564-.031c-1.884-.457-1.54-.494-2.323,1.14-.954,1.991-1.874,4-2.686,5.733l-7.993.459-4.208-7a30.649,30.649,0,0,0-8.6,4.178c.877,2.412,1.725,4.767,2.591,7.115a.848.848,0,0,1-.209,1.072c-1.48,1.5-2.923,3.043-4.3,4.642a1,1,0,0,1-1.208.376c-2.147-.543-4.307-1.035-6.456-1.569a.859.859,0,0,0-1.154.479,27.327,27.327,0,0,0-2.64,7.815c-.107.538.172.722.6.914,1.959.889,3.9,1.825,5.862,2.7a1.077,1.077,0,0,1,.765,1.2c-.007,2.358.124,4.717.208,7.265l-6.715,4.037a28.577,28.577,0,0,0,4.135,8.744l7.5-2.766c1.751,1.492,3.343,2.922,5.021,4.241a1.371,1.371,0,0,1,.587,1.69c-.56,2.043-1.04,4.108-1.532,6.169-.1.408-.335.9.312,1.126q3.948,1.375,7.9,2.753c.56.195.86-.029,1.1-.565.891-1.993,1.869-3.947,2.727-5.953.33-.774.8-.873,1.547-.886a50.169,50.169,0,0,0,5.543-.335,1.206,1.206,0,0,1,1.482.72c1.2,2.12,2.473,4.193,3.694,6.241a27.391,27.391,0,0,0,8.749-4.249c-.865-2.319-1.716-4.672-2.631-7a1.04,1.04,0,0,1,.317-1.3c1.311-1.4,2.523-2.887,3.821-4.3a1.266,1.266,0,0,1,1.007-.356c1.909.432,3.8.931,5.7,1.43,1.059.278,1.485.4,1.828.082l2.988-8.372C1674.828-925.056,1674.352-925.288,1673.062-925.9Zm-15.879-.368a14.387,14.387,0,0,1-18.385,8.714h0a14.387,14.387,0,0,1-8.714-18.385h0a14.386,14.386,0,0,1,18.385-8.714h0a14.387,14.387,0,0,1,8.714,18.385Z" transform="translate(-115.093 -112.213)" fill="#9bc1f9"/>
    <path id="Path_86" data-name="Path 86" d="M1671.347-265.1l-4.735-.019c.625-20.661,1.175-52.038.131-53.8a.77.77,0,0,0,.315.237l3.842-1c.621.312,1,.5,1.126,9.287.067,4.521.041,10.765-.076,18.558C1671.752-278.575,1671.351-265.237,1671.347-265.1Z" transform="translate(-138.704 -392.069)" fill="#355389"/>
    <path id="Path_87" data-name="Path 87" d="M1672.877-223.448h-31.944a2.664,2.664,0,0,0-2.664,2.664h0a.466.466,0,0,0,.466.466h36.34a.466.466,0,0,0,.466-.466h0A2.664,2.664,0,0,0,1672.877-223.448Z" transform="translate(-126.362 -433.976)" fill="#355389"/>
    <path id="Path_88" data-name="Path 88" d="M1669.448-228.1h-3.913a2.1,2.1,0,0,0-2.1,2.1h0a2.1,2.1,0,0,0,2.1,2.1h3.913a2.1,2.1,0,0,0,2.1-2.1h0A2.1,2.1,0,0,0,1669.448-228.1Z" transform="translate(-137.323 -431.95)" fill="#355389"/>
    <rect id="Rectangle_21" data-name="Rectangle 21" width="1.89" height="94.181" transform="translate(1416.98 -748.537)" fill="#13375b"/>
    <path id="Path_89" data-name="Path 89" d="M1642.19-490.621a25.347,25.347,0,0,1,2.315-12.216c1.612-3.353,5.6-5.255,9.234-5.26,11.545-.015,13.012,15.238,20.361,21.122,2.245,1.8,4.755,3.262,6.88,5.2,7.845,7.159,4.312,20.411-2.893,26.688-5,4.355-12.856,6.829-19.018,3.425a19.382,19.382,0,0,1-7.4-7.969c-2.469-4.594-4.06-9.895-5.817-14.791A55.21,55.21,0,0,1,1642.19-490.621Z" transform="translate(-128.057 -310.025)" fill="#13375b"/>
    <path id="Path_90" data-name="Path 90" d="M1580.375-417.7l25.121-7s5.293-7.11,12.1-16.647c2.226,2.2,3.464,5.589,5.706,7.771l-16.629,18.393a3.176,3.176,0,0,1-2.346,1.046l-23.085.077-7.9.63v-5.056Z" transform="translate(-98.09 -339.09)" fill="#f48c7f"/>
    <path id="Path_91" data-name="Path 91" d="M1643.394-425.615s8.622-8.841,10.84-12.681-1.511-1.34-5.321-2.351c-1.443-.383-1.078-8.837-3.8-6.089a125.429,125.429,0,0,0-10.1,12.392Z" transform="translate(-124.943 -336.506)" fill="#96d9c9"/>
    <path id="Path_92" data-name="Path 92" d="M1659.884-453.487s7.738-1.527,11.268,1.423-.756,29.178-.752,33.526,2.424,16.633,2.424,16.633-23.451,4.1-27.177-2.422c0,0-1.06-24.868-.9-27.995s3.635-15.916,4.6-17.286S1659.884-453.487,1659.884-453.487Z" transform="translate(-129.175 -333.633)" fill="#50bfa5"/>
    <path id="Path_93" data-name="Path 93" d="M1666.23-474.518s.041.231.114.625c.351,1.889,1.7,8.154,2.615,9.876,1.1,2.081-3.777,8.719-8.474,7.909-1.4-.241,1.182-6.1,1.058-6.72-.237-1.188-.559-2.809-.889-4.47l-.551-2.781c-.5-2.538-.912-4.615-.912-4.615Z" transform="translate(-135.473 -324.57)" fill="#f7a491"/>
    <path id="Path_94" data-name="Path 94" d="M1666.344-473.893c-.073-.393-.114-.625-.114-.625l-7.039-.175s.41,2.076.912,4.615c.176.888.362,1.833.548,2.765a6.594,6.594,0,0,0,3.361-1.681,8.868,8.868,0,0,0,2.546-3.778C1666.47-473.217,1666.4-473.6,1666.344-473.893Z" transform="translate(-135.473 -324.57)" fill="#f47458"/>
    <path id="Path_95" data-name="Path 95" d="M1657.989-502.681a6.353,6.353,0,0,1,5.4,2.3c2.08,2.684,4.321,10.985-.845,15.5s-10.271-.6-11.027-6.012S1650.464-502.877,1657.989-502.681Z" transform="translate(-131.97 -312.375)" fill="#f7a491"/>
    <path id="Path_96" data-name="Path 96" d="M1648.751-484.21c.617,1.2,1.651,1.858,2.312,1.48s.7-1.656.078-2.853-1.651-1.859-2.312-1.48S1648.134-485.406,1648.751-484.21Z" transform="translate(-130.735 -319.138)" fill="#f7a491"/>
    <path id="Path_97" data-name="Path 97" d="M1662.61-504.3s4.432,7.893,7.6,8.258,3.587,4.56,3.587,4.56-1.134-9.666-4.273-11.53A11.681,11.681,0,0,0,1662.61-504.3Z" transform="translate(-136.961 -311.64)" fill="#13375b"/>
    <path id="Path_98" data-name="Path 98" d="M1674.554-487.814c-.258,1.4.261,2.688,1.159,2.871s1.834-.8,2.092-2.2-.261-2.688-1.159-2.872S1674.812-489.216,1674.554-487.814Z" transform="translate(-142.134 -317.887)" fill="#f7a491"/>
    <g id="Group_10" data-name="Group 10" transform="translate(1434.005 -738.085)">
      <path id="Path_99" data-name="Path 99" d="M1621.764-259.9s7.119,8.535,7.166,9.278-.283,8.848-1.13,9.591-3.334,1.27-2.534,2.1c.6.632,5.253.5,8.334.327.9-.049,2.027-7.225,2.384-8.28.517-1.532,1.776-4.982,1.305-6.05a8.971,8.971,0,0,0-2.871-2.587c-1.625-1.05-7.841-9.7-7.841-9.7Z" transform="translate(-1553.18 322.296)" fill="#f48c7f"/>
      <path id="Path_100" data-name="Path 100" d="M1636.256-248.123s-4.781,13.458-6.651,14.108c-.5.172-2.881.61-3.331,1.664a4.563,4.563,0,0,0,0,1.379h9.963s1.26-5.93,1.759-8.535c0,0,2.637-6.366,2.344-6.944S1636.256-248.123,1636.256-248.123Z" transform="translate(-1555.118 314.854)" fill="#b75742"/>
      <path id="Path_101" data-name="Path 101" d="M1527.232-251.7s-5.813,8.184-5.3,10.773c.274,1.387,1.493,3.2.794,4.506a3.511,3.511,0,0,1-1.5,1.631l-18.133.292c-.988.016-.335-.619.461-1.2a36.541,36.541,0,0,1,6.52-3.6c.272-.131,1.26-.759,1.617-.976a12.551,12.551,0,0,0,2.594-2.287c1.3-1.447,7.027-13.236,7.027-13.236Z" transform="translate(-1501.286 318.196)" fill="#f7a491"/>
      <path id="Path_102" data-name="Path 102" d="M1510.684-228.618a16.449,16.449,0,0,0,10.324-.4c.511,1.446,1.19,3.261.83,4.307-.44,1.281-1.067,1.571-1.621,1.585-4.38.115-16.046.271-19.386.314a.545.545,0,0,1-.424-.9C1501.235-224.7,1510.326-228.4,1510.684-228.618Z" transform="translate(-1500.278 306.537)" fill="#b75742"/>
      <path id="Path_103" data-name="Path 103" d="M1575.913-350.317s7.2,8.215,9.034,9.517,19.455,33.745,19.455,33.745l-6.277,4.583s-15.746-19.634-23.141-30.136c-6.253-8.88-3.95-8.317-7.627-13.722a7.222,7.222,0,0,1,1.1-9.414q.5-.451,1.085-.941c5.443-4.537,42.751-9.641,42.751-9.641l23.863,2.337s-19.5,13.672-20.225,14.036-26.924,4.184-27.47,4.184S1575.913-350.317,1575.913-350.317Z" transform="translate(-1528.941 366.326)" fill="#b75742"/>
      <path id="Path_104" data-name="Path 104" d="M1622.72-362.5s4.094,12.279-2.047,18.01-42.615,5.093-54.621,5.093c0,0-4.911,13.462-5.458,15.645s-24.377,30.38-24.377,30.38l-6.549-4.184s25.651-49.845,27.652-52.028,30.562-10.915,37.657-12.916S1622.72-362.5,1622.72-362.5Z" transform="translate(-1513.076 365.048)" fill="#f47458"/>
    </g>
    <path id="Path_105" data-name="Path 105" d="M1605-419.19l21.781-4.819s7.877-10.121,15.442-18.832c2.227,2.2,3.464,5.589,5.706,7.771L1631.3-416.676a3.178,3.178,0,0,1-2.346,1.046l-23.086.077-7.9.629v-5.056Z" transform="translate(-108.814 -338.441)" fill="#f7a491"/>
    <path id="Path_106" data-name="Path 106" d="M1668.021-428.914s8.622-8.84,10.84-12.681.573-10.276-3.236-11.286-15.987,15.238-15.987,15.238Z" transform="translate(-135.667 -334.049)" fill="#96d9c9"/>
    <g id="Group_11" data-name="Group 11" transform="translate(1449.096 -782.425)">
      <path id="Path_107" data-name="Path 107" d="M1529.354-444.866h35.922a2.343,2.343,0,0,1,2.167,1.454l11.06,26.977h19.8a1,1,0,0,1,1,1h0a1,1,0,0,1-1,1h-56.365a3.934,3.934,0,0,1-3.589-2.323l-11.137-24.809A2.342,2.342,0,0,1,1529.354-444.866Z" transform="translate(-1527.009 444.866)" fill="#b75742"/>
      <path id="Path_108" data-name="Path 108" d="M1565.383-419.055a2.113,2.113,0,0,0,2.361,1.81,2.112,2.112,0,0,0,1.482-2.578,2.114,2.114,0,0,0-2.361-1.81A2.112,2.112,0,0,0,1565.383-419.055Z" transform="translate(-1543.698 434.764)" fill="#fff"/>
    </g>
    <path id="Path_109" data-name="Path 109" d="M1575.474-386.405H1468.151a2.275,2.275,0,0,1-2.275-2.275h0a2.275,2.275,0,0,1,2.275-2.276h107.323a2.275,2.275,0,0,1,2.275,2.276h0A2.275,2.275,0,0,1,1575.474-386.405Z" transform="translate(-51.293 -361.034)" fill="#184655"/>
    <path id="Path_110" data-name="Path 110" d="M1659.731-476.613l4.867-.252a2.131,2.131,0,0,1-2.154,2.027C1659.838-474.628,1659.731-476.613,1659.731-476.613Z" transform="translate(-135.708 -323.625)" fill="#fff"/>
    <path id="Path_111" data-name="Path 111" d="M1630.555-337.5l2.2-9.15a14.843,14.843,0,0,1,13.78-11.32l27.838-1.125.859-2.834-28.81,1.164a17.653,17.653,0,0,0-16.387,13.462l-2.335,9.723C1628.489-337.55,1629.454-337.524,1630.555-337.5Z" transform="translate(-121.759 -373.672)" fill="#355389"/>
    <path id="Path_112" data-name="Path 112" d="M1662.551-368.837s-38.247.655-42.235,0-5.713,4.344-4.523,6.963,4.463,3.631,9.284,3.868,44.932,1.369,46.063.3c.924-.875,13.084-42.447,17.508-57.65a5.734,5.734,0,0,0-3.9-7.1h0a5.74,5.74,0,0,0-7.109,3.842Z" transform="translate(-116.414 -347.212)" fill="#184655"/>
    <rect id="Rectangle_22" data-name="Rectangle 22" width="1.89" height="94.181" transform="translate(1522.3 -748.537)" fill="#13375b"/>
    <rect id="Rectangle_23" data-name="Rectangle 23" width="106.738" height="1.013" transform="translate(1416.98 -742.441)" fill="#13375b"/>
    <g id="Group_13" data-name="Group 13" transform="translate(1683.676 -1220.052)">
      <path id="Path_113" data-name="Path 113" d="M2156.634-1187.571s13.867,8.975,48.044,7.755c0,0-36.633,13.833-50.956,15.973l-5.9-23.282Z" transform="translate(-2031.928 1205.908)" fill="#e25a44"/>
      <path id="Path_114" data-name="Path 114" d="M2165.348-1171.431a35.311,35.311,0,0,1-9.447,12l-3.072-12.133.2-5.87Z" transform="translate(-2034.106 1201.492)" fill="#b75742"/>
      <path id="Path_115" data-name="Path 115" d="M2081.637-1212.13s40.045-2.707,46.272-.419l6.438,25.424s-22.794-1.958-45,5.448Z" transform="translate(-2003.105 1217.185)" fill="#f47458"/>
      <path id="Path_116" data-name="Path 116" d="M2028.541-713.341s-1.929,3.149-1.755,4.081,2.494,10.8,3.772,11.457,4.516.526,3.789,1.808c-.549.969-6.335,2.256-10.195,3.011-1.126.22-4.764-8.293-5.535-9.484-1.118-1.731-3.752-5.6-3.5-7.066a11.428,11.428,0,0,1,2.737-4.094,18,18,0,0,0,2.869-5.179Z" transform="translate(-1974.13 1001.783)" fill="#f48c7f"/>
      <path id="Path_117" data-name="Path 117" d="M2088.035-712.586s-.653,7.058-.651,7.076c.089,1.069.06,3.774.3,4.707.887,3.505,15.053-6.977,11.117-7.633a3.86,3.86,0,0,1-2.053-2.094c-.628-1.8.282-4.48.282-4.48Z" transform="translate(-2005.607 1000.129)" fill="#f7a491"/>
      <path id="Path_118" data-name="Path 118" d="M2060.546-935.491s4.093,11.32,4.136,11.493c4.756,18.784,17.769,54.533,17.955,58.244.454,9.051-7.014,57.7-7.014,57.7l-10.353,1.343-.225-55.926-10.18-19.956-17.417-40.132Z" transform="translate(-1983.863 1096.139)" fill="#3c8f7c"/>
      <path id="Path_119" data-name="Path 119" d="M2022.266-914.7l.88,11.489,6.31,46.6-8.438,49.244s4.395,5.742,8.7,5.614l19.762-53.369,4.7-63.077-3.954-12.748Z" transform="translate(-1976.708 1094.161)" fill="#50bfa5"/>
      <path id="Path_120" data-name="Path 120" d="M2016.675-709.8s10.115,15.132,12.63,15.349c.667.058,3.75-.147,4.635,1.014a14.024,14.024,0,0,1,.831,2.1l-12.69,3.653s-3.43-7.866-4.86-10.93c0,0-5.25-7.04-5.068-7.847S2016.675-709.8,2016.675-709.8Z" transform="translate(-1972.845 997.861)" fill="#13375b"/>
      <path id="Path_121" data-name="Path 121" d="M2086.791-693.955l.386-6.587s4.208.646,6.042-.1a59.351,59.351,0,0,0,5.271-2.76c8.219.576,14.74.215,14.119,2.509h0Z" transform="translate(-2005.349 995.076)" fill="#13375b"/>
      <path id="Path_122" data-name="Path 122" d="M2121.577-1012.067l5.473,4.2c1.055-.813,3.361-4.235,4.854-5.3l-5-5.455h0a1.445,1.445,0,0,1-.585-1.306,4.548,4.548,0,0,1,.138-.841c.156-.431.3-.945.451-1.376s-.877-1.3-1.419-1.452-.722,1.925-.957,2.543a67.258,67.258,0,0,0-1.727,7.813Z" transform="translate(-2020.497 1134.51)" fill="#f48c7f"/>
      <path id="Path_123" data-name="Path 123" d="M2087.139-999.961c-1.537-1.639-3.706-2.56-5.315-4.264L2057.538-987.5s-18.776-22.2-28.972-14.337a169.289,169.289,0,0,0,12.61,18.143c6.235,7.722,15.756,11.4,17.615,10.552C2060.886-974.1,2086.594-999.3,2087.139-999.961Z" transform="translate(-1979.995 1126.069)" fill="#13375b"/>
      <path id="Path_124" data-name="Path 124" d="M1943.451-1106.533c.8,2.14,2.193,5.507,2.193,5.507.04.966.239,4.987.493,9.914l6.834-3.743s-1.049-7.951-.788-8.477c.221-.445.739.014,2.558-3.4a6.184,6.184,0,0,0,.448-2.625s-.111-2.015-.583-2.148a.939.939,0,0,0-1.071.594c-.121.365.019,1.165-.1,1.53a2.508,2.508,0,0,1-1.549.939c-.44.031-.662-5.922-.662-5.922s.042-1.7.1-2.263c.049-.479.308-1.9.308-1.9s.258-2.043-.376-2.12c-.374-.045-1.1,1.678-1.531,3.465-.46,1.924-.611,3.924-.81,3.921-.466-.006-.614-3.266-.614-3.266a10.467,10.467,0,0,0,.182-2.232c.327-.908.422-2.53-.354-2.57a13.242,13.242,0,0,0-.9,2.131s-.222,1.468-.371,2.159c-.263,1.219-.1,3.075-.213,3.916-.093.7-.286.44-.355.477a17.057,17.057,0,0,1-.112-2.217,13.05,13.05,0,0,1-.095-2.151,15.794,15.794,0,0,0,.035-2.288c-.079-1.686-1.11-1.388-1.29.185-.068.6-.137,1.252-.2,1.913-.262,2.574.046,4.985-.222,5.039-.348.068-.648-4.354-.648-4.354s-.833-2.367-1.094-.045a19.786,19.786,0,0,0,.04,4.916A19.123,19.123,0,0,0,1943.451-1106.533Z" transform="translate(-1942.53 1177.062)" fill="#f8a492"/>
      <path id="Path_125" data-name="Path 125" d="M2016.087-1059.766s-4.122-3.411-6.494,1.632a2.944,2.944,0,0,0-3.734,1.46s-4.241-.737-4.494,5.5c0,0-2.154-.143-2.129,2.394a6.241,6.241,0,0,0,1.5,4.052s-1.075,1.03-.26,3.266a2.868,2.868,0,0,0,2.349,2s.836,3.245,2.386,4.065a4.7,4.7,0,0,0,3.439.108,2.221,2.221,0,0,0,2.382,1.365c1.649-.361,3.523-2.2,5.477-1.711s6.709-.852,6.709-.852,5.15-3.082,2.848-8.447a4.1,4.1,0,0,0-.33-5.724s1.241-5.068-2.72-7.491S2016.087-1059.766,2016.087-1059.766Z" transform="translate(-1967.223 1150.746)" fill="#f47458"/>
      <path id="Path_126" data-name="Path 126" d="M2034.638-1000.118l-8.386-4.314s-7.451,1.087-8.375,1.2-2.665,34.826-2.811,47.828,1.441,15.109,1.441,15.109,12.141,1.228,20.792-.6c8.995-1.906,18.632-8.053,18.632-8.053s-10.749-23.653-13.219-31.145S2034.638-1000.118,2034.638-1000.118Z" transform="translate(-1974.112 1126.16)" fill="#f7cc7f"/>
      <path id="Path_127" data-name="Path 127" d="M1987.284-1038.485l-27.546-22.019s-6.276-23.215-6.627-24.076c-.344-.845-6.491-.581-8.974-.523-.8.019,3.457,25.116,5.144,29.206,1.991,4.831,23.283,25.363,23.283,25.363s4.816,11.934,5.11,21.079c.489,15.19-.591,36.3.129,36.868,4.288,2.028,19.617.446,20.4-1.231C2006.806-992.329,1987.284-1038.485,1987.284-1038.485Z" transform="translate(-1943.187 1161.325)" fill="#13375b"/>
      <path id="Path_128" data-name="Path 128" d="M2027.311-1017.71l1.256,4.828s2.338,6.893.6,8.487-9.154-7.656-9.154-7.656l-.85-12.517Z" transform="translate(-1975.898 1134.927)" fill="#f7a491"/>
      <path id="Path_129" data-name="Path 129" d="M2019.435-1020.511a14.213,14.213,0,0,0,8.941,6.9l-1.065-4.094-8.153-6.857Z" transform="translate(-1975.898 1134.927)" fill="#f47458"/>
      <path id="Path_130" data-name="Path 130" d="M1999.343-1040.246c.229,1.895,1.493,3.3,2.821,3.139s2.22-1.827,1.991-3.721-1.492-3.3-2.821-3.139S1999.114-1042.14,1999.343-1040.246Z" transform="translate(-1967.254 1143.38)" fill="#f47458"/>
      <path id="Path_131" data-name="Path 131" d="M2010.57-1053.791c.131,1.089,1.55,1.813,3.166,1.617s2.821-1.236,2.689-2.325-1.549-1.813-3.166-1.617S2010.438-1054.88,2010.57-1053.791Z" transform="translate(-1972.154 1148.68)" fill="#f47458"/>
      <path id="Path_132" data-name="Path 132" d="M2020.117-1049.164a6.607,6.607,0,0,1,9.217,4.188,50,50,0,0,1,1.3,6.233c.8,5.72-1.5,11.66-4.1,11.974s-10.248-2.526-11.493-10.633C2014.269-1042.407,2016.226-1047.275,2020.117-1049.164Z" transform="translate(-1974.032 1145.924)" fill="#f7a491"/>
      <path id="Path_133" data-name="Path 133" d="M2015.8-1028.693a2.128,2.128,0,0,1-1.6,2.516,2.128,2.128,0,0,1-2.15-2.063,2.128,2.128,0,0,1,1.6-2.516A2.128,2.128,0,0,1,2015.8-1028.693Z" transform="translate(-1972.794 1137.628)" fill="#f7a491"/>
      <path id="Path_134" data-name="Path 134" d="M2037.212-1057.082c2.947,1.8,4.281,4.928,2.98,6.975s-4.745,2.244-7.693.439-4.28-4.928-2.979-6.975S2034.265-1058.886,2037.212-1057.082Z" transform="translate(-1980.193 1149.624)" fill="#f47458"/>
      <path id="Path_135" data-name="Path 135" d="M2027.592-1052.609c.112.926-.915,1.812-2.294,1.979s-2.587-.448-2.7-1.374.915-1.812,2.294-1.979S2027.48-1053.535,2027.592-1052.609Z" transform="translate(-1977.393 1147.749)" fill="#f47458"/>
      <path id="Path_136" data-name="Path 136" d="M2042.836-1041.977a2.159,2.159,0,0,1-1.87,2.414,2.16,2.16,0,0,1-2.393-1.9,2.16,2.16,0,0,1,1.871-2.413A2.159,2.159,0,0,1,2042.836-1041.977Z" transform="translate(-1984.346 1143.342)" fill="#f47458"/>
      <path id="Path_137" data-name="Path 137" d="M2050.673-994.711s11.644,27.524,15.786,37.225c.448,1.049,2.7,7.909,2.783,8.595.184,1.52-6.2,4.249-7,4.23-.715-.018-10.088-29.085-15.536-43.205a41.964,41.964,0,0,0-7.986-13l-2.646-2.184-.255-.818S2047.648-1002.814,2050.673-994.711Z" transform="translate(-1983.155 1125.913)" fill="#13375b"/>
      <rect id="Rectangle_24" data-name="Rectangle 24" width="2.154" height="193.365" transform="translate(76.275 0.529) rotate(-14.208)" fill="#13375b"/>
      <g id="Group_12" data-name="Group 12" transform="translate(105.15 112.984)">
        <path id="Path_138" data-name="Path 138" d="M2136.065-1014.012a6.561,6.561,0,0,0-.38-1.262,3.588,3.588,0,0,0-.725-1.156,2.2,2.2,0,0,1-.367-.764,1.331,1.331,0,0,0-.164-.3l0-.006a3.069,3.069,0,0,0-.716-.692,3.223,3.223,0,0,1-.772-.837,2.3,2.3,0,0,0-.866-.764c-.345-.168-.61-.173-.735.04-.572.984-3.436,4.124-2.276,5.641a36.247,36.247,0,0,1,2.5,3.193c.358.824,1.617.767,2.37.48C2135.344-1010.984,2136.457-1011.878,2136.065-1014.012Z" transform="translate(-2128.786 1019.92)" fill="#f7a491"/>
      </g>
    </g>
    <rect id="Rectangle_25" data-name="Rectangle 25" width="609.709" height="2.163" transform="translate(1348.085 -655.102)" fill="#184655"/>
    <g id="Group_14" data-name="Group 14" transform="translate(1714.882 -1158.616)">
      <path id="Path_139" data-name="Path 139" d="M2064.653-1076.652a.443.443,0,0,1,.693-.107c.3.313.609.621.914.931.674.684.679.732.78.717.242-.037.249-.473.237-.633a5.232,5.232,0,0,1-.1-1.068.783.783,0,0,1,1.314-.591c.529.431,1.037.9,1.54,1.362.04-.767.059-1.534.11-2.3a.3.3,0,0,1,.506-.225l2.327,1.819c.119.093.623.592.767.5s.121-.616.134-.735c.072-.657.107-.887.391-3.019a.355.355,0,0,1,.589-.174c1.638,1.961,1.886,1.756,2.034,2.343a.168.168,0,0,1-.2.208c-.315-.032-.387-.062-1.206-.852q-.318-.307-.619-.628c-.3,2.595-.308,3.256-.957,3.451-.45.135-.527-.006-3.163-2.078,0,.806-.05,1.607-.084,2.414a.345.345,0,0,1-.577.256c-1.888-1.554-1.874-1.671-2.077-1.763-.006,0,0-.142-.035.059-.056.34.267,1.077.029,1.695a1.041,1.041,0,0,1-1.382.676c-.335-.164-.426-.329-1.436-1.3a9.036,9.036,0,0,1-1.143,1.787,1.394,1.394,0,0,1-.674.5.369.369,0,0,1-.462-.435C2063.144-1074.572,2063.8-1074.747,2064.653-1076.652Z" transform="translate(-2026.151 1097.749)" fill="#f47458"/>
      <path id="Path_140" data-name="Path 140" d="M2048.784-1095.968a12.083,12.083,0,0,0,2.145.184c.142,0,.4.03.5-.112.221-.341-.359-.87-.616-2.2-.112-.578-.394-1.764.383-2a4.353,4.353,0,0,1,1.3-.016c.311.008.623,0,.934.006-.556-2.167-.685-2.046-.46-2.53a.274.274,0,0,1,.37-.109c.435.29.31.23,1.038,2.955a.425.425,0,0,1-.391.541c-.421-.011-2.326-.163-2.562-.145.015.023-.007.125-.007.147a7,7,0,0,0,.633,2.486c.26.675.243,1.583-.615,1.773a8.462,8.462,0,0,1-2.153-.049c.387,1.32.784,2.638,1.163,3.96a.468.468,0,0,1-.431.6c-.852-.076-1.7-.124-2.557-.164a7.929,7.929,0,0,0,1.05,2.183c.339.495-.356,1.1-1.125-.207a7.668,7.668,0,0,1-.979-2.338.472.472,0,0,1,.432-.6c.846.015,1.692.07,2.535.141-.369-1.32-.726-2.644-1.1-3.964A.434.434,0,0,1,2048.784-1095.968Z" transform="translate(-2018.963 1107.55)" fill="#66ccb2"/>
      <path id="Path_141" data-name="Path 141" d="M2015.1-1107a.434.434,0,0,1-.433-.406,10.072,10.072,0,0,1,0-3.466c.121-.6,1-.376.918.214a12.258,12.258,0,0,0-.125,2.818,9.4,9.4,0,0,0,2.033-.258.447.447,0,0,1,.568.41c-.045.747-.3,3.571-.33,3.6a.145.145,0,0,1,.074,0c.294.059,1.306-.15,1.765-.121.515.032.679.73.705,1.152.053.856-.585,1.8-.286,2.634.288.806,1.554-.081,2.5.577.728.506.476,1.361.176,2.709a1.04,1.04,0,0,1-.477.816.222.222,0,0,1-.264-.029c-.358-.411-.175-.9.067-2.13.031-.157.132-.422.021-.562-.365-.472-1.435.2-2.3-.364a1.975,1.975,0,0,1-.661-2.031c.086-.571.438-1.274.253-1.857-.49.026-.985.065-1.473.053a.845.845,0,0,1-.923-.841,15.086,15.086,0,0,1,.12-1.834c.032-.405.062-.81.1-1.215A10.593,10.593,0,0,1,2015.1-1107Z" transform="translate(-2005.084 1111.228)" fill="#07345a"/>
      <path id="Path_142" data-name="Path 142" d="M2074.968-1052.535c2.041,2.614.12,3.883-.736,3.125a.717.717,0,0,1,.046-1.163c.2-.125.513.073.431.313-.067.2.158.251.251.04.125-.283-.076-.636-.2-.885-.29-.582-.659-1.341-1.376-1.455-1.07-.169-2.232.9-1.644,2.537.848,2.36,4.67,2.332,5.362-.137a3.516,3.516,0,0,0-1.25-3.659c-.213-.167.048-.451.262-.359a3.508,3.508,0,0,1,1.612,4.4,3.561,3.561,0,0,1-4.009,2.123,3.389,3.389,0,0,1-2.926-3.643A2.331,2.331,0,0,1,2074.968-1052.535Z" transform="translate(-2029.578 1086.393)" fill="#3c8f7c"/>
      <path id="Path_143" data-name="Path 143" d="M2001.07-1090.5c.282.426.441,1.295-.135,1.564a.472.472,0,0,1-.685-.266c-.092-.3.076-.582-.2-.82a.633.633,0,0,0-.8.085c-.665.542-.493,1.731-.146,2.4a1.6,1.6,0,0,0,2.8.161,3.619,3.619,0,0,0,.4-1.163c.057-.221.411-.321.523-.083a2.157,2.157,0,0,1-.955,2.533,2.564,2.564,0,0,1-2.768-.041,3.312,3.312,0,0,1-1.293-2.841C1997.885-1091.161,2000.156-1091.878,2001.07-1090.5Z" transform="translate(-1997.807 1102.508)" fill="#f7cc7f"/>
    </g>
    <path id="Path_144" data-name="Path 144" d="M1820.195-549.523a2.131,2.131,0,0,0,2.891.624c2.341-1.165,1.407-2.921,1.407-2.921Z" transform="translate(-205.583 -290.985)" fill="#fff"/>
    <path id="Path_145" data-name="Path 145" d="M2030.161-1020.532a2.131,2.131,0,0,0,2.336,1.814c2.615-.037,2.533-2.024,2.533-2.024Z" transform="translate(-297.013 -86.791)" fill="#fff"/>
  </g>
</svg>
