<svg xmlns="http://www.w3.org/2000/svg" width="22" height="22.023" viewBox="0 0 22 22.023"><defs><style>.a{fill:#646464;}</style></defs><g transform="translate(-0.05 -0.022)"><path class="a" d="M12.334,6.526h2a1.141,1.141,0,0,0,1.316-1c.386-1.573.782-3.138,1.169-4.711a2.052,2.052,0,0,1,.147-.4.626.626,0,0,1,.745-.368.617.617,0,0,1,.478.681,4.95,4.95,0,0,1-.193.975c-.294,1.178-.6,2.356-.92,3.533a2.107,2.107,0,0,0-.064.331.828.828,0,0,0,.782.92h3.331a1.445,1.445,0,0,1,.478.074.635.635,0,0,1,0,1.215,2.521,2.521,0,0,1-.92.092H17.46a1.132,1.132,0,0,0-1.288,1.04c-.294,1.288-.607,2.586-.966,3.865a1.823,1.823,0,0,1-.074.3.92.92,0,0,0,.92,1.141h2.457a1.5,1.5,0,0,1,.6.11.644.644,0,0,1,0,1.169,1.583,1.583,0,0,1-.506.092H15.463a1.113,1.113,0,0,0-1.2.92c-.377,1.592-.782,3.175-1.187,4.748a1.362,1.362,0,0,1-.166.432.589.589,0,0,1-.7.313.617.617,0,0,1-.5-.607,5.116,5.116,0,0,1,.248-1.215c.276-1.095.561-2.19.837-3.285a1.537,1.537,0,0,0,.055-.46.865.865,0,0,0-.92-.837H7.678a1.012,1.012,0,0,0-1.1.847c-.4,1.564-.782,3.138-1.178,4.7a1.7,1.7,0,0,1-.258.626.561.561,0,0,1-.644.248.607.607,0,0,1-.488-.543,1.445,1.445,0,0,1,0-.524c.322-1.316.626-2.641,1-3.938a1.6,1.6,0,0,0,.074-.69.837.837,0,0,0-.718-.681,3.331,3.331,0,0,0-.8,0H.924a1.408,1.408,0,0,1-.276,0,.672.672,0,0,1-.6-.663.663.663,0,0,1,.617-.653,12.349,12.349,0,0,1,1.546,0H4.54a1.307,1.307,0,0,0,1.445-1.141c.285-1.316.626-2.613.92-3.911A1,1,0,0,0,6.73,8.228a.92.92,0,0,0-.736-.258H3.51a1.84,1.84,0,0,1-.4-.055.617.617,0,0,1-.524-.672.626.626,0,0,1,.589-.617,8.842,8.842,0,0,1,1.205,0H6.4A1.261,1.261,0,0,0,7.917,5.394c.368-1.555.764-3.1,1.15-4.647A1.417,1.417,0,0,1,9.206.361a.635.635,0,0,1,1.2.3,3.681,3.681,0,0,1-.2,1.04c-.285,1.169-.589,2.337-.92,3.515a2.135,2.135,0,0,0-.064.35.847.847,0,0,0,.782.92,6.773,6.773,0,0,0,.966,0h1.371Zm-1.923,7.711h2.208a.92.92,0,0,0,.994-.764q.571-2.227,1.113-4.454a.92.92,0,0,0-.276-.92,1.27,1.27,0,0,0-.837-.175H9.933c-.92,0-1.316.239-1.518,1.141-.3,1.343-.672,2.678-1,4.021-.184.755.156,1.187.92,1.187Z" transform="translate(0 0)"/></g></svg>