<svg width="36" height="36" viewBox="0 0 36 36" fill="none" xmlns="http://www.w3.org/2000/svg">
<path d="M4.71429 0C2.11573 0 0 2.11573 0 4.71429C0 7.31284 2.11573 9.42857 4.71429 9.42857C7.31284 9.42857 9.42857 7.31284 9.42857 4.71429C9.42857 2.11573 7.31284 0 4.71429 0ZM4.71429 0.857143C6.8496 0.857143 8.57143 2.57897 8.57143 4.71429C8.57143 6.8496 6.8496 8.57143 4.71429 8.57143C2.57897 8.57143 0.857143 6.8496 0.857143 4.71429C0.857143 2.57897 2.57897 0.857143 4.71429 0.857143ZM27 11.1429C23.8675 11.1429 21.983 12.6964 20.5714 14.2902V12.4286C20.5714 12.2042 20.3673 12 20.1429 12H13.2857C13.0613 12 12.8572 12.2042 12.8571 12.4286V35.5714C12.8572 35.7958 13.0613 36 13.2857 36H20.5714C20.7958 36 21 35.7958 21 35.5714V22.7143C21 21.5427 21.3633 20.4425 21.9241 19.6607C22.4849 18.8789 23.2156 18.4286 24 18.4286H24.8571C25.6416 18.4286 26.3723 18.8789 26.933 19.6607C27.4938 20.4425 27.8571 21.5427 27.8571 22.7143V35.5714C27.8572 35.7958 28.0613 36 28.2857 36H35.5714C35.7958 36 36 35.7958 36 35.5714V20.5714C36 17.769 35.4624 15.4028 34.0312 13.7277C32.6001 12.0525 30.3071 11.1429 27 11.1429ZM1.20536 12C1.0089 12.0375 0.853619 12.2286 0.857143 12.4286V35.5714C0.857165 35.7958 1.06132 36 1.28571 36H8.57143C8.79582 36 8.99998 35.7958 9 35.5714V12.4286C8.99998 12.2042 8.79582 12 8.57143 12C6.11867 12 3.65193 12 1.20536 12ZM27 12C30.1521 12 32.1486 12.839 33.3884 14.2902C34.6282 15.7413 35.1429 17.8789 35.1429 20.5714V35.1429H28.7143V22.7143C28.7143 21.3691 28.3081 20.0979 27.6295 19.1518C26.9508 18.2056 25.9721 17.5714 24.8571 17.5714H24C22.885 17.5714 21.9063 18.2056 21.2277 19.1518C20.549 20.0979 20.1429 21.3691 20.1429 22.7143V28.2857C19.8344 28.2856 19.5071 28.2857 19.2054 28.2857C18.981 28.3068 18.7959 28.5301 18.817 28.7545C18.838 28.9789 19.0613 29.1639 19.2857 29.1429H20.1429V31.7143C19.8344 31.7142 19.5071 31.7143 19.2054 31.7143C18.981 31.7353 18.7959 31.9586 18.817 32.183C18.838 32.4074 19.0613 32.5925 19.2857 32.5714H20.1429V35.1429H13.7143V12.8571H19.7143V15.4286C19.7141 15.7811 20.2575 15.9718 20.4777 15.6964C21.9298 13.8859 23.6212 12 27 12ZM1.71429 12.8571H8.14286V28.2857C7.83437 28.2856 7.50711 28.2857 7.20536 28.2857C6.98096 28.3068 6.79593 28.5301 6.81696 28.7545C6.838 28.9789 7.06131 29.1639 7.28571 29.1429H8.14286V31.7143C7.83437 31.7142 7.50711 31.7143 7.20536 31.7143C6.98096 31.7353 6.79593 31.9586 6.81696 32.183C6.838 32.4074 7.06131 32.5925 7.28571 32.5714H8.14286V35.1429H1.71429V12.8571Z" fill="black"/>
</svg>
