<svg width="64" height="56" viewBox="0 0 64 56" fill="none" xmlns="http://www.w3.org/2000/svg">
<path d="M15.2045 0C10.8457 0 7.27273 3.58186 7.27273 7.95455C7.27273 12.3272 10.8457 15.9091 15.2045 15.9091C19.5634 15.9091 23.1364 12.3272 23.1364 7.95455C23.1364 3.58186 19.5634 0 15.2045 0ZM15.2045 2.90909C17.9937 2.90909 20.2273 5.15654 20.2273 7.95455C20.2273 10.7525 17.9937 12.9773 15.2045 12.9773C12.4154 12.9773 10.1818 10.7525 10.1818 7.95455C10.1818 5.15654 12.4154 2.90909 15.2045 2.90909ZM48.7955 6.90909C44.4366 6.90909 40.8636 10.491 40.8636 14.8636C40.8636 19.2363 44.4366 22.8182 48.7955 22.8182C53.1543 22.8182 56.7273 19.2363 56.7273 14.8636C56.7273 10.491 53.1543 6.90909 48.7955 6.90909ZM48.7955 9.84091C51.5846 9.84091 53.8182 12.0656 53.8182 14.8636C53.8182 17.6616 51.5846 19.9091 48.7955 19.9091C46.0063 19.9091 43.7727 17.6616 43.7727 14.8636C43.7727 12.0656 46.0063 9.84091 48.7955 9.84091ZM15.2045 19.4773C6.81948 19.4773 0 26.1681 0 34.4545V46.8864C3.84929e-05 47.2721 0.153297 47.6421 0.426069 47.9148C0.698841 48.1876 1.06879 48.3409 1.45455 48.3409H47.2273C47.42 48.3436 47.6114 48.308 47.7902 48.2361C47.9691 48.1643 48.1319 48.0576 48.2692 47.9222C48.4064 47.7869 48.5154 47.6256 48.5898 47.4478C48.6642 47.27 48.7025 47.0791 48.7025 46.8864C48.7025 46.6936 48.6642 46.5028 48.5898 46.3249C48.5154 46.1471 48.4064 45.9858 48.2692 45.8505C48.1319 45.7152 47.9691 45.6085 47.7902 45.5366C47.6114 45.4647 47.42 45.4291 47.2273 45.4318H2.90909V34.4545C2.90909 27.7556 8.35289 22.3864 15.2045 22.3864C22.0562 22.3864 27.5 27.7556 27.5 34.4545V41.6818C27.4973 41.8746 27.5329 42.0659 27.6048 42.2448C27.6766 42.4236 27.7833 42.5864 27.9187 42.7237C28.054 42.861 28.2153 42.97 28.3931 43.0444C28.5709 43.1187 28.7618 43.1571 28.9545 43.1571C29.1473 43.1571 29.3381 43.1187 29.516 43.0444C29.6938 42.97 29.8551 42.861 29.9904 42.7237C30.1257 42.5864 30.2325 42.4236 30.3043 42.2448C30.3762 42.0659 30.4118 41.8746 30.4091 41.6818V34.4545C30.4091 26.1681 23.5896 19.4773 15.2045 19.4773ZM48.7955 26.3864C40.4104 26.3864 33.5909 33.0772 33.5909 41.3636C33.5882 41.5564 33.6238 41.7477 33.6957 41.9266C33.7675 42.1055 33.8743 42.2683 34.0096 42.4055C34.1449 42.5428 34.3062 42.6518 34.484 42.7262C34.6619 42.8006 34.8527 42.8389 35.0455 42.8389C35.2382 42.8389 35.4291 42.8006 35.6069 42.7262C35.7847 42.6518 35.946 42.5428 36.0813 42.4055C36.2167 42.2683 36.3234 42.1055 36.3952 41.9266C36.4671 41.7477 36.5027 41.5564 36.5 41.3636C36.5 34.6647 41.9438 29.2955 48.7955 29.2955C55.6471 29.2955 61.0909 34.6647 61.0909 41.3636V52.3636H35.0455C34.8527 52.3609 34.6613 52.3965 34.4825 52.4684C34.3036 52.5403 34.1408 52.647 34.0036 52.7823C33.8663 52.9177 33.7573 53.0789 33.6829 53.2568C33.6085 53.4346 33.5702 53.6254 33.5702 53.8182C33.5702 54.0109 33.6085 54.2018 33.6829 54.3796C33.7573 54.5574 33.8663 54.7187 34.0036 54.854C34.1408 54.9894 34.3036 55.0961 34.4825 55.168C34.6613 55.2398 34.8527 55.2755 35.0455 55.2727H62.5455C62.9312 55.2727 63.3012 55.1194 63.5739 54.8467C63.8467 54.5739 64 54.2039 64 53.8182V41.3636C64 33.0772 57.1805 26.3864 48.7955 26.3864Z" fill="#FF7D59"/>
</svg>
