<svg width="64" height="58" viewBox="0 0 64 58" fill="none" xmlns="http://www.w3.org/2000/svg">
<path d="M41.7985 57.9999C41.7979 58 41.797 58 41.7959 57.9999H20.8979C20.4851 57.9999 20.0965 57.8115 19.85 57.4918C19.6036 57.172 19.5282 56.7586 19.6469 56.3768L23.5653 43.7681C23.7311 43.2348 24.2395 42.8695 24.8163 42.8695H37.8775C38.4543 42.8695 38.9629 43.2347 39.1285 43.7681L43.0224 56.2976C43.0755 56.4351 43.1046 56.5838 43.1046 56.7391C43.1046 57.4353 42.5199 57.9999 41.7985 57.9999ZM22.6534 55.4782H40.0405L36.9058 45.3912H25.7881L22.6534 55.4782Z" fill="#FF7D59"/>
<path d="M31.2862 40.5824C32.0747 40.5824 32.7138 39.9654 32.7138 39.2042C32.7138 38.4431 32.0747 37.8261 31.2862 37.8261C30.4978 37.8261 29.8586 38.4431 29.8586 39.2042C29.8586 39.9654 30.4978 40.5824 31.2862 40.5824Z" fill="#FF7D59"/>
<path d="M48.3266 57.9999H14.3674C13.646 57.9999 13.0613 57.4353 13.0613 56.739C13.0613 56.0428 13.646 55.4781 14.3674 55.4781H48.3266C49.0478 55.4781 49.6327 56.0428 49.6327 56.739C49.6327 57.4353 49.0478 57.9999 48.3266 57.9999Z" fill="#FF7D59"/>
<path d="M11.7551 36.5651H1.30612C0.584751 36.5651 0 36.0005 0 35.3043C0 34.608 0.584751 34.0434 1.30612 34.0434H11.7551C12.4765 34.0434 13.0612 34.608 13.0612 35.3043C13.0612 36.0005 12.4765 36.5651 11.7551 36.5651Z" fill="#FF7D59"/>
<path d="M61.3879 36.5651H19.592C18.8706 36.5651 18.2859 36.0005 18.2859 35.3043C18.2859 34.608 18.8706 34.0434 19.592 34.0434H61.3879C62.1092 34.0434 62.6941 34.608 62.6941 35.3043C62.6941 36.0005 62.1092 36.5651 61.3879 36.5651Z" fill="#FF7D59"/>
<path d="M45.7145 28.9999H43.1023V31.5217H45.7145V28.9999Z" fill="#FF7D59"/>
<path d="M49.6328 28.9999H47.0205V31.5217H49.6328V28.9999Z" fill="#FF7D59"/>
<path d="M53.551 28.9999H50.9387V31.5217H53.551V28.9999Z" fill="#FF7D59"/>
<path d="M57.4693 36.5651C56.748 36.5651 56.1631 36.0005 56.1631 35.3043V7.56519H48.3264C47.6052 7.56519 47.0203 7.0007 47.0203 6.30432C47.0203 5.60795 47.6052 5.04346 48.3264 5.04346H57.4693C58.1905 5.04346 58.7754 5.60795 58.7754 6.30432V35.3043C58.7754 36.0005 58.1905 36.5651 57.4693 36.5651ZM6.53049 36.5651C5.80912 36.5651 5.22437 36.0005 5.22437 35.3043V6.30432C5.22437 5.60795 5.80912 5.04346 6.53049 5.04346H41.7958C42.517 5.04346 43.1019 5.60795 43.1019 6.30432C43.1019 7.0007 42.517 7.56519 41.7958 7.56519H7.83661V35.3043C7.83661 36.0005 7.25186 36.5651 6.53049 36.5651Z" fill="#FF7D59"/>
<path d="M59.6027 45.3912H4.39732C1.97264 45.3912 0 43.4869 0 41.1463V36.0848C0 35.3885 0.584751 34.8239 1.30612 34.8239C2.02749 34.8239 2.61224 35.3885 2.61224 36.0848V41.1463C2.61224 42.0965 3.41303 42.8695 4.39732 42.8695H59.6027C60.587 42.8695 61.3878 42.0965 61.3878 41.1463V4.24484C61.3878 3.29465 60.587 2.52174 59.6027 2.52174H44.9245C44.2032 2.52174 43.6183 1.95724 43.6183 1.26087C43.6183 0.56449 44.2032 0 44.9245 0H59.6027C62.0274 0 64 1.90429 64 4.24484V41.1463C64 43.4869 62.0274 45.3912 59.6027 45.3912ZM1.30612 31.0413C0.584751 31.0413 0 30.4767 0 29.7804V4.24484C0 1.90429 1.97264 0 4.39732 0H38.3939C39.1151 0 39.7 0.56449 39.7 1.26087C39.7 1.95724 39.1151 2.52174 38.3939 2.52174H4.39732C3.41303 2.52174 2.61224 3.29465 2.61224 4.24484V29.7804C2.61224 30.4768 2.02749 31.0413 1.30612 31.0413Z" fill="#FF7D59"/>
<path d="M19.5344 14.9904C18.3521 14.9904 17.1578 14.5161 15.9846 13.581C15.292 13.0288 14.6574 12.7489 14.0983 12.7489C13.3132 12.7489 12.8164 13.3439 12.8118 13.35C12.3879 13.9134 11.571 14.0384 10.9874 13.6289C10.4039 13.2196 10.2745 12.431 10.6985 11.8677C10.8248 11.6997 11.9939 10.2272 14.0983 10.2272C15.2807 10.2272 16.475 10.7014 17.6481 11.6366C18.3408 12.1887 18.9754 12.4686 19.5346 12.4686C20.3197 12.4686 20.8164 11.8736 20.821 11.8676C21.2449 11.3043 22.0619 11.1794 22.6454 11.5887C23.2289 11.9981 23.3582 12.7865 22.9343 13.3498C22.8078 13.5177 21.6387 14.9904 19.5344 14.9904Z" fill="#FF7D59"/>
<path d="M29.657 14.9904C28.4747 14.9904 27.2804 14.5161 26.1072 13.581C25.4146 13.0288 24.7799 12.7489 24.2209 12.7489C23.4358 12.7489 22.9389 13.3439 22.9344 13.35C22.5104 13.9134 21.6936 14.0384 21.11 13.6289C20.5264 13.2196 20.3971 12.431 20.8211 11.8677C20.9474 11.6997 22.1165 10.2272 24.2209 10.2272C25.4032 10.2272 26.5975 10.7014 27.7707 11.6366C28.4633 12.1887 29.098 12.4686 29.6571 12.4686C30.4422 12.4686 30.9389 11.8736 30.9435 11.8676C31.3676 11.3042 32.1843 11.1794 32.7679 11.5887C33.3515 11.9981 33.4809 12.7865 33.0568 13.3498C32.9304 13.5177 31.7613 14.9904 29.657 14.9904Z" fill="#FF7D59"/>
<path d="M39.7793 14.9903C38.5971 14.9903 37.4029 14.5161 36.2297 13.5809C35.5369 13.0288 34.9022 12.7487 34.3432 12.7487C33.5581 12.7487 33.0614 13.3437 33.0567 13.3498C32.6329 13.9131 31.8159 14.038 31.2323 13.6287C30.6487 13.2193 30.5194 12.4309 30.9434 11.8675C31.0698 11.6996 32.2388 10.227 34.3432 10.227C35.5255 10.227 36.7197 10.7012 37.893 11.6364C38.5858 12.1885 39.2203 12.4686 39.7793 12.4686C40.5645 12.4686 41.0614 11.8736 41.066 11.8675C41.4902 11.3043 42.307 11.1794 42.8905 11.5887C43.4741 11.9981 43.6032 12.7866 43.1793 13.3499C43.0527 13.5177 41.8836 14.9903 39.7793 14.9903Z" fill="#FF7D59"/>
<path d="M49.9017 14.9903C48.7195 14.9903 47.5253 14.5161 46.352 13.5809C45.6593 13.0288 45.0246 12.7487 44.4656 12.7487C43.6805 12.7487 43.1838 13.3437 43.1791 13.3498C42.7551 13.9133 41.9382 14.038 41.3547 13.6287C40.7711 13.2193 40.6417 12.4309 41.0658 11.8675C41.1921 11.6996 42.3612 10.227 44.4655 10.227C45.6478 10.227 46.842 10.7012 48.0152 11.6364C48.708 12.1885 49.3425 12.4686 49.9015 12.4686C50.6868 12.4686 51.1836 11.8736 51.1882 11.8675C51.6126 11.3043 52.4293 11.1794 53.0127 11.5887C53.5963 11.9981 53.7255 12.7866 53.3015 13.3499C53.1751 13.5177 52.006 14.9903 49.9017 14.9903Z" fill="#FF7D59"/>
<path d="M19.5344 20.1739C18.3521 20.1739 17.1578 19.6997 15.9846 18.7645C15.292 18.2124 14.6574 17.9324 14.0983 17.9324C13.3132 17.9324 12.8164 18.5274 12.8118 18.5335C12.3879 19.097 11.571 19.2219 10.9874 18.8124C10.4039 18.4031 10.2745 17.6146 10.6985 17.0512C10.8248 16.8833 11.9939 15.4107 14.0983 15.4107C15.2807 15.4107 16.475 15.8849 17.6481 16.8201C18.3405 17.3722 18.9753 17.6521 19.5344 17.6521C20.3195 17.6521 20.8163 17.0571 20.8208 17.0511C21.2448 16.4879 22.0618 16.3629 22.6452 16.7722C23.2288 17.1816 23.3581 17.97 22.9341 18.5334C22.8078 18.7013 21.6387 20.1739 19.5344 20.1739Z" fill="#FF7D59"/>
<path d="M29.657 20.1739C28.4747 20.1739 27.2804 19.6997 26.1072 18.7645C25.4146 18.2124 24.7799 17.9324 24.2209 17.9324C23.4358 17.9324 22.9389 18.5274 22.9344 18.5335C22.5104 19.097 21.6936 19.2219 21.11 18.8124C20.5264 18.4031 20.3971 17.6146 20.8211 17.0512C20.9474 16.8833 22.1165 15.4107 24.2209 15.4107C25.4032 15.4107 26.5975 15.8849 27.7707 16.8201C28.4631 17.3722 29.0978 17.6521 29.657 17.6521C30.4421 17.6521 30.9388 17.0571 30.9434 17.0511C31.3675 16.4876 32.1842 16.3629 32.7678 16.7722C33.3514 17.1816 33.4808 17.97 33.0567 18.5334C32.9304 18.7013 31.7613 20.1739 29.657 20.1739Z" fill="#FF7D59"/>
<path d="M39.7793 20.1739C38.5971 20.1739 37.4029 19.6997 36.2297 18.7645C35.5369 18.2124 34.9022 17.9323 34.3432 17.9323C33.5581 17.9323 33.0614 18.5273 33.0567 18.5334C32.6329 19.0969 31.8159 19.2217 31.2323 18.8123C30.6487 18.4029 30.5194 17.6145 30.9434 17.0511C31.0698 16.8832 32.2388 15.4106 34.3432 15.4106C35.5255 15.4106 36.7197 15.8848 37.893 16.82C38.5858 17.3721 39.2203 17.6522 39.7793 17.6522C40.5645 17.6522 41.0614 17.0572 41.066 17.0511C41.4902 16.4877 42.307 16.3629 42.8905 16.7723C43.4741 17.1817 43.6032 17.9701 43.1793 18.5335C43.0527 18.7013 41.8836 20.1739 39.7793 20.1739Z" fill="#FF7D59"/>
<path d="M49.9017 20.1739C48.7195 20.1739 47.5253 19.6997 46.352 18.7645C45.6593 18.2124 45.0246 17.9323 44.4656 17.9323C43.6805 17.9323 43.1838 18.5273 43.1791 18.5334C42.7551 19.0969 41.9382 19.2216 41.3547 18.8123C40.7711 18.4029 40.6417 17.6145 41.0658 17.0511C41.1921 16.8832 42.3612 15.4106 44.4655 15.4106C45.6478 15.4106 46.842 15.8848 48.0152 16.82C48.708 17.3721 49.3425 17.6522 49.9015 17.6522C50.6868 17.6522 51.1836 17.0572 51.1882 17.0511C51.6126 16.4877 52.4293 16.3629 53.0127 16.7723C53.5963 17.1817 53.7255 17.9701 53.3015 18.5335C53.1751 18.7013 52.006 20.1739 49.9017 20.1739Z" fill="#FF7D59"/>
<path d="M19.5344 25.2174C18.3521 25.2174 17.1578 24.7432 15.9846 23.808C15.292 23.2559 14.6574 22.976 14.0983 22.976C13.3132 22.976 12.8164 23.571 12.8118 23.577C12.3879 24.1405 11.571 24.2654 10.9874 23.8559C10.4039 23.4466 10.2745 22.6581 10.6985 22.0947C10.8248 21.9268 11.9939 20.4542 14.0983 20.4542C15.2807 20.4542 16.475 20.9284 17.6481 21.8636C18.3405 22.4158 18.9753 22.6957 19.5344 22.6957C20.3195 22.6957 20.8163 22.1007 20.8208 22.0946C21.2448 21.5313 22.0618 21.4064 22.6452 21.8157C23.2288 22.2251 23.3581 23.0135 22.9341 23.5769C22.8078 23.7448 21.6387 25.2174 19.5344 25.2174Z" fill="#FF7D59"/>
<path d="M29.657 25.2174C28.4747 25.2174 27.2804 24.7432 26.1072 23.808C25.4146 23.2559 24.7799 22.976 24.2209 22.976C23.4358 22.976 22.9389 23.571 22.9344 23.577C22.5104 24.1405 21.6936 24.2654 21.11 23.8559C20.5264 23.4466 20.3971 22.6581 20.8211 22.0947C20.9474 21.9268 22.1165 20.4542 24.2209 20.4542C25.4032 20.4542 26.5975 20.9284 27.7707 21.8636C28.4631 22.4158 29.0978 22.6957 29.657 22.6957C30.4421 22.6957 30.9388 22.1007 30.9434 22.0946C31.3675 21.5311 32.1842 21.4064 32.7678 21.8157C33.3514 22.2251 33.4808 23.0135 33.0567 23.5769C32.9304 23.7448 31.7613 25.2174 29.657 25.2174Z" fill="#FF7D59"/>
<path d="M39.7793 25.2173C38.5971 25.2173 37.4029 24.7431 36.2297 23.8079C35.5369 23.2558 34.9022 22.9758 34.3432 22.9758C33.5581 22.9758 33.0614 23.5708 33.0567 23.5768C32.6329 24.1402 31.8159 24.265 31.2323 23.8557C30.6487 23.4463 30.5194 22.6579 30.9434 22.0946C31.0698 21.9266 32.2388 20.454 34.3432 20.454C35.5255 20.454 36.7197 20.9283 37.893 21.8634C38.5858 22.4156 39.2203 22.6956 39.7793 22.6956C40.5645 22.6956 41.0614 22.1006 41.066 22.0946C41.4902 21.5313 42.307 21.4064 42.8905 21.8158C43.4741 22.2252 43.6032 23.0136 43.1793 23.577C43.0527 23.7448 41.8836 25.2173 39.7793 25.2173Z" fill="#FF7D59"/>
<path d="M49.9017 25.2173C48.7195 25.2173 47.5253 24.7431 46.352 23.8079C45.6593 23.2558 45.0246 22.9758 44.4656 22.9758C43.6805 22.9758 43.1838 23.5708 43.1791 23.5768C42.7551 24.1403 41.9382 24.265 41.3547 23.8557C40.7711 23.4463 40.6417 22.6579 41.0658 22.0946C41.1921 21.9266 42.3612 20.454 44.4655 20.454C45.6478 20.454 46.842 20.9283 48.0152 21.8634C48.708 22.4156 49.3425 22.6956 49.9015 22.6956C50.6868 22.6956 51.1836 22.1006 51.1882 22.0946C51.6126 21.5313 52.4293 21.4064 53.0127 21.8158C53.5963 22.2252 53.7255 23.0136 53.3015 23.577C53.1751 23.7448 52.006 25.2173 49.9017 25.2173Z" fill="#FF7D59"/>
</svg>
