<svg xmlns="http://www.w3.org/2000/svg" width="24.064" height="21.469" viewBox="0 0 24.064 21.469"><defs><style>.a{fill:#646464;}</style></defs><g transform="translate(0.004 -1.269)"><path class="a" d="M0,12V6.14A2.57,2.57,0,0,1,1.42,3.69a10.73,10.73,0,0,1,5-1.29,13.8,13.8,0,0,1,6.71,1A2.83,2.83,0,0,1,15,6.4c-.09,1.46,0,2.93,0,4.4,0,.61.19.75.76.73s.8,0,.78-.7c-.05-2.08,0-4.17,0-6.26,0-.82.09-.91.92-.91h.07c.6,0,1.33.2,1.76-.08s.13-1.1.19-1.67.24-.65.67-.64h3.27c.45,0,.64.24.64.66V6.39c0,.44-.21.65-.66.65H20.21c-.51,0-.75-.22-.73-.73V5.98c0-1.38,0-1.36-1.38-1.35-.43,0-.57.11-.57.56v5.73c0,.46.14.6.61.59,1.34,0,1.34,0,1.34-1.32,0-1,0-1.09,1.08-1.09h2.73c.54,0,.76.22.76.75v4.27c0,.52-.19.78-.74.76H20.24c-.53,0-.79-.21-.75-.76v-.26c0-1.52,0-1.51-1.54-1.39-.28,0-.4.11-.4.39V19c0,.2.05.35.3.35h1.33c.29,0,.3-.19.3-.41V17.61a.566.566,0,0,1,.65-.65h3.26c.44,0,.66.19.65.64v4.47c0,.48-.24.67-.7.66h-3.2a.57.57,0,0,1-.66-.64,1.34,1.34,0,0,0,0-.2c0-1.56,0-1.56-1.62-1.55H17.4c-.64.07-.88-.22-.87-.85V13.16c0-.57-.18-.71-.71-.68s-.84,0-.82.67v4.59a2.67,2.67,0,0,1-1.65,2.71,9.58,9.58,0,0,1-3.3,1,15.35,15.35,0,0,1-7.8-.74A5.27,5.27,0,0,1,.92,20,2.29,2.29,0,0,1,0,18.06ZM7.58,8a14.86,14.86,0,0,0,2.66-.26,6.86,6.86,0,0,0,3.25-1.27c.68-.56.68-1.08,0-1.64A4.82,4.82,0,0,0,11.86,4a14.76,14.76,0,0,0-7.69-.3A6.2,6.2,0,0,0,1.51,4.84a1,1,0,0,0,0,1.66,5.18,5.18,0,0,0,1.83.92A15.79,15.79,0,0,0,7.58,8ZM14,7.41A11.86,11.86,0,0,1,7.53,9,12.09,12.09,0,0,1,1,7.43,13.42,13.42,0,0,1,1,9.12,1.94,1.94,0,0,0,2.45,11.3a11.09,11.09,0,0,0,3.4.84,13.38,13.38,0,0,0,6.91-1c.55-.26,1.14-.58,1.21-1.23A23.8,23.8,0,0,0,14,7.41Zm0,4.21a11.66,11.66,0,0,1-6.52,1.57A11.66,11.66,0,0,1,1,11.63a17.72,17.72,0,0,1,0,1.8,1.74,1.74,0,0,0,1.16,1.94,12.83,12.83,0,0,0,6.44,1,10.36,10.36,0,0,0,4.23-1c.52-.27,1.08-.57,1.15-1.21C14.06,13.36,14,12.54,14,11.62ZM1,16a9.63,9.63,0,0,1,0,1.52c-.2,1.25.51,1.84,1.5,2.27a7.46,7.46,0,0,0,.94.33,14.11,14.11,0,0,0,5.92.46,8.48,8.48,0,0,0,4-1.26c.31-.22.65-.47.67-.87V15.99A14.89,14.89,0,0,1,1,16ZM23,4.15h0V2.69c0-.46-.12-.47-.47-.45H21c-.53,0-.61.1-.58.56V4.73c0,1.34,0,1.34,1.3,1.34a6.09,6.09,0,0,1,.74,0c.39,0,.57-.09.54-.52S23,4.62,23,4.15Zm-2.57,8c.06.49-.26,1.27.15,1.66s1.15.08,1.74.11h.27c.33,0,.42-.13.42-.43v-3c0-.28-.1-.4-.39-.39H20.89c-.35,0-.47.14-.46.47.01.43,0,.96,0,1.57ZM23,20V18.45c0-.33-.09-.48-.45-.47H20.88c-.35,0-.47.12-.46.46v2.67c0,.54.13.77.7.71s1.36.23,1.74-.12S22.93,20.47,23,20Z"/><path class="a" d="M2.41,9.87a.5.5,0,0,1,.06-1,.45.45,0,0,1,.46.53.48.48,0,0,1-.52.47Z"/><path class="a" d="M5.91,10.24a.47.47,0,0,1-.44.49.44.44,0,0,1-.53-.45.45.45,0,0,1,.49-.49C5.73,9.78,5.84,10,5.91,10.24Z"/><path class="a" d="M4,10.32a.51.51,0,0,1-.49-.44.44.44,0,0,1,.45-.52.42.42,0,0,1,.49.42A.581.581,0,0,1,4,10.32Z"/><path class="a" d="M3.91,13.71a.442.442,0,0,1,.49.45.45.45,0,0,1-.48.51.46.46,0,0,1-.47-.51.48.48,0,0,1,.46-.45Z"/><path class="a" d="M5.4,14.15a.48.48,0,1,1,0,.95.45.45,0,0,1-.49-.5A.484.484,0,0,1,5.4,14.15Z"/><path class="a" d="M2.41,13.28a.447.447,0,0,1,.51.44.42.42,0,0,1-.47.5A.44.44,0,0,1,2,13.79a.46.46,0,0,1,.41-.51Z"/><path class="a" d="M5.91,19a.491.491,0,1,1-.98,0,.46.46,0,0,1,.46-.48C5.7,18.5,5.85,18.72,5.91,19Z"/><path class="a" d="M2.93,18.15a.424.424,0,0,1-.48.45.455.455,0,0,1-.49-.5.46.46,0,0,1,.55-.44.46.46,0,0,1,.42.49Z"/><path class="a" d="M4,19a.44.44,0,0,1-.48-.43.43.43,0,0,1,.46-.51A.47.47,0,1,1,4,19Z"/></g></svg>