<svg xmlns="http://www.w3.org/2000/svg" width="18.161" height="22.04" viewBox="0 0 18.161 22.04"><defs><style>.a{fill:#646464;}</style></defs><g transform="translate(-2.114)"><path class="a" d="M5.145,13.514c.468-.5.843-.917,1.274-1.329a7.124,7.124,0,0,1,4.722-1.834,9.746,9.746,0,0,0,3.511-.623A3.731,3.731,0,0,0,17.091,7.2c.128-.458.1-.743-.4-1a2.265,2.265,0,0,1-1.1-2.686,2.365,2.365,0,0,1,4.584,0,2.283,2.283,0,0,1-1.164,2.723,1.128,1.128,0,0,0-.66.917,5.017,5.017,0,0,1-3.667,3.9,10.177,10.177,0,0,1-3.236.513,6.519,6.519,0,0,0-6.179,4.373c-.321.834-.22,1.137.523,1.614a2.393,2.393,0,0,1,.972,2.75,2.347,2.347,0,0,1-4.566-.128,2.283,2.283,0,0,1,1.164-2.595.917.917,0,0,0,.568-.972V5.464a.862.862,0,0,0-.578-.917A2.32,2.32,0,0,1,2.211,1.834,2.375,2.375,0,0,1,4.457,0,2.4,2.4,0,0,1,5.622,4.492c-.284.156-.559.238-.55.669v8a1.916,1.916,0,0,0,.073.348Zm.532,6.042a1.256,1.256,0,0,0-1.219-1.219A1.256,1.256,0,0,0,3.266,19.6a1.238,1.238,0,0,0,1.21,1.174A1.219,1.219,0,0,0,5.677,19.556Zm0-17.071A1.183,1.183,0,0,0,4.531,1.238,1.174,1.174,0,0,0,3.275,2.4,1.21,1.21,0,0,0,4.412,3.667,1.229,1.229,0,0,0,5.677,2.485ZM19.062,4.2A1.2,1.2,0,0,0,17.87,3a1.219,1.219,0,1,0,.046,2.43A1.192,1.192,0,0,0,19.062,4.2Z"/><path class="a" d="M18.9,16.4a1.073,1.073,0,0,1-.614-.917,4.667,4.667,0,0,0-3.438-3.667,9.608,9.608,0,0,0-3.016-.477l-.248,1.137a9.067,9.067,0,0,1,3.273.587,3.511,3.511,0,0,1,2.265,2.384.669.669,0,0,1-.376.917,2.118,2.118,0,0,0-1.027,2.512,2.2,2.2,0,0,0,4.236,0A2.136,2.136,0,0,0,18.9,16.4Zm-1.054,3.025A1.146,1.146,0,0,1,16.7,18.271a1.128,1.128,0,0,1,1.183-1.109,1.082,1.082,0,0,1,1.064,1.146,1.1,1.1,0,0,1-1.1,1.119Z" transform="translate(-0.787 -0.943)"/></g></svg>