<svg xmlns="http://www.w3.org/2000/svg" width="44.125" height="32.479" viewBox="0 0 44.125 32.479">
  <g id="Group_90" data-name="Group 90" transform="translate(0 -3.168)">
    <path id="Path_764" data-name="Path 764" d="M44.061,28.059c.351,1.4-.8,2.614-2.081,3.679a18.529,18.529,0,0,1-9.8,3.892A1.309,1.309,0,0,1,30.813,35c-.458-.68-1-1.309-1.421-2.01a1.452,1.452,0,0,0-1.807-.776,28.464,28.464,0,0,1-11.486-.04.92.92,0,0,0-1.142.432c-.526.805-1.131,1.561-1.677,2.355a1.4,1.4,0,0,1-1.456.664,18.668,18.668,0,0,1-9.7-3.859,4.777,4.777,0,0,1-2.1-4.288A58.954,58.954,0,0,1,4.164,9.857C5.288,7.068,7.384,5.6,9.987,4.591A25.832,25.832,0,0,1,15.58,3.2c1.024-.153,1.633.175,1.8,1.14s.607,1.1,1.53.951a19.717,19.717,0,0,1,6.507.031c.706.12,1,0,1.2-.726.393-1.464.564-1.543,2.129-1.34a20.543,20.543,0,0,1,7.967,2.629,6.3,6.3,0,0,1,2.574,2.778A52.78,52.78,0,0,1,44.061,28.059Zm-1.947-.544a52.484,52.484,0,0,0-4.142-17.229,6.362,6.362,0,0,0-3.361-3.4A21.952,21.952,0,0,0,29.2,5.272c-.283-.046-.715-.23-.813.224-.1.495.417.423.666.489A22.433,22.433,0,0,1,34.76,8.348c.553.331,1.088.7.682,1.43-.43.774-1.026.5-1.649.18a24.275,24.275,0,0,0-23.477-.031c-.61.314-1.228.66-1.671-.094-.432-.732.092-1.162.7-1.521A22.851,22.851,0,0,1,14.968,6c.259-.07.774-.013.691-.476-.1-.539-.585-.287-.884-.235A21.273,21.273,0,0,0,9.367,6.925a6.2,6.2,0,0,0-3.223,3.254A50.517,50.517,0,0,0,1.969,27.664a2.458,2.458,0,0,0,.776,2,13.794,13.794,0,0,0,7.022,3.646c2.05.489,2.019.469,3.218-1.125.469-.623.267-.791-.338-.991a17.531,17.531,0,0,1-4.915-2.556.955.955,0,0,1-.34-1.394.892.892,0,0,1,1.4-.186,20.731,20.731,0,0,0,11.627,3.778c5.207.292,10.175-.559,14.578-3.585.6-.412,1.166-.7,1.655-.006s-.02,1.179-.579,1.579a15.584,15.584,0,0,1-4.455,2.289c-1.017.314-.967.706-.333,1.3.458.432.522,1.388,1.43,1.228a15.909,15.909,0,0,0,7.976-3.376C41.64,29.443,42.467,28.563,42.114,27.515Z" transform="translate(0)" fill="#646464"/>
    <path id="Path_765" data-name="Path 765" d="M6.278,15.14a4.45,4.45,0,0,1,4.492-4.688,4.55,4.55,0,0,1,4.041,5.025,4.381,4.381,0,0,1-4.7,4.449A4.53,4.53,0,0,1,6.278,15.14Zm6.689.057a2.722,2.722,0,0,0-2.423-2.872,2.72,2.72,0,0,0-2.412,2.881,2.747,2.747,0,0,0,2.421,2.883A2.744,2.744,0,0,0,12.967,15.2Z" transform="translate(5.264 6.105)" fill="#646464"/>
    <path id="Path_766" data-name="Path 766" d="M13.047,15.029A4.427,4.427,0,0,1,17.4,10.451a4.556,4.556,0,0,1,4.209,4.865,4.473,4.473,0,0,1-4.442,4.622C14.784,19.883,12.988,17.745,13.047,15.029Zm6.678.156A2.709,2.709,0,0,0,17.3,12.323a2.737,2.737,0,0,0-2.409,2.892,2.742,2.742,0,0,0,2.436,2.872A2.746,2.746,0,0,0,19.724,15.186Z" transform="translate(10.939 6.107)" fill="#646464"/>
  </g>
</svg>
