<svg xmlns="http://www.w3.org/2000/svg" width="35" height="33.868" viewBox="0 0 35 33.868"><defs><style>.a{fill:#3c3c3c;}</style></defs><path class="a" d="M-31.634-40.387a3.93,3.93,0,0,0-1.042,2.131c-.029.173-.134.225-.265.276a3.652,3.652,0,0,1-4.832-1.491,3.613,3.613,0,0,0-2.386-1.795,1.565,1.565,0,0,0-.781.013c-.379.112-.433.3-.157.594a1.972,1.972,0,0,0,.412.346,4.724,4.724,0,0,1,1.925,2.384,3.876,3.876,0,0,0,3.509,2.449A6.556,6.556,0,0,0-33.1-35.6c.311-.072.342.043.341.3-.005.9.007,1.8.011,2.7,0,.835-.511,1.218-1.308.953a16.475,16.475,0,0,1-5.458-3.019,16.81,16.81,0,0,1-6.347-14.34A17.26,17.26,0,0,1-32.772-64.87,17.528,17.528,0,0,1-11.52-52.679,17.347,17.347,0,0,1-22.671-31.665c-.871.29-1.375-.071-1.374-.989,0-1.234-.006-2.467.014-3.7a5.233,5.233,0,0,0-1.132-4.027c.641-.118,1.226-.208,1.8-.335a11.117,11.117,0,0,0,1.278-.359,6.785,6.785,0,0,0,4.7-5.848,10.158,10.158,0,0,0,.035-3.351A6.464,6.464,0,0,0-18.8-53.356a.544.544,0,0,1-.129-.587,6.323,6.323,0,0,0-.182-4.036.385.385,0,0,0-.433-.288,5.919,5.919,0,0,0-2.352.619A12.449,12.449,0,0,0-23.779-56.6a.557.557,0,0,1-.5.086,16.58,16.58,0,0,0-8.223,0,.659.659,0,0,1-.572-.121A9.888,9.888,0,0,0-36.7-58.219c-.054-.009-.108-.022-.163-.029-.682-.088-.734-.058-.936.6a6.2,6.2,0,0,0-.043,3.8.336.336,0,0,1-.066.373,7.365,7.365,0,0,0-1.571,6.156,9.562,9.562,0,0,0,.6,2.41,6.9,6.9,0,0,0,5.005,4.1A20.764,20.764,0,0,0-31.634-40.387Z" transform="translate(45.89 65.434)"/><path class="a" d="M-34.586-37.331c.191.017.387.04.373.258-.013.2-.2.247-.376.242-.153,0-.325-.049-.33-.241C-34.926-37.3-34.728-37.3-34.586-37.331Z" transform="translate(45.89 65.434)"/><path class="a" d="M-37.26-38.307a.409.409,0,0,1,.366.394c.014.155-.1.22-.241.2a.4.4,0,0,1-.374-.372C-37.527-38.239-37.446-38.314-37.26-38.307Z" transform="translate(45.89 65.434)"/><path class="a" d="M-36-37.561c.188.04.372.111.356.329s-.2.195-.354.177c-.177-.02-.337-.1-.336-.3S-36.152-37.556-36-37.561Z" transform="translate(45.89 65.434)"/><path class="a" d="M-33.19-37.5c.153.014.323.041.313.212-.014.241-.222.3-.425.3-.142,0-.3-.059-.281-.234C-33.56-37.453-33.365-37.482-33.19-37.5Z" transform="translate(45.89 65.434)"/><path class="a" d="M-38.337-39.074c0-.144.06-.239.2-.222a.366.366,0,0,1,.33.4.163.163,0,0,1-.21.181A.383.383,0,0,1-38.337-39.074Z" transform="translate(45.89 65.434)"/><path class="a" d="M-38.524-39.887c.006.131-.065.19-.175.184a.307.307,0,0,1-.305-.28c-.017-.107.026-.208.143-.2A.358.358,0,0,1-38.524-39.887Z" transform="translate(45.89 65.434)"/><path class="a" d="M-39.275-40.589c0,.108-.067.148-.155.151a.263.263,0,0,1-.292-.176c-.035-.123.056-.175.164-.173A.3.3,0,0,1-39.275-40.589Z" transform="translate(45.89 65.434)"/></svg>