<svg xmlns="http://www.w3.org/2000/svg" width="46.115" height="46.132" viewBox="0 0 46.115 46.132">
  <g id="Group_41" data-name="Group 41" transform="translate(0.354 0.377)">
    <g id="Group_38" data-name="Group 38" transform="translate(6.524 9.915)">
      <path id="Path_580" data-name="Path 580" d="M260.007-2260.489a1.7,1.7,0,0,1-.342-1.491,8.747,8.747,0,0,0-.217-3.975c-.359-1.295-.755-1.546-2.085-1.314a11.044,11.044,0,0,0-3.958,1.62,2.009,2.009,0,0,1-1.637.287,19.427,19.427,0,0,0-8.452-.017,2.09,2.09,0,0,1-1.726-.289,10.294,10.294,0,0,0-3.958-1.6c-1.293-.215-1.654.019-2.032,1.26a9.254,9.254,0,0,0-.179,4.263,1.019,1.019,0,0,1-.108.88c-1.871,2.428-2.086,5.179-1.62,8.093a8.887,8.887,0,0,0,6.061,7.589c.648.217,1.312.361,1.96.559.217.053.5-.019.559.342a2.3,2.3,0,0,1-1.314,1.833,3.413,3.413,0,0,1-4.011-1.708,5.029,5.029,0,0,0-3.722-2.608c-.7-.072-1.439,0-1.709.791-.251.72.287,1.169.81,1.511a5.749,5.749,0,0,1,2.211,2.753,5.694,5.694,0,0,0,5.719,3.686c1.4.036,1.42,0,1.4,1.4a2.948,2.948,0,0,1-.166,1.2l-.006.021c-.006.028.006.057,0,.087-.032.132-.057.268-.093.4-.011.038-.3.888-.313.926.41.142.829.278,1.265.391.008-.036.3-.882.3-.918a.442.442,0,0,1,.019-.072,1.289,1.289,0,0,1,.072-.36,12.3,12.3,0,0,0,.126-4.066c-.019-.629-.557-.609-1.006-.5a7.382,7.382,0,0,1-2.249.144,4.08,4.08,0,0,1-3.614-2.338,13.05,13.05,0,0,0-2.069-3.382,3.429,3.429,0,0,1,1.888,1.654,4.931,4.931,0,0,0,6.348,2.015c.253-.108.612-.144.684-.414a13.53,13.53,0,0,1,1.386-3.021c.359-.612-.414-.81-.918-.863a14.038,14.038,0,0,1-3.093-.683c-3.454-1.2-5-3.848-5.342-7.321-.234-2.445.019-4.783,1.781-6.707a1.085,1.085,0,0,0,.162-1.151,6.627,6.627,0,0,1-.072-3.65c.125-.648.485-.827,1.1-.667a11.626,11.626,0,0,1,3.506,1.637,1.914,1.914,0,0,0,1.726.289,18.086,18.086,0,0,1,8.831,0,2.144,2.144,0,0,0,1.833-.324,12.974,12.974,0,0,1,3.219-1.547c.9-.289,1.224.036,1.384.882a6.436,6.436,0,0,1-.089,3.255,1.423,1.423,0,0,0,.287,1.492,9.018,9.018,0,0,1-5.395,14.261c-.54.089-1.08.144-1.618.234-.846.144-1.1.648-.54,1.258a5.41,5.41,0,0,1,1.133,3.436c.127,2.068-.27,4.154.2,6.222,0,.021-.006.028,0,.047.023.1.327,1.086.357,1.185.446-.112.889-.223,1.31-.363l-.285-.917c-.034-.087-.057-.176-.091-.261l.091.216c-.072-.161-.145-.321-.2-.488a1.111,1.111,0,0,1-.03-.158l0-.006c-.026-.121-.053-.24-.07-.364,0-.015.009-.031.009-.046a1.3,1.3,0,0,1-.023-.157c-.036-1.207,0-2.392,0-3.6a9.659,9.659,0,0,0-.449-4.046c-.306-.631-.091-.827.5-.935a12.27,12.27,0,0,0,3.831-1.439C261.876-2248.745,262.758-2256.873,260.007-2260.489Z" transform="translate(-231.455 2267.347)" fill="#797979" stroke="#797979" stroke-width="0.7"/>
    </g>
    <g id="Group_39" data-name="Group 39" transform="translate(0 0)">
      <path id="Path_583" data-name="Path 583" d="M270.581-2260.545a22.864,22.864,0,0,0-26.063-11.148,21.846,21.846,0,0,0-5.179,2.056c-.425.237-.7.56-.412,1.044.249.423.634.4,1.025.169.125-.072.253-.138.38-.2a20.963,20.963,0,0,1,10.24-2.413,15.77,15.77,0,0,1,3.54.318c11.428,2.053,19.292,12.607,17.547,23.918a20.408,20.408,0,0,1-10.744,15.494,18.7,18.7,0,0,1-10.3,2.85c-.151,0-.289-.019-.436-.023a20.794,20.794,0,0,1-4.128-.39.76.76,0,0,1-.413-.181,17.607,17.607,0,0,1-4.218-1.6,21.482,21.482,0,0,1-7.717-32.308c.153-.2.317-.391.463-.594.253-.355.364-.765-.008-1.061a.7.7,0,0,0-1.039.2c-.115.137-.228.277-.34.417a23.66,23.66,0,0,0-1.441,26.387c5.606,9.038,16.554,12.966,27.419,8.98C271.444-2233.3,277.122-2248.728,270.581-2260.545Z" transform="translate(-228 2272.461)" fill="#797979" stroke="#797979" stroke-width="0.7"/>
      <path id="Path_584" data-name="Path 584" d="M233.775-2269.366a.65.65,0,0,1-.682.659.586.586,0,0,1-.64-.589.6.6,0,0,1,.665-.668C233.513-2269.969,233.692-2269.734,233.775-2269.366Z" transform="translate(-224.046 2274.679)" fill="#797979" stroke="#797979" stroke-width="0.7"/>
    </g>
  </g>
</svg>
