<svg xmlns="http://www.w3.org/2000/svg" width="34.949" height="34.97" viewBox="0 0 34.949 34.97"><defs><style>.a{fill:#dcd2eb;}.b{fill:#3c3c3c;}.c{fill:#404040;}</style></defs><g transform="translate(0.009 0.02)"><circle class="a" cx="14.84" cy="14.84" r="14.84" transform="translate(5.26 5.27)"/><path class="b" d="M7.26,2.73c-.2-.54-.16-.66.35-.94A14.69,14.69,0,0,1,16.2.06a14.65,14.65,0,0,1,12.46,8.8,13.18,13.18,0,0,1,1.28,7c-.6,6.3-3.84,10.78-9.76,13.06A14.37,14.37,0,0,1,8,28.33,14.15,14.15,0,0,1,.44,18.54,15.17,15.17,0,0,1,3,5.81c.09-.13.2-.26.3-.39.39-.49.47-.51,1-.24a.81.81,0,0,1-.23.87,10.29,10.29,0,0,0-.82,1.14,14.21,14.21,0,0,0-2.24,8,7,7,0,0,0,.1,1.45,13.55,13.55,0,0,0,3.13,7.31,13.81,13.81,0,0,0,5.84,4.13c.49.18.78,0,.79-.53v-.81c0-.65,0-.64-.67-.6A4,4,0,0,1,6,23.52,3.45,3.45,0,0,0,4.51,21.7,1.64,1.64,0,0,1,4,21.18a.67.67,0,0,1,.32-1.05,1.75,1.75,0,0,1,1.13-.07,3.61,3.61,0,0,1,2.28,1.76A2.4,2.4,0,0,0,10.62,23a.54.54,0,0,0,.46-.47,2.83,2.83,0,0,1,.24-.67c.07-.15.06-.22-.12-.25s-.55-.11-.82-.18A6.24,6.24,0,0,1,6,17.91a9.34,9.34,0,0,1-.71-3.46A6.2,6.2,0,0,1,6.58,10.2a.37.37,0,0,0,0-.35,5.71,5.71,0,0,1,.12-3.2c.3-.82.47-.93,1.3-.84h.15a7.89,7.89,0,0,1,2.94,1.24.86.86,0,0,0,.7.12,13.93,13.93,0,0,1,6.42,0,.62.62,0,0,0,.53-.09,10.13,10.13,0,0,1,1.88-1,4.23,4.23,0,0,1,1.76-.35c.43,0,.57.12.71.52a5.83,5.83,0,0,1,.23,3.55.43.43,0,0,0,.11.39,5.9,5.9,0,0,1,1.16,2.63,9.2,9.2,0,0,1-.09,3.31,6.07,6.07,0,0,1-4.09,4.93,9,9,0,0,1-1.62.44c-.19,0-.26.07-.16.27A4.84,4.84,0,0,1,19.1,24v3.5c0,.5.25.68.72.5a12.16,12.16,0,0,0,1.56-.7A13.85,13.85,0,0,0,26.24,6.74a.73.73,0,0,0-.2-.19s0-.08-.07-.07h0c0-.07,0-.1-.07-.13h0l-.07-.07h0L25.66,6a14.16,14.16,0,0,0-9.94-5A13.57,13.57,0,0,0,8.05,2.7a.8.8,0,0,1-.79.03Zm4.32,25.81a.34.34,0,0,0,.24.1,15,15,0,0,0,2,.28,14.63,14.63,0,0,0,4.33-.38c.14,0,.22-.06.12-.21a1.66,1.66,0,0,1-.17-.88c0-1.19,0-2.39,0-3.59a3.06,3.06,0,0,0-.73-2.16c-.17-.18-.32-.35-.22-.63a.61.61,0,0,1,.58-.35,10.69,10.69,0,0,0,1.5-.26,5.2,5.2,0,0,0,4-3.2,9,9,0,0,0,.52-2.9,5.22,5.22,0,0,0-1.33-3.81.56.56,0,0,1-.11-.61,4.7,4.7,0,0,0,0-2.85c-.06-.25-.17-.32-.43-.27a8.08,8.08,0,0,0-2.84,1.31.85.85,0,0,1-.76.12,12.64,12.64,0,0,0-6.05-.12,2,2,0,0,1-1.82-.3A5.77,5.77,0,0,0,8,6.82c-.16,0-.29-.06-.36.17a4.72,4.72,0,0,0,0,2.88.69.69,0,0,1-.15.76A4.94,4.94,0,0,0,6.37,13a8,8,0,0,0,0,2.85,5.19,5.19,0,0,0,3.89,4.54,17.089,17.089,0,0,0,2.13.43.48.48,0,0,1,.3.82,2.76,2.76,0,0,0-.77,1.63.57.57,0,0,1-.37.46,3.51,3.51,0,0,1-4.76-1.4,2.88,2.88,0,0,0-.91-1c-.09-.06-.18-.15-.31-.08A5.33,5.33,0,0,1,7,23.3,2.7,2.7,0,0,0,8.84,25a4.88,4.88,0,0,0,2.31,0c.49-.1.72.09.73.57s0,1.19,0,1.78a1.74,1.74,0,0,1-.3,1.19Z"/><path class="b" d="M6,3.48a1.46,1.46,0,0,1,0,.36.48.48,0,0,1-.67.39c-.08,0-.14-.09-.23-.07a.45.45,0,0,0,0-.12.51.51,0,0,1,.15-.67A.51.51,0,0,1,6,3.44Z"/><path class="c" d="M23.14,12.31l-.05-.1a.08.08,0,0,1,.05.1Z"/><path class="c" d="M23.09,12.21,23,12.16Z"/><path class="c" d="M23.19,12.36h-.05S23.19,12.33,23.19,12.36Z"/></g></svg>