<svg xmlns="http://www.w3.org/2000/svg" viewBox="0 0 24 24"><defs><style>.cls-1{fill:#646464;}</style></defs><g id="Layer_4" data-name="Layer 4"><path class="cls-1" d="M.29,11.58c0-2,.05-3.93,0-5.89A2.63,2.63,0,0,1,3,3c.58,0,1.17,0,1.74,0s.68-.09.62-.59a6.76,6.76,0,0,1,0-.9A.49.49,0,0,1,5.86,1a.49.49,0,0,1,.56.5q0,2,0,4.08a.51.51,0,0,1-.55.53.51.51,0,0,1-.54-.58V5.16c0-1.06,0-1.06-1.09-1.06-.52,0-1,0-1.56,0A1.22,1.22,0,0,0,1.39,5.39q0,6.22,0,12.44a1.27,1.27,0,0,0,1.42,1.29H8c.33,0,.61.05.72.41a.55.55,0,0,1-.6.69c-1.84,0-3.69,0-5.53,0A2.49,2.49,0,0,1,.29,17.7q0-3.06,0-6.12Z"/><path class="cls-1" d="M15.5,3.55v1.8c0,.41-.09.76-.57.75s-.53-.33-.55-.72.19-1-.1-1.2S13.44,4.1,13,4.1H8c-.37,0-.62-.18-.61-.58S7.61,3,8,3h2.82c1,0,2,0,2.94,0,.51,0,.76-.1.67-.65a3.37,3.37,0,0,1,0-.84A.52.52,0,0,1,15,1a.51.51,0,0,1,.54.53c0,.68,0,1.36,0,2Z"/><path class="cls-1" d="M6.8,8.87h3.43c.37,0,.71.08.72.53s-.33.58-.74.58H3.31c-.4,0-.75-.08-.75-.57s.38-.53.76-.53Z"/><path class="cls-1" d="M19.41,6.37c0-.32,0-.64,0-1a1.21,1.21,0,0,0-1.26-1.3c-.38,0-.77,0-1.15,0a.55.55,0,0,1-.58-.56A.5.5,0,0,1,17,3a6.7,6.7,0,0,1,1.73.08,2.54,2.54,0,0,1,1.79,2.31c0,.74,0,1.48,0,2.22,0,.37-.15.65-.54.65s-.57-.27-.58-.63S19.41,6.79,19.41,6.37Z"/><path class="cls-1" d="M17.16,19.11h1c.8,0,1.24-.29,1.29-1.11,0-.38,0,.18,0-.2a.53.53,0,0,1,.55-.58c.35,0,.54.22.54.58a2.21,2.21,0,0,1-.06.64,2.25,2.25,0,0,1-2.33,1.78c-.74,0-5.26,0-6,0-.37,0-.64-.15-.64-.55s.27-.56.63-.57Z"/><path class="cls-1" d="M21.4,17.15a5.94,5.94,0,0,0-2.54-.75c-.73-.06-1.46-.06-2.19-.08A9,9,0,0,1,14,15.93a5.1,5.1,0,0,1-1.05-.51.67.67,0,0,1-.3-.83l.84-3.14c.27-1,.53-2,.8-3l0-.11c.07-.22.2-.28.4-.17s.44.26.67.37a6.58,6.58,0,0,0,2.51.58c.91,0,1.82.05,2.74.1a6.35,6.35,0,0,1,2.3.55,3.08,3.08,0,0,1,.59.33.57.57,0,0,1,.29.73l-.48,1.82L22.15,17c0,.06,0,.12,0,.18a.23.23,0,0,1-.34.14,1,1,0,0,1-.18-.09Zm-2.83-5.43c-.05,0,0-.07,0-.1l.22-.88c.07-.24.13-.49.2-.75a16.81,16.81,0,0,1-2-.07c-.1,0-.11.05-.13.12-.13.5-.26,1-.4,1.5,0,.09,0,.13.1.14.64.06,1.28.05,1.92.06l.1,0s-.05.07-.06.11c-.16.58-.31,1.16-.47,1.74,0,.13,0,.16.12.16a15.83,15.83,0,0,1,1.82.08c.1,0,.13,0,.16-.11.15-.57.3-1.14.46-1.71,0-.12,0-.16-.12-.17a15.73,15.73,0,0,0-1.68-.07A.36.36,0,0,1,18.57,11.72Zm-1,3.7a.53.53,0,0,0,0-.11c.13-.46.25-.93.38-1.4,0-.14,0-.19-.14-.19A17.44,17.44,0,0,1,16,13.67c-.12,0-.14,0-.1-.16l.45-1.71c0-.11,0-.14-.1-.16a5.51,5.51,0,0,1-1.68-.54c-.11-.06-.14,0-.17.08-.14.55-.28,1.1-.44,1.65-.05.16,0,.22.14.29a6,6,0,0,0,1.6.5c.14,0,.16.06.12.2-.14.49-.26,1-.4,1.47,0,.1,0,.14.1.15.62.05,1.24.06,1.85.06C17.46,15.5,17.51,15.51,17.53,15.42Zm4,.74v-.05c.14-.53.29-1.06.43-1.59,0-.07,0-.1-.07-.13a5.9,5.9,0,0,0-1.63-.54c-.07,0-.12,0-.14.08-.14.51-.27,1-.41,1.54,0,.1,0,.14.09.15l.5.12a6.1,6.1,0,0,1,1.08.4S21.44,16.22,21.49,16.16Zm1.32-5.53a6,6,0,0,0-1.59-.52c-.09,0-.13,0-.15.09-.13.5-.26,1-.4,1.5,0,.11,0,.14.11.16a5.68,5.68,0,0,1,1.57.52c.11.06.14,0,.17-.08q.18-.72.39-1.44C22.94,10.74,22.93,10.66,22.81,10.63Z"/><path class="cls-1" d="M10,21.78a.53.53,0,0,1-.65.27A.51.51,0,0,1,9,21.5c.07-.41.21-.8.32-1.2q1.56-5.52,3.13-11c.16-.54.3-1.09.47-1.62a.53.53,0,0,1,.89-.23.56.56,0,0,1,.11.62c-.22.79-.45,1.58-.67,2.37L11.1,18c-.34,1.2-.68,2.4-1,3.6C10.05,21.67,10,21.74,10,21.78Z"/></g></svg>