<svg xmlns="http://www.w3.org/2000/svg" width="266.87" height="196.961" viewBox="0 0 266.87 196.961"><defs><style>.a,.b,.s,.u{fill:#fff;}.a{stroke:#231f20;}.a,.b,.n,.x{stroke-miterlimit:10;}.ab,.c,.l,.n,.v,.w,.x,.y{fill:none;}.c,.u,.v{stroke:#2a1e17;}.c,.l,.u,.v,.w,.y{stroke-linecap:round;stroke-linejoin:round;}.d{fill:#a0c6f4;}.e{fill:#2a1e17;}.f{fill:#eaecec;}.g{fill:#f9865f;}.h{fill:#2a1e33;}.i{fill:#7595ec;}.j{fill:#ff8a66;}.k{fill:#fff7c9;}.l{stroke:#2a1e33;}.m{fill:#ff6d66;}.n,.y{stroke:#a0c6f4;}.n{stroke-width:4px;}.o{fill:#fad8b0;}.p{fill:#c6cbcb;}.q{fill:#fff7dc;}.r{fill:#ffe1c0;}.t{fill:#91ba83;}.v{stroke-width:0.671px;}.w{stroke:#ff6d66;}.x{stroke:#fad8b0;}.aa,.ac,.ad,.z{stroke:none;}.aa{fill:#a0c6f4;}.ac{fill:#fad8b0;}.ad{fill:#96bd89;}</style></defs><g transform="translate(-6416.045 -2676.717)"><g transform="translate(6614.934 2700.33)"><path class="a" d="M.576,0H8.341a.575.575,0,0,1,.575.575v0a.576.576,0,0,1-.576.576H.576A.576.576,0,0,1,0,.576v0A.576.576,0,0,1,.576,0Z" transform="translate(22.334 11.799) rotate(-118.217)"/><path class="a" d="M.576,0H8.341a.575.575,0,0,1,.575.575v0a.576.576,0,0,1-.576.576H.576A.576.576,0,0,1,0,.576v0A.576.576,0,0,1,.576,0Z" transform="translate(15.914 8.217) rotate(-163.217)"/><path class="a" d="M.576,0H8.341a.575.575,0,0,1,.575.575v0a.576.576,0,0,1-.576.576H.576A.576.576,0,0,1,0,.576v0A.576.576,0,0,1,.576,0Z" transform="translate(14.947 11.337) rotate(-163.217)"/><path class="a" d="M.576,0H8.341a.575.575,0,0,1,.575.575v0a.576.576,0,0,1-.576.576H.576A.576.576,0,0,1,0,.576v0A.576.576,0,0,1,.576,0Z" transform="translate(23.338 11.29) rotate(151.783)"/><path class="a" d="M.576,0H8.341a.575.575,0,0,1,.575.575v0a.576.576,0,0,1-.576.576H.576A.576.576,0,0,1,0,.576v0A.576.576,0,0,1,.576,0Z" transform="translate(0.011 4.216) rotate(-28.217)"/><path class="a" d="M.576,0H8.341a.575.575,0,0,1,.575.575v0a.576.576,0,0,1-.576.576H.576A.576.576,0,0,1,0,.576v0A.576.576,0,0,1,.576,0Z" transform="translate(1.014 3.707) rotate(61.783)"/></g><g transform="translate(6416.045 2677.052)"><g transform="translate(129.369 4.696)"><g transform="translate(0 1.058)"><g class="b" transform="translate(-6970.109 -2701.695)"><path class="z" d="M 7014.53466796875 2749.314697265625 C 7004.26220703125 2739.9267578125 6993.17041015625 2734.74755859375 6985.50830078125 2732.02685546875 C 6979.97802734375 2730.063232421875 6975.47412109375 2729.078125 6972.84130859375 2728.612060546875 C 6973.75732421875 2726.15625 6975.298828125 2722.0517578125 6976.92138671875 2717.855224609375 C 6980.68994140625 2708.1103515625 6982.18603515625 2704.865966796875 6982.75927734375 2703.7890625 C 6983.23974609375 2703.741943359375 6983.95556640625 2703.69482421875 6984.896484375 2703.69482421875 C 6988.77001953125 2703.69482421875 6997.0703125 2704.50537109375 7009.13525390625 2709.9345703125 C 7013.673828125 2711.97705078125 7017.71044921875 2714.2529296875 7021.13232421875 2716.69873046875 C 7023.8564453125 2718.645751953125 7026.1982421875 2720.70361328125 7028.09228515625 2722.815185546875 C 7030.15283203125 2725.111572265625 7031.228515625 2726.973876953125 7031.736328125 2728.01806640625 L 7014.53466796875 2749.314697265625 Z"/><path class="aa" d="M 6984.8955078125 2705.69482421875 C 6984.58349609375 2705.69482421875 6984.2998046875 2705.700439453125 6984.04541015625 2705.70947265625 C 6983.2861328125 2707.33740234375 6981.7294921875 2710.95556640625 6978.65478515625 2718.91796875 C 6977.50244140625 2721.9033203125 6976.39794921875 2724.82177734375 6975.54052734375 2727.105712890625 C 6978.2607421875 2727.68798828125 6981.93310546875 2728.635009765625 6986.177734375 2730.14208984375 C 6993.62353515625 2732.7861328125 7004.23681640625 2737.70068359375 7014.29736328125 2746.42578125 L 7029.341796875 2727.79931640625 C 7028.751953125 2726.8134765625 7027.81298828125 2725.466064453125 7026.37255859375 2723.89599609375 C 7024.56396484375 2721.924560546875 7022.3349609375 2719.997314453125 7019.7470703125 2718.16796875 C 7016.48095703125 2715.85888671875 7012.63427734375 2713.702392578125 7008.314453125 2711.758544921875 C 6996.5908203125 2706.48291015625 6988.60986328125 2705.69482421875 6984.89599609375 2705.69482421875 L 6984.8955078125 2705.69482421875 M 6984.896484375 2701.69482421875 C 6989.20947265625 2701.695068359375 6997.73046875 2702.609375 7009.9560546875 2708.11083984375 C 7030.81884765625 2717.4990234375 7034.0400390625 2728.3486328125 7034.0400390625 2728.3486328125 L 7014.736328125 2752.248046875 C 6994.513671875 2732.71484375 6970.10888671875 2730.22509765625 6970.10888671875 2730.22509765625 C 6970.10888671875 2730.22509765625 6980.39013671875 2702.33935546875 6981.64501953125 2701.92138671875 C 6981.64501953125 2701.92138671875 6982.7490234375 2701.69482421875 6984.896484375 2701.69482421875 Z"/></g><path class="c" d="M6985.454,2833.162s24,2.424,38.784,16" transform="translate(-6981.871 -2802.466)"/><path class="d" d="M7074.2,2771l8.953-17.407,9.2,18.153Z" transform="translate(-7049.897 -2741.478)"/><path class="c" d="M7081.657,2769.939l8.953-17.407,9.2,18.154Z" transform="translate(-7055.612 -2740.662)"/></g><path class="c" d="M7045.666,2697.165s26.906,2.424,43.631,22.3" transform="translate(-7028.024 -2697.165)"/></g><path class="e" d="M7096.51,2978.9c-1.478-1.086-2.448-1.815-2.448-1.815.41-.546,6.885-7.444,10.634-13C7104.7,2964.081,7097.114,2979.343,7096.51,2978.9Z" transform="translate(-6935.751 -2897.063)"/><path class="c" d="M6711.615,2812.2c.721,1.2,1.042.721,3.125.561a6.646,6.646,0,0,1,6.089,3.926c1.042,2.564.721,2.964.16,3.285s-4.566.8-4.727,1.6" transform="translate(-6642.602 -2780.647)"/><path class="f" d="M6783.655,3393.533" transform="translate(-6697.821 -3226.241)"/><g transform="translate(68.543 21.706)"><path class="g" d="M6914.916,3360.345l-1.866-3.155-6.622,11.037,1.738,1.337Z" transform="translate(-6860.471 -3220.09)"/><path class="g" d="M6746.825,3226.188s-3.431-5.579-1.959-8.312l10.947,1.171Z" transform="translate(-6736.351 -3113.305)"/><path d="M6749.7,3223.211l.656,1.507-2.022,7.886a2.7,2.7,0,0,0,.851,2.714h0l10.012-14.8a3.442,3.442,0,0,0-.509-4.45l-2.237-2.078Z" transform="translate(-6739.224 -3110.328)"/><path class="h" d="M6714.719,2821.029c3.135-.075,7.108-.273,6.313-2.657s-3.774-8.343-10.528-6.555c0,0-2.384,1.986.6,5.562S6714.719,2821.029,6714.719,2821.029Z" transform="translate(-6709.602 -2801.805)"/><path class="i" d="M6737.662,3078.922s-5.352-15.8-.823-22.738c3.737-5.726,15.947,3.587,17.62,4.842l8.736-15.778a22.321,22.321,0,0,0-6.968-5.6c-4.952-2.768-25.407-11.059-35.02,4.107-3.553,5.605-3.607,29.659,3.207,38.877Z" transform="translate(-6716.676 -2973.047)"/><path class="c" d="M6790.8,3142.758s-5.352-15.8-.823-22.738c3.737-5.726,15.947,3.587,17.62,4.842" transform="translate(-6769.817 -3036.883)"/><path class="i" d="M6843.354,3079.241c-3.974,4.182-15.754,24.557-18.4,34.3-3.543,13.026-2.211,23.829,17.264,44.982l9.414-13.712s-6.619-10.051-5.383-19.525c1.788-13.706,11.542-27,16.477-35.426Z" transform="translate(-6796.836 -3007.04)"/><path class="e" d="M6915.235,3086.824l15.66,12.29,4.679-7.115Z" transform="translate(-6867.222 -3012.853)"/><path class="j" d="M7300.44,3031.482a10.57,10.57,0,0,1,5.582,2.791c1.279,1.337.7,2.035.232,2.442s-2.268-.058-3.837-1.454A7.348,7.348,0,0,1,7300.44,3031.482Z" transform="translate(-7162.484 -2970.432)"/><path class="g" d="M7094.062,2977.083c.41-.546,6.885-7.444,10.634-13,0,0,11.331,12.7,12.559,13.105a59.114,59.114,0,0,0,6.685.08c5.83-.06,13.579-.119,15.294.739,2.73,1.365,4.369,2.048,5.051,3.959s.951,3.16-.683,3.276c-1.911.137-3.14-2.321-3.14-2.321a38.14,38.14,0,0,1-5.6,2.458s-14.52,5.637-24.225,2.911C7107.99,2987.544,7094.062,2977.083,7094.062,2977.083Z" transform="translate(-7004.294 -2918.769)"/><path class="g" d="M6711.977,2801.737c-1.246.475-2,1.042-1.282,2.243s1.042.721,3.125.561a6.647,6.647,0,0,1,6.089,3.926c1.041,2.564.721,2.964.16,3.285s-4.567.8-4.728,1.6,1.624,3.166,5.309,3.006l.882-.16s7.75,7.57,8.872,8.692,9.366,6.707,13.906,7.842c3.452.863,10.444-.25,14.646-1.07,2.041-.4,3.423-.727,3.423-.727a37.96,37.96,0,0,1-3.794-14.413s-7.544,1.212-12.557,2.312c0,0-11.7-6.522-17.387-9.406,0,0-4.967-6.089-7.291-6.89S6713.66,2801.1,6711.977,2801.737Z" transform="translate(-6710.225 -2794.13)"/><path class="e" d="M6910.685,2883.926c2.041-.4,3.424-.727,3.424-.727s-3.814-4.808-4.456-13.541c0,0-1.724,1.858-1.188,6.8C6909.139,2882.678,6910.685,2883.926,6910.685,2883.926Z" transform="translate(-6861.953 -2846.392)"/><path class="k" d="M6867.621,2860.421s.106,10.672,2.965,15.124l1.025-.41s-13.474,15.763-17.831,26.062c-.714,1.686,27.974,20.01,32.213,19.753,0,0,13.977-21.333,18.758-27.657l5.138,3.982s10.077-10.205,10.619-13.829c0,0-9.734-11.844-17.7-15.312s-15.079-9.408-23.632-9.248A42.283,42.283,0,0,0,6867.621,2860.421Z" transform="translate(-6820.106 -2838.134)"/><path class="e" d="M7077.26,3002.917l-5.137-3.982.818-2.23Z" transform="translate(-6987.477 -2943.776)"/><path class="g" d="M7046.985,2812.107c-.9,2.8-3.5,10.892-6.4,11.891a9.317,9.317,0,0,1-5.915-.255l-3.087,1.58c-.344,1.033-2.78,1.923-5.926,2.044-2.33.09-3.748-2.9-3.059-5.067.316-.994,1.5-5.9,1.5-5.9s2.5-9.193,4.8-11.091,4.458-3.779,10.592-1.3C7048.884,2807.811,7046.985,2812.107,7046.985,2812.107Z" transform="translate(-6949.387 -2795.166)"/><path class="h" d="M7032.894,2787.357c-.412,1.718-2.2,5.154-3.367,4.536s-1.581-2.2-.756-5.223,1.512-9.9,3.848-11.133,3.367.206,3.367.206-1.031-5.017,1.993-5.7c0,0,1.031-.481.619,2.955a4.6,4.6,0,0,1,4.948-2.749c3.78.412,5.086,5.7,5.086,5.7a1.9,1.9,0,0,1,1.993-1.443c1.718,0,4.33,2.543,3.711,5.36,0,0,4.4-1.376,6.735,2.13s2.062,7.353-3.574,8.865c-5.892,1.581-5.841-5.292-6.735-6.185s-1.855-1.924-5.154-.687-6.734-2.405-6.734-2.405-.55,4.4-1.1,4.811-1.649.962-1.374-1.1.618-1.855.412-2.405-1.136-2.284-3.092-.756C7031.519,2783.852,7032.894,2787.357,7032.894,2787.357Z" transform="translate(-6953.916 -2770.016)"/><path class="l" d="M7046.62,2825.17a3.826,3.826,0,0,1-1.066-4.981c1.154-1.94,3.042-2.2,3.618-1.468a3.548,3.548,0,0,1,.258,3.439" transform="translate(-6966.707 -2807.06)"/><path d="M6909.109,3379.92l.656,1.507-2.022,7.886a2.7,2.7,0,0,0,.851,2.714h0l10.011-14.8a3.441,3.441,0,0,0-.508-4.45l-2.237-2.078Z" transform="translate(-6861.414 -3230.447)"/><path class="l" d="M7051.033,2784.2a5.02,5.02,0,0,0-3.064-3.15" transform="translate(-6968.963 -2778.475)"/><line class="c" y1="38.744" x2="27.736" transform="translate(33.36 23.567)"/><path class="c" d="M7018.066,2882.558c-1,1.3-1.454,6.89,3.144,7.253a12.436,12.436,0,0,0,7.536-1.657" transform="translate(-6945.539 -2856.281)"/><path class="c" d="M6757.253,2806.027s3.17,4.2,3.668,5.691" transform="translate(-6746.127 -2797.619)"/><path class="c" d="M7265.649,3037.029s2.119,1.744,6.336-.513c1.53-.818.44-2.755-1.5-2.271a9.1,9.1,0,0,1-4.235-.242" transform="translate(-7135.817 -2972.365)"/><path class="c" d="M7303.55,3032.518s2.032,2.371,1.977,3.779" transform="translate(-7164.868 -2971.226)"/><path class="c" d="M7175.465,3022.825s1.837-2.448,4.186-2.616" transform="translate(-7066.69 -2961.791)"/><path class="c" d="M6843.628,2879.779a6.161,6.161,0,0,1,4.51-3.956" transform="translate(-6812.334 -2851.118)"/><path class="c" d="M6837.617,3109.948l-4.1,7.844s-13.519,22.88-8.932,37.66" transform="translate(-6797.009 -3030.577)"/><path class="c" d="M6934.815,3015.417l13.3-22.8s17.435-25.287,19.219-28.855l6.152-11.383" transform="translate(-6882.229 -2909.797)"/><path class="c" d="M6860.431,3047.283s23.655,17.247,30.67,18.077" transform="translate(-6825.214 -2982.544)"/><path class="c" d="M6913.1,2865.469s-.021,10.823,2.9,15.261" transform="translate(-6865.586 -2843.182)"/><path class="c" d="M7101.491,2956.734c-.743,4.461-10.619,13.829-10.619,13.829" transform="translate(-7001.849 -2913.137)"/></g><path class="e" d="M7126.346,3013" transform="translate(-6960.498 -2934.556)"/><path class="g" d="M7316.064,3150.109" transform="translate(-7105.918 -3039.655)"/><circle class="e" cx="1.405" cy="1.405" r="1.405" transform="translate(93.099 118.052)"/><g transform="translate(65.732 56.319)"><path class="c" d="M7382.656,3300.3l-.776-5.373,4.583,3.047-2.4.523Z" transform="translate(-7222.099 -3206.977)"/><path class="c" d="M6706.142,2919.861c-8.684-7.662-23.033,11.444,29.475,72.258,30.29,35.081,54.09,38.227,57.313,26.022,5.784-21.9-15.1-27.431-7.332-18.855,11.3,12.471,43.449,15.105,67.4,3.468,23.637-11.483,9.108-29.315,7.641-30.356" transform="translate(-6697.563 -2918.257)"/><circle class="e" cx="1.405" cy="1.405" r="1.405" transform="translate(154.414 82.983)"/><line class="c" y1="23.467" x2="41.636" transform="translate(135.379 72.384)"/><circle class="e" cx="1.405" cy="1.405" r="1.405" transform="translate(8.041 1.334)"/></g><circle class="m" cx="3.013" cy="3.013" r="3.013" transform="translate(107.979 27.045)"/><g class="n" transform="translate(54.986 7.074)"><circle class="z" cx="1.325" cy="1.325" r="1.325"/><circle class="ab" cx="1.325" cy="1.325" r="0.675"/></g><circle class="o" cx="1.325" cy="1.325" r="1.325" transform="translate(232.491 168.958)"/><g transform="translate(195.055 73)"><path class="h" d="M7266.521,3080.652l-14.241-6.683a1.479,1.479,0,0,1,.033-2.692l26.495-11.658a1.479,1.479,0,0,1,1.179-.005l18.2,7.811Z" transform="translate(-7251.43 -3043.198)"/><path class="p" d="M7312.285,3005.189c.037,5.893.882,21.964.882,21.964l31.663-13.226-.71-22.364a1.924,1.924,0,0,0-2.72-1.689l-27.263,12.424A3.157,3.157,0,0,0,7312.285,3005.189Z" transform="translate(-7298.076 -2989.699)"/><path class="c" d="M7316.064,3027.255l31.663-13.226-.71-22.364a1.934,1.934,0,0,0-2.72-1.689" transform="translate(-7300.973 -2989.801)"/><line class="c" y1="5.053" x2="2.138" transform="translate(30.417 16.328)"/><line class="c" y1="5.053" x2="2.138" transform="translate(32.555 16.328)"/></g><circle class="m" cx="1.325" cy="1.325" r="1.325" transform="translate(60.697 146.849)"/><circle class="m" cx="1.841" cy="1.841" r="1.841" transform="translate(171.875 152.896)"/><g transform="translate(72.335 167.742)"><path class="q" d="M6729.258,3395.534a39.309,39.309,0,0,0,16.728,3.586.753.753,0,0,1,.749.849l-1.156,9.174a.755.755,0,0,1-.611.648c-2.345.44-11.795,1.737-18.864-4.258a.753.753,0,0,1-.235-.768l2.336-8.745A.754.754,0,0,1,6729.258,3395.534Z" transform="translate(-6725.843 -3395.46)"/><path class="c" d="M6744.027,3407.324s4.084,5.738,5.54,6.56,9.318-3.864,9.318-3.864" transform="translate(-6739.781 -3404.554)"/><line class="c" x2="4.29" y2="4.41" transform="translate(13.636 8.53)"/><line class="c" x1="5.018" y2="1.364" transform="translate(2.658 7.68)"/></g><rect class="r" width="4.793" height="4.793" transform="translate(202.317 59.3)"/><path class="d" d="M7275.963,3207.9l1.424,2.467,1.424,2.467h-5.7l1.424-2.467Z" transform="translate(-7072.996 -3083.954)"/><g transform="translate(87.776 0.592)"><path class="c" d="M6791.974,2693.636l.371-11.2c-.039-1.046.387-1.379,1.031-1.521,3.043-.673,12.293-2.735,22.354.239,1.3.385,1.258,1.073,1.237,1.692l-.359,10.679a1.444,1.444,0,0,1-1.76,1.218,77.646,77.646,0,0,0-10.989-.529,62.2,62.2,0,0,0-10.542.85C6792.319,2695.255,6791.945,2694.512,6791.974,2693.636Z" transform="translate(-6791.972 -2679.589)"/><path class="c" d="M6806.478,2710.234l5.856-6.855,6.482,6.4C6816.581,2709.048,6806.478,2710.234,6806.478,2710.234Z" transform="translate(-6803.09 -2697.824)"/><path class="c" d="M6846.929,2704.532l4.734-3.788,3.989,2.847.15,4.451-5.98-.286" transform="translate(-6834.097 -2695.804)"/><ellipse class="c" cx="0.978" cy="1.153" rx="0.978" ry="1.153" transform="matrix(0.101, -0.995, 0.995, 0.101, 3.545, 5.791)"/></g><g transform="translate(185.299 159.522)"><path class="c" d="M7225.355,3360.9l3.928,7.253c.414.649.267,1.019-.089,1.35a32.956,32.956,0,0,1-14.288,8.158c-.968.239-1.2-.213-1.415-.615l-3.741-6.917a1.063,1.063,0,0,1,.665-1.428,57.121,57.121,0,0,0,7.177-3.749,45.81,45.81,0,0,0,6.38-4.459C7224.534,3360,7225.048,3360.337,7225.355,3360.9Z" transform="translate(-7209.649 -3360.258)"/><path class="c" d="M7245.145,3372.872l-1.171,6.531-6.5-1.654C7239.168,3377.381,7245.145,3372.872,7245.145,3372.872Z" transform="translate(-7230.98 -3369.927)"/><path class="c" d="M7227.694,3394.732l-1.6,4.166-3.592-.326-1.75-2.772,3.905-2.042" transform="translate(-7218.16 -3385.937)"/><ellipse class="c" cx="0.849" cy="0.72" rx="0.849" ry="0.72" transform="translate(14.981 7.914) rotate(-24.564)"/></g><g transform="translate(76.099 63.163)"><rect class="i" width="56.729" height="12.753" rx="5.484"/><rect class="s" width="29.665" height="1.941" rx="0.97" transform="translate(6.044 3.755)"/><line class="c" x2="47.131" transform="translate(6.321 8.209)"/></g><g transform="translate(50.736 33.979)"><path class="t" d="M0,0H.4A1.7,1.7,0,0,1,2.1,1.7v.2A1.7,1.7,0,0,1,.4,3.6H0a0,0,0,0,1,0,0V0A0,0,0,0,1,0,0Z" transform="matrix(0.674, 0.738, -0.738, 0.674, 7.572, 5.195)"/><rect class="c" width="6.657" height="4.589" rx="0.98" transform="matrix(-0.674, -0.738, 0.738, -0.674, 4.49, 8.011)"/></g><g transform="translate(39.544 53.484)"><rect class="m" width="4.752" height="4.339" transform="translate(2.842 2.792)"/><path class="c" d="M6588.248,2906.115v2.792h-2.842" transform="translate(-6585.406 -2906.115)"/></g><g transform="translate(196.08 4.491)"><rect class="o" width="4.752" height="4.339" transform="translate(2.842 2.792)"/><path class="c" d="M7258.665,2696.285v2.792h-2.842" transform="translate(-7255.822 -2696.285)"/></g><g transform="translate(15.222 25.304)"><path class="c" d="M6549.417,2805.215c-49.258-20.419-87.18,18.906,5.674,79.125,7.311,4.742,18.524,6.406,18.524,6.406" transform="translate(-6494.313 -2796.42)"/><circle class="e" cx="1.405" cy="1.405" r="1.405" transform="translate(8.394 8.764)"/><path class="c" d="M6484.925,2791.113l1.538-1.476,3.534,2.022,1.776,5.48-5.424-2.27Z" transform="translate(-6484.064 -2788.654)"/><path class="c" d="M6483.637,2786.408l-1.537,1.476-.861-1.045,1.476-1.414Z" transform="translate(-6481.239 -2785.424)"/><line class="c" x1="3.527" y1="3.875" transform="translate(4.181 4.611)"/></g><g transform="translate(31.454 130.208)"><path class="u" d="M6550.771,3236.623l3.829,19.729a.788.788,0,0,0,.938.621l3.97-.844a.788.788,0,0,0,.613-.9l-3.412-19.86a.788.788,0,0,0-.947-.636l-4.387.974A.789.789,0,0,0,6550.771,3236.623Z" transform="translate(-6550.756 -3234.71)"/><path class="m" d="M6556.152,3241.536l1.092,4.6,3.517-.523-.752-4.984Z" transform="translate(-6554.892 -3239.247)"/><path class="o" d="M6562.486,3269.721l.858,4.872,3.25-.532-.816-4.957Z" transform="translate(-6559.748 -3261.073)"/><path class="d" d="M6566.977,3297.886l1.092,4.6,2.951-.548-.706-4.728Z" transform="translate(-6563.189 -3282.617)"/></g><g transform="translate(133.233 177.234)"><path class="c" d="M7020.361,3440.448l16.181-4.332.617,1.753-16.362,4.248Z" transform="translate(-7012.492 -3436.116)"/><g transform="translate(5.168 2.069)"><line class="c" x2="0.467" y2="1.469" transform="translate(0.456)"/><line class="c" y1="0.469" x2="1.365" transform="translate(0 0.489)"/></g><g transform="translate(4.089 7.679)"><line class="c" x2="0.88" y2="2.771" transform="translate(0.75)"/><line class="c" y1="0.772" x2="2.431" transform="translate(0 0.985)"/></g><g transform="translate(0 3.105)"><line class="c" x2="1.148" y2="3.67" transform="translate(1.141)"/><line class="c" y1="1.088" x2="3.407" transform="translate(0 1.198)"/></g></g><g transform="translate(12.885 0)"><path class="v" d="M6481.47,2682.847l-10.239-4.622.424-1.172,10.3,4.743Z" transform="translate(-6471.23 -2677.053)"/><g transform="translate(10.18 6.961)"><line class="v" y1="0.961" x2="0.382" transform="translate(0.264)"/><line class="v" x1="0.908" y1="0.336" transform="translate(0 0.321)"/></g><g transform="translate(12.779 3.531)"><line class="v" y1="1.813" x2="0.72" transform="translate(0.455)"/><line class="v" x1="1.59" y1="0.631" transform="translate(0 0.587)"/></g><g transform="translate(12.544 6.895)"><line class="v" y1="2.393" x2="0.962" transform="translate(0.668)"/><line class="v" x1="2.231" y1="0.882" transform="translate(0 0.809)"/></g></g><g transform="translate(36.263 69.444)"><path class="o" d="M6639.734,2997.292c-7.217-5.2-14.308-13.271-11.2-21.566,0,0,4.977-3.318,12.857.83l7.88,4.147Z" transform="translate(-6614.608 -2974.47)"/><g class="b" transform="translate(-6575.032 -2978.595)"><path class="z" d="M 6596.57275390625 3035.111572265625 C 6594.9443359375 3034.308349609375 6591.94775390625 3032.690673828125 6588.8271484375 3030.30029296875 C 6586.1484375 3028.247802734375 6583.90283203125 3026.03466796875 6582.1533203125 3023.72216796875 C 6580.0048828125 3020.882568359375 6578.60400390625 3017.8837890625 6577.98876953125 3014.808837890625 C 6577.37158203125 3011.721435546875 6577.607421875 3008.033203125 6578.68994140625 3003.8466796875 C 6579.5751953125 3000.421142578125 6581.0234375 2996.6708984375 6582.994140625 2992.700439453125 C 6584.30029296875 2990.068359375 6585.6640625 2987.690185546875 6586.84765625 2985.7607421875 C 6587.6201171875 2991.424560546875 6591.9013671875 2997.32080078125 6599.28125 3002.63427734375 C 6603.23779296875 3005.482421875 6606.20361328125 3006.9580078125 6610.08935546875 3008.4541015625 L 6596.57275390625 3035.111572265625 Z"/><path class="ac" d="M 6586.30029296875 2989.655517578125 C 6585.65234375 2990.811767578125 6584.98779296875 2992.05712890625 6584.337890625 2993.367431640625 C 6580.0908203125 3001.924072265625 6578.404296875 3009.23681640625 6579.4599609375 3014.5146484375 C 6580.02783203125 3017.35498046875 6581.32861328125 3020.1376953125 6583.326171875 3022.785888671875 C 6584.98486328125 3024.985595703125 6587.12353515625 3027.098388671875 6589.6826171875 3029.065673828125 C 6592.01416015625 3030.8583984375 6594.279296875 3032.20556640625 6595.91796875 3033.08642578125 L 6608.0087890625 3009.2412109375 C 6604.72216796875 3007.887451171875 6601.95263671875 3006.40576171875 6598.40478515625 3003.8515625 C 6592.232421875 2999.40771484375 6588.126953125 2994.53125 6586.30029296875 2989.655517578125 M 6588.9599609375 2979.85107421875 C 6585.849609375 2988.145751953125 6592.9404296875 2996.220703125 6600.15771484375 3001.4169921875 C 6604.48828125 3004.53466796875 6607.51953125 3005.92724609375 6612.18505859375 3007.637939453125 L 6597.25439453125 3037.083984375 C 6597.25439453125 3037.083984375 6579.42138671875 3029.61865234375 6576.51806640625 3015.10302734375 C 6573.615234375 3000.58740234375 6588.9599609375 2979.85107421875 6588.9599609375 2979.85107421875 Z"/></g><path class="c" d="M6613.722,3031.462a17.794,17.794,0,0,0,9.223,12.792" transform="translate(-6603.829 -3018.155)"/><line class="c" x2="8.33" y2="4.463" transform="translate(23.578 29.075)"/><path class="c" d="M6618.819,3082.428s2.677,5.95,11.305,9.818" transform="translate(-6607.736 -3057.221)"/><path class="c" d="M6589.513,3086.25s.3,6.248,4.463,8.33" transform="translate(-6585.273 -3060.15)"/><path class="c" d="M6630.254,2993.237s-.771,8.023,11.366,18.441" transform="translate(-6616.494 -2988.855)"/><path class="c" d="M6649.4,2999.593s3.868-.3,9.52,3.867" transform="translate(-6631.176 -2993.723)"/><path class="c" d="M6571.388,3109.32c-.249,3.979.249,18.4,21.138,27.6" transform="translate(-6571.353 -3077.834)"/></g><g transform="translate(134.271 92.906)"><path class="t" d="M7113.689,3074.954l-8.86,17.757s6.009,2.212,1.312,9.1c0,0,11.107,4.606,18.375-7.358S7113.689,3074.954,7113.689,3074.954Z" transform="translate(-7078.275 -3074.954)"/><g class="b" transform="translate(-6991.103 -3138.969)"><path class="z" d="M 7006.23974609375 3192.5400390625 C 7002.064453125 3192.540283203125 6997.64599609375 3190.881591796875 6993.09033203125 3187.606689453125 L 7008.96923828125 3161.302490234375 L 7018.16943359375 3167.095947265625 L 7018.27685546875 3167.16357421875 L 7018.39453125 3167.21240234375 C 7018.4912109375 3167.252685546875 7020.81005859375 3168.1982421875 7024.04443359375 3168.198486328125 C 7024.044921875 3168.198486328125 7024.044921875 3168.198486328125 7024.04541015625 3168.198486328125 C 7026.01611328125 3168.198486328125 7028.37646484375 3167.851806640625 7030.79248046875 3166.70556640625 L 7020.0478515625 3185.08740234375 C 7019.88720703125 3185.320068359375 7018.62255859375 3187.10302734375 7016.4052734375 3188.8525390625 C 7015.0380859375 3189.93115234375 7013.57861328125 3190.78857421875 7012.06640625 3191.400390625 C 7010.1982421875 3192.156494140625 7008.23779296875 3192.5400390625 7006.23974609375 3192.5400390625 Z"/><path class="ad" d="M 7009.46337890625 3163.386474609375 L 6995.10400390625 3187.173828125 C 6998.9892578125 3189.7412109375 7002.72607421875 3191.0400390625 7006.240234375 3191.0400390625 C 7009.5078125 3191.0400390625 7012.58984375 3189.92822265625 7015.39990234375 3187.735107421875 C 7017.3916015625 3186.180419921875 7018.56640625 3184.585205078125 7018.78369140625 3184.27783203125 L 7027.50048828125 3169.365234375 C 7026.27490234375 3169.60693359375 7025.10791015625 3169.698486328125 7024.04443359375 3169.698486328125 C 7020.57421875 3169.698486328125 7018.09130859375 3168.71044921875 7017.81982421875 3168.597900390625 L 7017.5849609375 3168.500732421875 L 7017.3701171875 3168.365234375 L 7009.46337890625 3163.386474609375 M 7037.34423828125 3158.468994140625 L 7021.31787109375 3185.88720703125 C 7021.31787109375 3185.88720703125 7015.9453125 3194.0400390625 7006.240234375 3194.0400390625 C 7001.99462890625 3194.0400390625 6996.92041015625 3192.480712890625 6991.10302734375 3187.996337890625 L 7008.47509765625 3159.21875 L 7018.96875 3165.82666015625 C 7018.96875 3165.82666015625 7021.0712890625 3166.698486328125 7024.04443359375 3166.698486328125 C 7027.90625 3166.698486328125 7033.23779296875 3165.228515625 7037.34423828125 3158.468994140625 Z"/></g><path class="c" d="M7104.829,3151s6.608,2.333,1.312,9.1" transform="translate(-7078.275 -3133.248)"/><path class="c" d="M7064.624,3159.038s9,8.246,13.985,8.19,10.827-1.242,14.274-7.187" transform="translate(-7047.458 -3139.405)"/><path class="c" d="M7069.353,3204.723s6.179,5.487,13.088,3.724" transform="translate(-7051.082 -3174.423)"/><path class="c" d="M7097.148,3239.837a7.528,7.528,0,0,0,7.773.132" transform="translate(-7072.387 -3201.338)"/><path class="c" d="M7033.279,3254.317s7.48,7.438,19.255,2.532" transform="translate(-7023.431 -3212.437)"/><path class="c" d="M7050.712,3223.244a28.745,28.745,0,0,0,4.963,2.879" transform="translate(-7036.794 -3188.62)"/><path class="c" d="M7149.294,3097.027s6.829,2.234,7.647,11.245" transform="translate(-7112.358 -3091.873)"/><path class="c" d="M7156.87,3144.719s3.144,4.865-2.17,9.731" transform="translate(-7116.502 -3128.429)"/><path class="c" d="M6993.813,3282.583s17.148,14.686,29.593-2.487" transform="translate(-6993.181 -3232.197)"/></g><line class="w" x2="3.998" transform="translate(11.128 87.364)"/><line class="w" x2="3.998" transform="translate(233.816 39.282)"/><line class="x" x2="3.998" transform="translate(126.613 11.855)"/><line class="x" x2="3.935" y2="0.707" transform="translate(241.448 60.017)"/><line class="y" x2="3.998" transform="translate(84.417 159.763)"/><circle class="t" cx="1.325" cy="1.325" r="1.325" transform="translate(248.735 108.606)"/><circle class="t" cx="1.325" cy="1.325" r="1.325" transform="translate(0 45.068)"/><circle class="e" cx="1.405" cy="1.405" r="1.405" transform="translate(264.061 193.816)"/><path class="c" d="M7380.169,3325.361s4.985-14.844-17.3-6.087c-23.171,9.1-32.425,28.194-28.628,29.7s9.45-1.892,9.45-1.892" transform="translate(-7119.216 -3167.202)"/></g></g></svg>