<svg xmlns="http://www.w3.org/2000/svg" width="34.954" height="34.95" viewBox="0 0 34.954 34.95"><defs><style>.a{fill:#dcd2eb;}.b{fill:#3c3c3c;}</style></defs><g transform="translate(0.014 0.02)"><circle class="a" cx="14.84" cy="14.84" r="14.84" transform="translate(5.26 5.25)"/><path class="b" d="M28.66,8.86A14.65,14.65,0,0,0,16.2.06,14.64,14.64,0,0,0,7.62,1.79c-.52.28-.56.4-.36.94a.8.8,0,0,0,.79,0A13.57,13.57,0,0,1,15.72,1a14.16,14.16,0,0,1,9.94,5l.2.28h0l.07.07h0c.05,0,.08.06.07.12s.06,0,.06.07a.73.73,0,0,1,.2.19,13.84,13.84,0,0,1-4.1,20.16A12.23,12.23,0,0,1,19.85,28a13.17,13.17,0,0,1-5,.93,14.71,14.71,0,0,1-2-.15h0A11.79,11.79,0,0,1,7.39,26.6a13.73,13.73,0,0,1-6.22-10A7.8,7.8,0,0,1,1,15.16a14.21,14.21,0,0,1,2.24-8,10.29,10.29,0,0,1,.82-1.14.84.84,0,0,0,.24-.87c-.55-.27-.63-.25-1,.24-.1.13-.21.26-.3.39A15.17,15.17,0,0,0,.44,18.54,14.15,14.15,0,0,0,8,28.33,14.37,14.37,0,0,0,20.18,29c5.92-2.28,9.16-6.76,9.76-13.06a13.18,13.18,0,0,0-1.28-7.08Z"/><path class="b" d="M6,3.26a1.46,1.46,0,0,1,0,.36A.48.48,0,0,1,5.4,4c-.08,0-.14-.09-.23-.07a.57.57,0,0,0,0-.13A.506.506,0,0,1,6,3.22Z"/><path class="b" d="M12.29,17.47v-5.3c0-.63,0-.67.65-.67h2.45c.33,0,.62,0,.61.47s.21.13.33.08a8.66,8.66,0,0,1,3.38-.62,4.52,4.52,0,0,1,4.56,4.51v6.89c0,.44-.17.6-.61.59H20.43c-.65,0-.69,0-.69-.68V17.15a1.84,1.84,0,0,0-1.84-1.92A1.87,1.87,0,0,0,16,17.16q0,2.82,0,5.64c0,.59,0,.62-.63.62H13c-.7,0-.71,0-.71-.69Zm.72,0v4.82c0,.37.11.47.46.45a10.9,10.9,0,0,1,1.4,0c.35,0,.43-.11.43-.44V17.14a2.49,2.49,0,0,1,.09-.81,2.66,2.66,0,0,1,3-1.77,2.56,2.56,0,0,1,2.18,2.55v5.07c0,.48.14.59.59.57h1.93c.36,0,.49-.07.49-.47V15.92a3.68,3.68,0,0,0-3.18-3.68A6.89,6.89,0,0,0,16,13c-.56.3-.75.22-.75-.42,0-.29-.08-.4-.38-.39a14,14,0,0,1-1.45,0c-.36,0-.47.09-.46.45.04,1.62.04,3.22.04,4.81Z"/><path class="b" d="M10.78,17.45V22.8c0,.45-.13.64-.6.63H6.85c-.43,0-.57-.18-.57-.57V12.06c0-.41.18-.57.59-.57h3.32c.44,0,.6.18.59.61C10.77,13.88,10.78,15.67,10.78,17.45Zm-.75,0V12.63c0-.32-.06-.45-.41-.44H7.4c-.28,0-.39.07-.39.37v9.73c0,.33.12.41.42.4H9.55c.37,0,.49-.08.49-.47C10,20.66,10,19.07,10,17.48Z"/><path class="b" d="M8.69,10.32a2.41,2.41,0,0,1,0-4.81,2.41,2.41,0,0,1,0,4.81Zm0-4.08a1.63,1.63,0,1,0,.02,0Z"/></g></svg>