<svg xmlns="http://www.w3.org/2000/svg" width="35" height="35.002" viewBox="0 0 35 35.002"><defs><style>.a{fill:#3c3c3c;}</style></defs><path class="a" d="M-28.314,66A17.425,17.425,0,0,1-10.89,83.549,17.463,17.463,0,0,1-28.427,101,17.432,17.432,0,0,1-45.89,83.384,17.4,17.4,0,0,1-28.314,66Zm1.422,14.893c.375-1.76-.492-1.837-1.524-1.755a10.764,10.764,0,0,1-1.481,0c-.642-.039-.879.251-.877.872q.016,6.033,0,12.064c0,.611.227.916.872.892a15.657,15.657,0,0,1,2.009.009c.967.09,1.3-.276,1.273-1.255-.054-2.15-.032-4.3.017-6.454a2.428,2.428,0,0,1,1.533-2.536c1.768-.643,3.161.373,3.3,2.52.1,1.546.038,3.1.04,4.655,0,3.209,0,3.209,3.24,3.057.1,0,.211-.01.317-.013a.582.582,0,0,0,.636-.669c-.056-3.17.267-6.356-.233-9.508a3.993,3.993,0,0,0-4.057-3.6A5.771,5.771,0,0,0-26.892,80.892Zm-6.621,5.295c0-1.972-.033-3.946.015-5.918.021-.888-.318-1.187-1.175-1.137-.913.054-1.832.038-2.747,0-.654-.024-.971.183-.968.89q.024,6.024,0,12.049c0,.607.217.91.865.894,1.057-.025,2.115-.029,3.171,0,.645.021.859-.231.85-.868C-33.529,90.134-33.51,88.16-33.513,86.187Zm-2.349-9.138a2.362,2.362,0,0,0,2.34-2.461A2.407,2.407,0,0,0-35.956,72.2,2.413,2.413,0,0,0-38.3,74.683,2.358,2.358,0,0,0-35.862,77.049Z" transform="translate(45.89 -65.999)"/></svg>