<svg xmlns="http://www.w3.org/2000/svg" width="34.954" height="34.83" viewBox="0 0 34.954 34.83"><defs><style>.a{fill:#dcd2eb;}.b{fill:#3c3c3c;}</style></defs><g transform="translate(0.014 0.02)"><circle class="a" cx="14.84" cy="14.84" r="14.84" transform="translate(5.26 5.13)"/><path class="b" d="M28.66,8.86A14.65,14.65,0,0,0,16.2.06,14.64,14.64,0,0,0,7.62,1.79c-.52.28-.56.4-.36.94a.8.8,0,0,0,.79,0A13.57,13.57,0,0,1,15.72,1a14.16,14.16,0,0,1,9.94,5l.2.28h0l.07.07h0c.05,0,.08.06.07.12s.06,0,.06.07a.73.73,0,0,1,.2.19,13.84,13.84,0,0,1-4.1,20.16A12.23,12.23,0,0,1,19.85,28a13.17,13.17,0,0,1-5,.93,14.71,14.71,0,0,1-2-.15h0A11.79,11.79,0,0,1,7.39,26.6a13.73,13.73,0,0,1-6.22-10A7.8,7.8,0,0,1,1,15.16a14.21,14.21,0,0,1,2.24-8,10.29,10.29,0,0,1,.82-1.14.84.84,0,0,0,.24-.87c-.55-.27-.63-.25-1,.24-.1.13-.21.26-.3.39A15.17,15.17,0,0,0,.44,18.54,14.15,14.15,0,0,0,8,28.33,14.37,14.37,0,0,0,20.18,29c5.92-2.28,9.16-6.76,9.76-13.06a13.18,13.18,0,0,0-1.28-7.08Z"/><path class="b" d="M6,3.26a1.46,1.46,0,0,1,0,.36A.48.48,0,0,1,5.4,4c-.08,0-.14-.09-.23-.07a.57.57,0,0,0,0-.13A.506.506,0,0,1,6,3.22Z"/><path class="b" d="M6.9,15V7c0-1.13.38-1.52,1.52-1.52H21.14c1.13,0,1.51.4,1.51,1.54V10.4c0,.32,0,.67-.42.66s-.41-.37-.41-.68V7.1c0-.55-.13-.78-.73-.78H8.46c-.57,0-.75.18-.75.75V22.89c0,.63.23.79.82.79H20.99c.65,0,.88-.21.84-.85s0-1.36,0-2.05c0-.31.08-.56.45-.53s.37.26.37.53v2.54c0,.85-.49,1.15-1.38,1.16H8.55c-1.31,0-1.64-.34-1.65-1.66Z"/><path class="b" d="M18.74,20.82a8,8,0,0,1,.86-3.38c1.11-1.71,2.06-3.51,3.07-5.28.07-.11.14-.23.22-.34a1.32,1.32,0,0,1,1.77-.5,1.3,1.3,0,0,1,.49,1.82c-.7,1.27-1.43,2.51-2.16,3.76a15.579,15.579,0,0,0-.87,1.54,6.65,6.65,0,0,1-2.68,2.78c-.16.12-.33.25-.55.13S18.7,21.1,18.74,20.82Zm5.16-6.88a2.49,2.49,0,0,0-.86-.57c-.29-.15-.34.13-.43.29-.86,1.48-1.69,3-2.59,4.44-.3.49,0,.58.3.74s.55.45.84-.09c.82-1.51,1.7-3,2.56-4.47a2.54,2.54,0,0,0,.18-.34Zm.79-1.42c-.09-.38-.25-.66-.65-.67a.72.72,0,0,0-.75.72c0,.35.54.54.87.6s.36-.41.53-.65Zm-4.38,7.15c-.19-.17-.44-.42-.61-.32s-.13.54-.17.87a1.79,1.79,0,0,0,.78-.55Z"/><path class="b" d="M14.79,14.37a3.44,3.44,0,1,1,3.43-3.44,3.44,3.44,0,0,1-3.43,3.44ZM17.39,11a2.65,2.65,0,0,0-1.67-2.5,2.49,2.49,0,0,0-2.79.6,2.52,2.52,0,0,0-.58,2.79c.07.17.13.57.39.35s.95-.45.73-1.23a1.33,1.33,0,0,1,1.08-1.79c1-.18,1.81.68,1.52,1.9-.19.78.46,1,.77,1.1s.36-.51.51-.82a.88.88,0,0,0,.04-.4Zm-2.6,2.56c.54-.05,1.14,0,1.43-.57.15-.28-.92-.85-1.54-.81a1.45,1.45,0,0,0-.47.09c-.37.16-.87.32-.84.75s.53.38.86.49a2.54,2.54,0,0,0,.56.04Zm.51-2.88c0-.4-.16-.67-.56-.65s-.51.35-.5.71.19.6.54.59a.573.573,0,0,0,.52-.66Z"/><path class="b" d="M14.25,15.49h2.28c.28,0,.6,0,.61.37s-.25.44-.56.44h-4.9c-.26,0-.51-.06-.52-.38s.26-.43.55-.43Z"/><path class="b" d="M14.12,18.35H11.75c-.27,0-.58,0-.59-.38s.3-.42.57-.42h4.82c.3,0,.58.06.6.41s-.29.4-.58.4Z"/><path class="b" d="M14.13,20.43H11.84c-.31,0-.66,0-.68-.39s.33-.43.64-.43h4.66c.31,0,.67,0,.68.39s-.39.44-.72.44Z"/><path class="b" d="M15.79,22.48h-.9c-.27,0-.49-.09-.47-.42s.22-.36.45-.36h1.8c.24,0,.45.05.48.33s-.18.44-.46.45-.6,0-.9,0Z"/><path class="b" d="M9.87,15.5c.3,0,.47.12.47.38a.37.37,0,0,1-.4.4.38.38,0,0,1-.38-.35.36.36,0,0,1,.31-.43Z"/><path class="b" d="M10,19.62a.38.38,0,0,1,.38.42.37.37,0,0,1-.36.37A.38.38,0,0,1,9.55,20C9.54,19.79,9.71,19.65,10,19.62Z"/></g></svg>