<svg xmlns="http://www.w3.org/2000/svg" width="35" height="35.002" viewBox="0 0 35 35.002"><defs><style>.a{fill:#3c3c3c;}.b{fill:#fff;}</style></defs><g transform="translate(0 0)"><path class="a" d="M-28.314,0A17.425,17.425,0,0,1-10.89,17.549,17.463,17.463,0,0,1-28.427,35,17.432,17.432,0,0,1-45.89,17.384,17.4,17.4,0,0,1-28.314,0Z" transform="translate(45.89 0.001)"/><g transform="translate(7.599 5.608)"><path class="b" d="M-20.1,29.393h-16.6A2.077,2.077,0,0,1-38.291,27V8a2.077,2.077,0,0,1,1.6-2.394h12.262A4.062,4.062,0,0,1-23,6.643c1.222,1.243,2.447,2.485,3.7,3.694a2.536,2.536,0,0,1,.812,1.971C-18.508,17.2-18.5,22.1-18.5,27A2.077,2.077,0,0,1-20.1,29.393Zm-16.242-11.88c0,3.117.009,6.234-.011,9.35,0,.448.128.576.563.551.614-.036,1.232-.009,1.848-.009H-21c.269,0,.556.087.554-.387q-.021-6.551,0-13.1c0-.3-.107-.387-.4-.383-1.109.014-2.218.009-3.328,0a2.013,2.013,0,0,1-2.239-2.211c-.009-1.074-.023-2.148.009-3.221.013-.433-.136-.52-.537-.518q-4.437.023-8.874,0c-.408,0-.537.1-.535.524C-36.331,11.245-36.339,14.379-36.339,17.513Zm15.3-5.955-3.393-3.389c0,1.028,0,2.075,0,3.122,0,.217.1.269.291.269C-23.107,11.556-22.071,11.558-21.038,11.558Z" transform="translate(38.291 -5.607)"/><path class="b" d="M-28.393,21.462c-1.637,0-3.274.008-4.911,0a.983.983,0,0,1-1.028-.98,1,1,0,0,1,.971-.988,4.7,4.7,0,0,1,.475-.008h7.658c.528,0,1.056-.005,1.584,0,.731.01,1.185.393,1.187.99s-.452.986-1.183.988C-25.224,21.465-26.808,21.462-28.393,21.462Z" transform="translate(38.291 -5.607)"/><path class="b" d="M-28.394,17.476q-2.4,0-4.806,0c-.706,0-1.131-.371-1.132-.967s.433-.975,1.13-.975q4.806,0,9.613,0c.7,0,1.131.381,1.131.974s-.423.966-1.129.968Q-25.99,17.48-28.394,17.476Z" transform="translate(38.291 -5.607)"/><path class="b" d="M-31.792,13.236c-1.6,0,.194,0-1.408,0-.706,0-1.131-.371-1.132-.966s.433-.975,1.13-.976c3.2,0,.293,0,3.5,0,.7,0,1.131.382,1.131.974s-.423.966-1.129.968C-31.306,13.239-30.189,13.236-31.792,13.236Z" transform="translate(38.291 -5.607)"/><path class="b" d="M-28.406,25.412c-1.6,0-3.2,0-4.807,0a.979.979,0,0,1-1.113-.88.97.97,0,0,1,1.084-1.064q3.935-.006,7.869,0c.634,0,1.268-.008,1.9,0a.958.958,0,0,1,1.013.98.94.94,0,0,1-.984.957c-1.655.016-3.31.006-4.964.006Z" transform="translate(38.291 -5.607)"/></g></g></svg>