<svg xmlns="http://www.w3.org/2000/svg" width="36.767" height="43.923" viewBox="0 0 36.767 43.923">
  <g id="Group_104" data-name="Group 104" transform="translate(-6.999 -5.007)">
    <path id="Path_819" data-name="Path 819" d="M40.28,48.33H10.469c-2.292-.936-2.87-1.8-2.87-4.3V9.907c0-2.5.578-3.364,2.87-4.3H32.494a7.3,7.3,0,0,1,2.565,1.861c2.195,2.233,4.4,4.463,6.649,6.635a4.555,4.555,0,0,1,1.458,3.54c-.034,8.794-.016,17.588-.018,26.382C43.148,46.532,42.581,47.384,40.28,48.33ZM11.105,26.992c0,5.6.016,11.2-.018,16.794-.005.8.228,1.035,1.009.99,1.1-.065,2.213-.016,3.319-.016q11.623,0,23.246,0c.483,0,1,.156,1-.7q-.038-11.766-.005-23.531c0-.546-.19-.7-.717-.688-1.992.025-3.984.016-5.978.007-2.588-.009-4-1.4-4.022-3.971-.016-1.929-.041-3.858.016-5.785.023-.778-.244-.934-.965-.93q-7.969.04-15.939,0c-.733-.005-.965.18-.961.941C11.119,15.734,11.105,21.363,11.105,26.992ZM38.588,16.3l-6.094-6.087c0,1.846.005,3.727-.005,5.608,0,.39.183.483.523.483C34.872,16.292,36.732,16.3,38.588,16.3Z" transform="translate(0 0)" fill="#646464" stroke="#fff" stroke-width="1.2"/>
    <path id="Path_820" data-name="Path 820" d="M22.225,23.041c-2.94,0-5.881.014-8.821-.009a1.766,1.766,0,0,1-1.846-1.76A1.79,1.79,0,0,1,13.3,19.5a8.442,8.442,0,0,1,.853-.014H27.91c.948,0,1.9-.009,2.845,0,1.313.018,2.128.706,2.132,1.778s-.812,1.771-2.125,1.775C27.917,23.046,25.072,23.041,22.225,23.041Z" transform="translate(3.152 11.044)" fill="#646464" stroke="#fff" stroke-width="1.2"/>
    <path id="Path_821" data-name="Path 821" d="M22.224,19.025q-4.316,0-8.632,0c-1.268,0-2.031-.666-2.033-1.737s.778-1.751,2.03-1.751q8.632-.008,17.266,0c1.254,0,2.031.684,2.031,1.749s-.76,1.735-2.028,1.739Q26.541,19.031,22.224,19.025Z" transform="translate(3.152 7.901)" fill="#646464" stroke="#fff" stroke-width="1.2"/>
    <path id="Path_822" data-name="Path 822" d="M16.12,14.785c-2.877,0,.348.005-2.529,0-1.268,0-2.031-.666-2.033-1.735s.778-1.751,2.03-1.753c5.755-.005.526-.005,6.281,0,1.254,0,2.031.686,2.031,1.749s-.76,1.735-2.028,1.739C16.995,14.79,19,14.785,16.12,14.785Z" transform="translate(3.152 4.525)" fill="#646464" stroke="#fff" stroke-width="1.2"/>
    <path id="Path_823" data-name="Path 823" d="M22.2,26.965c-2.877,0-5.755.009-8.632,0a1.759,1.759,0,0,1-2-1.581,1.742,1.742,0,0,1,1.947-1.911q7.067-.011,14.134,0c1.139,0,2.278-.014,3.416.005a1.72,1.72,0,0,1,1.819,1.76,1.689,1.689,0,0,1-1.767,1.719c-2.971.029-5.943.011-8.916.011Z" transform="translate(3.152 14.215)" fill="#646464" stroke="#fff" stroke-width="1.2"/>
  </g>
</svg>
