<svg xmlns="http://www.w3.org/2000/svg" width="42" height="41.998" viewBox="0 0 42 41.998"><defs><style>.a{fill:#8264b4;stroke:#8264b4;stroke-width:2px;}</style></defs><g transform="translate(-82.45 42.579)"><path class="a" d="M83.453-21.594q0-8.242,0-16.485c0-2.472,1.04-3.484,3.579-3.485,8.824,0,17.649.008,26.474-.016a2.645,2.645,0,0,1,2.05.828q3.533,3.532,7.152,6.983a2.184,2.184,0,0,1,.742,1.714c-.017,9.074-.006,18.148-.016,27.221,0,2.125-1.193,3.251-3.39,3.251q-16.63,0-33.259,0c-2.121,0-3.321-1.141-3.327-3.2C83.444-10.387,83.453-15.991,83.453-21.594Zm31-17.431c0,3.4.006,6.5,0,9.607-.006,2.287-1.134,3.4-3.463,3.4q-8.007.01-16.014,0c-2.462,0-3.51-1.027-3.516-3.442-.009-3.036-.027-6.072.014-9.108.011-.811-.16-1.2-1.093-1.121-.994.079-2,.016-3,.018-1.809,0-1.99.174-1.99,1.907q0,16.156,0,32.311c0,.253-.006.506.008.759a1.1,1.1,0,0,0,1.269,1.175c1.112-.016,2.224.006,3.336,0,1.544-.015,1.451.242,1.454-1.364.006-4.265-.006-8.53.005-12.794.006-2.326,1.161-3.426,3.563-3.427q8.285,0,16.57,0c2.778,0,3.839,1.02,3.841,3.7,0,4.3.015,8.6-.013,12.9,0,.721.152,1.045.973,1,1.182-.065,2.372-.01,3.558-.019,1.263-.009,1.546-.277,1.547-1.553q.011-13.174,0-26.348a1.237,1.237,0,0,0-.25-1.018C119.051-34.569,116.853-36.7,114.454-39.025ZM103.447-3.52c3.038,0,6.077-.024,9.115.017.746.01.941-.223.937-.919q-.038-6.665-.007-13.33c0-1.008-.449-1.413-1.487-1.408q-8.559.035-17.118,0c-1.039,0-1.489.4-1.486,1.41q.021,6.665-.008,13.33c0,.7.2.927.939.917C97.37-3.544,100.409-3.52,103.447-3.52Zm-.522-36.15c-2.815,0-5.631.024-8.445-.016-.792-.011-1.109.159-1.094,1.01.051,3.069.014,6.139.024,9.209,0,1.255.306,1.564,1.552,1.566q8,.013,16,0c1.2,0,1.488-.3,1.491-1.49.007-3.106-.022-6.212.02-9.318.01-.756-.215-.988-.992-.977C108.63-39.645,105.777-39.669,102.925-39.669Z" transform="translate(0 0)"/><path class="a" d="M102.665,116.546c.143.623-.279.567-.719.606-.619.054-.608-.277-.643-.735-.05-.654.29-.651.783-.682C102.768,115.691,102.681,116.108,102.665,116.546Z" transform="translate(-15.086 -121.498)"/><path class="a" d="M236.355,116.431c-.118-.544.112-.688.65-.71.623-.025.694.236.709.762.016.579-.223.655-.721.663C236.435,117.154,236.241,116.96,236.355,116.431Z" transform="translate(-117.034 -121.488)"/><path class="a" d="M182.506-20.79c0-.643.005-1.286,0-1.928a.7.7,0,0,1,.795-.812q.925,0,1.851,0a.718.718,0,0,1,.8.818c0,1.311,0,2.622,0,3.933a.7.7,0,0,1-.763.772q-.964.016-1.928,0a.682.682,0,0,1-.749-.777C182.509-19.453,182.506-20.121,182.506-20.79Zm2.054.029c0-.335,0-.669,0-1,0-.233-.042-.4-.331-.392-.248.007-.388.1-.387.365q0,1.042,0,2.084c0,.265.147.349.394.354.3.006.325-.179.324-.4C184.558-20.091,184.56-20.426,184.56-20.76Z" transform="translate(-76.063 -15.255)"/></g></svg>