<svg xmlns="http://www.w3.org/2000/svg" width="24.24" height="24.167" viewBox="0 0 24.24 24.167"><defs><style>.a{fill:#646464;stroke:#fff;stroke-miterlimit:10;stroke-width:0.1px;}</style></defs><g transform="translate(0.09 0.093)"><path class="a" d="M14.78,21.08H9c-.33,0-.7.07-.86-.33s.14-.57.36-.8A1.043,1.043,0,1,0,7,18.5,1,1,0,0,0,7,20c.1.12.25.21.32.34a.5.5,0,0,1-.47.75H3.53c-.4,0-.58-.27-.58-.67v-1.6c0-.53-.06-.52-.51-.45A2.06,2.06,0,0,1,.07,16.83a2.12,2.12,0,0,1,1.31-2.54,1.93,1.93,0,0,1,1.16-.08c.36.08.38-.06.38-.34V8.95c0-.3,0-.62.29-.78s.57.08.81.31a1,1,0,0,0,1.52,0A1,1,0,0,0,5.5,7,1,1,0,0,0,4,7c-.23.24-.43.48-.8.31s-.29-.47-.29-.77V3.69c0-.52.22-.77.75-.76s1.07,0,1.6,0,.45-.07.39-.45a2,2,0,0,1,1-2.17A2,2,0,0,1,8.93.4,2,2,0,0,1,9.8,2.46c-.08.46.07.49.46.48H15c.31,0,.66-.06.83.3s-.09.57-.32.8A1.061,1.061,0,0,0,17,5.55,1,1,0,0,0,17,4c-.22-.22-.45-.41-.32-.75s.49-.34.81-.34h2.84c.53,0,.76.24.75.76v2a2.2,2.2,0,0,1,2.63.94A2,2,0,0,1,23.59,9a2.19,2.19,0,0,1-2.53.79v5.52a.57.57,0,0,1-.32.59.56.56,0,0,1-.68-.21,1.07,1.07,0,1,0-1.32,1.61,1,1,0,0,0,1.15-.14c.09-.08.16-.18.24-.26a.51.51,0,0,1,.6-.13.47.47,0,0,1,.32.46v3.38a.52.52,0,0,1-.52.53,4.871,4.871,0,0,1-.54,0c-.35,0-.77-.11-1,.05s0,.58,0,.9A2.15,2.15,0,0,1,16.55,24a2.1,2.1,0,0,1-1.85-2.45C14.72,21.4,14.74,21.27,14.78,21.08Zm-9.25-9.6H6.6c.28,0,.58,0,.7.32s0,.5-.26.71A1,1,0,0,0,7,14.08a1,1,0,0,0,1.49,0,1,1,0,0,0-.08-1.56c-.22-.21-.37-.42-.25-.72s.39-.31.65-.31h2.2c.35,0,.52-.09.47-.47a1.86,1.86,0,0,1,0-.47c.08-.56,0-.8-.72-.73a2,2,0,0,1-2.23-2,2.15,2.15,0,0,1,2-2.17c.31,0,.72.22.88,0s0-.64.06-1a1.92,1.92,0,0,1,0-.24c0-.32-.12-.4-.41-.39H8.79c-.26,0-.52,0-.65-.3A.59.59,0,0,1,8.39,3a1,1,0,0,0,.38-1,1,1,0,0,0-.92-.87,1,1,0,0,0-1.08.57A1,1,0,0,0,7,2.92c.23.22.44.42.31.76S6.86,4,6.55,4H5.13C4,4,4,4,4,5.14c0,.43,0,.59.56.52A2.11,2.11,0,1,1,4.4,9.81c-.33,0-.39,0-.39.34,0,1.33,0,1.33,1.26,1.33Zm5.93,7.05V17.34c0-.26,0-.53.32-.64a.573.573,0,0,1,.71.25,1,1,0,0,0,1.56.08,1.06,1.06,0,0,0,0-1.5,1,1,0,0,0-1.57.07c-.21.23-.41.38-.71.26s-.32-.42-.32-.7V13.03c0-.41-.13-.54-.51-.49h-.36c-.78,0-.78,0-.77.76a2.12,2.12,0,0,1-2,2.18,2.15,2.15,0,0,1-2.18-2c0-.32.27-.73-.06-.91a2.31,2.31,0,0,0-1,0,1.08,1.08,0,0,1-.18,0c-.32,0-.41.11-.4.41v2.25c0,.27,0,.53-.3.65a.584.584,0,0,1-.72-.24,1,1,0,0,0-1-.38,1.065,1.065,0,0,0-.29,2A1,1,0,0,0,2.91,17c.21-.23.42-.43.75-.3s.32.45.32.75v1.42C4,20,4,20,5.12,20c.44,0,.58-.05.52-.56a2.11,2.11,0,1,1,4.15.16c0,.33,0,.39.34.4,1.33,0,1.33,0,1.33-1.27Zm2.81-7a3.223,3.223,0,0,0-.09-.53,2.14,2.14,0,0,1,2-2.4,2.19,2.19,0,0,1,2.27,2c0,.29-.29.67,0,.85s.61,0,.93,0h.24c.32,0,.39-.12.39-.42V8.78c0-.27,0-.53.31-.65a.574.574,0,0,1,.72.25,1.044,1.044,0,0,0,1.85-.49A1.055,1.055,0,0,0,21.07,7c-.21.23-.41.44-.75.31S20,6.87,20,6.57V5.09C20,4,20,4,18.92,4c-.48,0-.66,0-.58.62a2.06,2.06,0,0,1-2,2.33A2.18,2.18,0,0,1,14.14,5c0-.33.28-.76-.06-1S13.39,4,13,4h-.12c-.32,0-.4.12-.39.41V6.67c0,.26,0,.53-.3.65a.59.59,0,0,1-.72-.25,1,1,0,0,0-1.05-.37,1.07,1.07,0,0,0-.25,2,1,1,0,0,0,1.24-.22c.22-.23.43-.44.76-.31s.32.46.32.75v2.14c0,.22,0,.44.32.43ZM20,14.25a10.309,10.309,0,0,1,0-1.12c0-.44-.09-.63-.58-.6H17.29c-.27,0-.53,0-.63-.34a.61.61,0,0,1,.24-.67A1,1,0,0,0,17,10a1.05,1.05,0,0,0-1.53,0,1,1,0,0,0,.1,1.56c.2.2.35.39.25.67s-.39.35-.68.35H12.89c-.31,0-.43.1-.4.41v.35a2,2,0,0,0,.07.86c.07.11.5,0,.77,0a2.12,2.12,0,0,1,2.1,2.06,2.15,2.15,0,0,1-2,2.16c-.33,0-.76-.27-.95.07s0,.7-.05,1.05.15.53.55.52H15.7a.59.59,0,0,1,.62.35.488.488,0,0,1-.23.62,1.34,1.34,0,0,0-.27.31,1,1,0,0,0,.22,1.38,1.05,1.05,0,0,0,1.4-.05,1,1,0,0,0,0-1.67c-.19-.19-.36-.37-.25-.66a.57.57,0,0,1,.63-.34h1C20,20,20,20,20,18.85c0-.42,0-.55-.53-.5a2.08,2.08,0,0,1-2.25-2.87C17.66,14.45,18.55,14,20,14.25Z"/></g></svg>