<svg xmlns="http://www.w3.org/2000/svg" width="25.207" height="27.895" viewBox="0 0 25.207 27.895">
  <g id="Group_91" data-name="Group 91" transform="translate(-1.218 -0.136)">
    <path id="Path_767" data-name="Path 767" d="M8.712,16.377C3.42,12.155,4.361,5.9,7.414,2.81a8.959,8.959,0,0,1,12.261-.473,8.888,8.888,0,0,1-.824,13.969,21.438,21.438,0,0,1,3.369,2.217,12.362,12.362,0,0,1,4.185,7.99,1.172,1.172,0,0,1-.912,1.44,1.219,1.219,0,0,1-1.585-1.043,11.146,11.146,0,0,0-1.662-4.6,9.814,9.814,0,0,0-7.037-4.355,10.123,10.123,0,0,0-11.133,7.13c-.188.645-.277,1.319-.452,1.968a1.127,1.127,0,0,1-1.28.969c-.628-.05-.975-.386-1.089-1.109a5.062,5.062,0,0,1,.274-2.18,12.642,12.642,0,0,1,6.618-8.071C8.313,16.578,8.482,16.494,8.712,16.377ZM13.855,2.671A6.289,6.289,0,0,0,7.45,8.96a6.361,6.361,0,1,0,6.406-6.289Z" transform="translate(0 0)" fill="#646464"/>
  </g>
</svg>
