<svg xmlns="http://www.w3.org/2000/svg" width="23.931" height="23.922" viewBox="0 0 23.931 23.922"><defs><style>.a{fill:#646464;}</style></defs><g transform="translate(0.012)"><path class="a" d="M0,9.92V1.15C0,.13.14,0,1.12,0H22.91c.93,0,1,.11,1,1.08V18.62a1.17,1.17,0,0,1-.78,1.25c-2.62,1.27-5.22,2.57-7.82,3.88a33.4,33.4,0,0,1-6.78,0C6,22.47,3.33,21.16.69,19.88A1,1,0,0,1,0,18.77C.05,15.82,0,12.87,0,9.92Zm22.81.1V2.08a.92.92,0,0,0-.92-.92H1.86c-.59,0-.69.2-.69.73V18.16a.88.88,0,0,0,.55.94c2.35,1.13,4.68,2.3,7,3.47a37.08,37.08,0,0,0,6.58,0c2.33-1.17,4.65-2.34,7-3.48a.86.86,0,0,0,.56-.92c-.03-2.72-.01-5.43-.01-8.17Z"/><path class="a" d="M9.14,10a4.56,4.56,0,0,1,.17-.9,1.69,1.69,0,0,0-.69-2.06c-.4-.35-1.09-.66-.84-1.36s.94-.5,1.44-.51a1.88,1.88,0,0,0,1.87-1.46c.17-.44.23-1.13.94-1.09s.73.66.87,1.09A1.92,1.92,0,0,0,15,5.22a2.51,2.51,0,0,1,.66.1c.66.16.88.73.35,1.13A2.83,2.83,0,0,0,14.84,10a.64.64,0,0,1-1,.7,2.71,2.71,0,0,0-3.63,0C9.56,11.17,9.1,10.84,9.14,10Zm.55-3.62a2.05,2.05,0,0,1,.85,2.7c1.35-.55,1.35-.55,3,0a2,2,0,0,1,.76-2.72A2.19,2.19,0,0,1,12,4.67C11.72,6,10.85,6.34,9.69,6.42Z"/><path class="a" d="M12,16.68a1.35,1.35,0,0,1-.75-.23c-1.67-.9-3.33-1.81-5-2.7-.46-.25-.82-.58-.57-1.13s.74-.44,1.2-.19c1.54.84,3.08,1.65,4.61,2.51a1,1,0,0,0,1.13,0c1.48-.82,3-1.6,4.46-2.4.46-.24,1-.52,1.32.1s-.14.89-.62,1.15c-1.62.86-3.23,1.75-4.84,2.62a1.69,1.69,0,0,1-.94.27Z"/><path class="a" d="M12.21,20.88a1.6,1.6,0,0,1-1-.26L6.26,18c-.48-.26-.93-.57-.6-1.17s.84-.33,1.3-.08c1.38.75,2.78,1.46,4.13,2.26a1.53,1.53,0,0,0,1.78,0c1.37-.82,2.8-1.54,4.21-2.3.43-.24.91-.49,1.24.07s-.05.91-.55,1.17c-1.67.9-3.33,1.81-5,2.7C12.54,20.76,12.28,20.84,12.21,20.88Z"/></g></svg>