<svg xmlns="http://www.w3.org/2000/svg" width="40.237" height="56" viewBox="0 0 40.237 56"><defs><style>.a{fill:#8264b4;}</style></defs><g transform="translate(-910.326 -1065.572)"><path class="a" d="M910.326,1095.557q0-10.566,0-21.132a4.688,4.688,0,0,1,3.646-4.758,6.707,6.707,0,0,1,1.88-.122c.312.012.391-.1.385-.4-.016-.83-.01-1.661,0-2.492a1.029,1.029,0,1,1,2.055-.023q.023,1.267,0,2.537c-.005.276.073.376.361.373q1.916-.019,3.83,0c.277,0,.329-.1.326-.351-.012-.846-.01-1.692,0-2.538a1.013,1.013,0,0,1,.632-.987.986.986,0,0,1,1.079.158,1.011,1.011,0,0,1,.364.857c0,.831.008,1.662-.006,2.492,0,.278.082.372.367.369,1.261-.013,2.522-.016,3.783,0,.317,0,.386-.115.381-.4-.015-.784-.009-1.568,0-2.353.005-.733.418-1.215,1.031-1.217a1.071,1.071,0,0,1,1.044,1.2c0,.8.012,1.6-.005,2.4-.006.278.067.371.357.368q1.916-.023,3.83,0c.307.005.35-.118.345-.379-.013-.815-.007-1.63,0-2.445a1.038,1.038,0,1,1,2.068-.059c.024.83.019,1.661,0,2.491-.006.3.088.4.391.391,1.246-.014,2.492-.017,3.737,0,.324,0,.378-.122.373-.4-.015-.815-.019-1.631,0-2.446a1.045,1.045,0,1,1,2.085-.011c.006.831.013,1.661,0,2.492-.005.28.074.376.362.366a6.989,6.989,0,0,1,1.881.12,4.733,4.733,0,0,1,3.668,4.8q0,13.519,0,27.038,0,7.567,0,15.135a4.724,4.724,0,0,1-3.615,4.793,5.373,5.373,0,0,1-1.325.144q-15.18,0-30.36,0a4.7,4.7,0,0,1-4.873-3.961,5.762,5.762,0,0,1-.059-1.01Q910.324,1106.077,910.326,1095.557Zm38.144.019c0-6.859-.048-13.719.028-20.577.024-2.1-.991-3.588-3.458-3.368a.231.231,0,0,1-.046,0c-.258-.036-.348.069-.343.333.015.769.008,1.538,0,2.307a1.064,1.064,0,0,1-1.047,1.2c-.631-.007-1.037-.471-1.043-1.211s-.015-1.477.005-2.214c.009-.312-.067-.426-.4-.421q-1.845.03-3.69,0c-.331-.005-.416.107-.41.42.017.8.024,1.6-.007,2.4a1.013,1.013,0,0,1-1.074,1.026,1.034,1.034,0,0,1-.988-1.108c-.005-.8-.012-1.6,0-2.4.005-.265-.083-.339-.341-.336q-1.914.016-3.829,0c-.281,0-.371.074-.364.361.02.769.009,1.538.006,2.307a1.056,1.056,0,0,1-1.019,1.177c-.633.013-1.051-.452-1.056-1.187-.005-.769-.009-1.538,0-2.307,0-.252-.067-.353-.337-.35-1.276.011-2.553.013-3.829,0-.289,0-.367.1-.362.372.013.754.006,1.507,0,2.261s-.4,1.21-1.026,1.21a1.062,1.062,0,0,1-1.049-1.2c-.005-.769-.011-1.539.005-2.307,0-.267-.084-.338-.342-.336-1.261.011-2.522.013-3.783,0-.3,0-.4.08-.394.387q.027,1.223,0,2.445a1.026,1.026,0,0,1-2.051-.017c-.01-.6,0-1.2,0-1.8,0-1.012,0-1.012-1-1.01a2.654,2.654,0,0,0-2.838,2.819q-.006,21.108,0,42.215a2.873,2.873,0,0,0,.268,1.3,2.806,2.806,0,0,0,2.81,1.537q15-.014,29.989-.009a4.339,4.339,0,0,0,1.006-.093,2.634,2.634,0,0,0,2.008-2.783Q948.472,1106.094,948.47,1095.576Z"/><path class="a" d="M930.463,1086.426q6.5,0,13,0a1.092,1.092,0,0,1,1.051.526,1.02,1.02,0,0,1-.582,1.493,2.266,2.266,0,0,1-.637.075q-12.864,0-25.73,0c-.9,0-1.354-.376-1.336-1.093a1,1,0,0,1,.9-.993,3.82,3.82,0,0,1,.415-.006Z"/><path class="a" d="M930.438,1099.285q-6.5,0-13,0c-.771,0-1.2-.368-1.2-1.023a1.008,1.008,0,0,1,.948-1.049c.137-.012.276,0,.414,0h25.684c.139,0,.278-.007.415.006a1.033,1.033,0,0,1,.961,1.046,1.016,1.016,0,0,1-.938,1.015,4.77,4.77,0,0,1-.507.01Z"/><path class="a" d="M930.45,1102.606q6.478,0,12.958,0a1.1,1.1,0,0,1,1.165.639,1.034,1.034,0,0,1-.845,1.435,3.213,3.213,0,0,1-.368.006H917.445c-.765,0-1.2-.372-1.212-1.018a.984.984,0,0,1,.983-1.053c.383-.021.768-.006,1.153-.006Z"/><path class="a" d="M930.438,1093.886q-6.547,0-13.095,0a1,1,0,0,1-1.11-1.062.972.972,0,0,1,.812-.974,3.286,3.286,0,0,1,.6-.038q12.773,0,25.545,0a4.478,4.478,0,0,1,.506.018,1.029,1.029,0,0,1,.963,1.086,1.015,1.015,0,0,1-1.075.97q-3.506.006-7.009,0Z"/><path class="a" d="M930.445,1108.005q6.547,0,13.094,0a.991.991,0,0,1,1.058.71,1.025,1.025,0,0,1-.356,1.151,1.277,1.277,0,0,1-.831.214h-3.089q-11.319,0-22.639,0a3.628,3.628,0,0,1-.643-.039.981.981,0,0,1-.806-1.07,1,1,0,0,1,.932-.964c.123-.01.246,0,.369,0Z"/><path class="a" d="M930.431,1081.043h13.095a1,1,0,0,1,1.07.691,1.038,1.038,0,0,1-.38,1.185,1.32,1.32,0,0,1-.838.185H917.465c-.834,0-1.279-.415-1.231-1.132a.973.973,0,0,1,.917-.925c.138-.01.277,0,.415,0Z"/></g></svg>