<svg xmlns="http://www.w3.org/2000/svg" width="56" height="54.096" viewBox="0 0 56 54.096"><defs><style>.a{fill:#8264b4;}</style></defs><g transform="translate(-694.86 -1075.161)"><path class="a" d="M719.307,1109.19c.033,3.416.044,6.832.009,10.248a2.843,2.843,0,0,1-1.038,2.258,2.21,2.21,0,0,1-1.342.6c-.932.061-1.864.057-2.8.047-.308,0-.325.072-.2.33q1.2,2.407,2.384,4.827a3.846,3.846,0,0,1,.329.883.687.687,0,0,1-.857.847,8.4,8.4,0,0,1-1.647-.675q-6.062-3-12.118-6.02a1.73,1.73,0,0,0-.8-.191c-1.154.006-2.308-.017-3.462-.006a2.978,2.978,0,0,1-2.549-1.471,1.714,1.714,0,0,1-.273-.961c-.063-1.946-.075-3.893-.076-5.84,0-5.107.007-10.213-.014-15.32a3.05,3.05,0,0,1,2.3-2.529c1.27-.094,2.54-.076,3.81-.077q7.38,0,14.76.018c.385,0,.77.02,1.153.049a2.886,2.886,0,0,1,2.389,1.9.887.887,0,0,1,.033.378Q719.308,1103.839,719.307,1109.19Zm-5.537,17.246.054-.054c-.059-.124-.115-.249-.176-.372-.684-1.391-1.394-2.769-2.046-4.176a.784.784,0,0,1,.143-.9.925.925,0,0,1,.758-.281c1.293-.068,2.587-.052,3.881-.069a6.055,6.055,0,0,0,.7-.054.464.464,0,0,0,.43-.435c.021-.162.033-.325.04-.487.1-2.436.06-4.873.055-7.309-.009-4.43.062-8.86-.051-13.29-.027-1.03-.068-1.069-1.113-1.085-5.281-.083-10.562-.037-15.844-.035q-1.521,0-3.042.043c-.754.021-.838.115-.871.858-.021.478-.044.956-.045,1.433-.008,3.614-.021,7.228-.013,10.842.006,2.868-.049,5.736.058,8.6.028.769.15.882.909.912q.157.006.315.006c1.282.005,2.565.011,3.847.009a1.3,1.3,0,0,1,.6.139q3.908,1.959,7.818,3.909Z"/><path class="a" d="M731.957,1117.7l3.343-1.668q4.019-2.01,8.037-4.021a1.439,1.439,0,0,1,.669-.158c1.259.005,2.518,0,3.778-.006a6.271,6.271,0,0,0,.628-.029c.432-.046.58-.188.607-.619.033-.535.059-1.071.06-1.607q.006-9.1,0-18.191c0-.489-.027-.979-.051-1.468-.029-.592-.131-.707-.736-.735-.7-.032-1.4-.045-2.1-.046q-6.208-.009-12.418,0c-.333,0-.459-.08-.428-.423a5.913,5.913,0,0,0,0-.978c-.024-.3.1-.379.38-.366.43.02.863,0,1.294.005q6.1.015,12.209.033c.3,0,.606.041.908.027a2.574,2.574,0,0,1,2.324,1.419,2.4,2.4,0,0,1,.4,1.38c-.02,6.052-.015,12.1-.022,18.156,0,.851-.027,1.7-.058,2.552a2.724,2.724,0,0,1-2.627,2.624c-1.211.036-2.425.029-3.637.026a1.8,1.8,0,0,0-.836.2q-6.024,3-12.056,5.99a11.975,11.975,0,0,1-1.543.657.719.719,0,0,1-.836-.141.739.739,0,0,1-.141-.839,16.9,16.9,0,0,1,.86-1.912c.6-1.213,1.2-2.425,1.814-3.628.145-.282.075-.324-.206-.323-.851.005-1.7.01-2.553-.023a2.774,2.774,0,0,1-2.6-2.582c-.108-2.529-.046-5.06-.067-7.59,0-.242.1-.3.31-.29.373.011.747.018,1.119,0,.266-.015.334.079.333.338q-.012,3.218,0,6.436c0,.42.022.84.054,1.258.037.488.184.651.674.668.92.031,1.841.025,2.762.042.548.01,1.1.06,1.643.044a.879.879,0,0,1,.821,1.319c-.7,1.314-1.321,2.674-1.975,4.016l-.2.4Z"/><path class="a" d="M731.607,1088.721c-.016,3-.014,6.393-.045,9.786a3.011,3.011,0,0,1-1.618,2.619,1.406,1.406,0,0,1-.7.181c-1.281.087-2.564.067-3.846.062a.563.563,0,0,0-.54.285c-.931,1.411-1.881,2.809-2.809,4.222-.155.236-.288.251-.508.12a8.475,8.475,0,0,1-.874-.579.257.257,0,0,1-.071-.408c1.089-1.642,2.147-3.3,3.322-4.887a.985.985,0,0,1,.847-.45c1.27-.013,2.541-.041,3.811-.065.21,0,.421-.007.629-.029.386-.041.541-.191.571-.578.033-.43.055-.861.058-1.292q.057-9.393,0-18.785c0-.454-.024-.909-.055-1.362-.03-.435-.145-.543-.584-.58-1.245-.106-2.494-.07-3.741-.071q-7.38,0-14.761.015c-.4,0-.792.029-1.187.059s-.529.155-.562.568c-.03.383-.054.768-.055,1.153q-.013,7.608-.02,15.216c0,.509.073.462-.468.465-.338,0-.676-.006-1.014,0-.188,0-.29-.054-.27-.258.008-.081,0-.163,0-.245,0-5.352.015-10.7-.015-16.056a3.067,3.067,0,0,1,2.421-2.607c1.282-.045,2.564-.063,3.847-.062q7.083.006,14.167.023c.431,0,.864.052,1.293.029a2.633,2.633,0,0,1,2.466,1.537,2.234,2.234,0,0,1,.322,1.225C731.6,1081.426,731.607,1084.877,731.607,1088.721Z"/><path class="a" d="M738.478,1110.088h-4.9c-.128,0-.257,0-.385,0a3.142,3.142,0,0,1-3.281-3.153c-.042-.721-.04-1.445-.078-2.167a.486.486,0,0,1,.257-.482q2.1-1.413,4.2-2.844c.477-.324.489-.336.193-.848a7.976,7.976,0,0,1-1.024-2.88,8.228,8.228,0,0,1,.322-3.832,3.99,3.99,0,0,1,2.993-2.761,7.448,7.448,0,0,1,3.669.012,4,4,0,0,1,3.044,2.929,8.179,8.179,0,0,1-.6,6.21c-.448.867-.464.861.348,1.406,1.2.805,2.395,1.62,3.61,2.4a.864.864,0,0,1,.467.838c-.013.663.032,1.327-.02,1.992a4.073,4.073,0,0,1-1.357,2.717,1.832,1.832,0,0,1-1.167.4c-1.35.122-2.7.066-4.055.089-.746.013-1.492,0-2.239,0Zm.057-1.723c2.05-.02,4.043.006,6.035-.075.617-.025.736-.144.9-.758a8.687,8.687,0,0,0,.134-2.086c0-.162-.115-.215-.22-.286-1.318-.879-2.639-1.754-3.951-2.643a.5.5,0,0,0-.574-.035,5.528,5.528,0,0,1-1.511.533,4.342,4.342,0,0,1-2.938-.494c-.171-.093-.326-.189-.543-.043-1.353.912-2.715,1.809-4.074,2.711-.087.057-.182.107-.18.236a7.322,7.322,0,0,0,.2,2.322.693.693,0,0,0,.7.545C734.538,1108.365,736.565,1108.339,738.535,1108.365Zm-3.413-12.273a10.056,10.056,0,0,0,.08,1.725,4.283,4.283,0,0,0,.256,1.051c.8,1.951,1.876,2.653,3.774,2.415a2.232,2.232,0,0,0,1.229-.535,4.282,4.282,0,0,0,1.363-2.114,9.121,9.121,0,0,0,.116-4.022,2.091,2.091,0,0,0-1.723-1.8,7.921,7.921,0,0,0-3.158-.015,2.139,2.139,0,0,0-1.652,1.355A5.874,5.874,0,0,0,735.122,1096.092Z"/><path class="a" d="M723.4,1097.879c-.665,0-1.33-.006-1.994,0-.219,0-.316-.057-.3-.3.018-.383.018-.769,0-1.153-.012-.259.1-.308.331-.309,1.236-.005,2.471-.011,3.707-.038.8-.018.958-.16,1.121-.947a9.913,9.913,0,0,0,.094-1.917.311.311,0,0,0-.18-.275q-2.039-1.355-4.074-2.715a.371.371,0,0,0-.446-.007,4.409,4.409,0,0,1-4.412.075.734.734,0,0,0-.85.074c-1.231.844-2.474,1.669-3.722,2.486a.569.569,0,0,0-.313.593c.022.2-.009.4.008.594.022.25-.051.361-.325.346-.384-.021-.77-.014-1.154,0-.216.007-.283-.079-.279-.287.012-.56.017-1.12.005-1.679a.469.469,0,0,1,.254-.448c1.34-.869,2.674-1.747,4.009-2.622.039-.026.078-.052.116-.079.534-.387.539-.452.216-1.013a7.927,7.927,0,0,1-.618-6.744,3.884,3.884,0,0,1,2.869-2.62,7.4,7.4,0,0,1,3.735-.007,4.139,4.139,0,0,1,3.2,3.462,8.219,8.219,0,0,1-.862,5.885c-.356.631-.357.638.249,1.042q2.04,1.354,4.088,2.695a.453.453,0,0,1,.242.449c-.035.874-.031,1.748-.128,2.619a3.648,3.648,0,0,1-1.347,2.374,1.845,1.845,0,0,1-1.2.407c-.675.021-1.351.006-2.027.006Zm-.553-14.16c-.031-.313-.043-.794-.132-1.262a2.151,2.151,0,0,0-1.731-1.88,7.449,7.449,0,0,0-3.364.03,1.968,1.968,0,0,0-1.547,1.583,9.627,9.627,0,0,0-.1,3.476,4.31,4.31,0,0,0,.6,1.741,2.944,2.944,0,0,0,2.317,1.657,3.048,3.048,0,0,0,2.205-.457,4.22,4.22,0,0,0,1.306-1.7A7.9,7.9,0,0,0,722.85,1083.719Z"/><path class="a" d="M730.738,1124.979c0,.862,0,.862-.847.862-.915,0-.915,0-.915-.9,0-.85,0-.85.864-.85C730.738,1124.093,730.738,1124.093,730.738,1124.979Z"/><path class="a" d="M727.234,1124.984c0,.857,0,.857-.844.857-.9,0-.9,0-.9-.9,0-.846,0-.846.828-.846h.035C727.234,1124.093,727.234,1124.093,727.234,1124.984Z"/><path class="a" d="M733.33,1125.841c-.85,0-.85,0-.85-.851,0-.9,0-.9.913-.9.835,0,.835,0,.835.839C734.228,1125.841,734.228,1125.841,733.33,1125.841Z"/><path class="a" d="M722.855,1125.841c-.868,0-.868,0-.868-.866,0-.882,0-.882.9-.882.85,0,.85,0,.85.856C723.732,1125.841,723.732,1125.841,722.855,1125.841Z"/><path class="a" d="M707.083,1118.828c-1.691,0-3.381.005-5.072,0-.395,0-.791-.04-1.186-.071a1.975,1.975,0,0,1-1.331-.675,4.323,4.323,0,0,1-1.109-3.078c-.006-.513.008-1.027-.013-1.539a.539.539,0,0,1,.292-.535q1.926-1.241,3.835-2.505c.817-.542.8-.546.338-1.406a7.954,7.954,0,0,1-.524-6.435,3.931,3.931,0,0,1,3.051-2.739,7.319,7.319,0,0,1,3.935.134,3.812,3.812,0,0,1,2.578,2.466,8.069,8.069,0,0,1-.449,6.508c-.468.93-.491.918.376,1.491,1.256.828,2.509,1.659,3.77,2.478a.537.537,0,0,1,.29.535,18.944,18.944,0,0,1-.2,2.961,3.79,3.79,0,0,1-1.276,2,1.777,1.777,0,0,1-1.116.349c-1.559.131-3.122.07-4.684.087-.5.005-1,0-1.5,0Zm.035-1.727c1.981-.014,3.962.006,5.942-.068.631-.023.756-.135.913-.738a8.573,8.573,0,0,0,.14-2.121c0-.146-.106-.2-.2-.26q-2.02-1.347-4.041-2.7a.373.373,0,0,0-.445-.028,5.938,5.938,0,0,1-.759.354,4.211,4.211,0,0,1-3.458-.177,1,1,0,0,0-1.119.077c-1.247.838-2.512,1.65-3.769,2.473-.085.056-.2.1-.2.226a6.8,6.8,0,0,0,.222,2.421.648.648,0,0,0,.653.468C703.039,1117.1,705.078,1117.082,707.118,1117.1Zm3.483-12.276c-.018-.281-.03-.69-.073-1.095a2.218,2.218,0,0,0-1.7-2.144,6.97,6.97,0,0,0-3.528.024,1.834,1.834,0,0,0-1.419,1.4,7.7,7.7,0,0,0,.166,4.748c.761,1.859,1.816,2.462,3.591,2.272a2.392,2.392,0,0,0,1.44-.636,4.386,4.386,0,0,0,1.26-2.021A8.693,8.693,0,0,0,710.6,1104.825Z"/></g></svg>