<svg xmlns="http://www.w3.org/2000/svg" width="56.497" height="45.316" viewBox="0 0 56.497 45.316"><defs><style>.a{fill:#8264b4;stroke:#f2eff7;stroke-width:0.5px;}</style></defs><g transform="translate(-606.334 -1067.792)"><path class="a" d="M638.471,1106.339c-4.483,0-8.967.018-13.45-.016a2.96,2.96,0,0,0-2.067.732c-2.1,1.755-4.238,3.455-6.356,5.185-.536.437-1.072.881-1.806.5-.675-.348-.635-1.016-.634-1.65,0-1.255-.037-2.512.014-3.765.03-.744-.18-1.055-.97-1a27.7,27.7,0,0,1-2.823.006,3.727,3.727,0,0,1-3.773-3.761q-.051-12.1,0-24.21a3.744,3.744,0,0,1,3.77-3.772c.883-.047,1.984.386,2.592-.208.556-.544.147-1.622.2-2.464a3.726,3.726,0,0,1,3.934-3.874q20.78-.033,41.561,0a3.7,3.7,0,0,1,3.9,4.02q.029,11.769.007,23.538a3.816,3.816,0,0,1-4.076,4.15c-2.445.079-2.445.079-2.5,2.428-.059,2.657-1.555,4.15-4.213,4.158C647.349,1106.348,642.91,1106.339,638.471,1106.339Zm-21.952,2.943c1.885-1.527,3.538-2.8,5.116-4.167a4.446,4.446,0,0,1,3.149-1.161c8.876.05,17.753.028,26.63.025,1.9,0,2.252-.355,2.252-2.29q0-11.23,0-22.461c0-1.915-.357-2.269-2.268-2.27q-9.281-.006-18.561,0-10.962,0-21.923,0c-1.521,0-1.947.367-1.95,1.743-.016,7.846-.005,15.692-.014,23.538,0,1.165.527,1.746,1.707,1.737,1.435-.01,2.869.005,4.3,0,1.049-.005,1.578.483,1.564,1.554C616.507,1106.648,616.519,1107.767,616.519,1109.282Zm21.421-38.95H618.307c-2.6,0-2.733.225-2.843,2.841-.053,1.265.393,1.443,1.512,1.439,11.386-.039,22.771-.025,34.156-.024,3.566,0,4.865,1.291,4.867,4.848,0,5.558,0,11.116.011,16.675,0,.423-.2,1.12.265,1.209a5.412,5.412,0,0,0,3.165-.1c.866-.368.776-1.213.776-1.981q0-11.3,0-22.592c0-1.984-.339-2.312-2.371-2.313Q647.891,1070.328,637.94,1070.332Z"/><path class="a" d="M637.476,1089.272c5.515,0,4.03.006,9.545-.007.864,0,1.765.046,1.788,1.122.025,1.16-.913,1.238-1.827,1.238-10.941-.007-4.881,0-15.821,0-.135,0-.269,0-.4,0-.8-.02-1.464-.283-1.45-1.209s.681-1.145,1.49-1.144c4.08.008,1.16,0,5.241,0Z"/><path class="a" d="M633.494,1098.383h-1.959a9.867,9.867,0,0,1-1.074-.019c-.713-.08-1.184-.452-1.152-1.217a1.092,1.092,0,0,1,1.244-1.111c2.24-.008.3-.006,3.7-.006H642.8c.179,0,.359.005.538,0,.821-.035,1.477.246,1.495,1.145s-.648,1.206-1.454,1.209c-2.285.008-4.569,0-6.853,0Z"/><path class="a" d="M633.639,1084.84c-4.074,0,1.851,0-2.223,0a7.664,7.664,0,0,1-1.2-.059,1.011,1.011,0,0,1-.9-1.14,1.032,1.032,0,0,1,.975-1.085,7.147,7.147,0,0,1,.938-.027c8.239,0,3.462,0,11.7,0,.224,0,.447,0,.671,0a1.1,1.1,0,0,1,1.243,1.118,1.083,1.083,0,0,1-1.183,1.177c-.984.033-1.97.016-2.955.016Z"/><path class="a" d="M619.555,1093.717c-.231,0-.462.009-.693,0a.65.65,0,0,1-.68-.707,3.959,3.959,0,0,1,1.273-3.241c.568-.542,1.175-1.042,1.738-1.588a1.788,1.788,0,0,0,.591-1.559,1.282,1.282,0,0,0-1.022-1.239,2.986,2.986,0,0,0-2.345.263,1.435,1.435,0,0,0-.7,1.279c.008.673-.337.906-.959.859-.184-.014-.37,0-.554,0-1.182,0-1.371-.223-1.193-1.4a4.7,4.7,0,0,1,5.481-3.815,4.065,4.065,0,0,1,3.714,2.568,4.418,4.418,0,0,1-.846,4.719,12.889,12.889,0,0,1-1.67,1.558,1.768,1.768,0,0,0-.776,1.529C620.944,1093.633,620.738,1093.721,619.555,1093.717Z"/><path class="a" d="M621.359,1096.671a1.725,1.725,0,0,1-3.449.022,1.721,1.721,0,0,1,1.717-1.717A1.7,1.7,0,0,1,621.359,1096.671Z"/></g></svg>