<svg xmlns="http://www.w3.org/2000/svg" viewBox="0 0 56 56"><defs><style>.cls-1{fill:#8264b4;}</style></defs><g id="Layer_4" data-name="Layer 4"><path class="cls-1" d="M18.57,33.52A9.56,9.56,0,0,1,28,23a9.43,9.43,0,0,1,9.29,10.46c.29,0,.28-.3.38-.47a7.19,7.19,0,0,1,7-3.73,7.06,7.06,0,0,1,6.52,4.92A7,7,0,0,1,49.37,42c-.61.63-.47.76.2,1.1a11.83,11.83,0,0,1,6.36,11.77A1.21,1.21,0,0,1,54.75,56a9.73,9.73,0,0,1-1.08,0H1.84C.36,56,0,55.64,0,54.14A11.61,11.61,0,0,1,6.75,42.86c.69-.36.16-.52,0-.72a7.45,7.45,0,1,1,11.63-9Zm9.32,20H39c.41,0,.72,0,.75-.57A10.66,10.66,0,0,0,32.5,42.21a16.65,16.65,0,0,0-5.39-.53,10.58,10.58,0,0,0-11,11c0,.65.17.84.83.83C20.62,53.49,24.25,53.51,27.89,53.51ZM28,39.18a6.82,6.82,0,1,0-6.82-6.8A6.75,6.75,0,0,0,28,39.18ZM8,53.51c1.6,0,3.2,0,4.79,0,.67,0,.92-.14.89-.85a12.33,12.33,0,0,1,1.87-7.07c.28-.46.11-.6-.29-.76a9.55,9.55,0,0,0-4.46-.6A9.39,9.39,0,0,0,2.5,52.62c0,.65,0,.94.81.9C4.87,53.46,6.45,53.5,8,53.51Zm39.81,0h4c1.82,0,1.82,0,1.49-1.83a9.32,9.32,0,0,0-12.57-6.83c-.35.15-.65.22-.33.73a12.69,12.69,0,0,1,1.88,7.23c0,.53.13.72.69.71C44.58,53.48,46.2,53.5,47.82,53.51ZM16.76,36.8a5,5,0,0,0-4.9-5.07,5,5,0,1,0-.11,9.94A4.94,4.94,0,0,0,16.76,36.8Zm22.43-.1a4.93,4.93,0,0,0,4.9,5,5,5,0,1,0-4.9-5ZM36.63,36a10.63,10.63,0,0,1-3.1,3.88c.77.37,1.47.69,2.14,1a10.23,10.23,0,0,1,2.57,1.91c.46.45.76,0,1.09-.14s.05-.27-.07-.38A7.71,7.71,0,0,1,36.63,36Zm-17.35-.12a7.63,7.63,0,0,1-2.89,6.68c.48.08.77.66,1.25.23a14.83,14.83,0,0,1,4.83-2.92A10.94,10.94,0,0,1,19.28,35.89Z"/><path class="cls-1" d="M12.29,0H22.5c1.56,0,2.06.51,2.06,2.08v14.3c0,1.6-.46,2-2.07,2.06-2.49,0-2.49,0-2.51,2.46,0,.76,0,1.53-.8,2s-1.55,0-2.21-.51c-1.41-1.12-2.86-2.2-4.26-3.34A2.49,2.49,0,0,0,11,18.42c-3,0-6,0-9,0C.47,18.43,0,18,0,16.36V2.07C0,.5.51,0,2.08,0Zm4.57,18.34c0-.46,0-.69.05-.92.05-1.6.49-2,2.08-2.06.55,0,1.09,0,1.63,0s.89-.13.88-.83q0-5.29,0-10.61c0-.67-.19-.86-.86-.86q-8.37,0-16.73,0c-.68,0-.86.21-.85.87,0,3.5,0,7,0,10.5,0,.81.26,1,1,.94,2.62,0,5.24,0,7.85,0a3,3,0,0,1,2.06.72C14.83,16.8,15.76,17.49,16.86,18.34Z"/><path class="cls-1" d="M44.17,8.72h7.6c1.33,0,1.71.4,1.71,1.75q0,4.5,0,9c0,1.24-.43,1.68-1.69,1.69-2,0-4,0-6,0a1.92,1.92,0,0,0-1.35.46c-1.2,1-2.44,1.89-3.64,2.85a1.38,1.38,0,0,1-1.53.26c-.58-.25-.64-.76-.69-1.3-.07-.73.33-1.67-.17-2.14s-1.37-.09-2.08-.13c-1-.05-1.46-.47-1.46-1.49q0-4.71,0-9.42c0-1.11.43-1.53,1.57-1.54ZM41.14,21c.78-.6,1.5-1.1,2.16-1.68a2.56,2.56,0,0,1,1.87-.65c1.68,0,3.36,0,5,0,.61,0,.81-.17.8-.78q0-3,0-5.95c0-.55-.12-.77-.73-.77q-6.15,0-12.3,0c-.55,0-.69.18-.68.71,0,1.9,0,3.8,0,5.7,0,1.27-.1,1.08,1.11,1.08C40.76,18.68,40.76,18.67,41.14,21Z"/><path class="cls-1" d="M12.34,7.71c1.46,0,2.92,0,4.38,0a1.51,1.51,0,0,1,1.69,1.49,1.53,1.53,0,0,1-1.65,1.56q-4.49,0-9,0A1.53,1.53,0,0,1,6.15,9.2,1.52,1.52,0,0,1,7.86,7.72C9.35,7.69,10.84,7.71,12.34,7.71Z"/><path class="cls-1" d="M44.18,16.18c-1,0-2,0-3,0s-1.43-.53-1.4-1.28.54-1.17,1.41-1.18c2,0,3.92,0,5.87,0a1.24,1.24,0,0,1,1.4,1.2c0,.73-.52,1.24-1.41,1.27S45.14,16.18,44.18,16.18Z"/></g></svg>