<svg xmlns="http://www.w3.org/2000/svg" width="44.9" height="56" viewBox="0 0 44.9 56"><defs><style>.a{fill:#8264b4;}</style></defs><g transform="translate(-986.439 -1065.572)"><path class="a" d="M986.44,1097.452q0-10.382,0-20.762a3.055,3.055,0,0,1,3.306-3.3c2.6,0,5.191-.01,7.786.013.458,0,.587-.142.557-.574a13,13,0,0,1-.005-1.41.845.845,0,0,1,.958-.931c.658-.013,1.318-.032,1.974.009.5.031.657-.11.658-.639a4.3,4.3,0,0,1,3.307-4.181,4.941,4.941,0,0,1,1.176-.108c1.787,0,3.573,0,5.36,0a4.224,4.224,0,0,1,4.478,4.437c0,.476.138.61.6.584.674-.038,1.353-.016,2.03-.008s.949.288.964.967a9.5,9.5,0,0,1-.007,1.24c-.057.532.1.7.664.694,2.52-.033,5.043.054,7.559-.036a3.271,3.271,0,0,1,3.535,3.566c-.041,13.709-.024,27.418-.018,41.128a3.385,3.385,0,0,1-.865,2.484,3.127,3.127,0,0,1-2.39.94q-15.4-.008-30.8,0-3.725,0-7.447,0a3.079,3.079,0,0,1-3.374-3.355Q986.438,1107.833,986.44,1097.452Zm1.7.115h0v20.591c0,1.366.42,1.779,1.784,1.779h25.612q6.261,0,12.524,0a1.338,1.338,0,0,0,1.45-.834,2.606,2.606,0,0,0,.111-.946q0-16.924,0-33.848,0-3.779,0-7.559c0-1.069-.491-1.564-1.54-1.566-2.652-.005-5.3.005-7.955-.013-.409,0-.57.087-.541.526.04.6.018,1.2.007,1.8-.011.686-.286.982-.951.983q-9.759.006-19.518,0a.822.822,0,0,1-.947-.929c-.014-.62-.035-1.243.006-1.861.029-.445-.139-.525-.544-.522-2.576.017-5.152.008-7.728.011-1.342,0-1.763.413-1.763,1.738Q988.139,1087.244,988.141,1097.567Zm20.74-20.687v0c2.819,0,5.638-.01,8.458.011.451,0,.572-.132.562-.571-.028-1.184-.019-2.368,0-3.552.005-.344-.06-.492-.455-.491q-8.571.018-17.141,0c-.344,0-.452.093-.446.443.021,1.2.03,2.406,0,3.608-.012.452.126.567.567.564C1003.242,1076.871,1006.062,1076.88,1008.881,1076.88Zm.062-6.389c1.633,0,3.266-.02,4.9.012.489.01.589-.149.572-.6a2.639,2.639,0,0,0-2.671-2.62c-1.9-.01-3.791-.013-5.687,0a2.55,2.55,0,0,0-2.614,2.645c-.009.424.085.583.548.575C1005.64,1070.473,1007.292,1070.49,1008.943,1070.491Z"/><path class="a" d="M997.057,1092.251q-2.368,0-4.736,0c-.829,0-1.109-.286-1.121-1.119a5.623,5.623,0,0,1,.681-3.474,3.985,3.985,0,0,1,2.09-1.631c.366-.116.409-.218.217-.563a3.393,3.393,0,0,1,5.087-4.371,3.422,3.422,0,0,1,.72,4.348c-.244.4-.148.458.225.626a4.128,4.128,0,0,1,2.7,4.035c0,.376.005.752,0,1.128-.007.747-.275,1.02-1.018,1.022-1.616.005-3.232,0-4.848,0Zm-.138-1.7c1.22,0,2.441-.017,3.661.01.43.009.591-.095.575-.555a2.463,2.463,0,0,0-2.547-2.508c-.976-.009-1.955.045-2.928-.012a2.593,2.593,0,0,0-2.845,2.615c-.034.334.058.465.422.458C994.477,1090.541,995.7,1090.554,996.919,1090.554Zm1.838-6.908a1.675,1.675,0,0,0-1.691-1.669,1.776,1.776,0,0,0-1.7,1.694,1.731,1.731,0,0,0,1.744,1.7A1.7,1.7,0,0,0,998.757,1083.646Z"/><path class="a" d="M1016.053,1100.477c-1.084-2.044-.861-3.746.615-4.891a3.4,3.4,0,0,1,4.313.147,3.538,3.538,0,0,1,.441,4.734,5.419,5.419,0,0,1,2.032,1.275,3.977,3.977,0,0,1,1.131,2.745c0,.489.014.978,0,1.466-.019.643-.281.9-.962.9-1.485.01-2.971,0-4.456,0-1.73,0-3.46,0-5.19,0-.871,0-1.1-.243-1.113-1.107a5.534,5.534,0,0,1,.773-3.617A4.5,4.5,0,0,1,1016.053,1100.477Zm2.582,4.678c1.22,0,2.441-.019,3.66.011.442.01.534-.15.522-.553a2.476,2.476,0,0,0-2.494-2.513q-1.632-.034-3.266,0a2.474,2.474,0,0,0-2.494,2.513c-.014.408.086.561.525.55C1016.27,1105.136,1017.453,1105.156,1018.635,1105.155Zm1.788-6.874a1.706,1.706,0,0,0-1.669-1.7,1.8,1.8,0,0,0-1.726,1.737,1.714,1.714,0,0,0,1.719,1.658A1.687,1.687,0,0,0,1020.423,1098.281Z"/><path class="a" d="M999.769,1111.524a5.1,5.1,0,0,1,2.069,1.312,3.94,3.94,0,0,1,1.08,2.649c0,.488.011.977,0,1.465-.013.689-.262.942-.968.943q-4.874.011-9.748,0c-.721,0-.994-.265-1-.984a8.646,8.646,0,0,1,.135-2.355,4.226,4.226,0,0,1,3.034-3.041c-1.059-2.15-.838-3.768.659-4.9a3.382,3.382,0,0,1,4.219.111C1000.637,1107.9,1000.829,1109.638,999.769,1111.524Zm-2.774,4.765v0c1.241,0,2.481-.007,3.722.006.3,0,.424-.064.434-.4a2.471,2.471,0,0,0-2.517-2.655c-1.071-.012-2.143-.01-3.214,0a2.48,2.48,0,0,0-2.524,2.544c-.009.379.078.526.491.517C994.59,1116.272,995.793,1116.289,996.995,1116.289Zm1.761-6.953a1.7,1.7,0,0,0-1.657-1.717,1.8,1.8,0,0,0-1.736,1.729,1.7,1.7,0,0,0,1.712,1.662A1.66,1.66,0,0,0,998.756,1109.336Z"/><path class="a" d="M1008.886,1100.1a.73.73,0,0,0-.531-.118c-3.29,0-6.581.006-9.871-.011-.433,0-.586.1-.569.558.036.977.017,1.955.009,2.933-.006.687-.291,1.011-.86,1.009s-.834-.315-.834-1.021q0-4.287,0-8.573c0-.669.31-1.026.856-1.016s.834.366.838,1.045c.006,1.015.007,2.03,0,3.046,0,.258.024.414.354.413,3.479-.012,6.957-.009,10.435-.013.03,0,.06-.031.186-.1-.515-.5-1.015-.966-1.5-1.45s-.506-.952-.118-1.328.822-.335,1.284.122q1.462,1.449,2.911,2.911c.5.5.5.842,0,1.346q-1.449,1.462-2.911,2.912a.863.863,0,0,1-1.292.108.839.839,0,0,1,.1-1.288C1007.857,1101.088,1008.36,1100.611,1008.886,1100.1Z"/><path class="a" d="M1016.989,1091.052q-4.424,0-8.848,0c-.392,0-.755-.04-.955-.444-.318-.64.111-1.249.912-1.253,1.935-.012,3.87-.006,5.8-.006h11.665c.169,0,.339-.008.507.007a.887.887,0,0,1,.885.9c-.013.494-.315.782-.9.786-1.634.013-3.268.006-4.9.006Z"/><path class="a" d="M1013.764,1083.687a.952.952,0,0,1,.8.519c.4.659.828,1.3,1.206,1.968.2.353.346.316.621.087,1.76-1.468,3.535-2.918,5.3-4.382a.859.859,0,0,1,1.172-.107c.488.364.466.94-.065,1.38-1.374,1.138-2.759,2.264-4.139,3.394-.712.583-1.423,1.168-2.138,1.747a.933.933,0,0,1-1.556-.241c-.63-.979-1.248-1.965-1.869-2.949a.9.9,0,0,1-.08-.96A.922.922,0,0,1,1013.764,1083.687Z"/></g></svg>