<svg xmlns="http://www.w3.org/2000/svg" width="56" height="55.476" viewBox="0 0 56 55.476"><defs><style>.a{fill:#8264b4;}</style></defs><g transform="translate(-833.721 -1065.062)"><path class="a" d="M853.316,1074.027h13.545c.176,0,.353,0,.529,0,.741.029,1.2.422,1.212,1.034.012.629-.47,1.067-1.243,1.07-3.062.011-6.123.007-9.185.008q-9.284,0-18.566,0a4.261,4.261,0,0,0-2.278.562,2.986,2.986,0,0,0-1.5,2.756q.018,10.768.007,21.538c0,1.7-.01,3.392,0,5.087a3.721,3.721,0,0,0,3.919,3.892c6.453,0,12.906.009,19.359-.014a2.8,2.8,0,0,1,2.016.763c2.256,2,4.561,3.95,6.851,5.915.146.126.3.359.487.29.25-.094.136-.385.137-.588.01-1.564.007-3.128.006-4.691,0-1.393.277-1.676,1.646-1.675h8.325a3.55,3.55,0,0,0,3.772-3.755c.013-4.559,0-9.117,0-13.676q0-4.2,0-8.391a4.267,4.267,0,0,1,.026-.725,1.04,1.04,0,0,1,2.066,0,2.8,2.8,0,0,1,.023.527q0,11.1-.005,22.2a6.164,6.164,0,0,1-4.606,5.835,5.339,5.339,0,0,1-1.049.092c-2.445.008-4.89.019-7.334-.006-.571-.005-.77.167-.762.752.029,2.07.006,4.14.015,6.21,0,.576-.04,1.117-.646,1.4-.589.272-1-.062-1.417-.418-2.77-2.386-5.56-4.749-8.3-7.165a2.95,2.95,0,0,0-2.131-.782c-6.122.03-12.245.018-18.368.015a6.189,6.189,0,0,1-6.148-6.194q0-12.917,0-25.833a5.739,5.739,0,0,1,6.05-6.035q6.773-.008,13.545,0Z"/><path class="a" d="M887.411,1072.136c-.4-.913-.457-2.03-1.275-2.945a6.257,6.257,0,0,0-3.552-1.826c-.427-.1-.6.2-.823.419q-4.639,4.656-9.268,9.321-2.049,2.061-4.1,4.121a2.7,2.7,0,0,1-.493.435,1.03,1.03,0,0,1-1.441-1.4,2.839,2.839,0,0,1,.472-.547q6.931-6.987,13.857-13.979a1.625,1.625,0,0,1,1.993-.52,2.117,2.117,0,0,0,.57.165A7.046,7.046,0,0,1,888,1068.1a3.768,3.768,0,0,1,.83,1.4c.234.849.469,1.7.768,2.527a1.561,1.561,0,0,1-.481,1.825q-5.325,5.279-10.611,10.595-1.7,1.7-3.41,3.408a3.171,3.171,0,0,1-.489.441.986.986,0,0,1-1.328-.108.973.973,0,0,1-.118-1.325,4.6,4.6,0,0,1,.623-.68q6.561-6.564,13.122-13.128C887.134,1072.828,887.443,1072.64,887.411,1072.136Z"/><path class="a" d="M859.034,1097.287H845.818a2.821,2.821,0,0,1-.657-.038.994.994,0,0,1-.843-1.035.982.982,0,0,1,.871-1.008,3.362,3.362,0,0,1,.659-.03q13.215,0,26.431,0c1.092,0,1.6.328,1.61,1.036.014.726-.512,1.076-1.639,1.076Q865.642,1097.289,859.034,1097.287Z"/><path class="a" d="M859.034,1102.574q-6.607,0-13.215,0a2.82,2.82,0,0,1-.658-.037,1,1,0,0,1-.843-1.036.981.981,0,0,1,.871-1.007,3.362,3.362,0,0,1,.659-.031q13.215,0,26.431,0c1.092,0,1.6.327,1.61,1.035.014.726-.512,1.077-1.639,1.077Q865.642,1102.576,859.034,1102.574Z"/><path class="a" d="M885.3,1070.614c.024.417-.326.707-.638,1.016q-6.492,6.443-12.984,12.882c-.063.062-.124.126-.189.185a1.066,1.066,0,1,1-1.48-1.505c1.616-1.622,3.245-3.23,4.87-4.842q4.125-4.092,8.252-8.183a3.713,3.713,0,0,1,.539-.483,1.046,1.046,0,0,1,1.63.93Z"/><path class="a" d="M863.771,1092.924a1.823,1.823,0,0,1-1.857-2.085c.662-2.624,1.374-5.235,2.089-7.846a1.043,1.043,0,1,1,2.007.561c-.526,2.046-1.081,4.084-1.618,6.127-.237.9-.159.969.763.737q2.944-.742,5.89-1.482c.822-.2,1.383.06,1.529.695.151.653-.2,1.133-1.021,1.344q-3.676.942-7.358,1.866C864.025,1092.884,863.851,1092.909,863.771,1092.924Z"/><path class="a" d="M852.773,1086.714H845.9a5.1,5.1,0,0,1-.594-.013,1.067,1.067,0,0,1-1-1.043,1.048,1.048,0,0,1,.993-1.041,7.478,7.478,0,0,1,.792-.015h13.412a5.664,5.664,0,0,1,.726.018,1.015,1.015,0,0,1,.961,1,1.038,1.038,0,0,1-.957,1.073,4.34,4.34,0,0,1-.593.019Z"/><path class="a" d="M852.227,1089.886q3.172,0,6.343,0a3.711,3.711,0,0,1,.659.027,1.036,1.036,0,0,1,.029,2.052,3.558,3.558,0,0,1-.724.035q-6.376,0-12.752,0a3.571,3.571,0,0,1-.528-.018,1.045,1.045,0,0,1-.939-1.092.983.983,0,0,1,.975-.981c.68-.045,1.365-.022,2.048-.023Q849.783,1089.883,852.227,1089.886Z"/></g></svg>