<svg xmlns="http://www.w3.org/2000/svg" width="56.022" height="55.915" viewBox="0 0 56.022 55.915"><defs><style>.a{fill:#8264b4;}</style></defs><g transform="translate(-762.011 -1059.604)"><path class="a" d="M765.037,1115.519c-.008-.383-.022-.767-.022-1.151q0-5.414,0-10.827a.574.574,0,0,0-.32-.6,4.867,4.867,0,0,1-2.676-4.525c-.018-3.3,0-6.6,0-9.9,0-.858.012-1.716-.006-2.574-.006-.293.085-.389.375-.372a8.551,8.551,0,0,0,1.153,0c.365-.029.477.087.475.462q-.024,4.326-.005,8.653c.006,1.4-.086,2.811.051,4.212a2.931,2.931,0,0,0,2.432,2.589c.5.09.525.075.525-.438q0-5.08,0-10.161a5.218,5.218,0,0,1,.967-3.253,4.918,4.918,0,0,1,4.082-2.053c1.6-.014,3.2-.011,4.8,0a1.016,1.016,0,0,1,1.137,1.161c.007,1.774.013,3.549-.006,5.324-.005.383.088.506.489.5,2.383-.019,4.766-.01,7.15-.009,1.029,0,1.363.331,1.366,1.346,0,.755.011,1.509-.005,2.263-.006.292.091.38.382.378q2.62-.018,5.24,0c.291,0,.388-.087.382-.378-.016-.754-.007-1.508,0-2.263,0-1.015.337-1.345,1.367-1.346,2.368,0,4.736-.011,7.1.01.436,0,.541-.129.535-.549-.023-1.7-.01-3.4-.009-5.1,0-1.007.326-1.339,1.317-1.341,1.48,0,2.96-.008,4.44,0a4.986,4.986,0,0,1,5.222,5.22c.015,3.4,0,6.8,0,10.206,0,.566.021.583.569.473a3.046,3.046,0,0,0,2.441-3.2q.008-6.057,0-12.114c0-.588,0-.6.6-.584.452.013,1.038-.2,1.317.095.256.272.069.847.07,1.288q.008,5.658,0,11.315a4.944,4.944,0,0,1-2.72,4.68c-.265.143-.28.334-.28.581q.006,5.7,0,11.4c0,.191-.014.383-.022.574H813c-.009-.191-.026-.382-.026-.573,0-3.636-.007-7.271.008-10.907,0-.41-.114-.516-.519-.513q-4.46.025-8.918,0c-.434,0-.574.084-.571.551.023,3.355.006,6.709.018,10.064a1.33,1.33,0,0,1-.739,1.379h-5.24c-.005-.191-.014-.383-.014-.575q0-7.939.007-15.88c0-.4-.085-.526-.506-.524q-6.5.024-13.006,0c-.421,0-.507.129-.506.524q.018,7.94.007,15.88c0,.192-.009.384-.014.575h-5.24a1.33,1.33,0,0,1-.739-1.379c.012-3.355-.005-6.709.018-10.064,0-.467-.137-.554-.571-.551q-4.458.028-8.918,0c-.405,0-.521.1-.519.513.015,3.636.009,7.271.008,10.907,0,.191-.017.382-.026.573Zm3.981-19.742c0,1.76.012,3.52-.009,5.279,0,.387.092.5.488.495,2.737-.018,5.475-.011,8.213-.008.935,0,1.287.352,1.29,1.288q0,2.217,0,4.436c0,1.923.009,3.845-.008,5.768,0,.375.076.547.487.505a5.1,5.1,0,0,1,1.019,0c.411.04.521-.107.519-.516-.014-4.347-.009-8.7-.009-13.043,0-1.115-.313-1.431-1.418-1.431-2.1,0-4.2,0-6.3,0-.86,0-1.267-.339-1.274-1.125-.018-2.174,0-4.348-.011-6.522,0-.284.12-.354.374-.346a9.285,9.285,0,0,0,1.154,0c.4-.035.495.121.49.5-.02,1.642-.009,3.283-.008,4.925,0,.562,0,.562.583.562h9.812c.586,0,.586,0,.586-.6,0-.3-.024-.594.006-.887.04-.38-.075-.5-.48-.5-2.4.021-4.795.011-7.193.01-.957,0-1.318-.358-1.319-1.311,0-1.746-.013-3.491.008-5.236.005-.379-.111-.464-.472-.457-1.11.024-2.22.005-3.33.01a3.007,3.007,0,0,0-3.194,3.2C769.015,1092.435,769.018,1094.106,769.018,1095.777Zm29.961,10.627c0,2.218.007,4.436-.008,6.654,0,.356.077.517.463.481a5.352,5.352,0,0,1,1.02,0c.429.043.545-.112.543-.539-.018-3.313-.01-6.626-.01-9.938,0-1.246.272-1.521,1.5-1.521,2.679,0,5.358-.005,8.036.006.335,0,.454-.075.453-.437-.014-3.475,0-6.95-.011-10.425a2.985,2.985,0,0,0-3.093-3.12c-1.169-.012-2.338.009-3.507-.01-.32-.005-.393.1-.39.4.013,1.715.006,3.431.006,5.146,0,1.141-.313,1.455-1.444,1.455-2.368,0-4.736.007-7.1-.007-.346,0-.476.088-.447.443a5.806,5.806,0,0,1,0,1.063c-.038.4.106.494.495.492q5-.023,9.989,0c.409,0,.521-.11.515-.518-.023-1.671,0-3.342-.018-5.013,0-.377.117-.495.48-.467a7,7,0,0,0,1.064,0c.369-.029.481.1.478.471-.016,2.041-.007,4.082-.008,6.122,0,1.081-.323,1.4-1.4,1.4h-6.215c-1.047,0-1.383.335-1.384,1.376Q798.978,1103.164,798.979,1106.4Z"/><path class="a" d="M786.974,1059.608q2.886,0,5.77,0a3.036,3.036,0,0,1,3.252,3.243c.006,1.2.013,2.395,0,3.592a3.025,3.025,0,0,1-2.288,3.054,4.215,4.215,0,0,1-1.058.091c-2.234,0-4.468.008-6.7-.007a.8.8,0,0,0-.732.374c-.757,1.04-1.538,2.062-2.311,3.09a1.079,1.079,0,0,1-1.185.487,1.015,1.015,0,0,1-.707-1.1c-.006-.828-.008-1.656,0-2.484,0-.246-.054-.367-.332-.4a2.838,2.838,0,0,1-2.625-2.621,26.619,26.619,0,0,1-.005-4.6,2.9,2.9,0,0,1,3.02-2.711C783.038,1059.6,785.006,1059.609,786.974,1059.608Zm-3.981,9.831.092.036c.3-.4.614-.785.894-1.2a1.523,1.523,0,0,1,1.39-.691c2.442.016,4.883.008,7.325.006.927,0,1.292-.36,1.3-1.281,0-1.094,0-2.188,0-3.282,0-1.109-.323-1.435-1.423-1.435q-5.571,0-11.142,0a3.111,3.111,0,0,0-.529.033.927.927,0,0,0-.871.954c-.025,1.345-.028,2.69,0,4.035a.96.96,0,0,0,1.045.972c.281.011.563-.007.844.007a1.018,1.018,0,0,1,1.076,1.095C783,1068.941,782.993,1069.19,782.993,1069.439Z"/><path class="a" d="M792.051,1080.568c1.257,0,2.515,0,3.773,0a2.987,2.987,0,0,1,2.866,1.732.415.415,0,0,0,.447.268,7.892,7.892,0,0,1,.8,0,1,1,0,0,1,.834,1.615q-.713,1.124-1.479,2.212a1.68,1.68,0,0,0-.321,1.024,2.96,2.96,0,0,1-2.237,3.029,4.031,4.031,0,0,1-1.056.106q-3.684,0-7.369,0a3.042,3.042,0,0,1-3.314-3.312c0-1.139-.005-2.278,0-3.416a3.043,3.043,0,0,1,3.282-3.261C789.535,1080.566,790.793,1080.568,792.051,1080.568Zm-.056,7.987c1.272,0,2.544.005,3.817,0,.787-.005,1.218-.391,1.168-1.171a2.885,2.885,0,0,1,.675-2.129c.1-.125.179-.272.276-.4.123-.164.158-.277-.107-.323a.977.977,0,0,1-.828-.909,1.061,1.061,0,0,0-1.23-1.05q-3.771-.009-7.544,0c-.844,0-1.215.376-1.222,1.225q-.015,1.773,0,3.547c.007.853.373,1.209,1.223,1.212C789.48,1088.559,790.738,1088.555,791.995,1088.555Z"/><path class="a" d="M780,1077.579a5.988,5.988,0,1,1-5.983-5.982A6,6,0,0,1,780,1077.579Zm-5.976,3.98a3.983,3.983,0,1,0-4.01-3.951A4,4,0,0,0,774.024,1081.559Z"/><path class="a" d="M799.988,1077.57a5.988,5.988,0,1,1,5.973,5.995A6,6,0,0,1,799.988,1077.57Zm5.973,3.989a3.983,3.983,0,1,0-3.967-3.989A4.007,4.007,0,0,0,805.961,1081.559Z"/><path class="a" d="M790.987,1076.581c0,1,0,1-.983,1-1,0-1,0-1-.982,0-1.023,0-1.023,1.005-1.023C790.987,1075.578,790.987,1075.578,790.987,1076.581Z"/><path class="a" d="M787,1076.6c0,.987,0,.987-1.007.987s-1,0-1-1,0-1.007.984-1.007C787,1075.578,787,1075.578,787,1076.6Z"/><path class="a" d="M792.991,1076.567c0-.989,0-.989,1-.989s1,0,1,.991c0,1.014,0,1.014-1.024,1.014C792.991,1077.583,792.991,1077.583,792.991,1076.567Z"/><path class="a" d="M786.982,1065.606c-1.523,0-3.046-.01-4.569.008-.34,0-.439-.1-.417-.427a8.09,8.09,0,0,0,0-1.2c-.03-.377.167-.393.455-.393q4.148.01,8.295,0c.3,0,.593.014.887,0,.276-.017.363.1.354.361-.016.428-.022.858,0,1.285.017.311-.12.368-.392.366C790.058,1065.6,788.52,1065.607,786.982,1065.606Z"/><path class="a" d="M791.948,1086.572c-.873,0-1.746-.008-2.619.005-.252,0-.34-.077-.332-.329.015-.458.013-.917,0-1.374-.006-.233.084-.308.311-.308q2.685.009,5.37,0c.265,0,.324.122.318.354-.01.429-.018.858,0,1.286.015.3-.108.376-.389.371C793.723,1086.563,792.835,1086.572,791.948,1086.572Z"/></g></svg>