<svg xmlns="http://www.w3.org/2000/svg" width="57.623" height="57.59" viewBox="0 0 57.623 57.59"><defs><style>.a{fill:#8264b4;stroke:#f2eff7;stroke-width:1.5px;}</style></defs><g transform="translate(-529.774 -1061.373)"><path class="a" d="M555.189,1072.277c.83.893,1.543,1.616,2.206,2.383a1.839,1.839,0,1,1-2.63,2.572c-1.978-1.9-3.945-3.8-5.856-5.765a1.924,1.924,0,0,1,.061-2.928c1.869-1.919,3.769-3.809,5.681-5.686a1.854,1.854,0,1,1,2.609,2.612c-.828.784-1.767,1.452-3,2.45,2.25.577,3.784.875,5.255,1.363a21.95,21.95,0,0,1-4.958,42.717c-6.377.534-12.78.137-19.17.18-1.21.008-2.26-.495-2.243-1.868.018-1.459,1.062-1.873,2.394-1.868,5.724.019,11.449.058,17.173-.007a18.275,18.275,0,0,0,5.343-35.707A5.357,5.357,0,0,0,555.189,1072.277Z"/><path class="a" d="M545.4,1107.192c-4.276.814-7.513.165-10.247-3.45-8.444-11.159-4.784-27.412,7.763-33.387a2.5,2.5,0,0,1,2.244-.381,1.814,1.814,0,0,1,.582,3.005,3.654,3.654,0,0,1-.911.592c-6.7,3.445-10.439,8.873-10.481,16.451-.043,7.654,3.676,13.161,10.433,16.665A5.227,5.227,0,0,1,545.4,1107.192Z"/><path class="a" d="M579.434,1112.191H561.051l-.134-.459c2.873-.8,4.767-3.585,8.232-3.341,3.5.247,7.034.054,11.031.054-1.062-1.09-1.845-1.882-2.614-2.687a1.863,1.863,0,1,1,2.652-2.6q2.863,2.819,5.679,5.685a1.844,1.844,0,0,1-.011,2.89q-2.832,2.85-5.679,5.684a1.759,1.759,0,0,1-2.735.143,1.8,1.8,0,0,1,.084-2.75c.679-.749,1.394-1.465,2.092-2.195Z"/><path class="a" d="M564.041,1091.981a9.733,9.733,0,0,1-.256,1.337c.073-.292.132-.592.179-.9C563.986,1092.269,564.012,1092.123,564.041,1091.981Z"/><path class="a" d="M568.177,1087.454a2.619,2.619,0,0,1-1.228.811,4.533,4.533,0,0,0-1.424.774c-.494.256-.98.512-1.455.76.026.336.041.676.041,1.023a9.345,9.345,0,0,1-.07,1.159c-.029.142-.055.288-.077.438-.047.307-.106.607-.179.9a11.074,11.074,0,0,1-11.52,8.414c-5.531-.245-9.952-4.6-10.6-10.449a11.193,11.193,0,0,1,8.2-11.692c.124-.033.252-.066.38-.095a13.759,13.759,0,0,1,2.214-.325.055.055,0,0,1,.036,0,11.969,11.969,0,0,1,2.181.142,10.844,10.844,0,0,1,7.68,5.243.94.94,0,0,1-.431.369c-.942.483-1.845,2.189-3.237.625a7.333,7.333,0,0,0-6.08-2.616,10.824,10.824,0,0,0-1.161.128,7.521,7.521,0,0,0,.592,14.863,7.429,7.429,0,0,0,6.266-2.236,7.6,7.6,0,0,0,1.625-2.748c.008-.025.019-.047.026-.073a8.3,8.3,0,0,0,.259-.946.312.312,0,0,0,.015-.058h0c-2.32,1.213-4.413,2.3-6.5,3.408-1.487.79-2.543.439-3.241-1.1-.727-1.608-1.494-3.2-2.236-4.794-.555-1.187-.6-2.316.756-2.937,1.283-.588,1.988.215,2.6,1.275.646,1.118.694,3.014,1.962,3.208.778.117,1.669-.5,2.546-1.067.285-.186.567-.365.844-.508q1.441-.756,2.879-1.509l.369-.193c.742-.391,1.48-.779,2.218-1.17l.7-.372q1.031-.549,2.057-1.1a2.993,2.993,0,0,1,1.948-.478,1.99,1.99,0,0,1,1.041,2.934Z"/></g></svg>