<svg xmlns="http://www.w3.org/2000/svg" width="34.276" height="22.583" viewBox="0 0 34.276 22.583">
  <g id="Group_55" data-name="Group 55" transform="translate(-1049.019 488.516)">
    <path id="Path_156" data-name="Path 156" d="M1078.858-479.759c-1.125,1.008-2.149,1.923-3.17,2.84-.7.629-1.384,1.271-2.1,1.887a1.882,1.882,0,0,1-3.07-.433c-1.275-2.354-2.515-4.721-3.772-7.081-.17-.319-.354-.632-.593-1.056l-3.019,5.654c-.416.779-.829,1.56-1.252,2.337-.764,1.405-2.04,1.562-3.321.412q-2.255-2.025-4.513-4.049a.976.976,0,0,0-.645-.386c.282,1.427.553,2.824.837,4.219.512,2.519,1.039,5.036,1.544,7.556a1.459,1.459,0,0,1-1.346,1.9,1.653,1.653,0,0,1-2.009-1.429q-1.7-8.257-3.368-16.52a1.327,1.327,0,0,1,.908-1.646,1.988,1.988,0,0,1,2.2.462q3.661,3.312,7.348,6.608c.376-.1.38-.389.492-.6,1.464-2.723,2.927-5.447,4.361-8.181a1.875,1.875,0,0,1,1.818-1.249,1.837,1.837,0,0,1,1.75,1.218c1.438,2.732,2.9,5.456,4.359,8.18.119.222.165.485.478.66q3.642-3.271,7.281-6.548a2.181,2.181,0,0,1,1.633-.7,1.492,1.492,0,0,1,1.571,1.823c-.359,1.855-.738,3.707-1.115,5.559-.715,3.506-1.447,7.01-2.147,10.519-.3,1.527-.68,1.82-2.55,1.82h-13.417c-.305,0-.612.007-.915-.017-.936-.075-1.591-.665-1.568-1.4a1.526,1.526,0,0,1,1.628-1.358,2.563,2.563,0,0,1,.511-.01q6.133,0,12.265,0c.443,0,.806.029.906-.485.645-3.313,1.329-6.62,2-9.93A3.721,3.721,0,0,0,1078.858-479.759Z" transform="translate(0 0)" fill="#8264b4"/>
  </g>
</svg>
