<svg xmlns="http://www.w3.org/2000/svg" width="23.961" height="24.002" viewBox="0 0 23.961 24.002"><defs><style>.a{fill:#646464;}</style></defs><g transform="translate(0.001 0.002)"><path class="a" d="M12,22.24H2c-.27,0-.44-.15-.44-.38A.38.38,0,0,1,2,21.5c.21,0,.2,0,.2-.2v-.84c0-.3.13-.44.43-.44S3,20,3,19.72V14.26c0-.12,0-.17-.16-.16-.5,0-.6-.15-.58-.59V12.8c0-.24,0-.18-.18-.18H1.16a.38.38,0,0,1-.43-.43V11.04A.4.4,0,0,1,1,10.67L4.22,8.9c2.13-1.15,5.17-2.31,7.29-3.46a.2.2,0,0,0,.13-.21V.45A.385.385,0,1,1,12.4.33a.25.25,0,0,1,0,.08c0,.33,0,.33.32.33h2.55c.32,0,.46.13.46.45s0,.29.28.29h2.26a.36.36,0,0,1,.38.21.39.39,0,0,1-.07.42l-.78,1c-.13.18-.13.18,0,.35l.78,1a.4.4,0,0,1,.06.44.38.38,0,0,1-.39.2H14.31c-.31,0-.45-.14-.45-.45s0-.29-.3-.29H12.51c-.1,0-.13,0-.13.12v.66a.17.17,0,0,0,.11.17c1.74.94,4.23,1.91,6,2.85,1.47.8,3.12,1.59,4.59,2.38a.46.46,0,0,1,.25.43V12.1a.38.38,0,0,1-.39.4h-.95c-.12,0-.15,0-.15.15v.9a.37.37,0,0,1-.42.43c-.32,0-.31,0-.31.31v5.44c0,.14,0,.19.18.17h.18a.35.35,0,0,1,.38.38v.93c0,.14,0,.18.17.17a.4.4,0,0,1,.37.12.37.37,0,0,1,.06.4.36.36,0,0,1-.37.22H12Zm0-10.36H22.41c.11,0,.14,0,.13-.14s0-.26,0-.4a.14.14,0,0,0-.09-.15c-.14-.06-.26-.14-.39-.21-1.38-.75-2.93-1.48-4.31-2.23-1.65-.89-4-1.8-5.68-2.7a.15.15,0,0,0-.16,0l-.52.29C8.5,7.92,4.68,9.5,1.77,11.07c-.23.12-.35.25-.3.51a.54.54,0,0,1,0,.18c0,.09,0,.12.12.12ZM8.67,21.5h1c.12,0,.16,0,.15-.15v-1a.36.36,0,0,1,.37-.37h.23c.1,0,.14,0,.14-.13V14.41c0-.31,0-.31-.31-.31a.38.38,0,0,1-.43-.44v-.93c0-.08,0-.11-.1-.11H6.77c-.1,0-.12,0-.12.12v.79c0,.49-.09.58-.58.56-.13,0-.16,0-.16.17V19.7c0,.32,0,.32.31.32s.43.13.43.43v.92c0,.09,0,.13.12.13C7.1,21.49,8.34,21.5,8.67,21.5ZM13.49,17v2.67c0,.31,0,.31.31.31a.37.37,0,0,1,.43.42q0,.46,0,.93c0,.1,0,.13.13.13h2.89c.09,0,.13,0,.12-.13v-.84c0-.41.11-.51.51-.51H18c.1,0,.13,0,.13-.13V14.41c0-.31,0-.31-.31-.31a.39.39,0,0,1-.43-.43v-.94c0-.09,0-.11-.11-.11H14.34c-.08,0-.11,0-.11.11v.78c0,.46-.12.63-.6.59-.13,0-.15,0-.15.15C13.5,15.18,13.49,16.11,13.49,17ZM17.56,4.48l-.1-.14c-.18-.24-.36-.47-.53-.71a.38.38,0,0,1,0-.52L17,3l.54-.73H15.8c-.08,0-.08,0-.08.1v.64a.36.36,0,0,1-.55.32A.37.37,0,0,1,15,3V1.64c0-.09,0-.13-.12-.13H12.55c-.11,0-.14,0-.14.15V3.6c0,.12,0,.14.15.14h1.67a.37.37,0,0,1,.4.39,1.21,1.21,0,0,1,0,.19c0,.12,0,.16.15.16h2.78ZM5.17,17.06V14.22c0-.06,0-.12-.09-.12H3.78c-.07,0-.09,0-.09.09v5.67c0,.12,0,.16.15.16H5c.12,0,.14,0,.14-.14Q5.17,18.47,5.17,17.06Zm6.1,0v2.83c0,.12,0,.15.15.15h1.22c.09,0,.11,0,.11-.12v-5.7c0-.09,0-.12-.12-.12H11.41c-.12,0-.14.05-.14.15Zm9.06,0V14.24c0-.11,0-.15-.14-.15H19c-.13,0-.15.05-.15.16v5.63c0,.11,0,.14.14.14h1.2c.11,0,.14,0,.14-.14ZM4.43,12.62H3.08c-.1,0-.14,0-.13.12s0,.34,0,.51,0,.11.11.11H5.8c.09,0,.11,0,.11-.11v-.5c0-.11,0-.13-.13-.13Zm7.59,0H10.65c-.09,0-.13,0-.12.11s0,.35,0,.52,0,.11.1.11h2.75c.1,0,.12,0,.11-.12v-.47c0-.12,0-.16-.14-.15Zm7.57.74h1.34c.11,0,.16,0,.15-.13a4.17,4.17,0,0,1,0-.5c0-.09,0-.11-.12-.11H18.23c-.1,0-.12,0-.12.13a3.84,3.84,0,0,1,0,.48c0,.11,0,.13.13.13ZM4.41,21.5H5.79c.09,0,.13,0,.12-.13s0-.34,0-.51,0-.11-.1-.11H3.06c-.09,0-.11,0-.11.11v.5c0,.17,0,.13.13.13C3.53,21.49,4,21.5,4.41,21.5Zm15.19,0h1.36c.08,0,.12,0,.12-.12a4.34,4.34,0,0,1,0-.51c0-.08,0-.12-.11-.12H18.23c-.1,0-.12,0-.12.12a3.84,3.84,0,0,1,0,.48c0,.12,0,.14.14.14.45,0,.9.01,1.35.01Zm-7.6,0h1.36c.09,0,.13,0,.12-.13v-.51c0-.08,0-.11-.1-.11H10.63c-.07,0-.1,0-.1.1v.5c0,.17,0,.14.13.14C11.11,21.49,11.56,21.5,12,21.5Z"/><path class="a" d="M12,24H.34A.36.36,0,0,1,0,23.62a.37.37,0,0,1,.3-.39H23.59a.37.37,0,1,1,0,.74H12Z"/><path class="a" d="M13.86,9.3A1.85,1.85,0,1,1,12,7.44,1.85,1.85,0,0,1,13.86,9.3ZM12,10.4a1.11,1.11,0,1,0-1.1-1.11A1.11,1.11,0,0,0,12,10.4Z"/></g></svg>