<svg xmlns="http://www.w3.org/2000/svg" width="23.961" height="20.849" viewBox="0 0 23.961 20.849"><defs><style>.a{fill:#646464;}</style></defs><g transform="translate(0 -1.581)"><path class="a" d="M4.66,20.55a3.47,3.47,0,0,1,.18-1.11c.22-.66.72-1.22.36-2-.13-.28.11-.67.38-.88a.93.93,0,0,0,.25-1.07c-.09-.37-.44-.25-.67-.25-.63,0-.81-.3-.79-.94V10.71A1,1,0,0,0,3.74,9.6C2.65,9.11,1.59,8.6.51,8.05.29,7.94,0,7.86,0,7.55s.26-.4.46-.5L11.61,1.67a.94.94,0,0,1,.89.05L23.39,7c.23.11.55.17.57.51s-.32.46-.58.58c-1,.5-2,1-3,1.46a1,1,0,0,0-.74,1.18c.05,1.2,0,2.4,0,3.59,0,.63-.19.84-.76.88a8.28,8.28,0,0,0-4.68,2,4.34,4.34,0,0,0-1.81,3.07c0,.25-.11.45-.37.46s-.38-.17-.41-.42c-.23-2.16-1.7-3.15-3.24-4.07a10.58,10.58,0,0,0-1.23-.57c-.17-.07-.41-.25-.53.05a.56.56,0,0,0,.09.64,1.39,1.39,0,0,1,.4,1.8c-.1.22.12.35.21.51a4,4,0,0,1,.53,1.94c0,1.16-.6,1.83-1.63,1.82S4.67,21.76,4.66,20.55ZM1.44,7.63c1.81.87,3.58,1.7,5.33,2.6a1.22,1.22,0,0,0,1.49-.14c1.09-.83,2.23-1.59,3.36-2.37.22-.16.47-.37.68,0s-.06.55-.3.73-.35.24-.53.37L8.36,11c1.1.54,2.07,1,3,1.5a1.24,1.24,0,0,0,1.25,0c2.19-1.09,4.4-2.14,6.59-3.2l3.41-1.66a3.21,3.21,0,0,0-.35-.23C19,5.75,15.7,4.16,12.41,2.54a1,1,0,0,0-1,.08L2,7.2C1.81,7.29,1.58,7.32,1.44,7.63ZM12,18.67a7.91,7.91,0,0,1,1.34-1.77,9.37,9.37,0,0,1,5-2.45c.47-.08.61-.26.59-.76V11.05c0-.72-.17-.74-.7-.47-1.88.93-3.77,1.82-5.65,2.75a1.18,1.18,0,0,1-1.18,0c-1.09-.56-2.2-1.06-3.29-1.61a.89.89,0,0,0-1,.07c-.88.5-.41,1.35-.53,2s.12.84.64,1A8.18,8.18,0,0,1,12,18.67Zm-4.87,2c0-.79-.52-1.92-.87-1.95s-.93,1.13-.9,1.92c0,.61.25,1,.9,1s.88-.44.89-1Zm-.28-9.51L5.13,10.3V14c0,.28.1.4.36.42s.38-.13.38-.4v-1c-.04-.8-.04-1.54,1-1.89Z"/></g></svg>