<svg width="72" height="57" viewBox="0 0 72 57" fill="none" xmlns="http://www.w3.org/2000/svg">
<path d="M35.6483 25.9336H31C28.7909 25.9336 27 27.7245 27 29.9336V30.8516C27 31.9561 27.8954 32.8516 29 32.8516H32.0057L30.5 57H35.6483H39.5L38.0137 32.8516H41C42.1046 32.8516 43 31.9561 43 30.8516V29.9336C43 27.7245 41.2091 25.9336 39 25.9336H35.6483Z" fill="#39393A"/>
<path d="M20.3178 6.27519C20.3001 9.46699 17.9323 11.8594 14.7858 11.8651C11.6093 11.8704 9.18128 9.49347 9.16711 6.36452C9.15294 3.27511 11.6504 0.734022 14.6973 0.737553C17.8221 0.74073 20.3348 3.21685 20.3178 6.27519Z" fill="#39393A"/>
<path d="M18.0281 49.3664C19.4162 49.3664 20.8057 49.2979 22.1758 49.2298C23.4558 49.1666 24.6643 49.1069 25.8115 49.1069C27.2266 49.1069 28.3738 47.9636 28.3738 46.5534C28.3738 45.1433 27.2266 44 25.8115 44C24.5371 44 23.2075 44.0657 21.9217 44.1296C19.092 44.2694 16.1663 44.4142 13.7383 43.8683C11.7472 43.4203 9.95655 42.1969 8.69527 40.4234C7.55303 38.8169 7.2905 36.9865 6.95852 34.6686C6.90892 34.3236 6.85897 33.9759 6.80547 33.6253L5.096 22.419C4.88272 21.0244 3.57112 20.0654 2.17733 20.2787C0.77823 20.4905 -0.183676 21.7934 0.0296081 23.1873L1.73907 34.3929C1.79009 34.7279 1.83792 35.0609 1.88504 35.3906C2.26378 38.0316 2.65492 40.762 4.5139 43.3765C6.50751 46.1799 9.3826 48.1236 12.6095 48.8502C14.3774 49.247 16.201 49.3664 18.0281 49.3664Z" fill="#39393A"/>
<path d="M32.9675 18.2234H29.6754C28.823 18.2234 27.6995 18.2234 26.5838 18.2111C26.1526 18.2061 25.6885 18.0762 25.3101 17.8562C23.6953 16.9167 22.0606 15.9398 20.3079 14.8703C19.127 14.1483 17.5012 13.3475 14.4882 13.596C14.4507 13.596 14.3979 13.6084 14.3479 13.6084C11.3364 13.9632 9.28048 16.5319 9.47109 19.6456C9.48349 19.8504 9.49625 20.058 9.51113 20.2628C9.81192 25.0455 10.2484 29.8156 10.321 34.5983C10.3462 36.4873 10.7724 37.9592 11.5823 39.0411C12.7657 40.6253 14.7667 41.3675 17.5249 41.3449C19.7438 41.3248 21.8101 41.3325 23.8837 41.3375C24.779 41.3424 25.674 41.3449 26.5867 41.3449C27.2084 41.3449 28.4297 41.3301 29.2446 41.3198C29.3221 41.3198 29.3951 41.3173 29.4653 41.3173C29.7987 41.3124 30.0619 41.0426 30.0619 40.7101V33.8583C30.0619 33.526 29.8111 33.251 29.4777 33.2312C26.0853 33.024 21.1706 32.774 21.1706 32.774L20.7769 24.5456C20.7242 24.0908 20.6994 23.6209 20.6614 23.1788C20.6165 22.5867 20.5736 22.007 20.5286 21.4347C20.699 21.5296 20.8698 21.6221 21.0377 21.7146C21.9404 22.2093 22.7929 22.6768 23.668 23.0863C24.2621 23.3663 24.874 23.5287 25.3881 23.5386C26.4637 23.5637 27.6222 23.576 29.0387 23.576C29.9213 23.576 30.8038 23.5711 31.6867 23.5686C32.1228 23.5662 32.5618 23.5637 32.9979 23.5612C34.6528 23.5563 35.8989 22.4017 35.8964 20.8775C35.8961 19.3681 34.6348 18.2259 32.9675 18.2234Z" fill="#39393A"/>
<path d="M49.2741 5.82963C49.2929 9.18949 51.7854 11.7083 55.0973 11.714C58.4411 11.7196 60.9974 9.21739 61.0119 5.92355C61.0268 2.67137 58.3979 -0.00352726 55.1905 3.49133e-06C51.9012 0.00353424 49.2564 2.60994 49.2741 5.82963Z" fill="#39393A"/>
<path d="M53.0215 50.138C51.5604 50.138 50.0976 50.066 48.6556 49.994C47.3082 49.9276 46.0359 49.8644 44.8282 49.8644C43.3387 49.8644 42.1309 48.6608 42.1309 47.1765C42.1309 45.6921 43.3387 44.4885 44.8282 44.4885C46.1699 44.4885 47.5693 44.5577 48.9231 44.6251C51.902 44.772 54.9815 44.9249 57.5377 44.3501C59.6337 43.8784 61.5189 42.5904 62.8464 40.7237C64.0489 39.0328 64.3249 37.1057 64.6746 34.666C64.7267 34.3026 64.7795 33.9365 64.8358 33.5679L66.6353 21.7713C66.8595 20.3029 68.2402 19.2938 69.7077 19.518C71.1805 19.7411 72.1931 21.1121 71.9688 22.5799L70.1693 34.3757C70.1158 34.7285 70.0652 35.0787 70.0156 35.4261C69.617 38.2062 69.2053 41.0806 67.2485 43.8325C65.1501 46.7835 62.1233 48.8299 58.7267 49.5947C56.8642 50.0124 54.9446 50.138 53.0215 50.138Z" fill="#39393A"/>
<path d="M49.4505 33.7247C49.4505 33.7247 44.2757 33.986 40.7041 34.2059C40.3537 34.2275 40.0894 34.517 40.0894 34.8665V42.0774C40.0894 42.4276 40.3675 42.7129 40.7189 42.7179C41.5604 42.7288 43.0293 42.7468 43.7492 42.7468C46.9339 42.7472 49.944 42.7168 53.2882 42.7468C58.1693 42.7867 60.8038 40.5479 60.8704 35.6437C60.9505 30.3931 61.4454 25.1556 61.7664 19.9046C61.967 16.6264 59.8005 13.9207 56.6313 13.5479C56.5778 13.5479 56.5243 13.5345 56.4843 13.5345C55.4547 13.4413 54.4783 13.6277 53.6092 14.0542C52.0312 14.8271 50.8546 16.3863 50.5066 18.4387C50.2392 20.1179 50.1187 21.8236 49.9851 23.6229C49.9451 24.0893 49.9182 24.5825 49.8647 25.0624L49.4505 33.7247Z" fill="#39393A"/>
</svg>
