<svg width="72" height="74" viewBox="0 0 72 74" fill="none" xmlns="http://www.w3.org/2000/svg">
<path d="M23.2003 53.8286C23.4288 56.2286 23.6574 61.4858 22.7431 69.2572C22.5145 71.2001 23.886 72.8001 25.7145 73.0286C25.8288 73.0286 25.9431 73.0286 26.0574 73.0286C27.7717 73.0286 29.2574 71.7715 29.486 70.0572C30.6288 60.1143 30.0574 53.8286 29.8288 51.7715C28.4574 52.5715 26.1717 53.4858 23.2003 53.8286Z" fill="#39393A"/>
<path d="M18.2859 59.0855C18.2859 56.9141 18.4002 55.0855 18.5145 53.8284C15.543 53.5998 13.2573 52.6855 11.8859 51.8855C11.543 54.8569 10.743 62.9712 12.8002 70.9712C13.2573 72.7998 15.2002 73.9426 17.0288 73.3712C18.8573 72.9141 20.0002 70.9712 19.4288 69.1426C18.5145 65.7141 18.2859 62.0569 18.2859 59.0855Z" fill="#39393A"/>
<path d="M34.3999 25.2572L34.6285 25.6L36.6856 29.3715C37.8285 27.7715 39.5428 28 40.457 28L36.1142 20.8H31.8856L34.3999 25.2572C34.3999 25.1429 34.3999 25.2572 34.3999 25.2572Z" fill="#39393A"/>
<path d="M20.3431 28.6858C20.0002 28.9144 19.5431 29.1429 18.9717 29.1429C18.8574 29.1429 13.1431 30.0572 13.6002 29.9429C13.4859 30.8572 13.3717 31.6572 13.3717 32.4572C13.4859 32.4572 14.0574 32.4572 13.9431 32.4572C18.0574 32.4572 21.2574 32.4572 28.2288 32.4572C28.2288 32.3429 28.0002 30.0572 28.0002 29.9429C27.7717 29.9429 26.7431 29.7144 26.8574 29.8286C21.0288 28.9144 21.0288 29.0286 20.3431 28.6858Z" fill="#39393A"/>
<path d="M30.9714 49.0286C30.9714 48.9143 30.9714 48.9143 30.9714 49.0286C30.0571 47.7715 29.1429 40.0001 29.0286 39.8858V39.7715C28.6857 39.7715 11.7714 39.7715 12.4571 39.7715C12.3429 40.4572 11.5429 46.7429 10.7429 48.6858C10.7429 48.8001 10.7429 48.8001 10.6286 48.9143C10.6286 49.0286 10.5143 49.0286 10.5143 49.1429C10.5143 49.1429 10.5143 49.1429 10.5143 49.2572C10.4 49.4858 10.4 49.7143 10.5143 49.8286C10.5143 49.8286 10.5143 49.8286 10.6286 49.9429L10.7429 50.0572L10.8571 50.1715C13.4857 52.3429 17.2571 53.0286 20.6857 53.0286H20.8C23.8857 53.0286 26.7429 52.5715 29.4857 50.8572C29.6 50.7429 30.0571 50.5143 30.1714 50.4001C30.8571 49.8286 31.2 49.4858 30.9714 49.0286Z" fill="#39393A"/>
<path d="M2.51451 72.1141H4.57165L8.11451 39.657H4.11451L2.51451 72.1141Z" fill="#39393A"/>
<path d="M69.9429 47.8859L70.6286 41.2573L72 30.2859C69.1429 30.0573 69.0286 31.0859 69.0286 31.0859L67.7714 40.1144C67.6571 40.4573 68 40.9144 68.3429 41.0287C68.4571 41.0287 68.5714 41.0287 68.8 41.143L68.2286 47.8859H58.6286C58.7429 47.8859 59.3143 47.8859 60.1143 47.543C69.6 46.743 68.5714 28.343 64.9143 20.4573C63.3143 17.0287 59.2 15.543 55.7714 17.143C52.3429 18.743 50.8571 22.8573 52.4571 26.2859C52.4571 26.2859 52.4571 26.4001 52.5714 26.5144C53.9429 25.943 56 24.8001 55.4286 23.543C54.7429 21.8287 55.5429 19.7716 57.2571 19.0859C58.9714 18.4001 60.9143 19.2001 61.7143 20.8001C63.6571 25.143 61.6 30.9716 53.8286 33.3716C53.8286 37.8287 52.5714 38.743 52.8 41.2573L47.4286 41.4859L47.7714 48.343C47.8857 48.343 50.2857 48.2287 50.1714 48.2287C49.4857 48.8001 49.8286 49.6001 49.7143 50.6287H52.3429L51.2 71.543H52.5714L54.0571 50.5144H66.5143L68.1143 71.4287H69.4857L68.3429 50.5144H70.7429V49.143C70.7429 48.5716 70.4 48.1144 69.9429 47.8859Z" fill="#39393A"/>
<path d="M48.5715 69.143C49.3715 68.4573 49.8287 67.3144 49.7144 66.1716L47.543 48.343L48.5715 69.143Z" fill="#39393A"/>
<path d="M41.2572 43.4284L41.1429 42.7427C41.1429 42.7427 41.1429 42.7427 41.0286 42.857C40.4572 43.5427 40.2286 44.3427 40.2286 45.1427V45.257C40 46.5141 36.8 56.6855 34.8572 63.0855C34.2857 64.9141 35.3143 66.857 37.1429 67.4284C38.8572 67.9998 40.8 66.9712 41.4857 65.1427C41.8286 63.9998 42.1715 63.0855 42.4 62.057C43.0857 66.057 42.5143 67.8855 44.2286 69.257C40.2286 33.8284 41.6 46.057 41.2572 43.4284Z" fill="#39393A"/>
<path d="M52.9144 16.8001C56.5121 16.8001 59.4287 13.8835 59.4287 10.2858C59.4287 6.68803 56.5121 3.77148 52.9144 3.77148C49.3167 3.77148 46.4001 6.68803 46.4001 10.2858C46.4001 13.8835 49.3167 16.8001 52.9144 16.8001Z" fill="#39393A"/>
<path d="M20.8 13.0286C24.3977 13.0286 27.3143 10.112 27.3143 6.51429C27.3143 2.91654 24.3977 0 20.8 0C17.2023 0 14.2857 2.91654 14.2857 6.51429C14.2857 10.112 17.2023 13.0286 20.8 13.0286Z" fill="#39393A"/>
<path d="M46.1712 39.6571H42.0569L42.2855 41.9428L42.3998 42.7428C42.7426 45.4857 41.2569 32.6857 45.4855 69.9428L45.7141 72.2286H47.6569L47.5426 69.9428C46.1712 41.3714 46.0569 39.5428 46.1712 39.6571Z" fill="#39393A"/>
<path d="M30.0571 38.5144C34.2857 38.5144 45.6 38.5144 49.7143 38.5144L50.0571 36.8001L46.8571 34.5144C44.2286 34.7429 41.9429 34.7429 39.4286 34.7429C38.5143 34.7429 37.6 34.2858 37.0286 33.7144H29.4857H28.9143C28.3429 33.7144 2.74286 33.7144 4.57143 33.7144L0 36.8001V36.9144L0.342857 38.5144C25.3714 38.5144 2.4 38.5144 30.0571 38.5144Z" fill="#39393A"/>
<path d="M39.5427 29.0287C36.5713 29.0287 36.5713 33.6001 39.4284 33.6001C41.9427 33.6001 44.457 33.6001 47.0856 33.3715C49.5999 33.143 51.8856 32.6858 53.7142 32.1144C60.457 29.943 62.2856 24.9144 60.5713 21.2572C60.1142 20.1144 58.7427 19.6572 57.5999 20.1144C56.457 20.5715 55.8856 21.943 56.3427 23.0858C57.1427 25.143 54.9713 26.743 52.7999 27.543C50.6284 28.343 46.9713 29.143 41.0285 29.143C40.6856 29.143 40.1142 29.0287 39.5427 29.0287Z" fill="#39393A"/>
<path d="M10.057 29.3713C10.1713 29.3713 10.2856 29.3713 10.3999 29.3713C10.7427 29.3713 18.9713 28.1142 18.857 28.1142C18.9713 28.1142 19.1999 28.1142 19.3142 27.9999C18.1713 26.7428 18.057 24.9142 18.9713 23.657C18.3999 23.5428 18.1713 23.657 15.3142 23.9999C15.3142 23.657 15.3142 23.4285 15.4285 23.0856L15.657 22.7428C15.9999 22.7428 18.1713 22.3999 18.057 22.3999C18.7427 22.2856 19.4285 22.3999 19.9999 22.6285C21.7142 21.5999 23.1999 22.3999 26.057 22.7428L26.1713 22.9713L26.857 23.9999L26.2856 23.8856L22.1713 23.3142C20.9142 23.0856 19.7713 23.9999 19.5427 25.257C19.3142 26.7428 20.5713 27.8856 21.4856 27.8856C21.5999 27.8856 27.9999 28.9142 27.8856 28.9142L28.457 29.0285L29.0285 29.1428C30.857 29.3713 32.5713 30.057 33.4856 28.457C34.857 26.2856 32.457 25.257 27.8856 17.4856C27.5427 17.0285 27.3142 16.2285 26.1713 15.8856C22.2856 13.9428 18.6285 13.9428 15.1999 15.8856C15.1999 15.8856 15.1999 15.8856 15.0856 15.8856C14.857 15.9999 14.6285 16.2285 14.3999 16.457C14.2856 16.5713 14.057 16.9142 13.7142 17.4856L9.59989 23.657L8.22846 25.8285C7.77132 26.6285 7.77132 27.5428 8.22846 28.3428C8.57132 28.9142 9.25703 29.3713 10.057 29.3713Z" fill="#39393A"/>
</svg>
