<svg width="72" height="64" viewBox="0 0 72 64" fill="none" xmlns="http://www.w3.org/2000/svg">
<path d="M8.51705 6.52905C7.43155 6.52905 6.55158 7.406 6.55158 8.48776V54.8798C6.55158 55.9615 7.43155 56.8385 8.51705 56.8385H63.4829C64.5685 56.8385 65.4484 55.9615 65.4484 54.8798V8.48776C65.4484 7.406 64.5685 6.52905 63.4829 6.52905H8.51705ZM8.51705 0H63.4829C68.1868 0 72 3.8001 72 8.48776V54.8798C72 59.5674 68.1868 63.3675 63.4829 63.3675H8.51705C3.81321 63.3675 0 59.5674 0 54.8798V8.48776C0 3.8001 3.81321 0 8.51705 0ZM43.2067 52.5767H57.6202V55.8412H43.2067V52.5767ZM46.4817 43.1096H25.5167V41.8038C25.5167 36.3949 29.9165 32.0102 35.344 32.0102H36.6543C42.0818 32.0102 46.4817 36.3949 46.4817 41.8038V43.1096ZM35.9992 30.7044C33.1045 30.7044 30.7579 28.3659 30.7579 25.4812C30.7579 22.5964 33.1045 20.2579 35.9992 20.2579C38.8938 20.2579 41.2404 22.5964 41.2404 25.4812C41.2404 28.3659 38.8938 30.7044 35.9992 30.7044ZM24.2063 42.4567H13.4741V41.462C13.4741 37.3417 16.8258 34.0015 20.9603 34.0015H21.9585C23.5646 34.0015 25.0526 34.5056 26.2718 35.3636C24.9714 37.1797 24.2063 39.4027 24.2063 41.8038V42.4567ZM47.792 42.4567V41.8038C47.792 39.4005 47.0256 37.1756 45.723 35.3586C46.9421 34.5036 48.4288 34.0015 50.0334 34.0015H51.0325C55.171 34.0015 58.5259 37.3417 58.5259 41.462V42.4567H47.792ZM21.4594 33.0068C19.2543 33.0068 17.4668 31.2254 17.4668 29.0279C17.4668 26.8304 19.2543 25.049 21.4594 25.049C23.6645 25.049 25.452 26.8304 25.452 29.0279C25.452 31.2254 23.6645 33.0068 21.4594 33.0068ZM50.5329 33.0068C48.3257 33.0068 46.5365 31.2254 46.5365 29.0279C46.5365 26.8304 48.3257 25.049 50.5329 25.049C52.7401 25.049 54.5294 26.8304 54.5294 29.0279C54.5294 31.2254 52.7401 33.0068 50.5329 33.0068Z" fill="#39393A"/>
</svg>
