<svg width="64" height="64" viewBox="0 0 64 64" fill="none" xmlns="http://www.w3.org/2000/svg">
<path d="M7.9812 17.7527H26.9779L30.9375 21.7123C31.2105 21.9852 31.5727 22.1297 31.9422 22.1297C32.1258 22.1297 32.311 22.0941 32.488 22.0207C33.0217 21.7997 33.3663 21.2837 33.3663 20.7063V17.5527C34.8324 17.0478 35.8559 15.6462 35.8559 14.065V3.68774C35.8559 1.65425 34.2017 0 32.1682 0H7.9812C5.9477 0 4.29346 1.65425 4.29346 3.68774V4.44549C4.29346 4.96337 4.71308 5.38299 5.23096 5.38299C5.74883 5.38299 6.16845 4.96337 6.16845 4.44549V3.68774C6.16845 2.68824 6.9817 1.875 7.9812 1.875H32.1682C33.1677 1.875 33.9809 2.68824 33.9809 3.68774V14.065C33.9809 14.9168 33.3772 15.6626 32.5454 15.8382C31.9345 15.967 31.4913 16.5168 31.4913 17.1456V19.6145L28.147 16.2703C27.8944 16.0172 27.558 15.8777 27.2003 15.8777H7.9812C6.9817 15.8777 6.16845 15.0645 6.16845 14.065V8.83611C6.16845 8.31823 5.74883 7.89861 5.23096 7.89861C4.71308 7.89861 4.29346 8.31823 4.29346 8.83611V14.065C4.29346 16.0983 5.9477 17.7527 7.9812 17.7527V17.7527Z" fill="#FF7D59"/>
<path d="M63.0624 43.241C63.5803 43.241 63.9999 42.8214 63.9999 42.3035V41.5817C63.9999 38.7024 62.0703 36.125 59.3075 35.3138L54.2245 33.8214C54.078 33.6871 53.9091 33.5755 53.7225 33.4924L52.6625 33.0201C52.3801 32.8944 52.081 32.8306 51.783 32.8269V30.5961C53.4446 29.3696 54.6049 27.4936 54.8743 25.3333C55.7144 25.0959 56.3316 24.3224 56.3316 23.4075V16.6985C56.3316 15.1273 55.0999 13.8383 53.5511 13.7465C53.4238 12.2324 52.1508 11.0394 50.6043 11.0394H43.6439C40.5637 11.0394 38.0579 13.5453 38.0579 16.6254V23.4075C38.0579 24.3225 38.6752 25.096 39.5153 25.3334C39.785 27.4935 40.9452 29.3694 42.6065 30.5959V32.8231C42.3112 32.8288 42.0152 32.8931 41.7367 33.0181L40.697 33.4849C40.512 33.568 40.3444 33.6793 40.1989 33.813L35.0852 35.3139C32.3222 36.1248 30.3923 38.7024 30.3923 41.5821V46.6732C29.7404 46.1405 28.9817 45.7362 28.1529 45.493C28.0706 45.4689 28.5509 45.5659 20.8538 44.0987V44.0785C22.07 43.8546 23.2713 43.5387 24.4458 43.131C27.0487 42.2274 28.7428 39.5499 27.4164 35.1255C26.9778 33.6625 26.7553 32.1464 26.7548 30.6154C26.7531 24.8894 22.0933 20.2312 16.3673 20.2312H16.3672C10.6414 20.2312 5.98161 24.8895 5.97974 30.6194C5.97924 32.1466 5.75674 33.6628 5.31824 35.1255C4.00562 39.5051 5.64724 42.2139 8.28873 43.131C9.46236 43.5385 10.6627 43.8541 11.8779 44.078C4.21387 45.5616 4.66249 45.4696 4.58212 45.4932C1.88425 46.2849 0 48.8016 0 51.6135V60.4646C0 62.4218 1.58512 63.9973 3.53274 63.9973H3.53999C3.55612 63.9973 60.4511 63.9401 60.4673 63.9401C62.4153 63.9401 64 62.3553 64 60.4073V46.6862C64 46.1684 63.5804 45.7487 63.0625 45.7487C62.5446 45.7487 62.125 46.1684 62.125 46.6862V48.8547H51.1667L49.508 41.4592L50.4054 39.851C50.7615 39.7821 51.1025 39.6118 51.3844 39.341L54.2654 36.5355C54.4501 36.3556 54.5925 36.1429 54.6883 35.9118L58.7795 37.1129C60.7491 37.6911 62.1249 39.5289 62.1249 41.5817V42.3035C62.1249 42.8214 62.5445 43.241 63.0624 43.241V43.241ZM39.9329 16.6253C39.9329 14.579 41.5977 12.9143 43.6439 12.9143H50.6043C51.201 12.9143 51.6866 13.3998 51.6866 13.9965C51.6866 14.8897 52.4131 15.6162 53.3063 15.6162H53.3743C53.971 15.6162 54.4566 16.1017 54.4566 16.6984V20.1715H53.9984C53.7404 20.1715 53.5305 19.9617 53.5305 19.7037V18.9345C53.5305 17.278 51.904 16.122 50.3497 16.6357C48.3159 17.3078 46.076 17.3079 44.0397 16.6353C42.4714 16.1169 40.8592 17.2828 40.8592 18.9343V19.7037C40.8592 19.9617 40.6492 20.1715 40.3912 20.1715H39.933V16.6253H39.9329ZM41.3422 24.7415C41.2992 24.064 40.7354 23.5333 40.0587 23.5333C39.9892 23.5333 39.9328 23.4768 39.9328 23.4074V22.0465H40.3909C41.6829 22.0465 42.7339 20.9955 42.7339 19.7037V18.9343C42.7339 18.563 43.0944 18.298 43.454 18.4164C45.8673 19.2138 48.525 19.2135 50.938 18.4159C51.2918 18.2984 51.6554 18.5618 51.6554 18.9344V19.7035C51.6554 20.9954 52.7064 22.0464 53.9983 22.0464H54.4565V23.4073C54.4565 23.4767 54.4 23.5332 54.3305 23.5332C53.6539 23.5332 53.0901 24.0639 53.0471 24.7418C52.853 27.8206 50.2823 30.2325 47.1945 30.2325C44.107 30.2326 41.5364 27.8208 41.3422 24.7415V24.7415ZM47.9643 40.3776H46.409L45.8054 39.3409L47.2658 38.121L48.5912 39.2543L47.9643 40.3776ZM49.2448 48.8547H45.1399L46.6205 42.2526H47.764L49.2448 48.8547ZM47.2627 35.7156L44.4817 33.6375V31.6155C45.3279 31.9338 46.2428 32.1075 47.1948 32.1075C48.1469 32.1075 49.0618 31.9338 49.908 31.6155V33.6671L47.2627 35.7156ZM42.5048 34.7285C42.622 34.6756 42.7588 34.6909 42.862 34.7679C43.7923 35.463 44.415 35.9284 45.7613 36.9344L44.4138 38.06C44.407 38.0656 44.3993 38.0694 44.3913 38.0715C44.3873 38.072 44.3833 38.0726 44.3793 38.0733C44.3649 38.0738 44.3505 38.069 44.3393 38.059L41.4755 35.1908L42.5048 34.7285ZM8.90386 41.3596C6.53399 40.5368 6.39674 38.0571 7.11461 35.6638C7.60536 34.0264 7.85449 32.3294 7.85499 30.6159C7.85661 25.9235 11.6752 22.106 16.3676 22.106C21.06 22.106 24.8786 25.9235 24.8801 30.6198C24.8806 32.3291 25.1297 34.0261 25.6206 35.6638C26.3383 38.0578 26.2009 40.5369 23.8312 41.3596C19.0182 43.0305 13.7168 43.0307 8.90386 41.3596V41.3596ZM18.979 44.3497V44.6812C17.9518 46.8912 14.7656 46.882 13.7533 44.6611V44.3496C15.4697 44.5311 17.2211 44.5356 18.979 44.3497V44.3497ZM30.8599 61.8246C30.8599 61.9546 30.7578 62.0606 30.6274 62.0658C30.6242 62.066 30.6209 62.0661 30.6177 62.0663C30.6171 62.0663 30.6164 62.0663 30.6158 62.0665C30.6089 62.0667 30.6018 62.0671 30.5944 62.0676L3.53612 62.1223H3.53287C2.62 62.1223 1.875 61.3838 1.875 60.4646V51.6135C1.875 49.6422 3.18662 47.8764 5.06999 47.3041L12.2919 45.9074C14.1088 48.9774 18.6182 48.9681 20.4376 45.9279L27.6667 47.3042C29.6031 47.8931 30.8599 49.6737 30.8599 51.6132V61.8246ZM32.2674 41.582C32.2674 39.5289 33.6433 37.6911 35.6134 37.1129L39.7369 35.9026C39.8293 36.1256 39.9652 36.3316 40.1407 36.5073L43.0202 39.3911C43.0233 39.3943 43.0265 39.3974 43.0297 39.4005C43.2979 39.6616 43.6228 39.8303 43.9644 39.9051L44.8748 41.4686L43.2184 48.8545H32.2674V41.582ZM62.1249 50.7297V60.4073C62.1249 61.3213 61.3813 62.0651 60.4671 62.0651H32.7216C32.7304 61.9862 32.7349 61.906 32.7349 61.8246V51.6134C32.7349 51.3167 32.7143 51.0217 32.6734 50.7299C36.7886 50.7297 55.6438 50.7297 62.1249 50.7297V50.7297ZM50.0808 37.9933C50.0697 38.0039 50.0557 38.0093 50.0415 38.0093C50.0342 38.0078 50.0268 38.0063 50.0194 38.0049C50.014 38.0026 50.0089 37.9996 50.0042 37.9956L48.7574 36.9296L51.5383 34.7764C51.6415 34.6961 51.78 34.6796 51.8994 34.7328L52.9488 35.2004L50.0808 37.9933Z" fill="#FF7D59"/>
</svg>
