<svg width="72" height="64" viewBox="0 0 72 64" fill="none" xmlns="http://www.w3.org/2000/svg">
<path d="M44.6625 24.4805L50.8649 29.8308L43.4243 32.1522L44.6625 24.4805Z" fill="#39393A"/>
<path d="M15.4642 32.6867C10.7855 28.0027 10.4851 20.4264 14.9343 15.397C19.3785 10.3724 26.9661 9.72257 32.2127 13.7682L26.7267 19.9674C25.964 19.5199 25.0857 19.311 24.181 19.3505C22.9956 19.4261 21.911 19.9543 21.1252 20.841C20.3377 21.7311 19.9481 22.8647 20.0224 24.0509C20.0768 24.9508 20.4021 25.7932 20.9518 26.4858L15.4642 32.6867Z" fill="#39393A"/>
<path d="M22.0774 25.2125C21.8413 24.8308 21.696 24.4031 21.6663 23.9441C21.6201 23.2037 21.8661 22.4847 22.3597 21.9254C22.8533 21.3627 23.5351 21.0353 24.2797 20.9876C24.737 20.9645 25.1844 21.0583 25.5922 21.2376L22.0774 25.2125Z" fill="#39393A"/>
<path d="M15.4709 7.35351L16.0339 8.50024C16.1775 8.79309 16.4714 8.95597 16.7752 8.95597C16.8957 8.95597 17.0178 8.928 17.1384 8.87206C17.5478 8.67299 17.7178 8.18107 17.5164 7.77305L16.9485 6.61645C18.7084 5.85471 20.5673 5.36772 22.4576 5.17029L22.5401 6.44699C22.5699 6.88627 22.9281 7.2186 23.3606 7.2186C23.3821 7.2186 23.3953 7.2186 23.4135 7.2186C23.8691 7.18899 24.2142 6.79743 24.1861 6.34663L24.1052 5.0798C24.2241 5.07651 24.3462 5.06006 24.4667 5.06006C26.2431 5.06006 28.0228 5.32001 29.7497 5.82838L29.3336 7.03269C29.185 7.46374 29.4145 7.92935 29.8504 8.08071C29.9395 8.11032 30.0254 8.12184 30.1162 8.12184C30.4595 8.12184 30.7765 7.90467 30.8987 7.56575L31.3147 6.35815C33.0581 7.03598 34.7238 7.96883 36.246 9.19947L35.3859 10.1718C35.3776 10.1817 35.371 10.1883 35.3611 10.2014L33.2975 12.5278C27.3591 7.8948 18.7381 8.60389 13.6896 14.3079C8.63619 20.0185 9.00929 28.6363 14.3681 33.9207L12.2814 36.28C12.2797 36.28 12.2781 36.28 12.2781 36.28L11.4213 37.2556C10.0114 35.9032 8.86566 34.3682 7.97087 32.7329L9.12816 32.1636C9.53758 31.9613 9.70928 31.4693 9.50622 31.0613C9.3048 30.65 8.80623 30.4839 8.40176 30.6846L7.24282 31.2555C6.4768 29.5016 6.00464 27.6475 5.80323 25.762L7.07608 25.6831C7.52678 25.6518 7.87347 25.2619 7.8487 24.8127C7.81734 24.3652 7.46074 23.9934 6.97372 24.0411L5.70087 24.1217C5.66455 22.233 5.91879 20.3328 6.45699 18.5016L7.66215 18.9129C7.75295 18.9458 7.84045 18.9541 7.9296 18.9541C8.27299 18.9541 8.59326 18.7369 8.71213 18.398C8.86236 17.9653 8.62793 17.4997 8.19704 17.3516L6.98528 16.9403C7.6671 15.2046 8.61968 13.5462 9.84795 12.0358L10.8055 12.8815C10.964 13.0197 11.1588 13.0872 11.3519 13.0872C11.5814 13.0872 11.8059 12.9868 11.971 12.8042C12.2731 12.4669 12.2401 11.947 11.8984 11.6476L10.9442 10.8052C12.3078 9.40018 13.8299 8.24359 15.4709 7.35351Z" fill="#39393A"/>
<path d="M61.5168 58.8936C61.4128 56.8436 60.3133 55.0306 58.5848 54.0221L67.8134 51.5115L61.5168 58.8936Z" fill="#39393A"/>
<path d="M70.8408 7.84548L52.4414 29.0147L45.2517 22.8089L63.6445 1.63802C64.4782 0.680493 65.6338 0.101371 66.9034 0.0125288C68.168 -0.0779589 69.4029 0.323478 70.3637 1.15926C72.3398 2.86701 72.5594 5.86626 70.8408 7.84548Z" fill="#39393A"/>
<path d="M56.8078 52.7998L69.3415 49.3876V23.717H59.2362L53.151 30.7158C53.0453 30.8409 52.91 30.9248 52.7647 30.961L42.6463 34.1165C42.5621 34.1445 42.4762 34.1511 42.4019 34.1511C42.2071 34.1511 42.0156 34.0836 41.8621 33.952C41.6458 33.7677 41.5418 33.4815 41.588 33.2001L43.1217 23.7104H25.6056L22.6818 27.0141C22.6818 27.0141 22.6818 27.0141 22.6802 27.0174C22.6785 27.0174 22.6769 27.0174 22.6769 27.0207L16.131 34.4143C16.1294 34.4176 16.1294 34.4176 16.1277 34.4209C16.1261 34.4209 16.1244 34.4209 16.1244 34.4242L12.1045 38.9683C11.9377 39.1477 11.7148 39.2447 11.4854 39.2447C11.2906 39.2447 11.0974 39.1773 10.9389 39.0391C8.87033 37.2227 7.26235 35.0724 6.12322 32.7428C6.11827 32.7329 6.10671 32.7329 6.10176 32.7214C6.0968 32.7115 6.09846 32.7016 6.0935 32.6918C4.92631 30.3012 4.24944 27.7182 4.07444 25.1023C4.07114 25.0793 4.05958 25.0661 4.05793 25.0414C4.05628 25.0184 4.06619 25.002 4.06619 24.9822C4.03812 24.5561 4.04638 24.1349 4.04638 23.7137H0V63.5678H55.5002C57.9188 63.5678 59.8851 61.6116 59.8851 59.2014C59.8851 57.2567 58.6287 55.5802 56.7632 55.0176C56.3851 54.909 56.0913 54.6095 55.9823 54.2246C55.8932 53.9251 55.9377 53.6142 56.0863 53.3444C56.258 53.0729 56.504 52.8804 56.8078 52.7998ZM37.2973 55.294C32.2191 55.294 28.0886 51.1743 28.0886 46.1136C28.0886 45.8108 28.1051 45.5196 28.1331 45.2235L17.7142 39.6675C17.4567 39.5293 17.2883 39.2628 17.2784 38.97C17.2685 38.6738 17.4171 38.3974 17.668 38.2477L31.7354 29.5395C31.9847 29.3816 32.3 29.3684 32.5609 29.5099C32.8201 29.6481 32.9868 29.9146 32.9984 30.2058L33.2443 37.8792C34.4677 37.2902 35.8346 36.9381 37.2891 36.9381C42.3623 36.9381 46.4962 41.0594 46.4962 46.1136C46.5011 51.1743 42.3739 55.294 37.2973 55.294Z" fill="#39393A"/>
<path d="M31.843 45.3355L29.9725 44.3418C30.2763 43.1111 30.8805 42.0088 31.706 41.0957L31.843 45.3355Z" fill="#39393A"/>
<path d="M19.7602 38.8924L31.4007 31.6863L31.6368 38.8957C30.1428 40.0622 29.0152 41.6745 28.4671 43.5353L19.7602 38.8924Z" fill="#39393A"/>
<path d="M37.2976 53.6488C33.1323 53.6488 29.7397 50.2646 29.7397 46.1137C29.7397 46.1038 29.743 46.0906 29.743 46.0791L32.3234 47.4545C32.4439 47.5187 32.576 47.5565 32.7097 47.5565C32.8632 47.5565 33.0168 47.5203 33.1489 47.4397C33.3965 47.2768 33.5467 47.0004 33.5352 46.7142L33.309 39.7549C34.4679 39.0326 35.8266 38.595 37.291 38.595C41.4562 38.595 44.8521 41.9759 44.8521 46.1252C44.8521 50.2744 41.4694 53.6488 37.2976 53.6488Z" fill="#39393A"/>
</svg>
