<svg width="74" height="73" viewBox="0 0 74 73" fill="none" xmlns="http://www.w3.org/2000/svg">
<path d="M37.2975 40.2727C34.2625 40.2727 31.7934 37.8036 31.7934 34.7685C31.7934 31.7335 34.2625 29.2644 37.2975 29.2644C40.3325 29.2644 42.8017 31.7335 42.8017 34.7685C42.8017 37.8036 40.3325 40.2727 37.2975 40.2727ZM37.2975 31.3472C35.411 31.3472 33.876 32.8821 33.876 34.7687C33.876 36.6553 35.411 38.1902 37.2975 38.1902C39.1843 38.1902 40.719 36.6554 40.719 34.7687C40.719 32.882 39.1843 31.3472 37.2975 31.3472Z" fill="#39393A" stroke="#39393A" stroke-width="2"/>
<path d="M43.6947 50.8136C43.1196 50.8136 42.6533 50.3474 42.6533 49.7723V43.5453C42.6533 41.6489 41.402 40.2726 39.6777 40.2726H34.9173C33.0156 40.2726 31.3475 41.8018 31.3475 43.5453V49.6445C31.3475 50.2196 30.8813 50.6858 30.3062 50.6858C29.7311 50.6858 29.2649 50.2196 29.2649 49.6445V43.5453C29.2649 40.6424 31.8533 38.1899 34.9173 38.1899H39.6777C42.5614 38.1899 44.736 40.4923 44.736 43.5453V49.7723C44.736 50.3475 44.2698 50.8136 43.6947 50.8136Z" fill="#39393A" stroke="#39393A" stroke-width="2"/>
<path d="M37.2975 52.1735C27.2903 52.1735 19.1487 44.032 19.1487 34.0248V3.52887C19.1487 2.95376 19.615 2.48755 20.1901 2.48755H48.0083C48.2844 2.48755 48.5493 2.59719 48.7446 2.79251L55.1412 9.18921C55.3365 9.38453 55.4463 9.64932 55.4463 9.92557V34.0248C55.4463 44.0322 47.3049 52.1735 37.2975 52.1735ZM21.2314 4.57034V34.0249C21.2314 42.8838 28.4387 50.0911 37.2975 50.0911C46.1565 50.0911 53.3637 42.8839 53.3637 34.0249V10.357L47.577 4.57034H21.2314Z" fill="#39393A" stroke="#39393A" stroke-width="2"/>
<path d="M34.7691 10.5206H26.1405C25.5654 10.5206 25.0992 10.0544 25.0992 9.47931C25.0992 8.9042 25.5654 8.43799 26.1405 8.43799H34.7691C35.3442 8.43799 35.8104 8.9042 35.8104 9.47931C35.8104 10.0544 35.3442 10.5206 34.7691 10.5206Z" fill="#39393A" stroke="#39393A" stroke-width="2"/>
<path d="M40.7195 14.9835H26.1405C25.5654 14.9835 25.0992 14.5173 25.0992 13.9422C25.0992 13.3671 25.5654 12.9009 26.1405 12.9009H40.7195C41.2946 12.9009 41.7608 13.3671 41.7608 13.9422C41.7608 14.5173 41.2946 14.9835 40.7195 14.9835Z" fill="#39393A" stroke="#39393A" stroke-width="2"/>
<path d="M48.4546 19.4464H36.2567C35.6815 19.4464 35.2153 18.9802 35.2153 18.4051C35.2153 17.83 35.6815 17.3638 36.2567 17.3638H48.4546C49.0297 17.3638 49.4959 17.83 49.4959 18.4051C49.4959 18.9802 49.0297 19.4464 48.4546 19.4464Z" fill="#39393A" stroke="#39393A" stroke-width="2"/>
<path d="M48.4546 23.9091H26.1405C25.5654 23.9091 25.0992 23.4428 25.0992 22.8677C25.0992 22.2926 25.5654 21.8264 26.1405 21.8264H48.4546C49.0297 21.8264 49.4959 22.2926 49.4959 22.8677C49.4959 23.4428 49.0297 23.9091 48.4546 23.9091Z" fill="#39393A" stroke="#39393A" stroke-width="2"/>
<path d="M40.7195 10.5206H39.2319C38.6568 10.5206 38.1906 10.0544 38.1906 9.47931C38.1906 8.9042 38.6568 8.43799 39.2319 8.43799H40.7195C41.2946 8.43799 41.7608 8.9042 41.7608 9.47931C41.7608 10.0544 41.2946 10.5206 40.7195 10.5206Z" fill="#39393A" stroke="#39393A" stroke-width="2"/>
<path d="M40.5335 71.9965H34.0614C33.5738 71.9965 33.1514 71.6582 33.0451 71.1822L31.0298 62.1603C28.5956 61.552 26.2641 60.5858 24.0824 59.2812L16.2591 64.2342C15.8476 64.4948 15.3103 64.4351 14.9658 64.0906L10.3938 59.5186C10.0492 59.1742 9.98973 58.6369 10.2502 58.2254L15.2024 50.4036C13.9015 48.2377 12.9355 45.9055 12.3238 43.4547L3.3022 41.4394C2.82647 41.3329 2.48804 40.9106 2.48804 40.423V33.9508C2.48804 33.4632 2.82647 33.0409 3.30235 32.9345L12.9606 30.7772C13.0352 30.7605 13.1113 30.7522 13.1876 30.7522H19.893C20.4681 30.7522 20.9343 31.2184 20.9343 31.7935C20.9343 32.3686 20.4681 32.8348 19.893 32.8348H13.3025L4.57068 34.7852V39.5886L13.4146 41.5641C13.8089 41.6523 14.1165 41.9603 14.2043 42.3545C14.7971 45.0225 15.8418 47.5446 17.3095 49.851C17.5261 50.1913 17.5265 50.6262 17.3108 50.967L12.4557 58.6353L15.8493 62.0288L23.5176 57.174C23.8576 56.9587 24.2911 56.9587 24.6312 57.1737C26.9606 58.647 29.4836 59.6924 32.1299 60.2804C32.5241 60.368 32.8322 60.6757 32.9203 61.0699L34.8958 69.914H39.6993L41.6747 61.0699C41.7629 60.6758 42.0708 60.368 42.465 60.2804C45.1329 59.6876 47.655 58.6429 49.9615 57.1752C50.3019 56.9589 50.7366 56.958 51.0775 57.174L58.7458 62.0288L62.1394 58.6353L57.2846 50.967C57.0693 50.627 57.0691 50.1934 57.2843 49.8533C58.7576 47.5239 59.8029 45.0009 60.391 42.3546C60.4786 41.9604 60.7862 41.6523 61.1804 41.5643L70.0246 39.5887V34.7854L61.2926 32.835H55.5955C55.0204 32.835 54.5542 32.3688 54.5542 31.7937C54.5542 31.2186 55.0204 30.7523 55.5955 30.7523H61.4073C61.4838 30.7523 61.5598 30.7608 61.6343 30.7773L71.2927 32.9347C71.7686 33.0409 72.107 33.4634 72.107 33.951V40.4231C72.107 40.9108 71.7688 41.3331 71.2927 41.4394L62.2709 43.4547C61.6626 45.8887 60.6964 48.2202 59.3918 50.4021L64.3447 58.2254C64.6054 58.6371 64.5459 59.1742 64.2013 59.5188L59.6293 64.0908C59.2846 64.4351 58.7473 64.4946 58.336 64.2342L50.5142 59.2821C48.3481 60.583 46.0159 61.549 43.5653 62.1606L41.55 71.1823C41.4435 71.6582 41.0212 71.9965 40.5335 71.9965Z" fill="#39393A" stroke="#39393A" stroke-width="2"/>
<path d="M39.2319 50.6858C38.6568 50.6858 38.1906 50.2196 38.1906 49.6445V46.6693C38.1906 46.0941 38.6568 45.6279 39.2319 45.6279C39.807 45.6279 40.2732 46.0941 40.2732 46.6693V49.6445C40.2732 50.2196 39.807 50.6858 39.2319 50.6858Z" fill="#39393A" stroke="#39393A" stroke-width="2"/>
<path d="M34.769 50.6858C34.1939 50.6858 33.7277 50.2196 33.7277 49.6445V46.6693C33.7277 46.0941 34.1939 45.6279 34.769 45.6279C35.3442 45.6279 35.8104 46.0941 35.8104 46.6693V49.6445C35.8104 50.2196 35.3442 50.6858 34.769 50.6858Z" fill="#39393A" stroke="#39393A" stroke-width="2"/>
<path d="M70.6203 70.4705C70.6203 69.8963 71.0859 69.4292 71.6616 69.4292C72.2357 69.4292 72.7029 69.8963 72.7029 70.4705C72.7029 71.0462 72.2357 71.5118 71.6616 71.5118C71.0859 71.5118 70.6203 71.0462 70.6203 70.4705ZM66.455 70.4705C66.455 69.8963 66.9206 69.4292 67.4963 69.4292C68.0704 69.4292 68.5377 69.8963 68.5377 70.4705C68.5377 71.0462 68.0704 71.5118 67.4963 71.5118C66.9206 71.5118 66.455 71.0462 66.455 70.4705ZM62.2897 70.4705C62.2897 69.8963 62.7553 69.4292 63.331 69.4292C63.9051 69.4292 64.3724 69.8963 64.3724 70.4705C64.3724 71.0462 63.9051 71.5118 63.331 71.5118C62.7553 71.5118 62.2897 71.0462 62.2897 70.4705ZM58.1244 70.4705C58.1244 69.8963 58.59 69.4292 59.1657 69.4292C59.7398 69.4292 60.2071 69.8963 60.2071 70.4705C60.2071 71.0462 59.7398 71.5118 59.1657 71.5118C58.59 71.5118 58.1244 71.0462 58.1244 70.4705ZM53.9591 70.4705C53.9591 69.8963 54.4247 69.4292 55.0005 69.4292C55.5745 69.4292 56.0418 69.8963 56.0418 70.4705C56.0418 71.0462 55.5745 71.5118 55.0005 71.5118C54.4247 71.5118 53.9591 71.0462 53.9591 70.4705ZM49.7938 70.4705C49.7938 69.8963 50.2595 69.4292 50.8352 69.4292C51.4092 69.4292 51.8765 69.8963 51.8765 70.4705C51.8765 71.0462 51.4092 71.5118 50.8352 71.5118C50.2595 71.5118 49.7938 71.0462 49.7938 70.4705ZM45.6285 70.4705C45.6285 69.8963 46.0942 69.4292 46.6699 69.4292C47.2456 69.4292 47.7112 69.8963 47.7112 70.4705C47.7112 71.0462 47.2456 71.5118 46.6699 71.5118C46.0942 71.5118 45.6285 71.0462 45.6285 70.4705Z" fill="#39393A" stroke="#39393A" stroke-width="2"/>
<path d="M71.9591 67.0494H64.5211C63.946 67.0494 63.4798 66.5832 63.4798 66.0081C63.4798 65.433 63.946 64.9668 64.5211 64.9668H71.9591C72.5343 64.9668 73.0005 65.433 73.0005 66.0081C73.0005 66.5832 72.5343 67.0494 71.9591 67.0494Z" fill="#39393A" stroke="#39393A" stroke-width="2"/>
<path d="M27.4798 70.4705C27.4798 69.8963 27.9454 69.4292 28.5211 69.4292C29.0953 69.4292 29.5624 69.8963 29.5624 70.4705C29.5624 71.0462 29.0953 71.5118 28.5211 71.5118C27.9454 71.5118 27.4798 71.0462 27.4798 70.4705ZM23.3145 70.4705C23.3145 69.8963 23.7801 69.4292 24.3558 69.4292C24.9315 69.4292 25.3972 69.8963 25.3972 70.4705C25.3972 71.0462 24.9315 71.5118 24.3558 71.5118C23.7801 71.5118 23.3145 71.0462 23.3145 70.4705ZM19.1492 70.4705C19.1492 69.8963 19.6148 69.4292 20.1905 69.4292C20.7662 69.4292 21.2319 69.8963 21.2319 70.4705C21.2319 71.0462 20.7662 71.5118 20.1905 71.5118C19.6148 71.5118 19.1492 71.0462 19.1492 70.4705ZM14.9839 70.4705C14.9839 69.8963 15.4495 69.4292 16.0252 69.4292C16.5995 69.4292 17.0666 69.8963 17.0666 70.4705C17.0666 71.0462 16.5995 71.5118 16.0252 71.5118C15.4495 71.5118 14.9839 71.0462 14.9839 70.4705ZM10.8186 70.4705C10.8186 69.8963 11.2842 69.4292 11.8599 69.4292C12.4357 69.4292 12.9013 69.8963 12.9013 70.4705C12.9013 71.0462 12.4357 71.5118 11.8599 71.5118C11.2842 71.5118 10.8186 71.0462 10.8186 70.4705ZM6.65333 70.4705C6.65333 69.8963 7.11895 69.4292 7.69465 69.4292C8.27036 69.4292 8.73598 69.8963 8.73598 70.4705C8.73598 71.0462 8.27036 71.5118 7.69465 71.5118C7.11895 71.5118 6.65333 71.0462 6.65333 70.4705ZM2.48804 70.4705C2.48804 69.8963 2.95366 69.4292 3.52936 69.4292C4.10506 69.4292 4.57068 69.8963 4.57068 70.4705C4.57068 71.0462 4.10506 71.5118 3.52936 71.5118C2.95366 71.5118 2.48804 71.0462 2.48804 70.4705Z" fill="#39393A" stroke="#39393A" stroke-width="2"/>
<path d="M10.9674 67.0494H3.52936C2.95425 67.0494 2.48804 66.5832 2.48804 66.0081C2.48804 65.433 2.95425 64.9668 3.52936 64.9668H10.9674C11.5425 64.9668 12.0087 65.433 12.0087 66.0081C12.0087 66.5832 11.5425 67.0494 10.9674 67.0494Z" fill="#39393A" stroke="#39393A" stroke-width="2"/>
<path d="M61.546 22.4215C60.9709 22.4215 60.5046 21.9553 60.5046 21.3802V7.99176C60.5046 7.41665 60.9709 6.95044 61.546 6.95044C62.1211 6.95044 62.5873 7.41665 62.5873 7.99176V21.3802C62.5873 21.9553 62.1211 22.4215 61.546 22.4215Z" fill="#39393A" stroke="#39393A" stroke-width="2"/>
<path d="M61.546 28.372C60.9709 28.372 60.5046 27.9058 60.5046 27.3307V25.8431C60.5046 25.268 60.9709 24.8018 61.546 24.8018C62.1211 24.8018 62.5873 25.268 62.5873 25.8431V27.3307C62.5873 27.9058 62.1211 28.372 61.546 28.372Z" fill="#39393A" stroke="#39393A" stroke-width="2"/>
<path d="M64.5211 12.0083C64.2547 12.0083 63.9881 11.9065 63.7848 11.7033L61.5459 9.46431L59.3071 11.7032C58.9004 12.1097 58.2411 12.1097 57.8343 11.7032C57.4278 11.2966 57.4278 10.6371 57.8343 10.2306L60.8096 7.25536C61.2163 6.8488 61.8756 6.8488 62.2823 7.25536L65.2575 10.2306C65.6641 10.6371 65.6641 11.2966 65.2575 11.7032C65.0541 11.9065 64.7876 12.0083 64.5211 12.0083Z" fill="#39393A" stroke="#39393A" stroke-width="2"/>
<path d="M68.984 13.4959C68.4088 13.4959 67.9426 13.0297 67.9426 12.4546V2.04132C67.9426 1.46622 68.4088 1 68.984 1C69.5591 1 70.0253 1.46622 70.0253 2.04132V12.4546C70.0253 13.0297 69.5591 13.4959 68.984 13.4959Z" fill="#39393A" stroke="#39393A" stroke-width="2"/>
<path d="M68.984 19.4462C68.4088 19.4462 67.9426 18.98 67.9426 18.4049V16.9173C67.9426 16.3422 68.4088 15.876 68.984 15.876C69.5591 15.876 70.0253 16.3422 70.0253 16.9173V18.4049C70.0253 18.98 69.5591 19.4462 68.984 19.4462Z" fill="#39393A" stroke="#39393A" stroke-width="2"/>
<path d="M71.9591 6.05782C71.6927 6.05782 71.4261 5.95607 71.2227 5.75286L68.9839 3.51387L66.7451 5.75271C66.3384 6.15927 65.679 6.15927 65.2723 5.75271C64.8658 5.34615 64.8658 4.68669 65.2723 4.28013L68.2475 1.30492C68.6542 0.898359 69.3136 0.898359 69.7203 1.30492L72.6955 4.28013C73.102 4.68669 73.102 5.34615 72.6955 5.75271C72.4921 5.95607 72.2255 6.05782 71.9591 6.05782Z" fill="#39393A" stroke="#39393A" stroke-width="2"/>
<path d="M12.455 22.4215C11.8799 22.4215 11.4136 21.9553 11.4136 21.3802V7.99176C11.4136 7.41665 11.8799 6.95044 12.455 6.95044C13.0301 6.95044 13.4963 7.41665 13.4963 7.99176V21.3802C13.4963 21.9553 13.0301 22.4215 12.455 22.4215Z" fill="#39393A" stroke="#39393A" stroke-width="2"/>
<path d="M12.455 28.372C11.8799 28.372 11.4136 27.9058 11.4136 27.3307V25.8431C11.4136 25.268 11.8799 24.8018 12.455 24.8018C13.0301 24.8018 13.4963 25.268 13.4963 25.8431V27.3307C13.4963 27.9058 13.0301 28.372 12.455 28.372Z" fill="#39393A" stroke="#39393A" stroke-width="2"/>
<path d="M15.4302 12.0083C15.1636 12.0083 14.8972 11.9065 14.6938 11.7033L12.455 9.46431L10.2162 11.7032C9.80959 12.1097 9.15013 12.1097 8.74357 11.7032C8.33686 11.2966 8.33686 10.6371 8.74357 10.2306L11.7188 7.25536C12.1253 6.8488 12.7848 6.8488 13.1914 7.25536L16.1666 10.2306C16.5733 10.6371 16.5733 11.2966 16.1666 11.7032C15.9632 11.9065 15.6968 12.0083 15.4302 12.0083Z" fill="#39393A" stroke="#39393A" stroke-width="2"/>
<path d="M5.01697 13.4959C4.44186 13.4959 3.97565 13.0297 3.97565 12.4546V2.04132C3.97565 1.46622 4.44186 1 5.01697 1C5.59208 1 6.05829 1.46622 6.05829 2.04132V12.4546C6.05829 13.0297 5.59208 13.4959 5.01697 13.4959Z" fill="#39393A" stroke="#39393A" stroke-width="2"/>
<path d="M5.01697 19.4462C4.44186 19.4462 3.97565 18.98 3.97565 18.4049V16.9173C3.97565 16.3422 4.44186 15.876 5.01697 15.876C5.59208 15.876 6.05829 16.3422 6.05829 16.9173V18.4049C6.05829 18.98 5.59208 19.4462 5.01697 19.4462Z" fill="#39393A" stroke="#39393A" stroke-width="2"/>
<path d="M7.99216 6.05806C7.72558 6.05806 7.45915 5.95631 7.25579 5.7531L5.01695 3.51411L2.7781 5.75296C2.37154 6.15952 1.71208 6.15952 1.30552 5.75296C0.89881 5.34639 0.89881 4.68694 1.30552 4.28038L4.28073 1.30517C4.68729 0.898604 5.34675 0.898604 5.75331 1.30517L8.72852 4.28038C9.13523 4.68694 9.13523 5.34639 8.72852 5.75296C8.52517 5.95631 8.25874 6.05806 7.99216 6.05806Z" fill="#39393A" stroke="#39393A" stroke-width="2"/>
<path d="M54.1079 12.0082H48.0083C47.4332 12.0082 46.967 11.542 46.967 10.9669V3.52887C46.967 2.95376 47.4332 2.48755 48.0083 2.48755C48.5834 2.48755 49.0496 2.95376 49.0496 3.52887V9.92557H54.1079C54.683 9.92557 55.1493 10.3918 55.1493 10.9669C55.1493 11.542 54.683 12.0082 54.1079 12.0082Z" fill="#39393A" stroke="#39393A" stroke-width="2"/>
</svg>
