<svg width="64" height="64" viewBox="0 0 64 64" fill="none" xmlns="http://www.w3.org/2000/svg">
<path d="M13.7143 27.4286C17.496 27.4286 20.5715 24.3532 20.5715 20.5714C20.5715 16.7897 17.496 13.7143 13.7143 13.7143C9.93261 13.7143 6.85718 16.7897 6.85718 20.5714C6.85718 24.3532 9.93261 27.4286 13.7143 27.4286ZM13.7143 16C16.2355 16 18.2857 18.0503 18.2857 20.5714C18.2857 23.0926 16.2355 25.1429 13.7143 25.1429C11.1932 25.1429 9.14289 23.0926 9.14289 20.5714C9.14289 18.0503 11.1932 16 13.7143 16Z" fill="#FF7D59"/>
<path d="M50.2856 27.4286C54.0673 27.4286 57.1428 24.3532 57.1428 20.5714C57.1428 16.7897 54.0673 13.7143 50.2856 13.7143C46.5039 13.7143 43.4285 16.7897 43.4285 20.5714C43.4285 24.3532 46.5039 27.4286 50.2856 27.4286ZM50.2856 16C52.8068 16 54.857 18.0503 54.857 20.5714C54.857 23.0926 52.8068 25.1429 50.2856 25.1429C47.7645 25.1429 45.7142 23.0926 45.7142 20.5714C45.7142 18.0503 47.7645 16 50.2856 16Z" fill="#FF7D59"/>
<path d="M61.7143 29.7143V44.5714C61.7143 46.4617 60.176 48 58.2857 48V35.4286C58.2857 32.2777 55.7223 29.7143 52.5714 29.7143H46.8571C46.2263 29.7143 45.7143 30.2263 45.7143 30.8572V35.4286V36.5714V37.7143H36.5714C35.9406 37.7143 35.4286 38.2263 35.4286 38.8572V42.2857H28.5714V38.8572C28.5714 38.2263 28.0594 37.7143 27.4286 37.7143H18.2857V36.5714V35.4286V30.8572C18.2857 30.2263 17.7737 29.7143 17.1429 29.7143H11.4286C8.27771 29.7143 5.71429 32.2777 5.71429 35.4286V48C3.824 48 2.28571 46.4617 2.28571 44.5714V29.7143H0V44.5714C0 46.9086 1.41371 48.9166 3.42857 49.8012V64H5.71429V50.2857H6.85714H8H17.1429V62.8571C17.1429 63.488 17.6549 64 18.2857 64H21.7143H22.8571H24V62.8571V45.7143V44.5714H27.4286H36.5714H40V45.7143V62.8571V64H41.1429H42.2857H45.7143C46.3451 64 46.8571 63.488 46.8571 62.8571V50.2857H56H57.1429H58.2857V64H60.5714V49.8012C62.5863 48.9166 64 46.9086 64 44.5714V29.7143H61.7143ZM22.8571 42.2857H20.5714H13.7143V35.4286H11.4286V43.4286C11.4286 44.0594 11.9406 44.5714 12.5714 44.5714H20.5714C21.2011 44.5714 21.7143 45.0846 21.7143 45.7143V61.7143H19.4286V49.1429C19.4286 48.512 18.9166 48 18.2857 48H8V35.4286C8 33.5383 9.53829 32 11.4286 32H16V35.4286V36.5714V38.8572C16 39.488 16.512 40 17.1429 40H26.2857V42.2857H22.8571ZM45.7143 48C45.0834 48 44.5714 48.512 44.5714 49.1429V61.7143H42.2857V45.7143C42.2857 45.0846 42.7989 44.5714 43.4286 44.5714H51.4286C52.0594 44.5714 52.5714 44.0594 52.5714 43.4286V35.4286H50.2857V42.2857H43.4286H41.1429H37.7143V40H46.8571C47.488 40 48 39.488 48 38.8572V36.5714V35.4286V32H52.5714C54.4617 32 56 33.5383 56 35.4286V48H45.7143Z" fill="#FF7D59"/>
<path d="M21.7142 11.4286V14.8571C21.7142 15.3497 22.0285 15.7851 22.4959 15.9417C22.6148 15.9806 22.7371 16 22.8571 16C23.2102 16 23.5508 15.8354 23.7714 15.5429L26.8571 11.4286H35.4285C37.3188 11.4286 38.8571 9.89029 38.8571 8V3.42857C38.8571 1.53829 37.3188 0 35.4285 0H21.7142C19.8239 0 18.2856 1.53829 18.2856 3.42857V8C18.2856 9.89029 19.8239 11.4286 21.7142 11.4286ZM20.5714 3.42857C20.5714 2.79886 21.0845 2.28571 21.7142 2.28571H35.4285C36.0582 2.28571 36.5714 2.79886 36.5714 3.42857V8C36.5714 8.62971 36.0582 9.14286 35.4285 9.14286H26.2856C25.9256 9.14286 25.5874 9.312 25.3714 9.6L23.9999 11.4286V10.2857C23.9999 9.65486 23.4879 9.14286 22.8571 9.14286H21.7142C21.0845 9.14286 20.5714 8.62971 20.5714 8V3.42857Z" fill="#FF7D59"/>
<path d="M34.2857 4.57141H22.8572V6.85713H34.2857V4.57141Z" fill="#FF7D59"/>
<path d="M37.7143 28.5714H30.8572V30.8571H37.7143V28.5714Z" fill="#FF7D59"/>
<path d="M29.7142 24C27.8239 24 26.2856 25.5383 26.2856 27.4286V32C26.2856 33.8903 27.8239 35.4286 29.7142 35.4286H38.8571C40.7474 35.4286 42.2856 33.8903 42.2856 32V31.2034L44.3794 28.0629C44.6136 27.712 44.6354 27.2617 44.4365 26.8903C44.2376 26.5177 43.8502 26.2857 43.4285 26.2857H42.0902C41.6182 24.9554 40.3474 24 38.8571 24H29.7142ZM39.9999 27.4286C39.9999 28.0594 40.5119 28.5714 41.1428 28.5714H41.2925L40.1919 30.2229C40.0674 30.4103 39.9999 30.632 39.9999 30.8571V32C39.9999 32.6297 39.4868 33.1429 38.8571 33.1429H29.7142C29.0845 33.1429 28.5714 32.6297 28.5714 32V27.4286C28.5714 26.7989 29.0845 26.2857 29.7142 26.2857H38.8571C39.4868 26.2857 39.9999 26.7989 39.9999 27.4286Z" fill="#FF7D59"/>
<path d="M28.5714 18.2857H26.2856V20.5714H28.5714V18.2857Z" fill="#FF7D59"/>
<path d="M33.1429 18.2857H30.8572V20.5714H33.1429V18.2857Z" fill="#FF7D59"/>
<path d="M37.7142 18.2857H35.4285V20.5714H37.7142V18.2857Z" fill="#FF7D59"/>
</svg>
