<svg width="72" height="60" viewBox="0 0 72 60" fill="none" xmlns="http://www.w3.org/2000/svg">
<path d="M45.28 47.7816C44.5893 47.4965 43.9689 47.0818 43.4478 46.5624C42.4238 45.542 41.7919 44.1346 41.7919 42.5804V41.2883C46.1026 38.4179 49.1235 31.724 49.1235 23.928C49.1235 17.3022 43.7329 11.9292 37.0823 11.9292C30.4337 11.9292 25.0431 17.3022 25.0431 23.928C25.0431 31.725 28.0649 38.4179 32.3747 41.2883V42.5804C32.3747 44.1346 31.7447 45.5429 30.7217 46.5624C30.1996 47.0799 29.5773 47.4965 28.8857 47.7816L13 54.3402V59.9292H61.1656V54.3402L45.28 47.7816Z" fill="#39393A"/>
<path d="M3.0009 52.5V52.4999L3 7.5C3 7.49998 3 7.49996 3 7.49994C3.00003 4.70924 4.96808 3 6.7509 3H65.25C67.0323 3 69 4.70872 69 7.5V52.5C69 55.2907 67.031 57 65.25 57H6.7509C4.96855 57 3.0009 55.2913 3.0009 52.5Z" stroke="#39393A" stroke-width="6" stroke-miterlimit="10" stroke-linecap="round" stroke-linejoin="round"/>
</svg>
