<svg xmlns="http://www.w3.org/2000/svg" width="113.689" height="130" viewBox="0 0 113.689 130"><defs><style>.a{fill:#c5b1e5;}.b{fill:#a0a0b4;}.c{fill:#bcc1fa;}.d{fill:#d7dafc;}.e{fill:#fefefe;}.f{fill:#503c6e;}</style></defs><g transform="translate(280.914 566.238)"><path class="a" d="M-234-485.382a48.576,48.576,0,0,0,1.063-4.782,16.814,16.814,0,0,0-.106-6.514,2.21,2.21,0,0,0-2.512-2q-9.6,0-19.2,0c-1.98,0-2.707-.731-2.707-2.718v-43.458c0-1.874.754-2.635,2.616-2.635H-191.1c1.822,0,2.6.778,2.6,2.585q0,21.814,0,43.628c0,1.8-.789,2.6-2.6,2.6q-14.677,0-29.356,0c-1.706,0-2.2.369-2.64,2.019a15.607,15.607,0,0,1-7.765,10.01A11.285,11.285,0,0,1-234-485.382Zm13.061-41.273c0-.9.029-1.655-.005-2.409a2.124,2.124,0,0,0-2.151-2.181,2.141,2.141,0,0,0-1.924,2.283c0,.726,0,1.453,0,2.243a15.282,15.282,0,0,1-2.194-1.146,2.031,2.031,0,0,0-1.466-.277,2.077,2.077,0,0,0-1.6,1.6,1.951,1.951,0,0,0,.95,2.118c.56.386,1.163.709,1.752,1.049.369.213.352.38-.016.576q-.751.4-1.48.841a2.08,2.08,0,0,0-.955,2.952,2.11,2.11,0,0,0,2.978.6c.638-.348,1.264-.716,2.028-1.149,0,.855,0,1.555,0,2.257A2.1,2.1,0,0,0-223-514.954a2.136,2.136,0,0,0,2.056-2.354c.012-.691,0-1.385,0-2.213l2.064,1.16a2.066,2.066,0,0,0,2.888-.64,2.055,2.055,0,0,0-.818-2.858c-.409-.255-.842-.473-1.253-.726-.229-.142-.612-.18-.608-.517,0-.286.352-.331.562-.461.386-.237.785-.456,1.177-.685A2.063,2.063,0,0,0-216-527.2a2.073,2.073,0,0,0-2.983-.581Zm20.3,7.14c.763.421,1.4.771,2.037,1.129a1.973,1.973,0,0,0,2.929-.667,2.029,2.029,0,0,0-.877-2.834c-.511-.309-1.038-.589-1.555-.887-.345-.2-.364-.413-.005-.621.491-.284.986-.562,1.479-.844a2.085,2.085,0,0,0,.943-2.961,2.072,2.072,0,0,0-2.985-.579c-.608.348-1.217.7-1.966,1.127,0-.9.021-1.655,0-2.409a2.121,2.121,0,0,0-2.061-2.182,2.115,2.115,0,0,0-2.012,2.2c-.01.752,0,1.5,0,2.4-.837-.466-1.518-.861-2.217-1.227a2.009,2.009,0,0,0-2.846.8,2.068,2.068,0,0,0,.908,2.77,11.908,11.908,0,0,1,1.993,1.25c-.73.428-1.4.8-2.037,1.2a2.038,2.038,0,0,0-.844,2.785,2.055,2.055,0,0,0,2.879.733q.835-.429,1.628-.933c.388-.246.551-.21.539.282-.016.569.038,1.142-.012,1.707a2.054,2.054,0,0,0,2.066,2.311,2.1,2.1,0,0,0,2.019-2.293C-200.638-517.96-200.646-518.663-200.646-519.515Zm-44.687-.038c0,.9-.007,1.638,0,2.375a2.089,2.089,0,0,0,1.992,2.224,2.074,2.074,0,0,0,2.083-2.141c.029-.758.005-1.517.005-2.416.782.428,1.439.8,2.108,1.154a2.033,2.033,0,0,0,2.869-.681,2.028,2.028,0,0,0-.867-2.839q-.759-.471-1.541-.908c-.416-.234-.383-.425.014-.641.525-.284,1.047-.572,1.555-.884a2.074,2.074,0,0,0,1.059-2.222,2.03,2.03,0,0,0-3.13-1.307,10.424,10.424,0,0,1-2.066,1.1c0-.775.005-1.484,0-2.191a2.145,2.145,0,0,0-2.016-2.307,2.132,2.132,0,0,0-2.064,2.331c-.005.714,0,1.43,0,2.255-.856-.47-1.55-.851-2.246-1.231a1.767,1.767,0,0,0-1.546-.206,2.055,2.055,0,0,0-1.47,1.714,2.023,2.023,0,0,0,1.033,2.009c.522.343,1.066.652,1.615.95.48.26.4.449-.021.676-.5.272-.985.565-1.473.856a1.974,1.974,0,0,0-.894,2.808,2,2,0,0,0,2.857.737C-246.8-518.69-246.153-519.086-245.333-519.553Z" transform="translate(17.196 13.751)"/><path class="b" d="M-246.189-486.734q-11.094,0-22.185,0a10.008,10.008,0,0,1-10.064-8.817,64.171,64.171,0,0,1-.071-6.909c0-.362.146-.525.508-.5.2.01.4,0,.6,0h62.625c1.146,0,1.146,0,1.146,1.146,0,1.593-.021,3.186,0,4.779a10.194,10.194,0,0,1-10.293,10.319C-231.343-486.776-238.767-486.734-246.189-486.734Zm.109-4.091a3.981,3.981,0,0,0,4.087-3.992,4.128,4.128,0,0,0-4.157-4.052,4.021,4.021,0,0,0-4.013,3.987A3.952,3.952,0,0,0-246.08-490.825Z" transform="translate(1.717 46.4)"/><path class="b" d="M-246.18-551.713h-30.633c-1.718,0-1.673,0-1.725-1.689a9.844,9.844,0,0,1,3.361-7.883,9.139,9.139,0,0,1,6.25-2.548q22.781-.047,45.566-.011a10.053,10.053,0,0,1,9.561,8.5c.135.967.088,1.926.156,2.886.043.626-.222.789-.792.753-.6-.038-1.194-.009-1.792-.009Zm6.181-4.094c1.362,0,2.727.01,4.091,0a1.847,1.847,0,0,0,1.941-2,1.832,1.832,0,0,0-1.9-1.947q-4.134-.023-8.27,0a1.874,1.874,0,0,0-1.952,2,1.875,1.875,0,0,0,2,1.95C-242.727-555.8-241.363-555.807-240-555.807Zm-14.229,0c.681,0,1.364.007,2.045,0a1.921,1.921,0,0,0,2-1.969,1.872,1.872,0,0,0-1.969-1.98q-2.046-.021-4.091,0a1.841,1.841,0,0,0-1.978,1.962,1.843,1.843,0,0,0,1.95,1.988C-255.592-555.8-254.91-555.807-254.228-555.807Z" transform="translate(1.738 1.747)"/><g transform="translate(-276.822 -545.894)"><path class="c" d="M-278.5-505.983c-.01-.282-.029-.567-.029-.851q0-23.3-.024-46.6c0-.879.236-1.066,1.083-1.064q23.247.041,46.493.021c.312,0,.624.019.936.03q-3.539,3.57-7.075,7.141c-.251.256-.6.458-.615.882a12.909,12.909,0,0,1-2.626.113,6,6,0,0,0-5.72,5.845c-.019.794-.021,1.589-.03,2.383-.423.031-.614.39-.867.643q-15.389,15.385-30.772,30.775C-277.985-506.429-278.248-506.21-278.5-505.983Zm13.111-42.432c-.579,1.076-1.115,1.981-1.565,2.928a4.92,4.92,0,0,1-2.623,2.621,30,30,0,0,0-2.9,1.581c1.229.673,2.279,1.274,3.356,1.827a4.163,4.163,0,0,1,1.894,1.862,21.153,21.153,0,0,0,1.891,3.311c.482-.886.945-1.662,1.336-2.473a5.569,5.569,0,0,1,2.922-3.021,9.742,9.742,0,0,0,2.7-1.553c-1.206-.662-2.319-1.277-3.437-1.884a3,3,0,0,1-1.42-1.272C-263.87-545.775-264.608-547.015-265.388-548.415Z" transform="translate(278.553 554.501)"/><path class="c" d="M-259.723-496.793c.208-.231.4-.473.624-.693q6.328-6.336,12.66-12.667c.22-.22.459-.423.69-.634q.013,1.836.031,3.668a2.119,2.119,0,0,0,2.012,2.293,2.12,2.12,0,0,0,2.068-2.326c.007-1.109,0-2.219,0-3.328a2.189,2.189,0,0,0-1.875-2.534q1.581-1.615,3.158-3.233c.215-.222.409-.468.614-.7,1.279-.007,2.558.023,3.836-.035.674-.029.8.255.809.844a25.617,25.617,0,0,1-1.761,8.975,7.588,7.588,0,0,0-.693,2.181,1.975,1.975,0,0,0,2.408,2.1,23.34,23.34,0,0,0,7.209-2.213,4.969,4.969,0,0,1,.487-.184v5.086c0,.912-.031,1.822.01,2.73.028.577-.194.78-.737.7a.692.692,0,0,0-.085,0q-15.522,0-31.042,0C-259.44-496.764-259.581-496.783-259.723-496.793Z" transform="translate(292.362 582.011)"/><path class="c" d="M-257.014-528.628c.392-.019.574-.342.808-.576q4.7-4.688,9.388-9.384c.218-.218.458-.421.686-.631q0,4.1.005,8.2c-.423.031-.614.388-.867.641q-15.389,15.384-30.772,30.777c-.239.239-.5.456-.754.685q0-4.017-.005-8.032c.152-.125.315-.239.454-.378q8.349-8.346,16.689-16.7c.158-.159.286-.348.426-.522a1.294,1.294,0,0,1,1.141.752c.315.57.608,1.153.946,1.707.18.3.192.841.6.82.309-.016.345-.536.53-.815a2.189,2.189,0,0,0,.156-.3,4.706,4.706,0,0,1,2.782-2.779,8.1,8.1,0,0,0,1.362-.8c-.842-.461-1.583-.87-2.326-1.276A2.081,2.081,0,0,1-257.014-528.628Z" transform="translate(278.574 565.708)"/><path class="c" d="M-278.513-495.227q2.509-2.47,5.021-4.942c.3-.3.622-.576.934-.861.009.6.01,1.193.031,1.789a2.115,2.115,0,0,0,2.025,2.12,2.02,2.02,0,0,0,2.051-2.137c.012-1.222-.022-2.446.012-3.666a2.588,2.588,0,0,0-.593-1.815,36.264,36.264,0,0,0,3.11-3.018c1.5-1.508,3.075-2.94,4.465-4.552.532.042.607.543.842.868.284.4.38.917.763,1.283,1.35-2.148,1.354-2.144,2.366-2.678.269-.142.7-.227.688-.556s-.484-.321-.706-.52c-.413-.373-1.2-.338-1.238-1.12.236-.2.485-.388.705-.607q5.613-5.608,11.223-11.223c.22-.22.458-.423.688-.633v8.038c-.773.75-1.553,1.492-2.316,2.253q-5.6,5.6-11.194,11.2c-.22.22-.416.461-.624.693-1.454.218-1.955.75-2.108,2.238-.253.01-.4.2-.556.355q-6.677,6.679-13.348,13.359a2.1,2.1,0,0,0-.2.274c-2.071.111-2.075.111-2.07-1.967C-278.537-492.444-278.521-493.835-278.513-495.227Z" transform="translate(278.563 574.305)"/><path class="c" d="M-249.189-546.443c1.007-1.231,2.212-2.271,3.316-3.408,1.5-1.546,3.018-3.072,4.529-4.607,1.843-.009,3.685,0,5.528-.038.546-.01.686.2.652.7s-.019,1.021-.026,1.53a.719.719,0,0,0-.513.263q-2.493,2.5-4.989,4.99a.841.841,0,0,0-.31.582,38.021,38.021,0,0,1-4.988.087A13.249,13.249,0,0,1-249.189-546.443Z" transform="translate(300.087 554.504)"/></g><g transform="translate(-276.773 -545.847)"><path class="d" d="M-246.8-492.488c-.511.012-1.023.033-1.534.033q-13.952,0-27.9,0c-.369,0-.738-.019-1.108-.03a2.087,2.087,0,0,1,.2-.274q6.672-6.679,13.348-13.359c.16-.158.3-.345.556-.355q.018,1.911.035,3.822a2.046,2.046,0,0,0,.224,1.066,2.105,2.105,0,0,0,2.158,1.024,2.1,2.1,0,0,0,1.681-2.075c.036-1.189.014-2.38.009-3.571a2.2,2.2,0,0,0-2-2.5c.208-.232.4-.473.624-.693q5.593-5.6,11.194-11.2c.763-.761,1.543-1.5,2.316-2.253.01,1.362.012,2.726.033,4.089a6.01,6.01,0,0,0,5.762,6c.679.035,1.362.019,2.044.026l12.345.1c-.2.234-.4.48-.614.7q-1.576,1.622-3.158,3.233a2.158,2.158,0,0,0-2.238,2.227c-.231.211-.47.414-.69.635q-6.331,6.331-12.66,12.667C-246.4-492.961-246.592-492.719-246.8-492.488Zm-2.219-12.073c0-.679.014-1.361,0-2.04a2.076,2.076,0,0,0-1.947-2.076,2.028,2.028,0,0,0-2.111,1.9c-.057,1.444-.057,2.893,0,4.337a2.047,2.047,0,0,0,2.111,1.91,2.08,2.08,0,0,0,1.947-2.078C-249-503.256-249.019-503.907-249.019-504.561Zm6.12-.031h-.005v1.964c0,.057,0,.114,0,.17a1.985,1.985,0,0,0,1.822,1.922,1.939,1.939,0,0,0,2.127-1.57,18.473,18.473,0,0,0,0-5.015,1.942,1.942,0,0,0-2.059-1.553,1.965,1.965,0,0,0-1.877,1.863C-242.923-506.072-242.9-505.332-242.9-504.592Z" transform="translate(279.39 577.659)"/><path class="d" d="M-278.524-490.1q0-6.144,0-12.288c.251-.229.515-.445.754-.685q15.387-15.39,30.772-30.777c.253-.253.444-.61.867-.641q-.005,6.061-.007,12.123c-.231.21-.468.413-.688.633q-5.614,5.611-11.223,11.223c-.22.218-.47.405-.705.607-.42-.206-.536-.638-.745-1-.106-.185-.142-.482-.435-.451-.225.026-.284.274-.338.449a4.039,4.039,0,0,1-2.392,2.373c-.144.069-.276.165-.438.263.473.536,1.253.517,1.633,1.09-1.39,1.612-2.967,3.044-4.465,4.552a36.278,36.278,0,0,1-3.11,3.018,2.138,2.138,0,0,0-2.46-.253,2.267,2.267,0,0,0-1.04,2.264c.024.565-.016,1.132-.026,1.7-.312.286-.633.565-.934.861Q-276.017-492.573-278.524-490.1Z" transform="translate(278.526 569.13)"/><path class="d" d="M-278.52-512.928c.251-.227.515-.445.754-.685q15.387-15.387,30.772-30.775c.253-.253.444-.612.867-.643q0,5.039-.005,10.074c-.229.21-.468.412-.686.631q-4.7,4.693-9.388,9.384c-.234.234-.416.556-.808.575-.539-.579-.648-1.437-1.475-2.128a6.831,6.831,0,0,1-4.772,4.742,13.041,13.041,0,0,1,2.305,1.468,6.531,6.531,0,0,1-.426.523q-8.341,8.351-16.689,16.7c-.139.139-.3.253-.454.378Z" transform="translate(278.525 561.399)"/><path class="d" d="M-255-546.447c.016-.424.364-.626.615-.882q3.533-3.575,7.075-7.141,5.114,0,10.23,0c-1.511,1.536-3.03,3.061-4.529,4.607-1.1,1.137-2.309,2.177-3.316,3.408C-248.285-546.206-251.645-546.456-255-546.447Z" transform="translate(295.775 554.474)"/><path class="d" d="M-244.466-547.374a.841.841,0,0,1,.31-.582q2.5-2.493,4.989-4.99a.718.718,0,0,1,.513-.263c.007,1.7-.016,3.4.038,5.1.021.664-.25.841-.835.825C-241.122-547.32-242.8-547.344-244.466-547.374Z" transform="translate(303.502 555.401)"/></g><path class="e" d="M-232.422-533.526l1.957-1.127a2.073,2.073,0,0,1,2.983.581,2.063,2.063,0,0,1-.927,2.952c-.392.229-.79.447-1.177.685-.21.13-.558.175-.562.461,0,.336.38.374.608.517.411.253.844.471,1.253.726a2.055,2.055,0,0,1,.818,2.858,2.066,2.066,0,0,1-2.888.64l-2.064-1.16c0,.829.01,1.522,0,2.214a2.135,2.135,0,0,1-2.056,2.354,2.1,2.1,0,0,1-2.025-2.347c0-.7,0-1.4,0-2.257-.764.433-1.39.8-2.028,1.149a2.11,2.11,0,0,1-2.978-.6,2.08,2.08,0,0,1,.955-2.952q.728-.439,1.48-.841c.367-.2.385-.362.016-.576-.589-.34-1.193-.662-1.752-1.049a1.951,1.951,0,0,1-.95-2.118,2.078,2.078,0,0,1,1.6-1.6,2.031,2.031,0,0,1,1.466.277,15.278,15.278,0,0,0,2.194,1.146c0-.79,0-1.517,0-2.243a2.141,2.141,0,0,1,1.924-2.283,2.124,2.124,0,0,1,2.151,2.181C-232.392-535.181-232.422-534.425-232.422-533.526Z" transform="translate(28.676 20.622)"/><path class="e" d="M-220.714-526.387c0,.851.009,1.555,0,2.259a2.1,2.1,0,0,1-2.019,2.293,2.054,2.054,0,0,1-2.066-2.311c.05-.565,0-1.139.012-1.707.012-.492-.151-.529-.539-.283q-.793.5-1.628.932a2.055,2.055,0,0,1-2.879-.733,2.038,2.038,0,0,1,.844-2.785c.641-.406,1.307-.773,2.037-1.2a11.911,11.911,0,0,0-1.993-1.25,2.068,2.068,0,0,1-.908-2.77,2.009,2.009,0,0,1,2.846-.8c.7.366,1.38.761,2.217,1.227,0-.9-.009-1.65,0-2.4a2.115,2.115,0,0,1,2.012-2.2,2.121,2.121,0,0,1,2.061,2.182c.024.754,0,1.51,0,2.409.749-.428,1.357-.778,1.966-1.127a2.072,2.072,0,0,1,2.985.579,2.085,2.085,0,0,1-.943,2.961c-.492.282-.988.56-1.479.844-.359.208-.34.421.005.62.517.3,1.043.579,1.555.888a2.029,2.029,0,0,1,.877,2.834,1.973,1.973,0,0,1-2.929.667C-219.312-525.615-219.952-525.965-220.714-526.387Z" transform="translate(37.264 20.622)"/><path class="e" d="M-248.23-526.426c-.82.466-1.47.863-2.146,1.212a2,2,0,0,1-2.857-.737,1.974,1.974,0,0,1,.894-2.808c.489-.291.974-.584,1.473-.856.419-.227.5-.416.021-.676-.549-.3-1.094-.607-1.615-.95a2.023,2.023,0,0,1-1.033-2.009,2.055,2.055,0,0,1,1.47-1.714,1.768,1.768,0,0,1,1.546.206c.7.38,1.39.761,2.246,1.231,0-.825,0-1.541,0-2.255a2.132,2.132,0,0,1,2.064-2.331,2.145,2.145,0,0,1,2.016,2.307c.005.707,0,1.416,0,2.191a10.43,10.43,0,0,0,2.066-1.1,2.03,2.03,0,0,1,3.13,1.307,2.074,2.074,0,0,1-1.059,2.222c-.508.312-1.03.6-1.555.884-.4.217-.43.407-.014.642q.78.439,1.541.908a2.028,2.028,0,0,1,.867,2.839,2.033,2.033,0,0,1-2.869.681c-.669-.352-1.326-.726-2.108-1.154,0,.9.024,1.659-.005,2.416a2.074,2.074,0,0,1-2.083,2.141,2.088,2.088,0,0,1-1.992-2.224C-248.237-524.788-248.23-525.525-248.23-526.426Z" transform="translate(20.093 20.624)"/><path class="e" d="M-267.96-550.99c.78,1.4,1.518,2.64,2.161,3.924a3,3,0,0,0,1.42,1.272c1.118.607,2.231,1.222,3.437,1.884a9.738,9.738,0,0,1-2.7,1.553,5.57,5.57,0,0,0-2.922,3.021c-.392.811-.855,1.588-1.336,2.473a21.142,21.142,0,0,1-1.891-3.311,4.164,4.164,0,0,0-1.895-1.862c-1.076-.553-2.127-1.154-3.356-1.827a29.971,29.971,0,0,1,2.9-1.581,4.92,4.92,0,0,0,2.623-2.621C-269.075-549.009-268.539-549.914-267.96-550.99Z" transform="translate(4.303 11.182)"/><g transform="translate(-280.914 -566.238)"><path class="f" d="M-220.44-436.408a6.944,6.944,0,0,1-2.189.159h-45.138c-.227,0-.454-.014-.683-.022a20.043,20.043,0,0,1-4.5-1.44,14.091,14.091,0,0,1-7.932-12.27c-.021-.312-.019-.626-.019-.94q0-50.279-.012-100.558a14.342,14.342,0,0,1,3.08-9.275,13.506,13.506,0,0,1,9.4-5.276c5.075-.367,10.157-.13,15.236-.153,10.291-.043,20.582-.007,30.871-.028.636,0,1.264.423,1.9.036a20.474,20.474,0,0,1,4.363,1.312c5.316,2.727,8.112,7.065,8.223,13.04.081,4.382.033,8.766,0,13.147-.005.709.185.9.894.9q16.427-.031,32.852-.01a7.164,7.164,0,0,1,3.4.641,6.251,6.251,0,0,1,3.47,5.994v26.636q0,8.539,0,17.075a6.149,6.149,0,0,1-4.673,6.332,8.369,8.369,0,0,1-2.279.239q-13.567,0-27.134-.017a1.131,1.131,0,0,0-1.281.881,18.65,18.65,0,0,1-4.592,7.2,2.091,2.091,0,0,0-.65,1.659q.031,10.244.009,20.488a14.255,14.255,0,0,1-9.618,13.643A8.955,8.955,0,0,1-220.44-436.408Zm2.7-101.412c1.671.03,3.344.054,5.015.094.586.016.856-.161.835-.825-.054-1.7-.031-3.4-.038-5.1.007-.51-.009-1.023.026-1.53s-.106-.709-.652-.7c-1.843.038-3.685.029-5.528.038l-10.23,0c-.312-.01-.624-.029-.936-.029q-23.247,0-46.493-.021c-.848,0-1.085.185-1.083,1.064q.047,23.3.024,46.6c0,.284.019.569.029.851q0,5.122-.005,10.241l.005,8.032,0,12.288c-.009,1.392-.024,2.784-.026,4.176-.005,2.078,0,2.078,2.07,1.967.369.01.738.029,1.108.029q13.952,0,27.9,0c.511,0,1.023-.021,1.534-.033.142.01.283.029.425.029q15.522,0,31.042,0a.7.7,0,0,1,.085,0c.543.076.764-.126.737-.7-.042-.908-.01-1.818-.01-2.73v-5.086a5.007,5.007,0,0,0-.487.184,23.34,23.34,0,0,1-7.209,2.213,1.975,1.975,0,0,1-2.408-2.1,7.588,7.588,0,0,1,.693-2.181,25.617,25.617,0,0,0,1.761-8.975c-.01-.589-.135-.874-.809-.844-1.277.057-2.557.028-3.836.035l-12.345-.1c-.681-.007-1.364.009-2.044-.026a6.01,6.01,0,0,1-5.762-6c-.021-1.362-.022-2.727-.033-4.089v-8.038q0-6.063.007-12.123l-.005-8.2.005-10.074c.009-.794.01-1.589.03-2.383a6,6,0,0,1,5.72-5.845A12.9,12.9,0,0,0-236-537.82c3.357-.009,6.717.241,10.076-.012a13.248,13.248,0,0,0,3.2.1A38.01,38.01,0,0,0-217.737-537.82Zm.931,66.189a11.285,11.285,0,0,0,3.146-1.264A15.607,15.607,0,0,0-205.9-482.9c.439-1.65.934-2.019,2.64-2.019q14.68,0,29.356,0c1.81,0,2.6-.794,2.6-2.6q0-21.814,0-43.628c0-1.806-.782-2.584-2.6-2.584q-31.873,0-63.749,0c-1.862,0-2.616.761-2.616,2.635v43.458c0,1.986.728,2.718,2.707,2.718q9.6,0,19.2,0a2.21,2.21,0,0,1,2.512,2,16.814,16.814,0,0,1,.106,6.514A48.564,48.564,0,0,1-216.807-471.631Zm-27.666,31.3c7.422,0,14.846-.041,22.268.014a10.194,10.194,0,0,0,10.293-10.319c-.024-1.593,0-3.186,0-4.779,0-1.146,0-1.146-1.146-1.146h-62.625c-.2,0-.4.01-.6,0-.362-.021-.51.142-.508.5a64.194,64.194,0,0,0,.071,6.909,10.008,10.008,0,0,0,10.064,8.818Q-255.566-440.348-244.472-440.334Zm.031-109.632h29.952c.6,0,1.2-.03,1.792.009.57.036.835-.127.792-.752-.068-.96-.021-1.919-.156-2.886a10.053,10.053,0,0,0-9.561-8.5q-22.784-.023-45.566.011a9.139,9.139,0,0,0-6.25,2.548,9.844,9.844,0,0,0-3.361,7.883c.052,1.687.007,1.688,1.725,1.688Z" transform="translate(280.914 566.238)"/><path class="f" d="M-258.1-492.558a3.952,3.952,0,0,1-4.082-4.058,4.021,4.021,0,0,1,4.013-3.987,4.128,4.128,0,0,1,4.157,4.052A3.981,3.981,0,0,1-258.1-492.558Z" transform="translate(294.651 614.371)"/><path class="f" d="M-253.728-557.537c-1.364,0-2.728.007-4.092,0a1.875,1.875,0,0,1-2-1.95,1.873,1.873,0,0,1,1.952-2q4.134-.018,8.27,0a1.832,1.832,0,0,1,1.9,1.947,1.847,1.847,0,0,1-1.941,2C-251-557.526-252.365-557.537-253.728-557.537Z" transform="translate(296.381 569.714)"/><path class="f" d="M-262.824-557.537c-.683,0-1.364.009-2.047,0a1.843,1.843,0,0,1-1.95-1.988,1.841,1.841,0,0,1,1.978-1.962c1.362-.01,2.727-.012,4.091,0a1.872,1.872,0,0,1,1.969,1.98,1.921,1.921,0,0,1-2,1.969C-261.46-557.53-262.143-557.537-262.824-557.537Z" transform="translate(291.249 569.714)"/><path class="f" d="M-269.208-512.458c.153-1.487.654-2.019,2.108-2.238a2.2,2.2,0,0,1,2,2.5c.005,1.191.028,2.382-.009,3.571a2.1,2.1,0,0,1-1.681,2.075,2.1,2.1,0,0,1-2.158-1.024,2.047,2.047,0,0,1-.224-1.066Q-269.189-510.547-269.208-512.458Z" transform="translate(289.498 604.035)"/><path class="f" d="M-259.267-510.559c0,.653.014,1.305,0,1.957a2.08,2.08,0,0,1-1.946,2.078,2.047,2.047,0,0,1-2.111-1.91c-.057-1.444-.057-2.893,0-4.337a2.028,2.028,0,0,1,2.111-1.9,2.076,2.076,0,0,1,1.946,2.077C-259.254-511.92-259.267-511.239-259.267-510.559Z" transform="translate(293.78 604.048)"/><path class="f" d="M-257.468-510.59c0-.74-.024-1.48.007-2.219a1.965,1.965,0,0,1,1.877-1.863,1.942,1.942,0,0,1,2.059,1.553,18.471,18.471,0,0,1,0,5.015,1.939,1.939,0,0,1-2.127,1.57,1.985,1.985,0,0,1-1.822-1.922c0-.055,0-.113,0-.17v-1.964Z" transform="translate(298.101 604.048)"/><path class="f" d="M-249.423-514.7a2.189,2.189,0,0,1,1.875,2.534c0,1.109.005,2.219,0,3.328a2.12,2.12,0,0,1-2.068,2.326,2.119,2.119,0,0,1-2.012-2.293q-.021-1.833-.031-3.668A2.158,2.158,0,0,1-249.423-514.7Z" transform="translate(302.366 604.035)"/><path class="f" d="M-271.562-514.138a2.587,2.587,0,0,1,.593,1.815c-.035,1.22,0,2.444-.012,3.666a2.02,2.02,0,0,1-2.051,2.137,2.115,2.115,0,0,1-2.025-2.12c-.021-.6-.023-1.192-.031-1.789.01-.567.05-1.134.026-1.7a2.267,2.267,0,0,1,1.04-2.264A2.138,2.138,0,0,1-271.562-514.138Z" transform="translate(285.186 604.048)"/></g><path class="e" d="M-265.277-519.69c.042.782.825.747,1.238,1.12.222.2.7.186.706.52s-.42.414-.688.556c-1.012.534-1.016.531-2.366,2.678-.383-.366-.478-.888-.763-1.283-.236-.326-.31-.827-.842-.869-.38-.574-1.16-.555-1.633-1.09.163-.1.295-.194.439-.263a4.039,4.039,0,0,0,2.392-2.373c.054-.175.113-.423.338-.449.293-.031.329.265.435.451C-265.813-520.327-265.7-519.9-265.277-519.69Z" transform="translate(8.278 33.069)"/><path class="e" d="M-263.472-532.208a2.081,2.081,0,0,0,1.248,1.39c.744.406,1.484.815,2.326,1.276a8.1,8.1,0,0,1-1.362.8,4.708,4.708,0,0,0-2.782,2.779,2.162,2.162,0,0,1-.156.3c-.185.279-.222.8-.53.815-.406.021-.418-.523-.6-.82-.338-.555-.631-1.137-.946-1.707a1.294,1.294,0,0,0-1.141-.752,12.942,12.942,0,0,0-2.305-1.47,6.831,6.831,0,0,0,4.772-4.742C-264.12-533.645-264.011-532.787-263.472-532.208Z" transform="translate(8.21 23.394)"/></g></svg>