<svg xmlns="http://www.w3.org/2000/svg" width="20" height="19.96" viewBox="0 0 20 19.96">
  <g id="Group_149" data-name="Group 149" transform="translate(-1.956 -1.168)">
    <path id="Path_729" data-name="Path 729" d="M11.9,21.108c-2.862,0-5.723.007-8.585,0a1.208,1.208,0,0,1-1.333-1.356c-.021-1.819-.017-3.639-.018-5.458,0-2.578,0-5.155,0-7.732,0-1.327-.016-2.654,0-3.98a1.318,1.318,0,0,1,1.385-1.4c3.373-.009,6.747,0,10.12,0q3.384,0,6.766.012c1.316,0,1.706.385,1.706,1.685q0,7.591,0,15.181c0,.531.021,1.062.017,1.591a1.343,1.343,0,0,1-1.473,1.485c-2.691,0-5.383-.011-8.074-.018Zm.088-1.256v-.017h7.392a1.119,1.119,0,0,0,1.287-1.284q.015-7.335.017-14.668c0-.994-.466-1.445-1.477-1.445q-7.305,0-14.612.017c-.936,0-1.344.415-1.348,1.357q-.007,2.133-.009,4.264c0,3.488-.011,6.975,0,10.463a1.187,1.187,0,0,0,1.306,1.311C7.02,19.86,9.5,19.853,11.985,19.853Z" transform="translate(0 0)" fill="#d17f7f"/>
    <g id="Group_147" data-name="Group 147" transform="translate(6.723 6.619)">
      <path id="Path_730" data-name="Path 730" d="M16.291,6.3v.371a1.836,1.836,0,0,1-.488.661c-1.12,1.115-2.233,2.234-3.356,3.346-.123.122-.123.181,0,.3,1.123,1.112,2.237,2.233,3.356,3.348a1.821,1.821,0,0,1,.488.66v.372a1.079,1.079,0,0,1-.7.7h-.371a1.843,1.843,0,0,1-.66-.487c-1.112-1.118-2.231-2.229-3.34-3.35-.128-.129-.19-.128-.317,0-1.11,1.12-2.228,2.232-3.341,3.349a1.814,1.814,0,0,1-.659.487H6.532a1.077,1.077,0,0,1-.7-.7v-.372a1.814,1.814,0,0,1,.487-.659c1.117-1.113,2.229-2.232,3.35-3.341.128-.127.128-.189,0-.317C8.551,9.564,7.44,8.445,6.322,7.332a1.814,1.814,0,0,1-.487-.659V6.3a1.071,1.071,0,0,1,.7-.7H6.9a1.814,1.814,0,0,1,.659.487C8.676,7.208,9.795,8.32,10.9,9.441c.127.128.189.129.317,0,1.11-1.121,2.228-2.232,3.34-3.349a1.832,1.832,0,0,1,.66-.488h.371A1.071,1.071,0,0,1,16.291,6.3Z" transform="translate(-5.835 -5.604)" fill="#d17f7f"/>
    </g>
  </g>
</svg>
