<svg xmlns="http://www.w3.org/2000/svg" width="20" height="19.96" viewBox="0 0 20 19.96">
  <g id="Group_137" data-name="Group 137" transform="translate(-1.956 -1.168)">
    <path id="Path_727" data-name="Path 727" d="M11.9,21.108c-2.862,0-5.723.007-8.585,0a1.208,1.208,0,0,1-1.333-1.355c-.021-1.819-.017-3.639-.018-5.458,0-2.578,0-5.155,0-7.732,0-1.327-.016-2.654,0-3.98a1.318,1.318,0,0,1,1.385-1.4c3.373-.009,6.747,0,10.12,0q3.384,0,6.766.012c1.316,0,1.706.385,1.706,1.685q0,7.591,0,15.181c0,.531.021,1.062.017,1.591a1.343,1.343,0,0,1-1.473,1.485c-2.691,0-5.383-.011-8.074-.018Zm.088-1.256v-.017h7.392a1.119,1.119,0,0,0,1.287-1.284q.015-7.335.017-14.668c0-.994-.466-1.445-1.477-1.445q-7.305,0-14.612.017c-.936,0-1.344.415-1.348,1.357q-.007,2.133-.009,4.264c0,3.488-.011,6.975,0,10.463a1.187,1.187,0,0,0,1.306,1.311C7.02,19.86,9.5,19.852,11.985,19.852Z" transform="translate(0 0)" fill="#58aa69"/>
    <path id="Path_728" data-name="Path 728" d="M5.6,9.685a1.272,1.272,0,0,1,.9.426c.832.746,1.68,1.475,2.49,2.244.322.306.5.364.843,0,2.115-2.273,4.257-4.519,6.385-6.779a1.2,1.2,0,0,1,1.245-.488A1.125,1.125,0,0,1,18,7.011q-2.972,3.169-5.969,6.315c-.546.576-1.088,1.159-1.648,1.723a1.118,1.118,0,0,1-1.709.074c-1.293-1.139-2.571-2.294-3.849-3.45A1.044,1.044,0,0,1,4.5,10.441,1.128,1.128,0,0,1,5.6,9.685Z" transform="translate(0.564 0.888)" fill="#58aa69"/>
  </g>
</svg>
