<svg xmlns="http://www.w3.org/2000/svg" width="18.884" height="19.392" viewBox="0 0 18.884 19.392">
  <g id="Group_179" data-name="Group 179" transform="translate(-1.868 -1.648)">
    <path id="Path_755" data-name="Path 755" d="M11.31,20.89H4.059a1.914,1.914,0,0,1-2.041-2.055V5.568A1.913,1.913,0,0,1,4.057,3.533c.591,0,1.182,0,1.773,0,.155,0,.216-.043.2-.2a2.976,2.976,0,0,1,0-.381,1.174,1.174,0,0,1,2.348-.008c0,.014,0,.029,0,.044.009.171-.073.39.031.5s.341.039.518.041c1.765,0,3.531,0,5.3.006.2,0,.263-.053.246-.248a2.122,2.122,0,0,1,.014-.47,1.164,1.164,0,0,1,1.2-1.018,1.188,1.188,0,0,1,1.134,1.147c.007.186-.079.432.035.541.133.128.384.035.584.043a12.065,12.065,0,0,1,1.613.042A1.877,1.877,0,0,1,20.6,5.412q.007,6.79,0,13.581a1.894,1.894,0,0,1-1.95,1.9Q14.98,20.894,11.31,20.89Zm.01-12.816q-4.207,0-8.416,0c-.215,0-.273.05-.273.268q.012,5.264.006,10.526a1.3,1.3,0,0,0,1.411,1.411h14.5a1.31,1.31,0,0,0,1.434-1.433q0-5.252,0-10.5c0-.219-.058-.27-.273-.269Q15.517,8.08,11.32,8.074Zm-.009-.617h8.325c.067,0,.135,0,.2,0,.1.007.146-.029.145-.14,0-.665.013-1.331-.012-2a1.247,1.247,0,0,0-1.149-1.156c-.62-.026-1.242-.007-1.863-.013-.109,0-.143.043-.139.146,0,.187.006.375,0,.562a1.173,1.173,0,0,1-2.346.017,5.208,5.208,0,0,1,0-.538c.009-.149-.048-.188-.191-.187q-2.862.005-5.722,0c-.132,0-.19.031-.181.175.01.179.007.359,0,.538A1.174,1.174,0,0,1,6.031,4.85c0-.165-.008-.33,0-.493s-.035-.209-.2-.208c-.636.009-1.272,0-1.907.006a1.28,1.28,0,0,0-1.29,1.3c0,.577.013,1.152-.008,1.728-.008.239.071.277.288.277Q7.114,7.451,11.311,7.456ZM16.2,3.917c0-.3,0-.6,0-.9a.571.571,0,0,0-.559-.6A.563.563,0,0,0,15.09,3q-.009.909,0,1.817A.557.557,0,1,0,16.2,4.814C16.206,4.515,16.2,4.216,16.2,3.917Zm-8.44.021c0-.306,0-.613,0-.919A.558.558,0,1,0,6.648,3q-.01.909,0,1.816A.558.558,0,1,0,7.76,4.812C7.765,4.52,7.761,4.229,7.762,3.938Z" transform="translate(0 0)" fill="#9b9b9b" stroke="#9b9b9b" stroke-width="0.3"/>
    <path id="Path_756" data-name="Path 756" d="M10.328,12.554c0-.343,0-.687,0-1.03,0-.251.1-.357.355-.359q1.029-.007,2.059,0c.272,0,.376.114.376.388q0,1.008,0,2.017c0,.288-.1.393-.39.395q-1.01,0-2.017,0c-.275,0-.381-.107-.383-.378C10.326,13.241,10.328,12.9,10.328,12.554Zm.621.006c0,.209,0,.418,0,.627,0,.111.029.161.151.159q.625-.007,1.252,0c.12,0,.154-.045.153-.158,0-.418,0-.836,0-1.252,0-.11-.029-.162-.151-.161q-.627.009-1.252,0c-.118,0-.157.043-.153.157C10.952,12.142,10.948,12.351,10.949,12.559Z" transform="translate(1.333 1.502)" fill="#9b9b9b" stroke="#9b9b9b" stroke-width="0.3"/>
    <path id="Path_757" data-name="Path 757" d="M10.108,12.564c0,.343,0,.687,0,1.03,0,.258-.111.367-.371.368q-1.02,0-2.039,0c-.273,0-.379-.108-.381-.382q0-1.02,0-2.039c0-.272.107-.373.386-.374.679,0,1.357,0,2.035,0,.256,0,.367.111.37.369,0,.345,0,.688,0,1.032Zm-2.174,0c0,.209,0,.418,0,.627,0,.109.028.161.15.16q.627-.009,1.253,0c.118,0,.153-.044.152-.157q-.005-.627,0-1.253c0-.111-.031-.161-.151-.159q-.627.007-1.252,0c-.12,0-.157.045-.153.158C7.938,12.141,7.935,12.35,7.935,12.559Z" transform="translate(0.85 1.503)" fill="#9b9b9b" stroke="#9b9b9b" stroke-width="0.3"/>
    <path id="Path_758" data-name="Path 758" d="M13.116,9.653c0,.345,0,.688,0,1.033,0,.236-.106.343-.342.345-.7.006-1.405,0-2.109,0a.3.3,0,0,1-.333-.333q-.005-1.044,0-2.088c0-.266.1-.367.366-.368q1.032-.005,2.064,0c.249,0,.356.108.36.355,0,.352,0,.7,0,1.055ZM12.5,9.66h0c0-.208-.007-.418,0-.625.007-.14-.046-.179-.181-.176q-.606.01-1.212,0c-.128,0-.168.043-.167.168.006.412,0,.823,0,1.234,0,.1.013.16.145.158.419-.01.838-.007,1.256,0,.131,0,.166-.049.159-.174C12.495,10.049,12.5,9.855,12.5,9.66Z" transform="translate(1.333 1.034)" fill="#9b9b9b" stroke="#9b9b9b" stroke-width="0.3"/>
    <path id="Path_759" data-name="Path 759" d="M8.747,14.087c.328,0,.657,0,.985,0,.267,0,.374.1.375.361q.005,1.03,0,2.061c0,.266-.1.369-.363.37-.687,0-1.375,0-2.062,0-.26,0-.364-.108-.364-.37q-.005-1.032,0-2.062c0-.248.109-.356.355-.36C8.03,14.085,8.388,14.087,8.747,14.087ZM9.49,15.48c0-.209,0-.418,0-.628,0-.1-.028-.147-.139-.146-.426,0-.852,0-1.278,0-.109,0-.14.043-.14.145q.005.639,0,1.278c0,.093.03.137.129.137.433,0,.866,0,1.3,0,.094,0,.131-.037.129-.135C9.486,15.914,9.49,15.7,9.49,15.48Z" transform="translate(0.85 1.972)" fill="#9b9b9b" stroke="#9b9b9b" stroke-width="0.3"/>
    <path id="Path_760" data-name="Path 760" d="M10.328,15.48c0-.337,0-.672,0-1.008,0-.28.1-.382.375-.383q1.02,0,2.04,0c.274,0,.376.1.376.382q0,1.01,0,2.017c0,.292-.1.392-.388.393q-1.01,0-2.017,0c-.292,0-.384-.1-.386-.392C10.326,16.152,10.328,15.816,10.328,15.48ZM12.5,15.5c0-.209,0-.419,0-.628,0-.122-.031-.172-.162-.169q-.616.01-1.232,0c-.132,0-.165.048-.164.169q.009.616,0,1.232c0,.116.032.16.15.159.419,0,.837,0,1.256,0,.12,0,.156-.046.153-.159C12.5,15.906,12.5,15.7,12.5,15.5Z" transform="translate(1.333 1.972)" fill="#9b9b9b" stroke="#9b9b9b" stroke-width="0.3"/>
    <path id="Path_761" data-name="Path 761" d="M8.709,8.242c.343,0,.687,0,1.03,0,.263,0,.367.1.368.367q.005,1.03,0,2.061c0,.253-.1.362-.349.362q-1.041,0-2.081,0c-.265,0-.357-.106-.359-.373q0-1,0-1.994c0-.33.093-.419.429-.42C8.067,8.241,8.387,8.242,8.709,8.242ZM7.935,9.616c0,.209.008.418,0,.627-.007.142.049.176.181.174q.6-.009,1.208,0c.123,0,.173-.036.171-.164q-.009-.616,0-1.231c0-.13-.049-.165-.171-.164q-.616.009-1.231,0c-.114,0-.161.032-.157.152C7.94,9.212,7.936,9.414,7.935,9.616Z" transform="translate(0.85 1.034)" fill="#9b9b9b" stroke="#9b9b9b" stroke-width="0.3"/>
    <path id="Path_762" data-name="Path 762" d="M7.1,12.579c0,.328,0,.658,0,.988,0,.291-.106.395-.391.4q-1,.005-2,0c-.3,0-.4-.109-.406-.408q0-1,0-2c0-.26.087-.378.33-.383q1.076-.019,2.151-.009c.219,0,.314.132.317.381,0,.345,0,.688,0,1.033Zm-2.177-.034c0,.216.006.433,0,.649,0,.12.044.153.157.151q.627-.007,1.253,0c.115,0,.159-.037.158-.154,0-.425,0-.849,0-1.274,0-.108-.045-.142-.149-.142-.425,0-.851,0-1.275,0-.1,0-.146.036-.144.143C4.926,12.127,4.923,12.336,4.923,12.545Z" transform="translate(0.367 1.503)" fill="#9b9b9b" stroke="#9b9b9b" stroke-width="0.3"/>
    <path id="Path_763" data-name="Path 763" d="M16.133,12.576c0,.337,0,.672,0,1.008,0,.256-.111.375-.366.377q-1.043.007-2.084,0a.3.3,0,0,1-.341-.33c-.007-.716-.006-1.433,0-2.15a.3.3,0,0,1,.331-.316c.709,0,1.418,0,2.127,0,.233,0,.333.117.335.354C16.136,11.874,16.133,12.225,16.133,12.576Zm-2.183-.02c0,.209,0,.418,0,.627,0,.108.023.164.149.162.425-.006.851,0,1.275,0,.106,0,.144-.036.143-.142,0-.426,0-.851,0-1.275,0-.12-.044-.154-.158-.153q-.627.007-1.253,0c-.115,0-.16.038-.157.156C13.955,12.139,13.951,12.348,13.95,12.557Z" transform="translate(1.816 1.503)" fill="#9b9b9b" stroke="#9b9b9b" stroke-width="0.3"/>
    <path id="Path_764" data-name="Path 764" d="M14.726,11.03c-.35,0-.7,0-1.053,0-.227,0-.332-.106-.333-.328q-.005-1.043,0-2.084c0-.274.108-.374.386-.374q1.008,0,2.017,0c.289,0,.391.1.392.39q0,1,0,1.994c0,.306-.1.4-.4.407-.335,0-.671,0-1.007,0Zm0-.615c.209,0,.419,0,.628,0,.108,0,.164-.022.161-.147q-.009-.628,0-1.256c0-.12-.044-.154-.158-.153-.418,0-.837,0-1.256,0-.117,0-.156.046-.154.16,0,.411.006.822,0,1.234,0,.131.052.167.173.162C14.324,10.409,14.525,10.414,14.727,10.414Z" transform="translate(1.816 1.034)" fill="#9b9b9b" stroke="#9b9b9b" stroke-width="0.3"/>
    <path id="Path_765" data-name="Path 765" d="M5.693,8.241c.343,0,.688,0,1.032,0,.266,0,.371.1.373.364q.007,1.032,0,2.064c0,.245-.113.36-.357.361-.7,0-1.39,0-2.084,0-.229,0-.341-.1-.345-.323Q4.3,9.633,4.307,8.557a.294.294,0,0,1,.331-.314H5.693Zm-.007,2.174h0c.209,0,.418,0,.628,0,.12,0,.176-.029.174-.162q-.01-.616,0-1.232c0-.136-.059-.162-.176-.161-.411,0-.823,0-1.234,0-.113,0-.16.03-.158.151q.009.628,0,1.257c0,.123.05.152.16.149C5.282,10.411,5.484,10.415,5.686,10.415Z" transform="translate(0.367 1.034)" fill="#9b9b9b" stroke="#9b9b9b" stroke-width="0.3"/>
    <path id="Path_766" data-name="Path 766" d="M16.133,15.481c0,.343,0,.687,0,1.03,0,.256-.109.368-.369.369q-1.03.005-2.061,0c-.26,0-.363-.107-.364-.373q-.005-1.02,0-2.039c0-.277.106-.379.379-.381q1.02,0,2.039,0c.272,0,.374.107.376.384C16.135,14.808,16.133,15.144,16.133,15.481Zm-1.387-.774c-.209,0-.419.006-.628,0-.124,0-.172.035-.169.164.006.412,0,.823,0,1.234,0,.109.021.166.146.165q.639-.009,1.278,0c.106,0,.145-.032.144-.14q-.007-.639,0-1.278c0-.106-.034-.146-.142-.144C15.165,14.71,14.956,14.707,14.746,14.707Z" transform="translate(1.816 1.972)" fill="#9b9b9b" stroke="#9b9b9b" stroke-width="0.3"/>
    <path id="Path_767" data-name="Path 767" d="M4.3,15.456c0-.328,0-.657,0-.985,0-.276.107-.382.377-.383q1.02,0,2.039,0c.274,0,.377.1.378.382q0,1.018,0,2.038c0,.265-.106.371-.364.373q-1.03.005-2.061,0c-.259,0-.366-.111-.368-.371C4.3,16.158,4.3,15.808,4.3,15.456Zm2.182.032c0-.209,0-.419,0-.628,0-.116-.041-.157-.157-.155-.419,0-.838,0-1.257,0-.115,0-.157.035-.154.153q.009.628,0,1.257c0,.117.032.154.152.153.419-.007.838-.006,1.257,0,.13,0,.165-.051.16-.173C6.48,15.893,6.486,15.691,6.486,15.489Z" transform="translate(0.367 1.972)" fill="#9b9b9b" stroke="#9b9b9b" stroke-width="0.3"/>
  </g>
</svg>
