<svg xmlns="http://www.w3.org/2000/svg" xmlns:xlink="http://www.w3.org/1999/xlink" viewBox="0 0 1442 759"><defs><style>.cls-1{fill:none;}.cls-2{clip-path:url(#clip-path);}.cls-3{fill:url(#radial-gradient);}.cls-4{fill:#f0f0ff;}.cls-5{fill:url(#radial-gradient-2);}</style><clipPath id="clip-path"><rect class="cls-1" width="1442" height="759" rx="20"/></clipPath><radialGradient id="radial-gradient" cx="721" cy="379.5" r="576.13" gradientTransform="translate(0 189.75) scale(1 0.5)" gradientUnits="userSpaceOnUse"><stop offset="0" stop-color="#f0f0ff" stop-opacity="0"/><stop offset="0.28" stop-color="#f0f0ff" stop-opacity="0.01"/><stop offset="0.45" stop-color="#f1f1ff" stop-opacity="0.04"/><stop offset="0.59" stop-color="#f3f3ff" stop-opacity="0.1"/><stop offset="0.72" stop-color="#f5f5ff" stop-opacity="0.18"/><stop offset="0.83" stop-color="#f8f8ff" stop-opacity="0.28"/><stop offset="0.94" stop-color="#fcfcff" stop-opacity="0.41"/><stop offset="1" stop-color="#fff" stop-opacity="0.5"/></radialGradient><radialGradient id="radial-gradient-2" cx="721" cy="379.5" r="576.13" gradientTransform="translate(0 189.75) scale(1 0.5)" gradientUnits="userSpaceOnUse"><stop offset="0" stop-color="#f0f0ff" stop-opacity="0"/><stop offset="0.28" stop-color="#f0f0ff" stop-opacity="0.01"/><stop offset="0.45" stop-color="#efefff" stop-opacity="0.04"/><stop offset="0.59" stop-color="#eef" stop-opacity="0.1"/><stop offset="0.72" stop-color="#ececff" stop-opacity="0.18"/><stop offset="0.83" stop-color="#eaeaff" stop-opacity="0.28"/><stop offset="0.94" stop-color="#e8e8ff" stop-opacity="0.41"/><stop offset="1" stop-color="#e6e6ff" stop-opacity="0.5"/></radialGradient></defs><g id="Layer_4" data-name="Layer 4"><g class="cls-2"><rect class="cls-3" width="1442" height="759" rx="20"/><path class="cls-4" d="M818.37,860.24c1-5.77,4-10.87,6.48-16,10.44-21.42,16.9-44.3,24.64-66.69,3.11-9,1.89-19.13.53-28.56-2.95-20.45.4-39,12.05-56.45,8.15-12.19,10.69-26.22,7.47-40.83-3.57-16.18-1.24-22.17,11.86-31.85,12-8.89,25.2-11.3,40-10.15,15.29,1.2,31.75-4.34,40.35-21.85,9.73-19.8,12.51-39.69,10.9-61.48-1.28-17.3,6.79-31.78,21.39-42.49,13.29-9.75,27-9.15,42-5.59a64.2,64.2,0,0,1,25.09,11.86c19.81,15.28,43.19,4.54,52.17-15.72,6.18-13.95,13.13-27.64,17.38-42.28,3.29-11.35,7.93-22.06,12-33,6.2-16.54,18.08-26.56,33.6-33.7,14.6-6.73,30.47-9.08,45.53-14.26A78.8,78.8,0,0,0,1256.7,328c10.89-12.53,16.61-26.86,18.7-43.74,1.76-14.22,3.13-29,9-42.53,4.44-10.2,9.79-20,12.93-30.75,3.07-10.49,6.5-20.94,3.91-32.3-2.78-12.16-13-18.2-24.75-14.25a75.45,75.45,0,0,0-18.21,8.86c-6.33,4.26-13.65,6.36-20.54,9.39-8.41,3.7-17,0-25.06,2.72-9.7-6.29-21.64-7.83-31.14-14.46-9.83-6.85-19.83-13.5-28.5-21.9-9.08-8.79-14.24-20.13-20.27-30.87-5.35-9.53-9.52-19.75-15.21-29.06-3.78-6.19-10.86-9.29-16.91-13.16-7.54-4.82-15.39-9-22.71-14.33-7.47-5.43-11.86-12.82-17.28-19.53-4.59-5.69-9.08-11.58-13.51-17.42-4.92-6.46-12.67-8.37-21.09-6.92-13.69,2.36-23.64,10.46-33.39,19.69s-20,18.06-32.69,23.93C943.37,69,926.64,70.16,909.32,66c-8.28-2-15.22.73-21.48,5-13.92,9.45-26.11,21-37.53,33.33-3.24,3.5-7.23,6.29-10.69,9.59-17.2,16.38-27.25,36-28.46,60.14-.91,18-.22,35.51,8.59,51.78,5.5,10.15,13.34,18.37,21.61,26.27,24.11,23,31.59,51.11,16.7,82.41-10.38,21.82-25.64,40.43-39.63,59.83-6.53,9.06-16.52,15.07-25.37,21.79-10.39,7.88-10.08,14.26-7.32,24.64a33.32,33.32,0,0,0,10.77,17.6c11.15,9.31,16,22.4,20.81,35.64,6.38,17.58,5.63,35.22,2.72,53.18-3.5,21.57-12.54,41.53-17.75,62.51s-17.37,37.45-29.76,54a50.66,50.66,0,0,1-16.27,14c-16,8.64-10.81,28.8-.2,36.76,6.31,4.73,13.76,7.6,18.72,14.59a74.61,74.61,0,0,1,13.53,35.42,97.2,97.2,0,0,1-4.44,40.84c-5.78,17.89-10.5,36-11.16,55h-3.6c-1.43-10.71.59-21.11,3.14-31.4,3.18-12.78,7.18-25.38,10-38.24,4.57-21.08.37-40.66-11.48-58.71-4.44-6.76-12.11-8.92-18-13.55-15.51-12.11-15.78-37,1.51-45.91a52.78,52.78,0,0,0,22.65-22.55c4.43-8.5,11.6-15.23,14.92-24.54,6.25-17.49,11.84-35.15,16.94-53a271.44,271.44,0,0,0,8.07-38,81.42,81.42,0,0,0-1.92-32.06,137.51,137.51,0,0,0-12.61-31c-1.28-2.35-3.28-4-5.23-5.72-9.56-8.44-16.23-18.37-17.57-31.55-1-9.62,2.44-16.81,10.27-21.94,19.11-12.51,33.14-29.72,45.19-48.71,6.62-10.42,14.46-20,19.46-31.56,8.77-20.36,8.3-39.65-2.62-59.11-6.53-11.63-16.57-20-25.27-29.5a75.88,75.88,0,0,1-20.14-47c-1.08-15.58.06-31.2,4.56-46.32a67.43,67.43,0,0,1,12.7-24.22,369.28,369.28,0,0,1,59.33-57c8.88-6.76,18.06-9.39,29.59-6.88,21.77,4.74,42-.24,60.08-13.37,11.95-8.7,21.16-20.77,34-28.37,12.53-7.43,25.62-10.82,39.59-3.16,3,1.65,4.82,4.17,6.71,6.68,6.67,8.9,12.66,18.38,19.9,26.78,7.59,8.8,17.77,14.6,28,20,18.13,9.6,28.6,25.27,36.21,43.73,6.12,14.86,14.41,28.67,27.54,38.49,10.12,7.56,20.28,15.09,32,20.47,21.76,10,41.77,8.22,61.62-5.38,8-5.46,17-11.25,27.59-9.65,19.76,3,23.4,22.47,21,36.4-2.75,16.35-9.49,31.18-16.27,46.08a83.34,83.34,0,0,0-7,26.74,242.12,242.12,0,0,1-5.66,32.34c-5.86,24.94-22.59,42.32-45.14,52.93-13.8,6.49-29.25,9.42-43.9,14.12-10.12,3.25-20.14,6.8-27.59,15-3,3.26-7.7,5.44-6.3,11.23.15.65-.87,1.75-1.56,2.41-7.81,7.42-11.8,16.93-14.59,27a276.67,276.67,0,0,1-23.09,58.37c-9.86,18.12-31.9,30.19-53.71,15.14-13.11-9-26.9-14.83-42.77-15.05-26-.35-44.9,27.21-41.47,50.74A85.26,85.26,0,0,1,972,577.35c-2.54,6.08-5.58,12-8.6,17.84-5.18,10-14.5,14.75-24.62,17.73a47.16,47.16,0,0,1-20.2,1.84c-15.51-2.32-28.26,3.74-39.55,13.39-5.26,4.49-7.65,10.58-5.61,17.85,2.8,10,2.38,20.24,1.32,30.4-.67,6.47-4.31,12.17-7.73,17.35-11.48,17.36-15.76,35.57-12,56.38,1.92,10.77,1.7,22.22-2.23,33.08-6.45,17.83-12.38,35.85-19.12,53.56-3,8-8.09,15.14-10.44,23.47Z"/><path class="cls-4" d="M474.72-101a155,155,0,0,1-25.58,30c-8.65,7.87-18.58,12.2-30.34,12.46-20.7.47-40.11,5.28-56.27,18.93-9.32,7.88-15.13,18.16-18.84,30C337,11.47,327.43,30.17,304.17,38.26c-7.87,2.73-15.83,5.42-23.73,8.14-10.69,3.69-21.78,6.22-32.62,9.51-8.9,2.7-16.6,8.22-24,13.32-10.94,7.57-20.06,17.3-25.77,30.15-6.1,13.76-4.56,27.69-3.81,41.73.6,11.19,5.5,21.09,10,31.19,8.07,18.3,11.5,37.72,12.49,57.68.78,15.73,2,31.36,5.72,46.87,5.73,24.11,20.45,41.32,40.28,54.29A47,47,0,0,0,297.21,338c6.47-1.15,13-1.92,19.5-3.1,15.6-2.83,22.65,4,26.48,17.76,3.93,14.09,3.32,28.71,0,43.24-3.58,15.72-7.78,31.32-6.6,47.88,1.16,16.24-4.23,31.38-10.14,46.37-5.8,14.7-8.91,29.81-6.61,46.05,1.07,7.53,3.41,14.68,4.4,22.17s5.92,13.06,9.49,19.11c9.73,16.47,23,29.52,39.31,40,24.9,16,51.9,20.14,80.32,16.51a60.21,60.21,0,0,0,31.85-14.32c11.85-10.28,22-22.65,36.39-29.79,6.17-3.06,13-3.58,19.63-4.93,13.48-2.76,27.14-4.63,40.42-8.45,21.05-6.06,35.62-18.61,40.18-40.7,1-4.82.6-10,.54-15.09,0-4.53,2.08-9.59,2.9-14.53,1.26-7.68,3.12-15.25,4.51-22.91,1.35-7.46,5.57-13.54,10.73-18.33,12.5-11.59,24.49-23.56,42.06-28.63,18.74-5.42,37.3-12.36,54-22.76,20.86-13,36-30.91,45.66-53.92a140.58,140.58,0,0,0,11-67.17c-.76-9.35-1.54-18.69-2.5-28a35.87,35.87,0,0,0-6.87-18.66,63.74,63.74,0,0,1-11.11-25.65c-3.06-15.85-6.08-32-1.62-48.07,3.06-11.08,4.31-22.82,11.12-32.7,2.24-3.24,2.25-7.15,2.08-11-.67-14.93,8.17-24.38,19.21-32.22,10.84-7.71,24-11.43,34-21,14-13.4,18.8-29.12,16.3-47.77-2-15.17-1.27-30.37.83-45.43,1.26-9.09,7.94-15.47,13.68-22.08,6.95-8,15.32-14.63,21.91-23C899.2-74.6,906.94-86.5,909.7-101h4.8c-4.47,22.6-17.54,39.85-34,55-7.11,6.52-13.67,13.76-18.18,22.21-4,7.45-3.43,16.3-4.11,24.6-1.1,13.61,1.23,27.19.86,40.79-.4,14.83-8.25,26.1-17.9,36.74s-24,13.44-34.85,21.73c-9.61,7.32-18.43,15.43-17,29.52.4,4-1,8.17-2.81,12.1-7.61,16-12.86,32.84-12.13,50.72.55,13.47,1.74,27.05,8,39.52,1.8,3.58,4.53,6.45,6.46,10,7.49,13.7,7.75,28.51,8.61,43.54a281,281,0,0,1-.07,37.05c-1,13.15-4.87,25.28-9.84,37.35-6.4,15.53-15.05,29.41-27,41.22-11.53,11.37-25.18,19.36-39.87,26-16.23,7.35-33.26,12.47-49.69,19.21a21.19,21.19,0,0,0-5.71,3.2c-7,6-14,11.91-20.75,18.21-9.76,9.16-10.46,22-13.31,34s-1.66,24.69-4.7,36.73c-6.06,24-22,37.34-45.51,43.42-15.68,4.06-31.74,5.89-47.45,9.54a56,56,0,0,0-27.63,16,223.86,223.86,0,0,1-17.43,16.23c-14.79,12.26-32.44,16.81-51.34,16.66-16.06-.13-31.83-2.38-46.82-8.59-10.71-4.44-21.28-9.21-30-17.06-8.27-7.47-17.44-13.87-24.06-23.25-12.75-18-21.14-37.94-21.91-59.78-.58-16.62,2.08-33.45,9.82-48.88,5.57-11.1,9-23.58,7.76-35.35-2.11-20.17,4.8-38.39,7.89-57.45,2.28-14,2.68-28.19-3.5-41.6-3.46-7.51-9.53-10.45-17.59-9-8.45,1.54-16.77,3.83-25.42,4.13-27,.93-44.93-14.14-60.66-33.84-15.39-19.3-18.19-42.2-19.93-65.36-1.28-17.14-1.63-34.36-6.15-51.06a171.31,171.31,0,0,0-10.49-28c-3.57-7.63-7.48-15.87-7.65-23.71-.32-14.31-1-28.84,5.1-43,7-16.13,18.63-27.06,32.55-36.47,15.85-10.72,34.27-14.81,52.23-20A201.17,201.17,0,0,0,311.8,29.36c11.49-5.68,18-15.83,22.16-27.2,5.11-13.89,10.52-27.52,18.55-40,1.95-3,5.24-4.26,7.86-6.38C378-58.6,398.75-63.1,420.87-63.31c8.18-.08,15.58-3.64,21.45-8.41C452.53-80,461.88-89.49,468.71-101Z"/><path class="cls-4" d="M647.75-101c-1.65,4.61.69,9,.7,13.54,0,10.13,2.4,20.19.83,30.36A14,14,0,0,1,641.18-46c-7.48,3.55-12,9.48-14.72,17.25-7.56,21.29-23.53,34.18-43,44.52-19.91,10.58-38.89,22.82-54.71,39.49-8.54,9-19.2,15.66-30.29,21.32-15.06,7.68-24.61,20.17-31,35.29-3.37,8,1.75,17.67,10.18,20,9.59,2.65,19,5.93,29.16,6.46,11.4.58,19.57,9.28,20.82,21,.86,8,2,15.92,5.8,23.09,4.63,8.89,2.51,17.09-.76,25.87-6,16.1-16,28.66-28.09,40.95-13.56,13.83-29.73,23.33-44.92,34.51-9.32,6.86-18.42,14-27.64,21-11.77,8.92-24,17.16-34.8,27.4-8,7.59-12.56,17.09-17.52,26.28a174.18,174.18,0,0,0-16.53,43.58c-2.44,10.58-2.11,21.56-1.3,32.28,1.39,18.43-1.75,36.14-6.2,53.82-1.71,6.84-5.68,13-7,19.71-3.68,18.57-4.64,37.13,8.12,53.26,9.7,12.24,19.76,24.14,33.33,32.48,13.21,8.12,28,9.9,43,11.45,3.37.35,6.74.83,10.08,1.39,9.86,1.67,17.25-4.07,24.79-8.64,14.43-8.73,26.87-20,39.28-31.42,12.81-11.75,26.06-23.16,42.65-29.54,3.71-1.43,7.68-2.15,11.5-3.32,15.7-4.82,28.69-13.4,35.65-28.7,4.22-9.26,5.25-19.6,7.25-29.58,2.38-11.87,3.54-24.07,10.47-34.68,9.68-14.85,21.66-24.83,39.87-29.48,35.36-9,66.16-26.09,83.77-60.49,10-19.45,19.11-39.15,18.48-61.77-.34-12.06-3.57-23.08-10.72-33.06-4.3-6-8.57-12.08-12.53-18.29-3.64-5.73-2.85-12.89-2.2-19.33,1.14-11.26,2.25-22.46,2.67-33.81.35-9.79-3.78-17.29-8.63-24.89-4.5-7-10.62-14.07-6.77-23s8.86-17.25,17.39-23.12c7.75-5.34,14.44-11.89,16.33-22,3.33-17.71,16.88-26.1,31.18-33.87,8.35-4.53,17.88-6.42,25.29-13.2,12.81-11.7,20.78-34.15,14.08-49-5.84-13,0-22.95,8-32.77,6.44-7.94,13.82-15,20.73-22.42,10.75-11.65,16.79-25.58,19.5-41.07h4.81c-3.28,21.17-13.34,38.64-29,53-7,6.41-12.54,14-18.16,21.53-5.18,6.94-3.76,14.68-.9,21.17,8.94,20.26-7,54.77-31.91,62.47-12.32,3.8-22.76,11.52-32.42,20-3.42,3-4.52,7.54-5.28,11.86-2.16,12.19-9.27,21.26-19.06,27.77-7.53,5-10.88,12.57-15.28,19.56a9.9,9.9,0,0,0-.62,8.74c.87,2.22,1.45,4.76,2.93,6.51,15.33,18.18,15.23,39,10.45,60.55-3,13.3.5,24.46,9.2,34.85,13.54,16.19,19,35.4,15,55.93-5.35,27.11-15.29,52.81-34.74,73.18a129.47,129.47,0,0,1-57.4,35.39c-10.87,3.25-22.65,5-32.28,12-17.2,12.57-24.91,30.13-27.14,50.71A146.09,146.09,0,0,1,603.94,500c-6.38,21.48-22.23,33.61-42.77,38.49-15.62,3.71-27.62,12.37-39.34,21.93-12.83,10.47-24.67,22.14-37.44,32.69-8.13,6.72-17.61,11.67-27.05,16.41a21.65,21.65,0,0,1-14.09,2c-11.11-2.53-22.49-2.6-33.69-5-17-3.59-29.78-12.8-41.2-24.85-10.2-10.74-20.49-21.52-24.63-36.33-2-7.08-2.35-14.24-2.17-21.76.47-19.05,11.49-35.15,13.46-53.73,1.22-11.5,2.83-22.85,1.9-34.51a129,129,0,0,1,9.64-60.14c5.8-14.15,12.52-27.64,21.57-39.79,6.92-9.3,16.14-16.68,25.57-23.32,14.86-10.46,28.86-22,43.7-32.49,7.82-5.51,16.49-9.93,23.76-16.05,18.08-15.22,38-29.12,44.62-53.92a3.75,3.75,0,0,1,.41-1.12c7.92-11,4.95-21.89-.41-32.71-2-4.09-1.92-8.56-2.46-12.89-1.82-14.47-7.44-20.17-22-20.69-9.8-.35-18.78-3.81-27.89-6.49-10.54-3.1-14.41-19.86-8.48-30.77,8.17-15,19.45-26.85,34.64-34.63a119.41,119.41,0,0,0,31.92-24.11C543,34.13,557.38,26.33,571,17.23,581.1,10.47,592.49,6,602-2a64.62,64.62,0,0,0,17.78-24.47c4-9.15,7.81-17.86,17.37-22.75,6.91-3.52,8.34-9.86,7.94-17.29-.64-11.57-2.18-23-3.31-34.52Z"/><path class="cls-4" d="M842.41-101c-6.6,15.41-15.37,28.86-28.75,39.78-17.48,14.25-29.48,32-30.4,56.09-.5,13-5.78,25.19-16.17,33.71-13.34,10.93-25.16,23.09-34.89,37.3a39.76,39.76,0,0,0-6.06,12.83c-2.44,9.89-7.24,18.1-15.7,24-10.87,7.62-20.81,16-27.81,27.74-5.5,9.18-3.3,17.28,1.53,25.26,3.82,6.31,10,10.89,13.65,17.41,8.58,15.44,13.65,31.44,7,49.07a133.06,133.06,0,0,1-7.5,17c-4.62,8.47.63,24.82,10.23,29.52,12.13,5.93,14.34,16.7,14.44,28.09.13,14.6-6,27.86-13,40.06-6.5,11.2-16.45,19.85-28.07,26.21-17.56,9.59-36.38,16.28-54.79,23.92C614.24,391.9,602.49,397,593,405.9a106.12,106.12,0,0,0-19.62,23.87,18,18,0,0,0-2.31,11c1.84,22-9.84,36-27.23,46.84C532.39,494.66,522.12,502.64,514,514c-7,9.82-12.32,21.19-22.18,28.89-9.25,7.23-17.87,15.17-28.31,21-13,7.23-26.07,7.79-39.8,3.34a99.27,99.27,0,0,1-33-18.63c-4.63-3.88-9.5-10.68-10.84-18.11-2.26-12.49-.83-24.65,2.81-36.7,3.41-11.27,7.78-22.26,9.67-34,1.22-7.63,1.66-15.39-1.49-22.45-7-15.67-4.77-30.85,2.93-45,7-12.92,13.63-26.3,23.35-37.61,11-12.73,22-25.44,36.54-34.28,9.87-6,20.42-10.92,30.22-17,15.18-9.49,32.19-17.31,41.32-33.74,10.89-19.59,28.32-31.54,46.28-43.24,7.95-5.18,14.16-20,11.92-29.19-1.6-6.55-6.52-11.08-11.88-14.55-8.2-5.31-12.7-12.55-15.61-21.81-3-9.63-3.93-18.47-.16-28.15,3.14-8-.82-14.14-9.29-15.7-5-.91-9-3.38-12.85-6.1-6.16-4.32-7.65-13.49-3.22-21.14,7.32-12.63,18.46-21.29,30.64-28.92,15.84-9.93,33.45-16.12,50.14-24.23,7.11-3.46,14.82-5.77,22.19-8.85,6.09-2.54,11.29-6.05,14.3-11.29,9.94-17.27,24.79-28.33,42.41-36.58,9.42-4.41,14.43-12.56,17.49-22.39,6.16-19.82,16.34-37.26,32.4-50.82,4-3.35,9.76-3.72,13.44-7.71h8.41c-2.38,3.41-6,5.43-9.55,6.88-17.56,7.16-25.62,22.57-34,37.88-4.36,7.92-5.78,16.89-10.07,24.87-5.38,10-14.2,15.86-23.74,20C670.33-5.22,661,5.35,652.84,17.69a37.76,37.76,0,0,1-17.7,14.57c-19.53,8-39.24,15.79-58.06,25.28-14,7.06-27.89,15.05-37.69,28.14-2,2.73-4.26,5.3-5.59,8.49-2.33,5.59-.88,10.66,4.05,14.21a23.83,23.83,0,0,0,10.42,4.33c11.17,1.69,14.72,7.4,12.37,20.27-2.26,12.32-2.55,23.64,3.27,34.84,2,3.81,4.37,7.1,8.25,9.24,6.5,3.58,10.74,9.51,15.22,15.15A8.61,8.61,0,0,1,589,196c2.07,12.41-5.47,28.44-16.25,35.13-13,8-25,17.22-35.23,28.6-4.68,5.2-7.25,11.81-11.42,17.47-7.51,10.21-18.12,16.13-28.06,23.08-12.64,8.84-27,14.81-39.94,23-12.37,7.85-22.47,18.2-32.23,29.26-11,12.48-18.92,26.66-27.13,40.75-7.89,13.53-9.28,27.75-3.07,42.57,5.47,13.05,1.7,26-1.67,38.75-1.78,6.75-4.57,13.24-6.45,20-3,10.61-4.84,21.25-2.78,32.47,2,10.91,9.34,17.76,17.48,23.23,9.19,6.17,19,11.58,30.28,14,8.17,1.78,15.88,1.13,22.77-2.23C474.66,552.67,491.32,540,503,521c8.85-14.49,20.26-27.11,35.58-35.67,5.87-3.29,11.1-7.86,16.25-12.28,8.5-7.29,12.12-17.11,11.09-27.93-1.15-11.95,4.39-20.68,11.23-29.27,12.71-16,29.29-25.89,48.21-33.14,18.62-7.14,37.16-14.92,54.67-24.39,11.61-6.29,21.83-15.6,27.4-28.51,3.64-8.42,8.1-16.52,9.31-25.85a51.11,51.11,0,0,0-1.6-20.19,14.92,14.92,0,0,0-7.65-9.51c-15-8.35-20-25.31-12.2-40.76,4.85-9.54,8.85-19.21,7.61-30.32-1.52-13.65-5.86-25.85-15.62-36-7.59-7.92-13.6-16.8-12.31-28.8a26.65,26.65,0,0,1,4.43-11.58c7.62-12.15,19-20.33,30-29,6.37-5.08,10-11.29,12-19.28C724.15,67.37,732,59,738.74,50.07c6.34-8.4,14.09-15.16,22-21.92,11.16-9.6,17.13-21.54,17.94-36.48,1-19.24,9.47-35.39,23.59-48.28,11.22-10.24,22.88-19.92,30.09-33.71,1.85-3.54,3.93-6.94,5.28-10.71Z"/><path class="cls-4" d="M561.23-101c-6.36,2.77-12.77,5.3-19,8.52-12.59,6.5-20.9,16.48-27,28.77-9.49,19.1-23.69,32.67-45.17,36.64-14.52,2.68-28.94,6.2-43.8,6.89-5.77.27-11.6.48-17.32.59-11,.21-19.39,5.84-27.91,11.05-5.72,3.51-7.61,10.63-10.2,16.6-2.27,5.27-3.34,11.06-4.92,16.63-5.92,20.87-18,35.46-39.92,41.1-12.84,3.29-26,4-38.89,6.48C272,75.11,257.78,80.42,246,90.43c-16.21,13.71-19,32.44-18.17,52.27.27,6.41,3.3,11.67,5.9,17.32,6.12,13.33,9.36,27.55,10.67,42.21,1.4,15.72,2,31.63,4.9,47.09,2.79,14.81,9.51,28.59,15.32,42.59,4.34,10.46,12.36,14.28,21.41,18.2,6,2.6,10.75.47,15.73-2.38,8.09-4.64,13.83-12.05,21.11-17.64,11.4-8.77,24.66-13,38.59-15.12,13.54-2,27,1.48,40.54,1.62,8.67.09,17.21-.26,25-4.53,10-5.44,19.86-10.79,29.28-17.35,8.16-5.66,16.92-10.42,23.89-17.67,13-13.53,22.43-29,21.76-48.36-.34-9.84-2.18-20.35-13.21-25-4.19-1.77-8.85-2.41-13.17-3.89-14.7-5-27.7-12.89-36.77-25.66-10.49-14.76-11.55-30.37-.82-45.7a132.77,132.77,0,0,1,19.14-22.08c8.56-7.82,19.06-12.35,28.5-18.62S504,34.61,511.86,26.24c14.2-15,29.89-28.11,50-35C572.4-12.33,578-21.62,582.66-31c3.73-7.5,6.77-15.26,11.39-22.39,8-12.36,6-25.58,1.27-38.52-1.65-4.52-6.63-6.15-10.05-9.13h9.61c6.51,6,7.62,14,8.73,22.27,1.7,12.66-.76,23.53-9.19,33.43-3.09,3.64-4.26,8.95-6.18,13.54-6,14.27-15.2,25.17-30.53,30C550,.58,543.61,5.32,537,9.89c-13.48,9.3-23.15,22.61-35.79,32.66-9.82,7.81-20.8,14-31.72,20.28-8.38,4.8-15,11.82-21.09,19.26-2.88,3.54-4.95,7.73-7.6,11.47-9,12.69-4.49,34.75,8.54,45.51,10.2,8.44,21.31,15.11,34.11,17.75,16.17,3.33,21.63,13.7,23.54,31.25,1.65,15.27-5.15,29-14.06,41-16.18,21.77-39.34,34.43-63,46.44-12.84,6.52-26.05,6.5-39.67,4.79-24.94-3.15-48.81-.89-68.46,16.63-6.27,5.58-12.6,10.9-19.35,15.84A18.18,18.18,0,0,1,289,315.7c-12.66-1.85-24.51-6.85-29.12-19.88-6.11-17.24-15.25-33.64-16.78-52.28-1.08-13.15-2.34-26.27-3.58-39.39-1.43-15.07-4.23-29.8-11.2-43.18-7.51-14.42-6-29.07-3-43.83,4.11-20.47,16.18-33.69,35.83-41.85,16.61-6.9,33.81-9.33,51.12-11.4,20.44-2.44,36-11.14,45.69-29.54,2.83-5.37,3.39-11.4,4.76-17.19,2.47-10.47,6.67-20.64,13.75-28.26a39.31,39.31,0,0,1,27-12.27c23.28-1.23,46.27-4.77,69.13-9.22,9.76-1.91,17.33-7.3,24.58-14,9.1-8.42,13.36-19.63,19.67-29.68A56.31,56.31,0,0,1,540.17-97a30.3,30.3,0,0,0,6.64-4Z"/><path class="cls-4" d="M733.06,860.24c.67-7.63,5-14.11,6.55-21.57,3.49-16.59,8-32.95,11.93-49.45,2.41-10.1-.38-19.51-5.31-28.18-4.45-7.82-21.92-11-28.94-6.67-10.32,6.32-21.55,9.24-33.7,4.62-4.64-1.77-9.6-2.67-14.36-4.16a26.69,26.69,0,0,1-11.33-6.58c-13.6-14-22.43-30.09-17.47-50.18,5.42-21.93,13.53-32.44,40.28-34,1.19-.07,2.53.19,3.57-.24,7.85-3.26,16-2.33,24.19-2.28,7.22,0,15.45,1.24,18.38-8.47,16.83-8.47,18.61-27.93,29.61-40.7,3.09-3.59,4.84-8.3,7.62-12.19C774.85,585.1,780.86,567.93,784,550c2.78-15.71,3.32-31.4-6.16-46.1C770.7,492.77,761,489.33,748.78,495c-10.51,4.88-19.42,12.62-30.52,16.35-25,8.43-42.55,26.43-57.69,46.83-6,8.08-7.92,18.76-14.11,27-4,5.26-7.6,10.77-11.84,15.78-2.84,3.37-6.86,5.39-11.06,7-13.44,5-27.55,5.82-41.62,7.16-14.26,1.36-28.74,2.06-41.54,9.82-7.11,4.31-12.9,10.09-18,16.46-11.77,14.66-25.88,25.06-45,28.26-6.09,1-12.21.79-18.25,2a100.87,100.87,0,0,0-11,2.83c-15.72,5-20.8,17.56-22.59,32.07-1.59,12.9-3.54,25.76-7,38.23-4.39,15.92-14.17,28.46-27.4,38.29-3.36,2.5-6.75,4.94-10,7.62a44.16,44.16,0,0,1-15.6,8.67c-32.28,9.67-54.21,31.16-68.76,60.91h-6c-.46-2.67,4.74-4.68.94-7.81-.13-.11.34-1.33.48-1.32,5.73.33,6.23-5,8.26-8.12,15.41-23.77,36.36-39.92,63.6-48.11,9.54-2.87,17-9.64,24.51-15.9,3.8-3.16,7.86-6,11.27-9.82,13.46-15,16.75-33.64,19.19-52.5,1.47-11.33,2.8-22.48,8.59-32.69a22.66,22.66,0,0,1,8.65-8.85c9-5.09,18.34-8.46,28.91-8.84,22.75-.82,40.32-10.71,54.39-29.1,10.11-13.21,23.63-22.64,41.54-24.78,16.23-1.94,32.56-2.81,48.77-5.36,15.43-2.42,24.06-12.18,31.78-23.89a105.17,105.17,0,0,0,9.52-18.6c4.44-10.93,12.3-19.74,20.64-27.75,12.19-11.73,24.37-23.53,41.17-29.2,9.81-3.31,18.86-8.75,27.69-14.32a40.73,40.73,0,0,1,13.85-5.58c13.56-2.67,23,4.05,30.37,18.55,10.51,20.6,5.48,40.77.23,61.07-5.7,22.07-19.27,40.09-31.17,59-5,7.89-8.81,16.46-14.24,24.13-8.89,12.54-20.51,17.79-36,16.4-14.59-1.31-28.82,1.83-42.39,7.22-7.5,3-11,10-13.44,16.88-7.63,21.23-2.12,37.51,13.29,53.28a19.75,19.75,0,0,0,8.74,5.12c7.49,2.12,15,4.42,22.6,5.89,7.85,1.52,15.07-1.8,21.69-5.35,15-8,33.51-.71,39.73,15.31,3.75,9.65,4,18.9,1.69,28.69-5.18,22.35-9.56,44.9-17.88,66.39Z"/><path class="cls-4" d="M.09,402.44c10.35.25,20,3.27,29.35,7.45,13.34,6,26.11,3.41,37.6-4.08,10.33-6.74,22.78-8.32,33.13-2,12.87,7.92,25.84,15.66,39.09,23,9.05,5,18.73,5.91,28.39,6.2,13.58.42,27-1.11,39.63-7.3,10.68-5.24,21.95-8.78,34.19-5.61,17.4,4.49,27,19.12,24.78,36.84-1.05,8.53-4.71,16-7.67,23.77-7.2,18.84-10.27,38-5.92,57.94.81,3.73,1.79,7.49,4.07,10.58,9.18,12.49,11.79,25.88,6.13,40.61a19,19,0,0,0-.93,5.28c-1.69,21.85,5.21,30.3,27.09,34.44,8.59,1.62,17.69,3.33,23.45,10.87,11.12,14.54,14.16,25.68,4.27,42.29-3.92,6.57-2.55,14.82,3.91,19.32,9.5,6.62,11,13.74,7.67,24.78-4.48,14.75-16.86,22.37-27.06,31.84A127.86,127.86,0,0,0,279.79,784c-7.69,12.12-15.16,24.74-26.93,33.65-13,9.83-27.82,13.84-43.9,11.61a27.11,27.11,0,0,1-15.7-8.21c-13.61-14.83-31.16-19.24-50.13-20.62-16-1.16-30.9,1.32-45.54,8.73C82.06,817,68.2,827.33,53.26,836a17.27,17.27,0,0,1-8.94,2.85c-3.2,0-6.45-.38-9.6,0-13.43,1.8-21.27-6.12-27.87-16-2.74-4.08-5.65-8.2-6.76-13.17V768.92c4.82-10.4,3.62-21.3,2.54-32.16-.19-1.92-.36-4.06-2.54-5.09V718.46a30.07,30.07,0,0,1,8.48,19.78c.57,10.37,0,20.69-2.92,30.88-4.07,14.21-1.62,28.7.64,42.78,2,12.58,15.17,20.83,27.89,22C46.55,835,56.07,830,64.69,822.63c6.08-5.18,13.43-8.17,20-12.24,11.49-7.11,23.88-12.86,38.24-14.43,13.45-1.47,26.36-.09,39.29,1.91,12.11,1.87,22.15,8.9,31.2,17,10.62,9.45,22.34,11.58,36.19,8.42,21.28-4.85,32.36-20.77,43-37.28,7.85-12.14,15.89-23.91,27.67-32.76a130.26,130.26,0,0,0,14.95-13.84c6.62-6.85,10.76-14.78,9-24.79a11.39,11.39,0,0,0-5.18-7.71c-10.42-7.18-12.4-17-5.76-27.9a28.17,28.17,0,0,0-16.8-41.91c-9.48-2.49-18.83-5.06-27.37-10.26C259,620.55,254.36,612.67,256,600.94a193.37,193.37,0,0,1,4.58-22.88c1.22-4.59.55-8.38-1.1-12.67-3.89-10.17-11.28-18.69-12.61-30.15a118,118,0,0,1,7.61-57.62c3.8-9.76,9.12-19.3,7.51-30.43-.73-5.05-.83-10.36-7.43-12.15-2-.53-2.58-3.68-4.58-5.15-8.8-6.44-18.32-7.33-28.51-4.32-8,2.37-15.25,6.73-23.45,8.91-27.62,7.33-53.19,4.18-77-12.34a196.94,196.94,0,0,0-26.55-14.95c-8.78-4.25-17-2.44-25.26,3.15-13,8.78-27.38,10.67-42.1,4.06a94.76,94.76,0,0,0-27-7.16Z"/><path class="cls-4" d="M1442,347.16c-11-11.14-24.44-9.27-37.62-6.38a88.42,88.42,0,0,1-55.12-5c-12.93-5.56-26-6.4-39.28-3.73-5.69,1.15-9.62,6.68-12.42,12.18-4.78,9.41-8.33,19.61-16.59,26.87-10.22,9-20.87,16.78-34,21.78-11.22,4.28-22.78,7-34,10.86s-19.28,11.89-25.18,22a72.91,72.91,0,0,0-9.69,26.66c-2.72,18.38-13.26,32.84-26.35,45.84-11.2,11.14-15.77,25.05-11.11,40.65,5,16.6,18.06,24.29,33.83,27.9,9.53,2.18,19.47,1.17,29.17,2.08,21.7,2,39.11,10.46,51.58,29.9,13,20.28,17.19,42.69,21,65.49,1.46,8.79,6,15.16,11.07,22.31,10.4,14.68,25.71,19.27,41.18,22.49,9,1.88,19.38,0,28.43-4.6,6.9-3.52,13.89-7,21.66-8.32,16.88-2.92,29.23,3.77,38.35,19.15a174,174,0,0,1,13.8,29.17c6.63,18.18,8.55,35.83-1.8,53.63a74.74,74.74,0,0,0-9.16,23.33c-2.53,13.24-.53,26.14,3.09,38.9H1418c-8.2-22.47-5.44-44,6-64.58,5.57-10.09,9.06-20.9,6.72-32.19-2.75-13.26-6.91-26.23-13.83-38.14-3.93-6.75-7.72-13.24-14.13-18.29-10.27-8.11-21.09-8.07-32.08-3.28-6,2.61-12.26,4.63-17.88,8.33-3.09,2-7.3,2.55-11.54,2.07-7-.79-14,1.59-21.28-.88-12.62-4.32-23.72-10.29-33.73-19.55-11.06-10.23-14.87-22.3-16.61-36.49-1.49-12-4-24.25-8.32-35.51-4.75-12.4-11.12-24.87-21.09-33.77a58.09,58.09,0,0,0-36.06-14.57c-9.78-.49-19.68.48-29.34-1.43-19.51-3.84-39-17.31-40.82-39-1.25-15.37,4.38-28.46,14.89-39.7,5.83-6.24,13.42-11.4,16.5-19.55,3.48-9.22,8.34-18.05,8.65-28.41.22-7.13,4.51-13.24,7.83-19.25,3.72-6.72,8.9-12.58,14.44-18.14,9.29-9.31,21.69-10.52,33.19-14.1,18.89-5.87,36.86-13.22,50.28-28.67a62.81,62.81,0,0,0,9.29-14.61c2.38-5.05,4.32-10.34,8.28-14.5,11.18-11.75,30.88-14.87,48.8-6.85a100.87,100.87,0,0,0,40.61,9c9.44.1,18.51-2.9,27.82-4,10-1.16,19.59-.41,27.47,7Z"/><path class="cls-4" d="M1390.33,860.24a127.36,127.36,0,0,1-1.37-45.19,22.86,22.86,0,0,1,1.48-6.37c3.85-8.24,5.41-17.09,7.37-25.85,2-9.09-.49-16.74-6.12-24-9.74-12.53-23.08-17.57-38.14-18.35a236.75,236.75,0,0,0-45.43,1.63c-13.4,1.89-26.41-2.85-37.38-10.48-9.93-6.91-19.11-15.24-23.45-27.33-2.44-6.82-1.17-14.15-3.36-21.14-2.43-7.74-3.52-15.89-4.33-24.1-2.15-21.69-22.67-39.34-43.94-44.34-14.82-3.48-29.81-6.8-44.62-10.53-21.59-5.43-35.44-19.05-43.32-38.62-9.45-23.49-28.14-34-50.75-40.43-9.54-2.7-18.43-3.82-27.53,2-11.7,7.49-19.36,17.48-23.3,30.76-3.25,10.92-2.31,21.25.43,32.31a106,106,0,0,1-.2,52.24c-2.77,10.82-5.74,21.6-9.09,32.25-3.5,11.15-1,21.3,4.33,31,5.56,10.13,14.06,17,24.41,22.08,7.26,3.61,11.6,10.7,16.21,17.18a104.9,104.9,0,0,1,19,48.53c1.8,14.72,1.07,29.37-3.68,43.73-2.63,7.94-4.63,16-9.62,23h-4.81c9.89-18.08,14.91-37.46,14.06-58-.76-18.3-6.05-35.34-16.86-50.44-2.9-4-5.46-8.33-8.5-12.32-6.06-8-16-10.28-23.15-16.73-9.62-8.67-16.11-19.67-18.13-31.57-1.4-8.31,1-18.15,4.34-26.73,8.59-21.83,11.81-44.27,8.33-67.55a20.9,20.9,0,0,0-1-4.08c-8-21.85-2.32-41.3,11.39-58.68,6.21-7.86,15-13.1,24.84-16.05,3.28-1,6.29.26,9.44.57,17.46,1.72,32.38,9.78,46.63,19.08,6.64,4.33,10.29,11.6,13.85,18.58,5,9.79,9.51,19.7,16.92,28.17,10.39,11.87,24.44,15.27,38.69,18.43,14.78,3.27,29.73,5.79,44,11.16,23.47,8.82,34.13,26.84,37.19,50.61,1.73,13.48,3.68,27,8.43,39.77,5.11,13.75,16.15,22.12,28.94,27.87,10.93,4.91,22.49,5.22,34.58,3.49,19.07-2.74,38.35-2.19,56.93,3.61,16.44,5.12,27.38,15.8,29.44,33.74,1.11,9.61-1.57,18.76-5,27.46-5.22,13.32-7.38,26.92-5.43,41,.85,6.22,4.07,12.09,3.29,18.65Z"/><path class="cls-4" d="M.09,287.08c14.53-2.83,26.63-11.54,40.23-16.66,19.36-7.29,37.35-3.92,54.12,6.9,7.86,5.08,14.76,11.64,22.16,17.44A99.23,99.23,0,0,0,137.83,307c6.85,3,13.4,1.15,19.92-.13,3.46-.68,4.37-4.35,4.37-7.74,0-5.68-1.69-11.05-3.21-16.42-1.94-6.87-2.54-13.78-.68-20.7,4.39-16.37,1.53-31.09-7.39-45.68-9.33-15.27-16.47-31.88-25.18-47.52-8.43-15.14-11.08-31.37-13.82-47.85-.92-5.55,1.46-10.65,2.37-15.93A119.61,119.61,0,0,1,124.61,74c4.74-9.94,12.73-17.3,20.11-25.1,11.92-12.61,26.85-21.34,41.63-29.84,12.9-7.42,26.89-13,40.85-18.39,9.11-3.52,18.23-7.09,26.68-12.13,15.1-9,25-21.18,25-39.71,0-3.89-1.35-7.45-2.22-11.12-.8-3.39-3.71-4-6.63-3.89-6.63.31-13.05,1.47-19.08,4.52a288.11,288.11,0,0,1-50.25,19.18C176-35.35,150.5-33.34,124.9-31.87c-8.4.49-17-2.73-25.22,1.18-19.93-5.5-40.74-6.25-60.74-11.63A121.37,121.37,0,0,1,.09-60.18v-6c7.28,4.93,14.35,10.36,22.7,13.34C39-47,55.62-43.62,72.72-41.43c9,1.16,18,3.28,27.24,4,22.07,1.85,43.92-.7,65.76-3.12,27.28-3,52.81-12.26,77.61-23.52a98.82,98.82,0,0,1,23.9-7.53c7.8-1.38,12.46,2.35,14.62,9.88,2,6.94,3.26,13.82.9,20.57-4,11.58-8.56,22.53-20,29.82C250-3.18,236.23,2.28,222.43,7.88c-25.82,10.49-50.55,23-71.6,41.55-17.45,15.39-27.9,34.72-32,57.93C115,129.42,120.76,149,130.93,168,137,179.39,142.74,191,148.7,202.54c2.29,4.43,4.39,9.05,7.27,13.09,9.45,13.26,11.44,28,8.21,43.35-1.89,9.06-2.54,17.68.73,26.5a37.38,37.38,0,0,1,2.33,14.13c-.29,9.51-6.45,14.2-15.91,14.32-15.24.19-27.14-6.74-38.62-15.5-8.57-6.54-16-14.71-25.73-19.56-15.26-7.59-30.56-9.81-47.2-2.53-12.31,5.38-23.72,13.2-37.34,15.45a18.24,18.24,0,0,1-2.35.1Z"/><path class="cls-4" d="M262,860.24c12-12,18.47-27,23.52-43,5.84-18.63,17.79-33,36.3-40.63,11.88-4.86,23.74-9.71,36.18-13.41,7.48-2.23,16.46-5.78,21.06-14.58,4.18-8,7.86-15.66,9.22-24.93,2.24-15.34-1.61-29.28-6.05-43.44-3.67-11.7-11.74-20.11-19.9-28.68C354,642.7,346,633.61,336.65,625.68c-5.77-4.92-12.56-8.46-17.71-14.24-5.89-6.59-11.49-13.28-15.06-21.44-6.79-15.51-14.52-30.53-18.61-47.23-4-16.22-3.74-32.21-2.5-48.59,1.61-21.11,8.13-41,13.2-61.29,2.2-8.81,2.87-17.72-.11-27.09-7-22.08-32.8-28.09-53.52-27-13.37.7-24.45,8.26-37.12,10.77s-24.54,7.87-38,7.3c-30.45-1.27-54.14-15.65-75.55-35.87-7.81-7.37-15.54-15.6-27.09-17.72a31.06,31.06,0,0,0-10.09-.07c-18.38,2.52-36.23,7.62-54.4,11.18v-4.8c13.92-3.54,28-6.44,42-9.32,11.56-2.37,23.08-5,33.74,1.76a146.36,146.36,0,0,1,21.22,16.52c15.66,14.52,32,27.94,54.24,31,13.63,1.88,27.3,4.54,40.66-1.8,3-1.42,6.5-1.88,9.83-2.34,10.42-1.44,19.21-7.61,29.34-9.88,19.37-4.33,37.75-2.42,54.81,8.27,10.78,6.75,18.7,26.79,16.75,39.58-2.75,18-9.74,35-12.85,52.84-4.6,26.4-6.31,53,4.12,78.42,6.79,16.53,12,34.07,23.91,48.1a88.65,88.65,0,0,0,15,13.61c9.46,7,18.52,14.72,26,23.79a135.31,135.31,0,0,0,12.91,14c10.4,9.5,14.37,22,18.42,34.4,6.95,21.3,5.28,42.22-5.82,61.91-5.87,10.4-15.95,15.79-26.94,18.49a174.29,174.29,0,0,0-40.08,15.54c-14.38,7.64-23.71,21-27.76,36.83-3.8,14.77-11.09,27.27-20.33,39Z"/><path class="cls-4" d="M1195.67-101c-1,13.88-.89,27.78-6.89,41-5.29,11.66-14.61,20.23-25.32,23.41-18.53,5.5-38.14,8.69-57.74,3.71-10.28-2.61-19.39.16-27.9,5.61-7.13,4.57-9.3,15.75-4.22,25,6.15,11.18,14.27,20.8,26.52,25.79,18,7.36,33.35,18.62,47.12,32.18,5.09,5,8.65,11.34,11.27,17.57,4.81,11.45,11.34,22,15.94,33.52,4.91,12.26,12.35,23.31,23.11,30.73,13.68,9.45,29.27,11.05,45.1,4.89,3.7-1.44,5.58-4.75,7.1-8.46,7.36-17.91,20.93-29,39.58-33,9.15-2,18.06,1.93,24.9,8,23.82,21.09,28.74,48.25,24.7,78.44-1.85,13.83-9,24.87-15.81,36.28-7.27,12.1-8.18,24.9-2.86,37.87,8.43,20.54,25.1,31.55,45.12,39.05,9.62,3.61,19,3.88,28.72,1.84,6.25-1.32,11.13-5.44,16.41-8.49,10.25-5.91,20.44-7.48,31.48-3.23v6c-13.61-7-25.29-1.19-36.27,6.13-12.77,8.52-26.11,7.67-39.62,3.49-14-4.35-27-11.22-37-22.17-11.2-12.26-18.51-26.35-17-43.83.92-10.84,6.54-19.53,12.06-28.27,10.43-16.52,13-34.63,9.92-53.4-2-12.52-4.47-25.27-13-35.63-6-7.2-12.47-13.56-21.86-15.92-12.19-3.07-21.81,2.45-30.56,9.88-6.9,5.86-12.71,12.51-15,21.82-1.23,5-5.83,7.74-10.48,9.12-23,6.88-46.92,2.1-62.22-19.44-6.2-8.73-10.34-18.33-15-27.86-8.53-17.65-14.66-37-31.1-49.7-7.54-5.82-14.53-12.25-23.65-16.08-16.71-7-32.3-16.06-41.27-32.82-5.86-10.92-8.27-26,7.26-34.88,8.69-4.94,17.76-7.47,27.61-5.24,20.51,4.63,40.68,2.57,59.91-4.81a35.88,35.88,0,0,0,19.79-19.21A69.73,69.73,0,0,0,1190-89.74c0-3.83,1-7.5.86-11.29Z"/><path class="cls-4" d="M1442-38.55c-13.56,3.37-26.46,9.15-40.33,11.37-10.18,1.64-20.59,1.9-30.24-1.7-11.72-4.36-22.84-.24-34.16.7-17.54,1.47-32,11.25-46.26,20-17.48,10.69-36.15,13.36-55.74,12.75C1215,4,1195.56-1.5,1176-6.28c-12.09-2.95-24.72-4.9-37.27-.84-8.91,2.89-10.87,9.05-5.08,16.3A43.07,43.07,0,0,0,1149,21.33c12.49,5.91,22.67,14.79,31.86,24.85,7.49,8.2,11.84,18.45,16.33,28.35,8.71,19.17,24.9,22.28,42.87,14.58a73.21,73.21,0,0,0,14.11-7.8A77.83,77.83,0,0,1,1293,66.55c9.59-.85,19.36.09,28.48,5.1,7.67,4.22,16.2,7,22.88,12.87,15.37,13.38,25.64,29.88,29.33,50.15,1.14,6.26,2.58,12.45,3.07,18.85a28.9,28.9,0,0,1-3.65,17.3c-3.57,6-6,12.62-9.25,18.7-5.17,9.56-8.22,19.69-11,30-3.31,12.31-.17,23.15,7.89,32.35,7.24,8.26,17.81,8.79,27.31,6.88,18-3.62,35.64-8.16,54-3v6c-15.17-6.1-30.35-3.53-45.29.59a52.22,52.22,0,0,1-30.66-.78c-7-2.25-11.38-7.89-14.85-14.07-6.15-11-5.64-22.29-2.3-34.15,4.41-15.66,11.86-29.85,19.49-44a28.51,28.51,0,0,0,3-20.24c-1.6-7.41-1.93-15.25-4.53-22.26-6.51-17.55-15.46-33.81-32.73-43.16-14.2-7.7-28.64-16-45.83-11.5-11.18,2.93-22.29,6.55-31.75,13.56-12.26,9.1-25.79,13.55-41,11.37-11-1.57-17.27-9.57-22-18.58-4.54-8.61-8.15-17.79-13.88-25.69-7.09-9.79-16.31-17.53-26.67-23.73-8.86-5.31-18.2-9.41-24.67-18.42-7.32-10.19.08-21.15,8.81-22.77,15.43-2.85,30.58-1.62,45.65,2.53,26.14,7.2,52.56,12.22,79.83,7.85A57.68,57.68,0,0,0,1285-9.79c9.43-6.11,19.81-10.36,29.58-15.79,13.33-7.4,28.46-9.43,43.31-10.3,8.28-.49,16.74,3.23,25.2,4.48,9.56,1.4,19,.16,28.31-2.48,10.15-2.89,19.89-7.3,30.56-8.27Z"/><path class="cls-4" d="M1116.37,860.24c6.92-9.41,16.45-15.56,26.68-20.58a134.06,134.06,0,0,1,58.84-14.13c9,0,15.95-4.39,22.19-10.38,3.45-3.32,6.92-6.67,10.65-9.67,20.44-16.43,21.34-37.23,7.5-57.3-14.84-21.49-25.55-44.55-31.27-70-4.43-19.68-18.15-30.92-35.71-38.09-15.55-6.34-32.15-9.46-48.1-14.64-16.42-5.33-30.2-14.49-40.5-28.23-3.37-4.48-4.52-10.64-5.27-16.37-2.28-17.6-14.16-23-27-25.39-11.12-2.1-19.85,7.62-17.92,19.24a51.34,51.34,0,0,0,3.52,12.67c7.6,16.79,4.83,33.59.6,50.43-2.85,11.34-9,21.86-8.27,34.13.27,4.93.76,9.95,3.94,13.57,5.67,6.46,9.71,14.09,15.82,20.23,11.84,11.9,23.52,24.06,29,40.51a203.84,203.84,0,0,1,9.55,41.77c2.21,19.37-1.82,37.23-10.16,54.34-3,6.25-7.27,11.93-11,17.87h-4.81c1.72-3.34,3.11-6.9,5.21-10,11.24-16.48,17.12-34.26,16.26-54.56a144.33,144.33,0,0,0-16.42-61.33c-4.17-8-10.82-14.24-17.76-20.16-2.17-1.86-3.82-5-5.89-7.45-5.34-6.35-10.91-12.69-15-19.82-6.81-11.71-4.2-24.13.22-35.92,5.29-14.14,9-28.43,8.72-43.64a37.58,37.58,0,0,0-2.93-13.33c-3.13-7.82-5.37-15.78-5.31-24.4.1-12.21,12.2-22.16,24-19.36,14.5,3.42,25.62,10.25,30.17,25.8,1.57,5.4,4,10.73,5.76,16.21,1.78,5.67,5.28,10.43,10.2,12.87,9.74,4.85,17.5,13.09,28.41,15.89,11.34,2.92,22.23,7.41,33.77,9.67,19,3.71,33.59,14.42,45.4,29.12,6.09,7.59,6,17.6,8.73,26.51,4.33,14.12,8,28.76,16.73,40.86a273.84,273.84,0,0,1,14.66,23.51c8.39,14.5,9.42,29.39,1.2,44.45-4.26,7.79-11.79,12.4-17.81,18.48-2.66,2.69-5.54,5.17-8.26,7.8-9,8.72-20.6,9.24-31.93,9.79-19,.92-36.57,6.86-53,15.5-6.23,3.27-12.69,7.59-17.38,13.5Z"/><path class="cls-4" d="M.09,319.53a74.4,74.4,0,0,0,31.66-11.26c18.14-11.53,38.55-15,58.54.52,7.13,5.54,12,12.73,18,19.13,13,14,28.15,23.87,47.94,25.28,8.4.6,16.65,1.49,25.06-.13,18.84-3.63,21.69-15.52,15.93-32.45-4.41-13-11.74-24.91-13-39-1-11.6,0-23.19-.59-34.79-.86-17.86-3.82-35-10.53-51.83-5.79-14.52-14.59-27.47-19.75-42.26a173.62,173.62,0,0,1-9.19-38.95C142.89,101.13,148.86,90,155,79.43A94.76,94.76,0,0,1,186.3,47c10.8-6.84,22.45-11.93,34.51-16.36,10.2-3.74,21.16-4,31.13-8.31,12.63-5.48,25.63-10.2,38-16.25,9.63-4.72,13.2-14.66,16.52-24.14C310.62-30,315-41.69,323-51.74c5-6.26,8.95-13.15,12.9-20.11,2.92-5.14,3.3-10.64,4.07-16.11.55-3.9-1.71-6.83-5.1-8.82-2-1.18-4.58-1.66-5.51-4.25h9.61c9.05,8.82,7,19,2.75,28.81-4.47,10.29-11.19,19.42-18,28.29-5.49,7.17-7.83,15.58-11,23.65-3.83,9.65-7,19.51-15,26.92-4.9,4.54-10.95,6.5-16.84,8.87-12.74,5.16-25,11.73-38.41,14.88a222.5,222.5,0,0,0-28.1,8.13c-21.32,8.1-39.7,20.1-52.42,39.95-4.72,7.36-8,15.14-11.19,23.07-3.82,9.55-.25,19,1.6,28.3,3.49,17.55,11,33.57,19.38,49.4a141,141,0,0,1,15.87,49.88c1.64,14.34,1.59,28.73,1.38,43.14-.2,13.7,3.88,26.27,9.94,38.46,3.88,7.81,7.31,15.73,6,25.19-1.61,11.81-7.48,18.42-19,21.37-11.79,3-23.41,2.61-35.07.48A77.92,77.92,0,0,1,103,329.57c-6.2-7.63-12.77-14.63-21.19-20.14-8.81-5.78-18.23-6.61-27.58-4.7C46,306.42,37.81,309.36,30.87,315,22,322.27,11.13,323.8.09,324.33Z"/><path class="cls-4" d="M1442,476.94c-5.84-7.48-7.94-16.46-9.51-25.43-1.86-10.59-2.76-21.24-6.85-31.48-2.78-6.95-.5-14.66,1.44-21.83,3.24-12-4.76-25.3-17.15-28-10.46-2.3-21.16-1.61-31.7-1.43-12.56.22-24-4.21-35.45-7.73-8-2.44-14-1.26-20.06,3.27a53.22,53.22,0,0,0-16,19.94c-5.83,12.16-14.89,21.39-24.91,30.23-7.94,7-17.13,9.66-26.78,12.4s-19.83,5-26.1,14.49a37,37,0,0,0-5.39,13.8c-1.6,8.48-3.75,16.75-7.67,24.46-4.65,9.16-4.43,18.74-3.38,28.61,1.32,12.35,8.42,19.87,19.62,23.14,10.47,3.06,18.49,10.07,27.68,15.14,23.2,12.81,33,35,39.47,59,4.69,17.22,11.84,32.6,26,44.1,6.18,5,13.16,8.45,21,9.38s15.55-.55,23.25-.24c12.87.51,25.57,1.73,37.68,7.77,14.51,7.23,23.79,18.91,32.07,32a26.11,26.11,0,0,0,2.73,3.15V710c-5.49-5.69-8.82-13.18-15.72-17.82-2.38-1.6-1.23-5.88-4.06-8.68-14-13.9-31.18-19.39-50.31-20.16a82.53,82.53,0,0,0-13.8.25c-27.62,3.61-49.06-18.3-56.91-38.24-3.3-8.36-6.68-16.82-8.65-25.54-2.86-12.69-10-23-16.56-33.7a28,28,0,0,0-13.36-11.63c-3.24-1.31-5-4.27-8-5.91-9.58-5.17-18.57-11.16-29-15-12.29-4.56-17.12-15.49-18.06-28.06-.83-11.05-.7-21.9,5.48-31.9a38.83,38.83,0,0,0,5.16-16.51c1.94-18.49,12.42-28.92,30.11-33.43,10.53-2.68,21.28-4.59,30.14-12.33,10.68-9.32,20.17-19.28,26.2-32.24,4.25-9.13,11-15.86,19.47-21.28a19.52,19.52,0,0,1,17.83-1.86c16.3,5.91,32.9,9,50.26,8.22a96.23,96.23,0,0,1,15,.94c12.69,1.39,20,9.9,25.89,20.11,1.77,3.09,1.12,6.7.13,10-3.34,11.13-4.74,21.94.36,33.23,4,8.75,2.18,19,5.24,28.12,1.06,3.19,2.16,6.37,3.24,9.55Z"/><path class="cls-4" d="M686.2,860.24c4.59-9.27,9.79-18.1,12.28-28.48,2.3-9.61-.06-18.2-2.59-26.87-1.3-4.48-6.16-5.91-10.55-7-9.91-2.43-20.06-3.4-30.15-4.51-19-2.08-29.37-14.18-38.52-29.65-9.81-16.62-10.61-34.43-11.14-52.57-.17-5.82,2.27-11.27,4.67-16.56.82-1.82,1.79-3.58,2.44-5.46,5.61-16.15-.45-26-17.33-29.51-8.11-1.7-15.94-2.56-24.23-1.32-8.88,1.32-16.45,5.34-21.39,12.07-10.05,13.67-23.05,20-39.7,20.83-7.18.35-13.81,3.95-20.08,7.3-11.58,6.19-16.47,20.41-12.26,32.7,2.77,8.09,6.48,16.25,4.86,25C479.77,771.07,472,783,459,790.84c-8.37,5-17.09,9.46-26.63,12.13a289.75,289.75,0,0,0-40.55,14.29c-4.6,2.06-9.6,2.73-13.86,5.17a176.79,176.79,0,0,0-15,10c-4.72,3.38-9.31,6.93-13.82,10.59a41.51,41.51,0,0,0-12.6,17.24h-4.81c2.86-12.67,12.37-20.14,21.79-27.58,17-13.44,36.7-21.38,57.19-27.9,14.77-4.7,29.83-8.61,43.63-16.29,9.06-5,13.51-13.12,18.62-21.22,6-9.55,5.52-19,1.56-29-1.69-4.24-3.46-8.79-3.56-13.24-.28-12.44,4.11-23.1,15-30a66.61,66.61,0,0,1,31.69-10.1c9.26-.56,15.76-4.9,21.81-11,4.63-4.68,9.09-9.57,14.07-13.86,6.17-5.29,14.16-6.66,21.82-7.29,12.51-1,24.43,1.14,35.41,8.29,5.68,3.7,8.75,8.38,9.2,14.51a33.76,33.76,0,0,1-3.6,18.59,43.47,43.47,0,0,0-3.88,33,39.94,39.94,0,0,1,.88,12.39c-.45,8.62,4.86,14.46,8.11,21.27,2.65,5.56,5.67,11,10,15.59,8,8.61,18.43,11.44,29.57,12.74,7,.82,13.92,1.52,20.8,2.74,16.26,2.9,21.34,8.8,22.41,25.31.82,12.52-2.46,24.06-8.26,35-1.4,2.64-3.29,5-3.79,8.08Z"/><path class="cls-4" d="M.09,634.34c17.75,9.14,22.21,24.69,20.26,43-.59,5.46,1.52,9.52,4.73,13,3.55,3.85,8,2.58,11-.82,9-10.13,14.64-22,15.19-35.66.37-9.2.54-18.49,2.79-27.33,5.49-21.55,19-37.2,38.67-47,8.31-4.12,16.46-8.76,25.83-10.91,9-2.08,17.38,1.18,26.08,1.23,13.37.06,25.26-2.9,36.11-11.43,19.31-15.2,29.35-36.33,39.09-57.81,1.24-2.73,2.17-5.62,3.59-8.25,3.74-6.93,5.74-14.28.41-20.82-5-6.19-12.89-6-20.07-4.81-7.83,1.36-15.46,3.9-23.24,5.6-14.14,3.09-27.85.56-41.11-4.27-10.91-4-20.41-10.83-30.51-16.43-16-8.86-32.29-9-49.17-3.29-10,3.41-20.13,6.22-31,4.55-4.35-.67-8.23-2.9-12.81-2.83-5.5.08-10.55,2.08-15.86,2.85v-4.8c9.24-3.78,18.25-4.26,27.89-.39,8.65,3.46,17.35-.35,25.67-2.94,10-3.1,20-5.78,30.49-5.63,12.6.17,23.62,5.52,34,12.1,15.75,10,32,18,51.35,17.31,9.69-.34,18.88-3.23,28.17-5.56,6.27-1.57,12.47-2.43,18.95-.9,12.75,3,19.24,15.86,13.91,27.89-6.47,14.59-12.87,29.27-21.3,42.8C199.8,547.83,189.33,562,172.4,570c-12.4,5.88-25.16,6.53-38.05,4.14-10.28-1.9-19.22,0-28.17,4.83-11,6-23.05,10.21-31.58,20.13C65,610.26,58.46,622.31,57.66,637.64c-.66,12.79-.56,26-6.56,38a148.52,148.52,0,0,1-8.9,14.86c-4,6.08-12.44,8.51-17.94,6.17-4.61-2-10.29-13.41-9.48-19.63a55.19,55.19,0,0,0,0-16.68c-1.58-9.22-6.94-15.48-14.73-20Z"/><path class="cls-4" d="M.09,249.84c10.15-2,20.57-2.77,30.11-7.36,4.31-2.08,9.13-3.13,13.29-5.43,9.44-5.19,19.17-4.43,29.15-2.52a188.45,188.45,0,0,1,22,5.7c14.57,4.65,25.82-3.77,25.45-19.06-.29-12.08-6.48-22.11-12-32.25-8.67-16-16.43-32.22-19.74-50.4-1.23-6.78.07-13.16.43-19.65.93-16.62,3.62-33.1,11.31-48a158.74,158.74,0,0,1,18.36-28c7.79-9.48,13.49-20.31,19-31.1C143.2.59,136-9.48,123.37-9.29c-10.78.17-21.6,2.27-32.32,1C73-10.37,55.16-13.53,37.19-16,24.44-17.68,12.24-21.37.09-25.33v-4.81c16,4.26,31.92,9.06,48.37,10.91,14.47,1.63,28.73,4.68,43.24,5.76,2.79.21,6,1.35,8.26-1.8a1.21,1.21,0,0,1,2,0c2.18,2.95,5.08,1.4,7.71,1.29,4.6-.18,9.26-1.12,13.77-.63,19.11,2.1,26.63,10.8,18.42,29.41a138.5,138.5,0,0,1-18.46,29.75c-7.09,8.95-13.83,18.27-18.69,28.46-7.16,15-9.73,31.36-11.2,48.06-1.6,18.3,3.89,34.17,12.42,49.58,7.37,13.32,14.32,26.83,18.23,41.65,1.55,5.85,2.42,11.94.23,17.7-6.11,16.16-17,19.22-32.27,14.84-10.22-2.93-20.41-5.55-31-6.75-5.08-.58-9.48,1.06-13.84,3.07A195.18,195.18,0,0,1,.09,255.84Z"/><path class="cls-4" d="M1442,517.79c-8.19-4.56-14.7-11.5-23-16-3.15-1.72-3.45-5.74-5.32-8.52-10.27-15.32-13.1-32.52-13.12-50.48,0-5.57.33-11.16-.1-16.7-1-12.5-10.09-18.77-20-23.31a63.4,63.4,0,0,0-18.85-5.36c-27.56-3.33-39.21,4.67-50.82,29.3a123.61,123.61,0,0,1-26.2,36.6c-17.33,16.85-17,32.78-1.39,51.61,8,9.7,14.27,20.68,21.94,30.61,9.34,12.08,13.73,26.32,18.8,40.39,7.75,21.49,22.9,34.27,46,37.47,21.35,3,40.63,11.23,58,24.09,5.5,4.08,8.31,10.73,14.1,14.5v6c-4.63-2-7.45-6-10.28-9.74-9.59-12.54-23.31-18.29-37.31-23.73-11.24-4.37-23.17-5.81-34.79-8.58-17.53-4.19-29.56-15.32-36.83-31.51a161.7,161.7,0,0,1-10-27.42c-1.85-7.53-8.08-13.19-12.4-19.64-9.08-13.53-19.07-26.47-27.87-40.17-11.35-17.68-6.13-33.06,7.6-46.75,11.1-11.06,21.45-22.06,26.71-37.52,3.17-9.29,9.93-17.25,17.83-23.57,5-4,10.56-6.9,17.3-7.54,19.1-1.81,36.4,2.59,52,13.74,9.1,6.49,11.64,15.55,11.23,26.2-.45,11.78-.73,23.75,2.63,35.12,5.65,19.13,15.37,35.56,34.14,44.9Z"/><path class="cls-4" d="M1014.23,860.24c5.21-12.36,8.9-24.91,9.85-38.56,1.1-15.78-2.38-29.76-10-43.39-6.39-11.44-17-17.5-27.77-22.84-30.47-15.09-39.78-47-29.1-74.87a52,52,0,0,0,3.82-16.27c.62-14.78-12.63-25.91-28.64-20.2-17.77,6.33-22.9,18.8-25.17,35.06-1.77,12.64-4.5,25-12.44,35.76C886.66,726,884,738.37,884.88,752.7a203.15,203.15,0,0,1-2.7,46.16c-3.8,22.16-15.34,40.93-22.95,61.38h-6c8.14-16.64,17-33,21.68-51.06a197.71,197.71,0,0,0,5.4-30.62c.71-7.47-.66-15.12-.95-22.69-.55-14.35,1.27-28.4,9.61-40.39s11.66-25,13.44-39.11c2.71-21.58,15.75-38.15,38.58-39.78,15.17-1.07,28.65,15.71,24.9,31.58A190.44,190.44,0,0,1,960,688.8c-6.87,19.24,1.7,44.37,18.79,55.87,7.11,4.78,14.37,9.38,21.86,13.53,14.87,8.25,21.75,22.39,25.66,37.48,5.72,22.08,3.26,44-7.26,64.56Z"/><path class="cls-4" d="M1442-4.9c-6.08-1.58-11.42,1.44-16.86,3.08-17.93,5.41-35.61,6.16-53.5-.35-14.45-5.25-27.84-3.24-39.64,7.33-4,3.62-9.19,5.54-14.5,6.91-7.37,1.89-14.65,4.19-21.16,8.22-8.22,5.1-8.61,10.16-1.67,16.67,7.68,7.21,17.13,9.78,27.3,10.55,16.8,1.28,32.91,5.21,46.07,16.17,12.61,10.51,23.46,22.7,29.91,38.25,3.59,8.65,8.62,17,9.59,26.29s1,19.06-2.82,28.24c-5.3,12.65-10.38,25.39-15.34,38.18-2,5.12-2,10.65-1.16,16,.86,5.83,6.62,10.37,14,11.16a46.93,46.93,0,0,0,12-.13c10.24-1.59,19.29,1.15,27.8,6.56V233c-10-4.94-20-8.36-31.64-6.08a26,26,0,0,1-20.93-5.23c-9-6.81-8.68-16.2-4.7-28.53,4.22-13,10.57-25.4,15-38.4,4.16-12.21,5.53-24.68-.53-37.13-4.79-9.81-8-20.23-14.55-29.36-15-20.92-34.59-33-60.38-35.17-12-1-23.4-3.66-33-12.36-11-10-7.45-19.22,3.84-25.48,7.31-4,15.35-6.55,23.43-8.85a24.82,24.82,0,0,0,9.53-4.77c15.09-13.41,31.82-13.87,49.86-7.43,14.45,5.16,28.8,4,43.46-.36,6.51-1.95,13-6.66,20.58-3.57Z"/><path class="cls-4" d="M653.76,860.24c1.78-6.82-1.16-11.56-6.61-15.28a63.65,63.65,0,0,0-16.54-8.39c-15.3-4.88-25.29-14.61-30.78-30a235.31,235.31,0,0,0-17.4-37.84c-8.15-14.19-10.4-28.67-5-44.31,1.81-5.3,2.64-10.75.12-16.36-1.79-4-4.43-6.05-8.62-6.25-18.57-.85-34.31,5.22-45.77,20.15-5.65,7.34-1.23,15.39.54,23,.69,2.95,2.49,5.74,4.44,8.38,6.08,8.26,6.5,18.35,5.26,27.59-1.63,12.16-5.76,23.22-16.86,31.67-15.08,11.48-31.74,16.35-49.88,17.76-22.14,1.71-44.1,4.43-65,12.24-8.22,3.08-17.15,6.64-18.23,17.64h-6c1.76-9.6,8.6-15,16.34-19.56,11.28-6.6,24.19-7.74,36.56-10.85,16.42-4.13,33.27-3.24,49.8-5.79a67.67,67.67,0,0,0,38.78-19.88c10.61-10.88,14.11-34.93,4-49.09-5.78-8.07-7-18.06-7.39-27.9-.11-3.13,1.85-5.7,3.7-8,11.37-14.26,26.43-21.64,44.44-22.81,13.8-.9,21.61,8.42,19.62,22.28-1.18,8.27-4.27,16.11-4.26,24.71,0,9.54,3.95,17.65,8.3,25.31,7.12,12.54,12.12,25.92,17.79,39.05,5.19,12,13.77,20.68,26.52,24.72a61.11,61.11,0,0,1,20.53,10.83c5.39,4.4,7.77,10,6.48,17Z"/><path class="cls-4" d="M1442,545.43c-16-9.76-32.49-18.83-47.89-29.47-13.11-9.05-20-22.71-23.49-38.37-2.48-11.13-3.3-22.49-5.77-33.56-1.17-5.25-2.91-10.54-8.14-13.43C1350,426.86,1344.2,428,1337,435c-5,4.79-10.55,9.12-13.29,15.9a16.16,16.16,0,0,1-4.21,5.79c-8.63,7.6-12,18.28-16.41,28.21-4,9.05-.18,17.23,5.37,24.52,5.32,7,11.5,13.36,16.28,20.67,9.46,14.46,18.51,29.23,24.67,45.52a23.84,23.84,0,0,0,14.93,14.54,172.57,172.57,0,0,0,25.31,7c8.92,1.68,16.82,6.15,25.11,9.51,8.86,3.6,17.43,8,27.25,8.46v3.6c-6.62,1.62-13-.34-18.59-3-8.67-4.18-17.74-7.28-26.53-11.08-7-3-14.93-4-22.39-6.13-9.2-2.57-18.7-4.56-25-12.85a25.57,25.57,0,0,1-3.84-6,238.94,238.94,0,0,0-41.24-68.41c-10.33-11.95-8.6-24.6-2.14-37.32a166.28,166.28,0,0,1,31.14-42.5c5.68-5.65,12.23-10.53,21.28-7.31,9.41,3.35,13.55,10.87,15.28,19.9,2.5,13.07,3.1,26.49,7.14,39.26,4.28,13.55,11.64,24.66,24.46,31.91,13.69,7.74,27,16.15,40.48,24.27Z"/><path class="cls-4" d="M.09,603.1c6.35-.41,12.74,1.06,19.09-.81,12-3.54,17.8-10.64,19.23-23.09,1.05-9.16,3.17-18.09,8.87-25.74,10.18-13.67,24.54-16.18,40.14-14.78a188.2,188.2,0,0,1,22.46,3.62c20.68,4.4,37.43-3.53,52.87-16.15,6.67-5.45,7.94-12.33,4.9-19.77A15.84,15.84,0,0,0,153,496c-7.17-.39-14.29-1.59-21.46-2-10.95-.6-20.37-5.84-28.18-12.19C92.56,473,82,474.13,71,478.64c-7.66,3.16-15.07,6.32-23.45,6.29-6.35,0-12.82.57-19-.41-10.92-1.7-20,1.6-28.44,8v-6c9-5.81,18.38-7.27,29.41-7,12.9.29,26.63,2.49,39.15-5.24,7.9-4.88,17.38-5.76,26.74-3.37,6.87,1.76,11.23,7.46,17,10.93,8.93,5.33,18.31,7.59,28.45,8.09,5.58.28,11.15.91,16.71,1.53,13.16,1.47,22,22.1,13.61,32.35-11.14,13.57-25.34,20.81-42.1,24.17-13.64,2.73-26.54-1.86-39.6-4.05-24.89-4.18-44.24,8.92-45.82,35-1.22,20.28-15.45,28.64-32.21,29.39-3.78.17-7.59-.29-11.39-.45Z"/><path class="cls-4" d="M955.36-101c-1.32,23.77-7.83,45.65-21.27,65.71-7.53,11.24-17.5,20.72-23.2,33.26-5.13,11.3-1.52,19.33,10.51,21.76,9.71,2,18.42-1,27-5.35,19.48-9.9,35.51-24.18,51.22-39a141.71,141.71,0,0,1,41.49-27c11.15-4.79,22.07-10.27,34.11-12.94a59.77,59.77,0,0,1,24.3-.73A37.44,37.44,0,0,0,1138.94-84c3-5.56,7.47-10.47,8.67-17h6c-4.92,10.3-9.73,20.74-18,28.88-10.51,10.4-22.74,16.45-38,12.07-10.62-3.06-20.92-.69-30.5,2.89-19.63,7.31-39.2,15.18-55.58,28.83-8.26,6.88-15.89,14.53-24.07,21.52C972,6.43,955.77,18.77,935.79,24.75a30,30,0,0,1-20.56-1.29c-9.62-4-13.88-12.93-10.68-22.92,2.92-9.13,9.1-16.35,14.5-24,9.31-13.2,18.65-26.45,25-41.39,4.83-11.47,5.15-24.11,7.75-36.17Z"/><path class="cls-4" d="M.09,227c6.12-.13,11.79-1.54,16.77-5.39,11.1-8.59,24.46-8.28,37.27-7.94,14.09.36,27-14.87,23-28.33-4.38-14.61-11.3-28.44-12.72-44C62,114.79,60.75,88.48,71.65,63.08,75,55.36,75.48,46.87,74.3,38.42,72.55,25.83,63.39,16.59,49.8,12.89,41.2,10.55,32.26,12,23.7,9.74,15.84,7.63,7.69,6.63.09,3.51V-1.3C13.71,1.57,26.92,5.92,41.16,6.4c13.62.46,26,6.29,33.75,18,6,9,5.55,19.69,4.18,30.18-1,7.62-4.14,14.58-6.63,21.69-5.35,15.28-5.52,30.9-4.58,46.7.36,6.14,1,12.26,1.39,18.39,1.08,15.57,8.88,29.14,13.25,43.73,3.21,10.73-2.89,22.45-10.83,27.15-3.1,1.83-6.09,3.83-9.17,5.68-1.54.93-3.26,2.07-5.05,1.51-8.41-2.64-16.59.82-24.91.8-5.39,0-9.56,3.74-13.85,6.66-5.63,3.85-11.75,5.81-18.62,5Z"/><path class="cls-4" d="M1442,25.14c-5.11-2.24-10.59-3.32-15.82-1.57-14.29,4.77-28.39,3-42.6-.08a139.6,139.6,0,0,0-18.29-3.15c-6.69-.54-9.4,4.35-6.12,10.24a24.62,24.62,0,0,0,9.92,10.08A170.78,170.78,0,0,1,1399.44,62c9.85,8.61,17.49,19.44,23.35,31.45a95.86,95.86,0,0,1,10,43.93,62.41,62.41,0,0,1-7.3,28.15c-9.87,18.79-9.83,23.21,11,36.46a31.62,31.62,0,0,0,5.5,2.22v6A63.13,63.13,0,0,1,1418.54,194c-6.09-6.49-6.14-15.94.56-27.88,8.43-15,10.33-30.89,7-47.48-3.27-16.09-10.47-30-21-42.94-11.48-14-26.65-22.56-41-32.49a29.89,29.89,0,0,1-9.45-10.56c-2.31-4.27-3-9.09.29-13.61s8-5.24,12.87-4.34c8.81,1.64,17.51,3.93,26.3,5.71,8.52,1.72,17.12,1.85,25.51-.65,7.47-2.22,14.88-2.82,22.42-.65Z"/><path class="cls-4" d="M962.57,860.24c8.74-7.48,15.27-16.61,20.93-26.59,9.44-16.64,4.18-31-5.66-45.1-6-8.56-14.38-14.56-21.78-21.61-4.31-4.12-7.17-9.38-11.58-13.5s-9.72-6.46-15.14-8.08c-7.73-2.31-12.93,2.4-13.31,11.49-.71,17.11-.36,34.28-3.3,51.26-2,11.55-3.53,23.19-7.38,34.36-2,5.84-3.53,11.84-5.27,17.77h-4.8c3.29-14.76,8.65-29,11.07-44s4.9-30.12,4.47-45.53c-.23-8.28-1-17,3.34-24.58,4.23-7.33,10.67-8.93,18.41-5.61,10,4.3,18.58,10,24.53,19.79,3.26,5.38,9,9.33,13.94,13.61,21.87,19.07,30.22,43.86,13.17,68.62-4.21,6.1-9.51,11.31-13.23,17.71Z"/><path class="cls-4" d="M.09,152.51c6.55,6.69,7.1,15.23,7.4,23.87.33,9.45,2.71,13.06,10.17,15.67,13.26,4.63,25.21-3.87,25.49-17.72a58.7,58.7,0,0,0-4.79-25.11c-6.64-15-5.55-30.18-3.39-45.75,1.05-7.55,3.72-14.64,4.9-22.13a53,53,0,0,0-5.15-32.5c-4.24-8.61-14.74-14-24.18-12.75C7.06,36.54,3.39,35,.09,37.15v-4.8c7.6-.51,15-4.08,22.85-.24C34,37.48,41.22,45.57,43.46,57.72c2.34,12.73,1.23,25-1.87,37.82-4,16.53-6.46,33.39.89,50.49,3.9,9.06,6.49,19.24,5.93,29.74-.49,9.13-4.88,16.7-12.36,19.43-14.52,5.28-22.61,2.55-29.81-4.87-3.69-3.8-3.76-9.12-3.91-14.14-.14-4.42-.23-8.8-2.24-12.87Z"/><path class="cls-4" d="M1442,103.24c-4.84-11.93-10-23.69-15.83-35.19-2-3.88-3.73-7.92-3.67-12.47,0-3.41,1-6.34,4-8.15s5.84-.26,8.25,1.53,4.82,4.13,7.21,6.22v7.21c-3.16-1.5-4.58-4.9-7.37-6.79-1.75-1.17-3.51-3.49-5.72-2s-1,3.88-.27,6c3.71,10.48,8.81,20.34,13.36,30.45Z"/><path class="cls-4" d="M793.26,694.89c-1.23-10,3-18.61,8.27-26.76,11.2-17.33,21.78-34.94,29.38-54.23,3.88-9.84,8-19.58,10.46-29.9,3.48-14.33,7.33-28.56,10.74-42.9,2.23-9.39,0-18.63-1.83-27.83-.91-4.49-1.88-9-2.63-13.49-1.85-11.24-7.39-21-12.35-31-8.64-17.42-10.06-35.37-2.22-53.28,3.6-8.21,11.79-12.94,18.18-18.93a312.47,312.47,0,0,0,33-36.05c9.27-11.88,16.5-24.89,22.64-38.55,5.74-12.79,4.7-26.09,1.91-39.29a20,20,0,0,0-5-8.81c-10.45-11.29-20.75-22.73-34.16-30.82-15.32-9.24-23.67-23.93-30.08-40-5.55-13.86-2.4-27.52,1.21-41.12,2.76-10.4,9.74-18.28,16.54-26,10.62-12.1,22.67-22.61,38-28.51,8.53-3.28,17.07-5.52,26.65-4.89,20.34,1.36,40.37-.47,58.51-11.32a33.51,33.51,0,0,0,10.09-9.12c5.86-7.92,14.25-12.66,23.52-15.36,6.88-2,19,5.1,23.69,12.5,3.41,5.4,5,11.62,8.86,16.89,7.66,10.34,17.76,15.78,30.17,17.4,29.24,3.8,36.74,15.67,44.07,40.8,8.12,27.8,28.26,48.31,59.16,51.28,17.42,1.67,35.11,1.92,52.19,6.63a67,67,0,0,1,19.11,8.3c6.57,4.32,10,14.69,7.62,22.49-3.76,12.46-7.92,24.93-14.86,35.86-11.5,18.11-24.74,35.21-42.42,47.66-10.7,7.54-23.79,11-36.33,15.05-21.18,6.84-38.76,18.79-50.55,38-4.24,6.91-6.65,14.92-10.53,22.09-8.88,16.4-19.59,30.71-40,33.75a33.4,33.4,0,0,1-22.36-4.28c-19.34-11.61-33.48-10.67-49.39,2.63C977,446.84,968.16,463.47,964,483c-4.85,22.81-9.47,45.69-16.43,68a43.71,43.71,0,0,1-17.13,23.17c-10.52,7.38-21.11,13.32-34.54,15.33a43.26,43.26,0,0,0-29,18.61C859,619.62,851.24,631.18,847.53,645c-2.65,9.85-5.15,19.66-5.47,29.9A84.75,84.75,0,0,1,832.54,711c-3.59,6.9-11.83,12.89-21.33,13.54-7,.49-15.06-7.24-16.86-16.28C793.49,703.93,792.42,699.59,793.26,694.89ZM916.9,107.14a57.34,57.34,0,0,0-21.1,5.5,106.25,106.25,0,0,0-30.75,22.57c-11,11.7-20,23.77-22.37,40.51-3.47,24.17,6.35,42.55,23,58,12.53,11.6,27,20.71,38.86,33.56,10.48,11.37,11.32,24,11,37.12-.48,18.6-10.72,33.9-20.36,49.07-6,9.45-12.59,18.7-20.7,26.25-7,6.54-12.22,14.67-20.07,20.52-7.54,5.63-15.58,11.43-18.52,21.34-4.44,14.95-4.3,29.67,3.31,43.54,8.87,16.14,13.81,33.48,17.1,51.41,2,10.7,2.2,21.36-.78,32-2.89,10.35-5.48,20.79-8,31.22C842,602,832.76,622.81,822.29,643,816.63,654,809.46,664.1,803,674.63s-5.59,21.74-3.28,33a18.39,18.39,0,0,0,5,8.82c2.41,2.48,5.24,3.73,8.67,2.43a29.49,29.49,0,0,0,11.92-7.81c8-9,10.8-20.69,11.36-31.5,1.44-27.75,10.44-52.22,26.35-74.46a51.69,51.69,0,0,1,32.7-20.81c8.88-1.71,17-4.15,24.41-8.81,8.81-5.55,17.44-11.78,21.27-22.09,5-13.51,8.37-27.52,11.44-41.58,3.95-18.1,6.16-36.67,14.43-53.62A80.58,80.58,0,0,1,1006,419.73c8.67-4.15,17.35.76,25.92-1,2.28,4.62,7.41,5,11.19,7.33,12.18,7.37,30.21,5.21,40.56-4.58a89.83,89.83,0,0,0,22.44-34.88c6.75-18.44,20.65-30.11,36.34-40,10.14-6.39,21.79-9.79,33.14-13.55,9.55-3.15,19.22-6.53,26.77-13.09,21.39-18.59,38.86-40.21,48.27-67.47,6.23-18,5.54-26.91-17-35a34.77,34.77,0,0,0-7.53-2c-14.88-1.78-29.74-3.75-44.67-5-28.69-2.42-49.24-16.23-60.72-42.76-3.88-9-6.52-18.46-10.31-27.47-4.26-10.14-11.59-17-22.84-19.21-6.46-1.27-12.85-3-19.22-4.64-16-4.18-26.13-14.7-31.73-29.81-3.41-9.23-15.37-16.86-23.13-13.87C1006,75.62,999,79.63,993.8,85.89c-9.77,11.84-23.27,16.61-37.41,19.73C944.07,108.35,931.43,108.51,916.9,107.14Z"/><path class="cls-4" d="M638.16,223.31a66.7,66.7,0,0,1-18.11,34.07c-10.35,10.24-20.24,21-30,31.73-6,6.57-8.74,14.64-9.24,23.55-1.23,22.2-11.78,38-32.4,46.91-7,3-13.71,6.55-20.68,9.55-7.46,3.21-13.33,9-15.54,15.94-3.5,11.06-4.5,22.93,4.22,32.9a37.4,37.4,0,0,1,8.1,15.14c2.13,7.83.1,14.07-5.47,19.65-6.08,6.08-13.6,10.45-19.36,16.95a81.78,81.78,0,0,0-11.19,16.19c-9.14,17.37-23.66,27.53-42.17,32.52a20.2,20.2,0,0,1-19.91-5.23c-6-5.74-7.26-13-4.82-21,2.33-7.6,6.93-13.94,11.11-20.51,6.46-10.15,7.88-21.11,5.6-32.7a8.82,8.82,0,0,0-2-4.27c-13.34-13.73-10.86-29.76-4.19-44.51,13-28.83,35.6-48.06,65.36-59.06,8.78-3.24,17.07-7.85,25.49-12A27.18,27.18,0,0,0,533,309.89c6.41-9.15,13.16-18.05,19.39-27.32a45.68,45.68,0,0,1,15.41-13.94,202.34,202.34,0,0,0,20.72-14.32A58.84,58.84,0,0,0,610.07,222a29.83,29.83,0,0,1,5.61-10.5c3.39-4.38,7.11-8.49,13.58-6.09C635.19,207.64,638.88,214,638.16,223.31Zm-5-2.47c0-1,.06-2,0-3-.25-3.2-1.52-5.82-4.6-7.16-3.34-1.44-5.67.33-7.91,2.6a20.32,20.32,0,0,0-5.06,9.38c-5.49,21-20,34.74-37.6,45.34-11.41,6.85-21.26,14.69-27.89,26.37-11.29,19.88-27.51,33.66-49.49,40.84-15.92,5.21-29.87,14.2-42.74,24.89-4.55,3.78-6.62,9.34-10.28,13.82-10.94,13.41-17.52,28.61-14.52,46.56a14.82,14.82,0,0,0,4.61,8.79,21.9,21.9,0,0,1,6.81,14.86c.94,12.16-2.67,22.89-9.1,32.88-3.35,5.22-7,10.22-8.89,16.25-3.83,12.5,4.1,22.53,17,20.48,17.56-2.8,30.74-12.7,39.48-28,6.6-11.55,14.11-22.47,25.08-29.82,11.26-7.54,15.06-15.52,9.48-27.55-1.73-3.74-4.54-7-7.11-10.33a26.47,26.47,0,0,1-4.76-8.91c-5.1-17.27,4.86-38.64,21.59-45.24,9.55-3.76,18.28-8.93,27.24-13.77,14.44-7.8,19.86-20.8,20.92-36,.84-12,5.09-22.49,13.26-30.69,10.44-10.47,20.49-21.3,30.48-32.17A53.35,53.35,0,0,0,633.2,220.84Z"/><path class="cls-4" d="M632.66,170.7c-7.37-2.58-16.11-1.18-25.13-.2-14.66,1.6-27.48-16.3-22.29-30.12,2.6-6.9,5.08-13.87,9-20.22,3.68-6,4.87-12.79,4.81-19.58-.15-15.29,7.84-24.92,19.81-33.25,12.65-8.8,27.14-13.54,40.49-20.7,7.47-4,12.83-9.14,16.52-17.24,4.66-10.22,11.94-19.53,22.55-24.09,9.22-4,15.88-10.55,22.81-17.1a23.07,23.07,0,0,1,8.6-5.26c4-1.37,7.82-1.77,11,1.9,3.35,3.89,4.78,8,3.1,13.25-3.16,9.83-11.33,15.19-18.5,21.42-11,9.57-19.37,20.44-24.3,34.79S685.54,79.35,671,85c-17.73,6.92-31.44,27-29.81,44.42.25,2.62.35,5.46,2.15,7.38,4.64,4.95,3.67,11.65,5.47,17.4C651.12,161.64,641.89,171.05,632.66,170.7Zm-.29-5.16c5.57.37,8.21-1.29,9.36-5.5,2-7.31.85-14.35-2.28-20.9-2.25-4.7-3.57-9.35-2.9-14.43,2.76-20.87,13.19-36.17,33-44.22,12.79-5.19,22.62-14.19,26.55-26.85,6-19.37,19.18-32.39,34-44.49,4.42-3.63,7-8.08,9.1-13.08,1.19-2.87.25-5.52-1.81-7.7s-4.36-1-6.65-.19c-4.35,1.5-7.15,5-10.48,7.83-5,4.25-9.22,9.38-15.66,11.86a42,42,0,0,0-24.35,23.65c-4.71,11.68-13.7,16.89-23.92,21.88-14.69,7.16-30.17,13-42.6,24.19-6.29,5.68-9.7,12.68-9.58,21.09a45.35,45.35,0,0,1-2.83,17.54c-3.41,8.75-8.51,16.69-11.37,25.73-3.63,11.49,4.69,24.16,16.54,23.36C615.62,164.69,624.7,162.75,632.37,165.54Z"/><path class="cls-4" d="M677,308.43c.49,8-4.73,13.17-10,17.54a36.75,36.75,0,0,1-15.28,7.95c-6.67,1.47-12.71,4.6-18.82,7.59-5,2.46-10.28,4.06-16.11,3.78-5-.25-6.7-2.84-6.29-7.3a20,20,0,0,1,3.45-8.85c2.83-4.44,4.85-9.24,5-14.56a13.51,13.51,0,0,1,4.91-10.25c8.64-7.66,14.92-17.14,21-26.79,2.05-3.25,4.39-6.18,7.86-8,6.06-3.25,12.36-1.59,14,4.9,2.62,10,4.69,20.15,9.89,29.3C677.27,305,676.86,306.84,677,308.43Zm-4.19-1.3c-.26-2.64-1.82-5.19-3.28-7.82a47.85,47.85,0,0,1-6.06-18c-.37-3.18-.27-6.87-4-8s-6.29,1.78-8.78,4a14.26,14.26,0,0,0-2.35,3.46c-5.74,9.67-12,19-20.53,26.42a10.59,10.59,0,0,0-3.31,6.23c-1.48,7.28-3.32,14.39-7.57,20.69-1,1.52-2.36,3.7-.48,5.48,1.53,1.43,3.52,1.29,5.65.79,7.48-1.77,13.53-6.93,20.94-8.75A56.56,56.56,0,0,0,664.09,322C669,318.27,672.31,313.87,672.77,307.13Z"/><path class="cls-4" d="M234.48,613.11c.2,16.08,8.83,28.49,23.68,34.52,4.58,1.86,9.25,3.89,13,7.21,8.06,7.13,10.14,15.62,6.34,26-2.79,7.61-5.28,15.57-3.09,23.91a23.62,23.62,0,0,0,3,6.51,19,19,0,0,1-4.73,26,51.73,51.73,0,0,0-10.71,10.33c-5,6.89-11.47,12.25-17.45,18.11-11.5,11.25-29.11,15.42-46,4.13-8.74-5.86-18.16-10.58-26.18-17.66-5-4.44-12.1-4.66-18.34-3-24.86,6.72-47.85,17.17-68.34,33.29-11.14,8.76-22.5,18.08-38.29,17.94-9.66-.09-17.4-5.91-17.27-15.56.3-23.56,6.14-45.42,22.59-63.2,4.59-4.95,10.66-8.39,16.51-11.85,13.09-7.74,22.68-27.12,20.58-40.7-3.24-20.94,2.92-38,19.36-51.59,9.5-7.86,20.72-9.49,32.22-11.11,9.29-1.31,18.7-.46,28-2.53,11.58-2.58,22.1-7.76,32.94-12.14a35.12,35.12,0,0,1,20-1.68c6.85,1.24,11.71,7.64,12.18,15.26C234.62,607.9,234.48,610.51,234.48,613.11Zm-5,.84c.11-18-7.62-23.43-24.86-17.39-2.07.72-4.06,1.71-6.16,2.35-7.19,2.2-13.23,7-20.75,8.68a105.23,105.23,0,0,1-24,3.11c-12.76,0-25.5.82-37,7.42-17,9.73-25.26,24.91-23.36,43.82,1.26,12.52.81,23.8-6,34.34-4,6.16-7.3,13.27-14.08,16.71-18.71,9.51-30.06,24.83-35.12,44.62-2.38,9.3-5.31,18.84-3.31,28.85.94,4.72,3.51,8,8,8.52,7.36.83,14.93.75,21.55-3.31,6.13-3.77,12.48-7.43,17.82-12.16,19.95-17.66,43.57-27.87,68.78-35,9.08-2.56,18.09-2.07,25.37,4.67,6.09,5.64,13.5,9.12,20.13,13.83,10.66,7.58,21.53,11.76,34.39,5.9,5.95-2.72,10.39-7.31,15.15-11.5,8.79-7.73,14.82-18.15,25.15-24.55,5.58-3.46,5.92-14,1.91-19.5A21.35,21.35,0,0,1,268.86,703c-1-8.77,1.44-17,4-25.15,2.65-8.39,1.57-13.68-5.37-19a76.3,76.3,0,0,0-12.36-7.29C241.92,644.9,227.66,631.72,229.47,614Z"/><path class="cls-4" d="M690.89,635.8c-7.64,0-14.25-2.48-20.43-5.6-7.13-3.59-10.27-15.46-7.74-25.13,5.2-19.89,17.17-35.28,32.06-48.79,11.21-10.17,22.9-19.36,38.66-21.37,7.15-.91,13.52,1,19.32,4.79,4.43,2.88,4.66,7.61,4,12.37a87.67,87.67,0,0,1-7.2,25.25c-6.31,13.32-11.15,27.29-18.92,40-6.89,11.27-18.09,14.33-29.51,17.31C697.69,635.5,694,635.46,690.89,635.8Zm4.8-6.11c17.68.32,28.54-10.52,36.23-25.62,3.62-7.11,6.49-14.6,9.89-21.82a120.91,120.91,0,0,0,9.39-28.36c1.67-8.54-.65-11.86-9.33-13.08-11.09-1.57-20.92,1.8-30.09,7.79-7.28,4.74-13.23,11-19.39,17-12.29,11.95-21.89,25.76-24.52,42.94-1.93,12.62,1.72,16.27,11.69,19.63A34.39,34.39,0,0,0,695.69,629.69Z"/><path class="cls-4" d="M396.54,252.67c-7.94.59-15.67-.81-23.45-1.13-16.46-.67-32.52.52-48,7.45a148.15,148.15,0,0,1-31.42,9.66A11.55,11.55,0,0,1,282.2,265C276.91,259,273,252,271.8,244.28c-1.15-7.22-2.15-14.61-1.19-22.08a104,104,0,0,0-8.89-57.9A125.73,125.73,0,0,1,255.93,148c-4.69-15.66,2.48-33.11,16.67-41.23C288,97.93,304.89,96.89,322,97c17.44.1,31.8-5.29,42.45-20.16a126.91,126.91,0,0,0,15.37-28.92c2.7-7.06,5.87-14,8.89-20.9,6.47-14.93,20.1-19.18,34.14-20.78,13.19-1.5,22,12.36,17.48,25.41-3,8.76-8.18,16.32-13.11,24.08-10.38,16.31-20.53,32.79-25.8,51.67-6.56,23.48,3,38.84,21,51.77a94,94,0,0,0,17.74,10c8.12,3.46,13.74,9.36,18.95,16,5.91,7.59,5.84,21.14-.38,31.75C444.79,240.78,423.85,252.34,396.54,252.67Zm2.7-4.45c4.54-.67,9.72-.92,14.6-2.26,16.23-4.46,28.37-14.12,38.38-27.87,10.84-14.87,3.91-35-9.47-41.88C430,169.6,416.54,164,406.89,152.07c-13.64-16.91-17.4-37.74-7.43-57.12,6.73-13.09,13.08-26.4,21.56-38.6,5.76-8.29,11.89-16.6,14.49-26.75s-1.64-18.41-11.38-17.84c-10.9.65-22.3,2.61-29.09,13.56-5.58,9-7.77,19.37-12.08,28.9a152.19,152.19,0,0,1-15.44,26.85c-10.33,14.28-24.51,20.74-42.09,21.05-15.11.26-30.46-.27-44.82,6-10,4.32-17.39,10.61-19.89,22.14-2.23,10.28-.12,19.85,4.12,28.55,10.43,21.37,12.61,43.84,11.09,67-.7,10.58.51,20.44,5.95,29.91,4.85,8.43,11.84,9.07,19.35,6.4,4.13-1.47,8.19-3.25,12.44-4.27,9.92-2.38,18.68-8,28.91-9.69C361.31,245,380,247.73,399.24,248.22Z"/><path class="cls-4" d="M560.37-78.49c11.82,0,18.53,7.84,16.13,17.79C573-46,563.76-35.56,550.26-29a64.85,64.85,0,0,0-17.37,12.44c-8.53,8.45-17,16.87-27.16,23.46a26.88,26.88,0,0,1-4.1,2.47c-4.42,1.84-9.11,2.65-13.17-.4-3.75-2.81-2.73-7.12-2.11-11.11a27.14,27.14,0,0,1,9.16-17,194,194,0,0,1,15.63-12.1c10.72-7.59,17.54-17.69,21.78-30.32,2.52-7.5,9.09-13.07,17.2-15.42C553.9-78.07,558-78.16,560.37-78.49Zm-2.24,4c-8,.92-16.53,4.15-21.06,14.69-2.51,5.83-4.13,12.26-8.32,17.19a107.44,107.44,0,0,1-21.88,19.5c-6.22,4.2-12.34,9.06-15.14,16.59-1.47,4-3.09,8.76.19,11.8,3.94,3.67,8.53.36,12-2.1a150.47,150.47,0,0,0,17-14.11c9.48-9.19,19.25-17.61,31.17-23.84a38.28,38.28,0,0,0,20-25.81C574.19-69.75,570-74.68,558.13-74.47Z"/><path class="cls-4" d="M1144,810.17c-7.3,1-11.76-3.21-15.4-8.55a67.09,67.09,0,0,1-10.88-30.25c-2.8-24.33-10.58-46.09-27.68-64.21-6.06-6.43-12.21-12.5-19.49-17.6-6-4.2-8.57-10.87-9.61-18-1.66-11.27.1-22.34,2.66-33.23,2-8.59,11.62-14.28,20.39-13.15,10.1,1.29,18.54,6,26.36,12.11,10.48,8.28,20.49,17.14,33.87,21,8.15,2.33,16.62,3.35,24.38,7.65,11,6.11,18.17,14.61,21.74,26.5,3.43,11.46,5.61,23.3,10.72,34.27a114.67,114.67,0,0,0,10.66,18.73,59.7,59.7,0,0,1,9.2,19.39c3.67,13.45-.81,23.42-13.68,30.52-8.51,4.7-17.75,6.86-27.43,8C1167.71,804.77,1156.1,809,1144,810.17Zm-77.85-147.72c.6,4.51-.83,9.13,1,13.63,2,4.84,6.42,6.91,9.72,10.21,6.57,6.56,13,13.42,19.29,20.37,14.49,16.13,21.82,35.09,25.16,55.94,1.75,10.89,3.38,21.76,8.7,31.58,6.18,11.41,10.47,13,23,9.76,7.73-2,15.52-4.09,23.41-5,8.65-1,17.05-2.73,24.84-6.33,14.8-6.83,19.67-18.16,12.65-33.27a53.8,53.8,0,0,0-4.27-7.23A156.65,156.65,0,0,1,1186,696.77c-3.32-15.47-13.66-25.49-30-29.88-11.66-3.14-23.7-5.2-33.53-13.37-7.52-6.25-15.72-11.67-23.66-17.4a29.11,29.11,0,0,0-15.74-5.17c-8.58-.5-13.75,3.42-15.28,11.84C1066.65,649.26,1065.48,655.79,1066.12,662.45Z"/><path class="cls-4" d="M53,512.05c-.38,2.94-.88,6.24-3.25,8.09-8.22,6.39-13.32,15.3-19.61,23.25a14.66,14.66,0,0,1-5.48,4.5c-3.21,1.47-6.53,4-10,1.16a10.45,10.45,0,0,1-3.44-11.95c2.06-6,2.7-11.94,3.24-18.15,1-11.2,10.09-17.46,22.45-16a82.32,82.32,0,0,1,12.2,2.84C52.05,506.67,52.8,509.22,53,512.05ZM16,538.61c-.06,4.86,1.76,6.23,5.31,5.29s5.7-3.51,7.47-6.47c3.59-6,7.42-11.8,12.65-16.55,2.77-2.52,7.11-5,5.91-8.95-1.28-4.15-6.65-3.53-10.3-4.28-7.54-1.54-15,2.22-16.56,8.26C18.5,523.74,20,532.26,16,538.61Z"/><path class="cls-4" d="M1326.68,490.25c.69-6.32.9-12.74,2.2-18.93,2-9.47,11.73-12,18.73-5.33,5,4.81,7.54,11.3,8.41,17.56a76.7,76.7,0,0,0,19,41.09c9,10,17.83,20.91,31.79,25.31,10.75,3.38,18.79,10.39,23.09,21.12,3,7.57-1.33,14.72-9.52,15.32-7.92.57-15.93-.79-22.61-4.57-9.51-5.39-19.3-10.45-28.15-17a24.62,24.62,0,0,1-8.32-12.22c-5.42-16.45-16.91-28.74-27.07-42C1329.78,504.75,1326.73,496.76,1326.68,490.25Zm88.44,91c10.33.29,12.73-3.66,8.58-11.83a26.64,26.64,0,0,0-14.92-13.17,77.92,77.92,0,0,1-25.57-16.21c-15.88-14.58-27.87-31.21-31.34-53a39.47,39.47,0,0,0-6.25-15.39c-1.78-2.75-4.21-4.43-7.48-3.89s-4.05,3.4-4.33,6.35a70,70,0,0,1-1.14,9.51c-2.21,9.45.38,17.3,6.23,24.95,10.36,13.57,22,26.4,27.66,43.06,1.13,3.35,3,6.85,6,8.79,9.25,5.88,18.58,11.66,28.19,16.92C1405.43,579.94,1410.94,580.67,1415.12,581.26Z"/><path class="cls-4" d="M879,511.73c.3-18.44-1.89-35-8.21-51.53-7.21-18.87-1.79-36.53,11.58-51.52,8.79-9.86,16-21,24.36-31.09,7.12-8.55,13.76-17.34,20.37-26.27,5.62-7.58,9.18-15.88,11.88-24.38,3.35-10.59,6.15-21.53,7-32.74,1.57-19.71-3-36.69-18.64-50.64-13.13-11.73-25.29-24.57-33.54-40.84-5.73-11.3.53-26.1,14.56-27.14,12.32-.91,17.52-7.59,19.51-18,2.15-11.2,10.26-16.57,19-21.6a62.27,62.27,0,0,1,22.59-7.61c11.16-1.49,19.51-8.92,29.81-12,10-3,16.42-1.27,23.49,6.67,2.91,3.28,6.16,6.19,10.55,7.63,4.94,1.61,7.93,5.93,11.67,9.17,5.34,4.63,11,8.65,18.15,9.77,16.62,2.58,26.61,11.79,30.56,28.45,4.49,18.9,16,33.77,31.89,44.16,12.72,8.34,27.74,11.63,43.28,11.13,10.6-.34,21.22-.21,31.81-.72,4.19-.2,8.38,5.29,12.51,0,.6,2.44,3.2,3.06,4.44,5.15,6.15,10.4,4.12,20.63-2.34,29.23-9.93,13.23-22.31,23.57-38.78,28.9a342,342,0,0,0-43.31,17.46c-18.94,9.16-34.56,22.76-47.42,39.53-11.53,15.06-25.89,23.16-45.93,21.18a92.38,92.38,0,0,0-50,8.49c-20.58,9.95-34.76,25.46-42.43,47.09-2.92,8.25-7,16.1-10,24.32a122.79,122.79,0,0,0-7,33.73c-1.73,22.68-4.56,45.23-24.4,60.83-6.44,5.06-10.78,4.34-16.51-1.47C879.32,536.67,880.82,523.22,879,511.73Zm4.27-12.51c-.52,8.63.9,17.16,1.61,25.71.57,6.88,3.25,13.13,7.11,18.87,3,4.38,6.8,5.07,10.72,2s8-6.4,10.81-11c5.58-9.23,8.2-19.31,10.59-29.69,2-8.68,1.61-17.45,2.67-26.14,1.82-15,7.26-28.82,12.94-42.71,4.92-12,9.11-24.16,17.95-34.1,4.73-5.32,9.62-10.75,14.7-15.41,4.21-3.85,10.84-6.2,16.48-9,17.38-8.59,35.71-9.39,54.37-8.55,11.64.52,22.24-1.29,30.55-10.43,8.84-9.73,17.35-19.82,26.86-28.85,18.21-17.31,41.22-26.27,64.33-34.64,15.16-5.48,29.74-11.62,40.94-23.79,5.65-6.13,10.17-12.58,10.3-21.55.08-5.67-2.37-8.62-7.23-10.23-9.38-3.1-19.24-3.18-28.77-2.29-22.93,2.14-44-1.62-63.12-15.18-7.76-5.52-13.42-13.11-18.83-20.4-6.41-8.65-9.51-19.51-12.25-30.11-1.65-6.37-6-10.33-11.62-12.9a51.07,51.07,0,0,0-12.43-4.31,35.58,35.58,0,0,1-18.85-9.76c-5.12-4.86-11.07-8.4-16.89-12.19a26.46,26.46,0,0,1-6.64-6c-4.75-6.12-10.88-7.6-18.21-5.41a41.85,41.85,0,0,0-13,6,26.05,26.05,0,0,1-9.87,4.06c-11.67,2.74-23.18,5.85-33.66,12.1-6.08,3.63-10.24,8.61-11.63,15.29-2.8,13.44-9.94,21-24.27,22.05-9.86.71-14.85,9.85-11,18.92a80.36,80.36,0,0,0,14.78,23.11c6.72,7.35,14.33,13.89,21.54,20.8,7.72,7.38,13.26,16.12,15.26,26.67,5.2,27.4-1.67,53-14.27,76.82a153.89,153.89,0,0,1-23.73,32.76c-9.78,10.51-17.79,22.93-27.08,34.12-12.89,15.55-15,32.42-7,50.92C882.1,475.66,884.45,487.17,883.27,499.22Z"/><path class="cls-4" d="M194.56,625.8c11.28,1.06,18.1,4.93,22.59,14.39,6.42,13.54,15.12,25.86,27.45,34.87,15.1,11,10.58,25.19,2.45,35.54-5.93,7.53-13.91,12.78-23.87,13.65a91.94,91.94,0,0,0-19.33,4c-8.7,2.71-16.39.48-21.12-7-9.64-15.33-25.22-21.4-40.68-27.91-6.87-2.89-13.28-6.85-18.12-12.3-6.54-7.37-9.69-16.21-5.19-26.07,5.13-11.23,13.8-18.09,26.16-19.36,6.54-.67,13.2-.25,19.81-.23A40.77,40.77,0,0,0,188,628.51C190.51,626.81,192.77,624.62,194.56,625.8Zm-39.81,14.77c-3.6,0-7.21-.13-10.8,0-10.76.48-21.28,11.43-21.4,22.12-.14,13,6.86,18.74,20.5,25.15,16.64,7.82,33.86,14.24,44.43,30.82,3.67,5.75,9.72,6.61,16,4.84,5.58-1.57,11.09-3.67,16.89-3.92,9.06-.4,15.92-4.62,21.82-11,10.52-11.42,10.4-20.21-1.67-30.09-12.84-10.5-22-23.45-28.93-38.31a14.5,14.5,0,0,0-18.5-7.48C180.7,637.22,168.39,642.11,154.75,640.57Z"/><path class="cls-4" d="M132.57,721.2c-.14,5.43-2.42,9.43-6.51,12-12.87,8-25.91,15.8-38.85,23.72-3.55,2.18-6.85,4.81-10.5,6.79-5.74,3.1-10.93,2.06-13.9-2.33s-2.1-11.74,2-15.37c1.93-1.73,3.82-3.75,6.11-4.78,11.06-5,16.85-14.45,22.84-24.39,7.5-12.45,19-17.54,31.69-8.4A16.16,16.16,0,0,1,132.57,721.2Zm-5.07.68c.14-7.88-12.25-15.37-19.39-12A21.1,21.1,0,0,0,97.3,720.58c-3.89,8.67-9.43,16.08-18,21a58.1,58.1,0,0,0-9.93,6.64c-3.28,2.91-5.1,6-2.5,9.82,2.78,4.11,6.62,1.84,9.63.23,4.38-2.35,8.33-5.47,12.57-8.08,10.53-6.49,21.14-12.84,31.66-19.33C124.28,728.69,126.9,725.75,127.5,721.88Z"/><path class="cls-4" d="M703.79,605.78c-7.26-.19-12.82-8.39-9.2-14.46,4.75-8,10.94-14.79,20.17-17.87,5.47-1.83,10.08,1,11.12,6.72C727.53,589.23,713,606,703.79,605.78Zm.69-5.23c6.06.14,17.63-13.93,16.28-19.72a3.15,3.15,0,0,0-3.33-2.74c-1.81,0-4.77.27-4.47,1.8.92,4.72-2.72,4.47-5.09,5.59a18.7,18.7,0,0,0-7.91,6.11c-1.36,2-2,3.9-1,6.1S702.16,600.53,704.48,600.55Z"/><path class="cls-4" d="M298.1,196.31c0-12.68-2.16-23-8.52-32.69-8.1-12.3-3.1-28.21,10.26-34.36,15.17-7,31.25-8.18,47.5-5.57,10.17,1.63,20.83,15.19,19.37,24.48-.5,3.14-2.48,6.17-2.34,9.67.3,7,2.89,10.19,9.75,11.5a80.44,80.44,0,0,0,8.91,1c4,.31,8.29.4,11.52,2.82,7.23,5.42,15.52,9.06,22.85,14.26,8.13,5.78,11.89,14.88,9.72,23.37-2.51,9.79-13.95,16.65-23.95,15.44a179.05,179.05,0,0,0-62.78,3.48c-15.53,3.62-32.8-1.11-39.68-16.77C298.78,208.57,297.89,203.78,298.1,196.31Zm100.81,24.28c2.59.22,5.18.53,7.77.65,7.66.37,16.82-8.31,16-15.27-.77-6.65-3.28-12.37-9.47-15.81-4.54-2.51-9.5-4.46-13.54-7.61-6.3-4.9-13-7.48-21-7.36-6.2.09-11.92-1.58-15.93-6.86-3.82-5-3.8-10.66-2.81-16.59,2.29-13.58-2.78-21.29-16.46-23.24s-27.16-.8-40,4.6c-10.83,4.58-16.53,18.44-10.27,27.37,8.75,12.5,10,26.25,9.84,40.55a22.7,22.7,0,0,0,3.21,12c5.58,9.56,19.84,15.1,32.7,12.2C358.76,220.73,378.62,218.05,398.91,220.59Z"/><path class="cls-4" d="M1167.62,777.62c-14.25-.18-23.15-9.37-24.86-23.16-2.13-17.17-5.14-33.88-15.12-48.84-6.28-9.42-.26-19,11.08-18.42,14,.75,22.79,3.78,27.35,19.38a55,55,0,0,0,17.53,27.15c8.26,7.1,12.94,16.64,10,28.39-.58,2.28-1.22,4.43-3.15,5.5C1182.46,772.06,1174.58,776.77,1167.62,777.62Zm.34-3.93c7.27-1,15.5-3.47,19.67-12.1,4-8.2.74-17.91-7.33-24.4-8.74-7-15.62-15-18-26.62-2.21-10.82-9.14-17.48-20.82-18.07-3.64-.19-7.28-.29-9.83,2.83-2.8,3.41-.21,6.26,1.17,9.32,4.4,9.72,10.87,18.4,12,29.74.84,8.44,1.61,17.08,4.27,25.32C1151.81,768.11,1158.71,773.79,1168,773.69Z"/><path class="cls-4" d="M975.59,284.11c.88-15-4.14-27.51-11.82-39.35-7.09-10.93-16.7-20.09-20.22-33.57-2.41-9.27-.31-15.81,6.54-21,8.12-6.2,14.26-13.35,18.36-23,5-11.69,16.59-17.61,28.75-16.52,7,.62,12.4,3.2,15.71,10.11,3.22,6.74,9.26,10.46,16.3,13.17,8.19,3.15,17.19,3.65,24.91,8.21,5.43,3.21,9.52,7.43,13.41,12.48,6.13,7.93,9.77,17.27,15.93,25.15,4.6,5.88,10,10.4,16.83,13,24.3,9.19,28.86,31,16,52-5.56,9.08-14.11,13-22.36,18-12.2,7.4-22.25,17.37-32.06,27.53-8.89,9.21-20,13.63-32.1,15.49-8.71,1.34-17.45,2.12-25.54,5.86-11.84,5.47-22.37.72-32.5-4.58-6.47-3.39-8.63-13.07-6-21.46,3-9.68,5.85-19.39,8.85-29.07C975.88,292.27,975.29,287.84,975.59,284.11Zm-27.45-82.24c1,10,2.67,18.66,8.41,25.36a148.88,148.88,0,0,1,11.66,15.1,76.29,76.29,0,0,1,12.87,38.54c.89,16.47-6.76,30.62-10.34,45.85-1.22,5.22.11,14.47,3.94,16.35,8.51,4.18,17.2,7.66,27,4.12,10.37-3.75,21.14-5.63,32-7.33,8.91-1.4,17.29-5.15,23.52-12.07,10.87-12.06,22.77-23,36.92-30.89,9.08-5,16.21-10.92,20.88-20.37,7-14.14,2.44-29.43-11.77-36.55-2.32-1.16-4.73-2.14-7.1-3.21a44.47,44.47,0,0,1-20.79-19.24c-3.54-6.26-7.26-12.37-11.14-18.43a35.51,35.51,0,0,0-24.39-16.61c-13.9-2.74-26.44-8.13-33.43-21.73-1.42-2.76-3.82-3.86-6.67-4.52-12.21-2.82-23.88,3.92-28.84,17.56-2.67,7.33-7.36,12.69-13.18,17.41-2,1.64-4,3.31-6.11,4.84C949.16,197.86,947.75,200.06,948.14,201.87Z"/><path class="cls-4" d="M176.6,653.07c17.46.49,34.77,13.46,34.92,30.13.08,9.87-5.74,18.78-15.76,12.47a172.08,172.08,0,0,0-32.2-15.83c-4.25-1.57-7.76-4.89-7.34-9.93.45-5.31,2.92-10,7.82-12.64C168.63,654.79,173.49,652.91,176.6,653.07Zm30.61,31.43c0-11-11.83-23.94-23.39-26.26-6-1.2-11.57-.63-16.69,2.51a11.47,11.47,0,0,0-5.63,10.43c.18,3.91,3.83,5.54,7.2,6.15a47,47,0,0,1,22.84,10.94,20.57,20.57,0,0,0,5.73,3.19C203.31,694,207.23,691.18,207.21,684.5Z"/><path class="cls-4" d="M308.82,162c-.23-3.51.8-5.6,3.17-6.79,8.6-4.28,17.38-6.36,27-3.11,5.12,1.74,7.09,5.58,8.32,10.08,1.12,4.14-1.79,6.74-4.52,9.1-10.47,9.1-28.13,8.56-33.07-6.09C309.26,163.88,309,162.52,308.82,162Zm17.78,10.39c4-.85,8.33-.82,11.69-3.8,1.92-1.69,4.44-3,3.83-6.19s-2.81-5-5.95-5.94a25.28,25.28,0,0,0-14.65.18c-2.78.85-7,.29-7.43,4.64-.37,3.95,2.33,6.58,5.14,8.92C321.36,172,324.08,171.82,326.6,172.39Z"/><path class="cls-4" d="M1068.65,266.92c-1,31.36-15.62,48.19-43.27,54.61-14.52,3.37-27.29-7.55-26.94-22.46.19-8.18,2.58-16.09,2.81-24.32.35-12.72-2.08-24.16-11.48-33.48-6-6-10.61-12.86-12.22-21.55-1.28-6.9,1-12.6,7.07-16a34,34,0,0,0,5.76-4.25c5.26-4.67,13.2-6.48,18.61-2,7.89,6.53,17.31,8.76,26.4,12.05,14.6,5.27,22.67,15.89,27.18,30.35C1065.55,249.42,1068.54,258.86,1068.65,266.92Zm-65.08,33.92c-1.26,10.72,11.06,18.14,21.94,15.52,19-4.57,32.39-15.33,36.63-35.73,2.95-14.19-.31-27.23-4.74-40.43-5-14.85-14.71-24.61-29.84-28.19a48.43,48.43,0,0,1-17.76-8c-6.68-4.81-10.87-4.38-17.18.47a21.29,21.29,0,0,1-5.14,3c-5.17,2-6.17,6.17-5.23,10.75a30.16,30.16,0,0,0,8.6,16.14C1002,245,1007.16,258,1006.43,273.45,1006,282.65,1004.61,291.72,1003.57,300.84Z"/><path class="cls-4" d="M1043.36,267.48c0,9.55-3,15-8.66,15.84-5.26.75-10.87-4.46-12.61-13.07-1.15-5.68-2.53-11.25-4.12-16.8-1-3.61-.06-7.28,1.71-10.43,1.88-3.34,4.41-4.91,8.74-2.73C1039.79,246,1043.3,255.72,1043.36,267.48Zm-20.5-16.29a9.2,9.2,0,0,0,.19,2c1.93,6.76,5.9,12.87,6,20.3,0,2.19,2.28,4.33,4.93,4.57,1.8.17,2.63-1.46,3.32-3,3.56-7.84-.34-22.78-7.29-27.7-1.42-1-2.79-2.67-4.77-1.73S1022.88,248.78,1022.86,251.19Z"/><rect class="cls-5" width="1442" height="759" rx="20"/></g></g></svg>