<svg xmlns="http://www.w3.org/2000/svg" width="272.734" height="220.958" viewBox="0 0 272.734 220.958"><defs><style>.a{fill:#ff7d59;}.b{fill:#6643a1;}</style></defs><g transform="translate(-668.702 -581.946)"><g transform="translate(750.222 691.461)"><path class="a" d="M705.254,685.5q-.648-1.73-1.311-3.465-2.1-6.311-4.207-12.627c-1.411-8.851,1.306-17.545,1.016-26.354,4.334-10.7,10.415-20.183,19.3-27.718,9.183-5.75,18.55-11.058,29.535-12.59l17.877,1.227c1.216.243,2.438.479,3.655.722,5.85,2.949,11.784,5.5,17.124,9.626,22.479,17.382,26.881,41.973,18.84,65.052-6.035,17.319-27.26,34.253-47.759,34.79-21.441.558-37.9-7.414-50.329-24.543A48.235,48.235,0,0,0,705.254,685.5Zm92.78-26.149c-.069-21.926-16.2-42.968-42.073-43.278-23.474-.279-42.362,17.134-43.589,39.155-1.622,29.2,18.935,45.232,42.852,46.3C776.619,702.475,797.7,684.035,798.034,659.35Z" transform="translate(-619.592 -602.744)"/><path class="a" d="M713.6,604.218a78.68,78.68,0,0,0,1.8,17.729c.774,3.433.058,5.445-4.028,5.819-5.924.537-11.805,1.548-17.682,2.5-7.546,1.222-8.267.716-8.915-7.072-.173-2.032-.263-4.07-.389-6.108,1.843.284,2.538,2.012,3.739,3.075,6.234,5.561,6.4,5.529,11.916-.821C704.472,614.223,709.068,609.252,713.6,604.218Z" transform="translate(-683.334 -596.457)"/><path class="a" d="M684.548,613.024c-1.142-4.908.295-6.846,5.818-7.14,6.682-.353,13.317-1.974,20.083-2.09-2.012,2.764-3.849,5.676-6.076,8.256-2.907,3.37-5.882,8.73-9.268,9.094C691.225,621.554,688.155,615.846,684.548,613.024Z" transform="translate(-684.184 -598.27)"/></g><g transform="translate(668.702 581.946)"><path class="b" d="M835.885,774.216c-18.414,1.916-36.838,3.754-55.247,5.771-17.487,1.911-34.938,4.176-52.435,5.966-11.811,1.211-23.69,1.785-35.4,3.917-3.881.711-5.992-.558-6.888-4.871-.979-4.718-.8-9.441-1.237-14.143-.337-3.607-1.39-4.318-5.018-3.728-11.242,1.816-11.111,1.416-10.905-9.9.326-18.113.047-36.238.063-54.351q.023-32.123.105-64.246c.01-5.324.558-10.737.142-15.923-.421-5.292,2-6.419,5.792-6.445,11.764-.079,23.227-3.259,35.006-3.154,5.371.048,7.819-2.006,6.061-8.062-1.8-6.182,1.406-10.5,7.546-11.705,5-.98,7.951,1.685,9.13,8.262,1.554,8.667,1.575,8.867,12.269,7.914,7.783-.7,15.492-2.17,23.274-2.944,3-.3,3.244-1.6,2.9-4.007a47.1,47.1,0,0,1-.411-6.782c.021-4.892,3.575-8.267,8.783-8.209,4.728.053,7.725,2.027,8.146,7.283.758,9.431,1.737,9.973,11.184,8.725,7.319-.969,14.67-1.78,22.026-2.343,3.876-.295,5.576-1.48,4.776-5.7-.69-3.622-.874-7.346,2.138-10.441,2.733-2.812,5.671-4,9.457-2.48,3.528,1.411,6.4,3.612,5.861,7.735-.879,6.682,1.406,8.2,8.088,7.509,11.042-1.148,22.094-2.127,33.073-3.823,6.224-.958,7.609.058,8.3,6.471,2.8,25.665,5.661,51.319,8.378,76.994.558,5.276.611,10.61.9,15.913-1.216-.242-2.438-.479-3.655-.722-1.311-19.872-3.612-39.639-6.313-59.37-.5-3.691-1.98-4.36-5.181-4.028-6.951.732-14.017.747-20.873,1.985-19.888,3.57-40.093,4.086-60.107,6.434-18.388,2.154-36.807,4.376-55.268,6.056-13.28,1.211-26.486,3.617-39.782,4.171-9.71.405-19.156,2.443-28.808,2.912-3.812.19-6.219,1.274-5.124,6.519a192.578,192.578,0,0,1,3.1,25.054c2.038,26.992,5.408,53.857,7.23,80.88.432,6.466-.01,13.264,2.08,19.793.979,3.065,1.111,3.623,4.6,3.07,13.274-2.106,26.66-3.491,40-5.187,19.051-2.422,38.313-2.212,57.332-5.539,14.37-2.512,29.056-3.191,43.6-4.686ZM704.2,617.4l-.037-.3c-9.194,1.043-18.382,2.18-27.586,3.08-2.906.279-3.233,1.7-3.023,4.128.511,5.719,1.022,11.448,1.148,17.182.105,4.75,1.527,6.361,6.761,5.724,21.415-2.6,42.9-4.618,64.356-6.945,22.669-2.454,45.29-5.424,68-7.414,23.774-2.085,47.47-4.839,71.207-7.172,4.628-.453,6.055-2.2,5.824-5.687-.453-6.74-1.437-13.454-2.475-20.141-.363-2.333-2.412-2.317-4.449-2.012-11.532,1.732-23.053,3.655-34.737,3.986-3.586.1-5.482,1.279-4.86,5.134.263,1.632.448,3.27.658,4.908.827,6.371-3.718,10.463-10.084,9.541-7.193-1.043-6.845-6.9-7.625-11.737-.49-3.033-.516-4.871-4.518-4.36-8.067,1.032-16.218,1.427-24.322,2.206-2.833.274-6.208-.927-8.388,1.211-2.533,2.48.463,5.35.553,8.088.173,5.192-2.154,8.8-7.093,10.3-5.208,1.585-8.193-1.759-10.347-5.718-.816-1.5-.8-3.633-.653-5.439.348-4.476-1.453-5.64-5.8-5.018-7.741,1.111-15.565,1.622-23.343,2.522-5.276.611-13.027-.953-8.488,9.1.342.758-1.043,2.428-1.048,3.976-.011,4.081-2.475,6.545-6.3,6.561-4.176.016-8.515-.848-9.378-6.161-.552-3.423,1.117-8.009-1.421-10.078-2.775-2.254-6.988.99-10.668.548A15.661,15.661,0,0,0,704.2,617.4ZM731.4,621.8c-.827-6.487-1.743-13.206-2.506-19.941-.347-3.065-1.2-5.3-4.928-4.56-3.528.7-5.577,2.422-4.786,6.424a136.533,136.533,0,0,1,2.48,20.8c.168,4.028,4.939,6.561,7.956,4.4C732.115,627.152,730.441,624.3,731.4,621.8Zm42.868-23.348c1.485,6.593,1.685,13.328,1.985,20.083a4.954,4.954,0,0,0,5.871,4.944c3.649-.479,5.771-3.565,4.666-6.687-2.254-6.356-.985-13.054-2.828-19.425-.864-2.986-.242-6.429-4.887-6.066C774.509,591.662,774.161,594.843,774.272,598.454Zm64.894-3.022c.095-1.616.089-2.238.173-2.844.516-3.954-1.058-6.787-5.128-6.724-4.086.063-5.419,3.081-4.971,6.909.806,6.882,1.638,13.754,2.417,20.641.442,3.939,3.16,4.481,6.255,4.033,3.46-.5,3.923-2.865,3.423-5.96C840.424,605.832,839.787,600.135,839.165,595.432Z" transform="translate(-668.702 -581.946)"/><path class="b" d="M729.314,602.326c.111,2.333-7.341,11.558-9.51,12a2.553,2.553,0,0,1-1.711-.185,1.389,1.389,0,0,1-.29-2.148c2.8-3.522,5.645-7,8.515-10.468a1.6,1.6,0,0,1,2.211-.4C728.962,601.421,729.151,602.063,729.314,602.326Z" transform="translate(-460.864 -501.357)"/><path class="b" d="M721.617,601.653c-1.364,3.454-2.654,6.861-4.076,10.21a1.364,1.364,0,0,1-2.043.648,2.47,2.47,0,0,1-.853-2.022c.99-3.307,2.127-6.571,3.338-9.8.353-.937,1.211-1.838,2.343-1.158C720.9,599.868,721.128,600.8,721.617,601.653Z" transform="translate(-472.865 -507.971)"/><path class="b" d="M787.538,648.556c-.337,24.685-21.415,43.125-42.809,42.172-23.917-1.063-44.474-17.092-42.852-46.3,1.227-22.021,20.115-39.434,43.589-39.155C771.341,605.588,787.47,626.63,787.538,648.556Zm-60.2-29.846c-4.028-4.681-7.556-1.59-10.231,1.064-2.206,2.185-6.556,4.692-2.417,9.141,1.3,1.4.326,3.259-1.575,2.443-5.676-2.422-5.629,2.78-5.976,5.1-.485,3.223-4.276,7.377,1.122,10.147,2.543,1.306,3.28,2.543-.242,3.723-3.823,1.279-2.58,4.834-1.569,6.688,1.432,2.643.331,8.235,4.476,7.635,5.618-.816,4.265.763,2.249,3.628-.847,1.206-.984,2.554.053,3.322,3.844,2.854,5.64,10.01,12.764,6.261,1.053-.558,1.843-.111,2.264,1.164,1.527,4.576,7.835,8.209,12.543,7.641,1.817-.216,1.732-1.169,1.964-2.417.647-3.56,2.417-2.591,3.2-.337,2.112,6.087,6.356,2.227,9.183,1.685,2.3-.442,7.5.285,5.935-5.534-.764-2.812.658-3.317,3.081-1.669,4.644,3.154,6.561-1.764,8.983-3.744,1.717-1.4,6.056-3.754,1.622-7.272-1.259-1-.916-2.838.521-2.664,9.131,1.1,5.961-7.035,8.209-10.932,1.027-1.774.173-4.023-2.807-4.249-1.943-.147-2.854-2.006-.932-2.67,6.535-2.254,3.312-6.134,2.164-9.815-.969-3.1-.374-7.525-6.2-5.687-1.654.521-2.533-1.358-1.053-2.817,5.06-4.976-1.306-6.571-3.049-8.972-1.569-2.159-4.107-6.724-8.083-1.7-1.343,1.7-2.443.495-2.807-1.322-1-5-6.161-9.273-11.01-6.961-4.212,2.007-6.245,1.9-10.547.258C733.592,607.726,728.658,612.307,727.336,618.71Z" transform="translate(-527.575 -482.435)"/><path class="b" d="M720.572,636.754c-6.461,1.042-12.9,2.085-19.514,1.869-2.833-.089-4.228-1.032-4.55-3.77-.642-5.508-1.322-11.016-1.98-16.529-.51-4.244,1.216-5.671,5.608-5.808,7.166-.227,14.3-1.364,21.452-2.117C721.878,619.209,719.161,627.9,720.572,636.754Z" transform="translate(-558.908 -460.575)"/><path class="b" d="M703.633,619.737c-1.169-14.433-1.148-14.28,13.3-16.35,3.818-.548,7.683-.19,11.495-1.38,4.4-1.385,4.239,2.4,4.734,5.139C722.184,608.679,712.816,613.987,703.633,619.737Z" transform="translate(-521.654 -497.631)"/><path class="b" d="M703.851,631.5c-5.313.848-8.9.769-8.783-6.656.074-4.776-1.053-9.752-1.4-14.67-.185-2.644.526-4.6,3.37-4.929q11.872-1.367,23.769-2.464a2.537,2.537,0,0,1,2.743,2.743c.168,6.392,1.558,12.611,2.454,18.9.379,2.664-.985,4.091-3.854,4.428C716.03,629.59,709.948,630.606,703.851,631.5Z" transform="translate(-562.328 -493.115)"/><path class="b" d="M700.058,624.172c-4.234,1.512-5.524-2.159-6.024-6.866-.348-3.255-1.285-6.519-1.138-9.742.432-9.447-1.337-9.478,9.152-10.3a84.119,84.119,0,0,0,14.022-1.864c4.592-1.174,6.129,1.037,6.867,4.691,1.222,6.04-.011,12.322,1.943,18.361.7,2.149-1.432,3.049-3.507,3.275C714.854,622.439,708.341,623.219,700.058,624.172Z" transform="translate(-565.565 -525.904)"/><path class="b" d="M714.574,622.1c-11.258-.021-9.378,2.307-10.99-8.851-.237-1.627-.179-3.291-.447-4.913-2.417-14.807.458-11.047,10.805-13.275,2.969-.637,6.161-.19,9.215-.563,8.088-.984,9.146-.184,9.826,8.057.353,4.291.579,8.6,1.09,12.874.331,2.8-.463,4.439-3.438,4.528C724.9,620.125,719.471,622.71,714.574,622.1Z" transform="translate(-525.244 -529.802)"/><path class="b" d="M708.3,596.167c3.418-.4,4.839.89,5.282,3.612,1.048,6.476.816,13.1,2.364,19.535.553,2.291-1.263,3.044-3.438,3.217-7.719.621-15.428,1.411-23.143,2.1-2.538.227-3.833-1.169-4.1-3.559-.637-5.692-1.132-11.405-1.849-17.087-.416-3.354.848-4.771,4.2-5.376C694.686,597.331,701.989,598.21,708.3,596.167Z" transform="translate(-606.261 -521.584)"/><path class="b" d="M686.007,606.8c3.939-.458,9.257-.827,14.47-1.785,2.47-.453,4.386-.689,4.186,2.317-.406,6.061,1.506,11.774,2.112,17.666.421,4.081-.627,6.54-5.64,6.577a118.688,118.688,0,0,0-19.456,1.706c-4.271.742-5.039-.953-5.276-4.418-.263-3.881-.748-7.756-1.264-11.621C673.833,607.566,674.644,606.644,686.007,606.8Z" transform="translate(-643.23 -484.681)"/><path class="b" d="M686.35,629.84c-.348-3.617-.369-7.361-1.153-10.942-.716-3.28.285-4.7,3.423-5.039q11.35-1.232,22.695-2.48c2.685-.295,4.091,1.158,3.77,3.6-.795,6.05,1.643,11.779,1.417,17.8-.11,3.007-.553,4.7-3.754,5.076-7.145.821-14.275,1.743-21.41,2.654-2.559.321-4.092-.921-4.318-3.3C686.781,634.774,685.181,632.478,686.35,629.84Z" transform="translate(-599.284 -456.558)"/><path class="b" d="M693.066,639.53c-1.264.116-3.123.158-4.934.49-9.578,1.748-10.258,1.153-10.726-8.32a57.8,57.8,0,0,0-1.617-11.537c-1-3.923.111-5.1,4.039-5.36,6.945-.458,13.864-1.38,20.762-2.3,3.36-.448,4.971.526,5.234,4.1.4,5.308,1.011,10.61,1.848,15.865.648,4.054-.195,6.2-4.855,6.3C699.79,638.834,696.788,640.077,693.066,639.53Z" transform="translate(-639.952 -452.02)"/><path class="b" d="M675.273,616.353c.88-3.554-1.143-7.008-1.317-10.705-.173-3.728,1.132-6.081,5.024-6.192a154.327,154.327,0,0,0,18.935-2.191c3.823-.59,6.287.385,6.208,5.155a59.5,59.5,0,0,0,1.2,14.054c1.164,5.192-1.316,6.761-5.555,7.335-4.876.664-9.768,1.237-14.66,1.79C676.057,626.626,675.094,625.725,675.273,616.353Z" transform="translate(-646.355 -517.258)"/><path class="b" d="M687.8,617.974c3.607,2.822,6.677,8.53,10.558,8.12,3.386-.364,6.361-5.724,9.267-9.094,2.227-2.58,4.065-5.492,6.077-8.256,1.622-1.248,3.212-2.538,4.881-3.718,1.137-.805,1.7-3.654,3.665-1.748,1.422,1.38.047,3.049-1.079,4.276-1.1,1.2-2.307,2.291-3.47,3.428-4.529,5.034-9.125,10-13.559,15.118-5.519,6.35-5.682,6.382-11.916.821-1.2-1.063-1.9-2.791-3.739-3.075-1.037-.9-2.054-1.838-3.128-2.7-1.1-.879-2.549-1.816-1.659-3.344C684.941,615.683,686.42,617.768,687.8,617.974Z" transform="translate(-605.915 -493.704)"/><path class="b" d="M706.938,647.434c-2.342-1.516,7.109-8.562,10.69-12.29a8.806,8.806,0,0,0,2.833-7.451c-.268-5.313.169-10.658.29-15.987.032-1.311.279-2.691,1.69-2.912,1.143-.184,1.6,1.006,1.743,2.064,1.048,7.34-.337,14.712-.163,22.084.069,2.938-4.907,6.55-8.278,8.841C713.094,643.585,708.293,650.07,706.938,647.434Z" transform="translate(-505.603 -467.501)"/></g></g></svg>