<svg width="64" height="64" viewBox="0 0 64 64" fill="none" xmlns="http://www.w3.org/2000/svg">
<path d="M4.90735 30.8173C5.07919 30.9384 5.28082 30.9999 5.48297 30.9999C5.64904 30.9999 5.81552 30.9584 5.96688 30.8749L9.50007 28.9218L13.0327 30.8749C13.3673 31.0599 13.7789 31.0375 14.0928 30.8173C14.4058 30.5966 14.5655 30.2167 14.5034 29.8387L13.8174 25.6342L16.7158 22.6635C16.9776 22.3954 17.0674 22.0033 16.9483 21.6479C16.8292 21.2924 16.5216 21.0331 16.1509 20.9765L12.1856 20.371L10.4053 16.5751C10.2408 16.224 9.88826 15.9999 9.50007 15.9999C9.11238 15.9999 8.75981 16.224 8.59483 16.5751L6.81258 20.371L2.84918 20.9765C2.47858 21.0331 2.17099 21.2924 2.05185 21.6474C1.93268 22.0029 2.02253 22.3949 2.28427 22.6635L5.18072 25.6342L4.49618 29.8393C4.43463 30.2172 4.59433 30.597 4.90735 30.8173ZM5.07382 22.6601L7.64168 22.268C7.97127 22.2172 8.25447 22.0063 8.39607 21.704L9.49959 19.3539L10.6016 21.704C10.7432 22.0058 11.0259 22.2172 11.356 22.268L13.9249 22.6601L12.0333 24.599C11.8116 24.8261 11.711 25.1449 11.7623 25.4584L12.1978 28.1283L9.98396 26.9042C9.68318 26.7372 9.31697 26.7372 9.01616 26.9042L6.80086 28.1288L7.23543 25.4579C7.28667 25.1449 7.18612 24.8261 6.96444 24.599L5.07382 22.6601Z" fill="#FF7D59"/>
<path d="M1.76179 8.81782C2.07481 9.03757 2.48689 9.06 2.82139 8.87497L4.5001 7.94675L6.17877 8.87497C6.32968 8.95847 6.49667 8.99997 6.66269 8.99997C6.86483 8.99997 7.06649 8.93848 7.23883 8.81736C7.55184 8.59666 7.71154 8.21677 7.64947 7.83881L7.31747 5.80519L8.71587 4.37157C8.97762 4.10347 9.06746 3.71093 8.94832 3.35595C8.82918 3.00048 8.5216 2.74117 8.15099 2.68453L6.25983 2.39599L5.40534 0.575194C5.24079 0.22409 4.88779 0 4.5001 0C4.1124 0 3.75983 0.22409 3.59486 0.574705L2.73985 2.39599L0.849196 2.68453C0.478592 2.74117 0.171006 2.99999 0.0518659 3.35543C-0.0673049 3.71093 0.0225386 4.10302 0.283799 4.37108L1.68126 5.80519L1.35069 7.83933C1.28914 8.21726 1.44883 8.59711 1.76179 8.81782ZM3.56895 4.29293C3.89853 4.24218 4.18125 4.03124 4.32334 3.72948L4.49961 3.35348L4.67588 3.72899C4.81748 4.03072 5.10068 4.24218 5.4303 4.29293L5.92538 4.36812L5.5333 4.76998C5.31159 4.99703 5.21103 5.31639 5.2623 5.62938L5.34384 6.12791L4.98398 5.92918C4.6832 5.76219 4.31699 5.76219 4.01618 5.92918L3.65488 6.12889L3.73594 5.62889C3.78721 5.31587 3.68659 4.99751 3.46543 4.77046L3.07383 4.36812L3.56895 4.29293Z" fill="#FF7D59"/>
<path d="M25.151 6.06689L22.9141 5.72558L21.9053 3.57519C21.7408 3.22409 21.3878 3 21.0001 3C20.6124 3 20.2594 3.22409 20.0949 3.57519L19.0855 5.72558L16.8492 6.06689C16.4786 6.12353 16.171 6.38277 16.0519 6.73778C15.9327 7.09322 16.0225 7.48534 16.2838 7.75389L17.9313 9.44331L17.5416 11.8393C17.4801 12.2173 17.6398 12.5971 17.9527 12.8174C18.2658 13.0376 18.6763 13.06 19.0123 12.875L21.0001 11.7763L22.9879 12.875C23.1392 12.9585 23.3057 13 23.4718 13C23.6739 13 23.8761 12.9385 24.0479 12.8174C24.3609 12.5967 24.5206 12.2168 24.4586 11.8388L24.0675 9.44331L25.7159 7.75389C25.9776 7.48583 26.0675 7.09374 25.9483 6.73827C25.8292 6.38277 25.5216 6.12353 25.151 6.06689ZM22.2833 8.40819C22.0616 8.63524 21.961 8.95408 22.0123 9.26756L22.1529 10.1284L21.484 9.75877C21.1822 9.59178 20.8179 9.59178 20.5162 9.75877L19.8458 10.1294L19.9859 9.26707C20.0372 8.95408 19.9366 8.63524 19.7154 8.40819L19.0738 7.75047L19.9146 7.62251C20.2442 7.57176 20.5274 7.36083 20.669 7.05858L20.9996 6.35399L21.3302 7.05858C21.4718 7.36034 21.755 7.57176 22.0845 7.62251L22.9249 7.75047L22.2833 8.40819Z" fill="#FF7D59"/>
<path d="M63.1507 2.68453L61.2601 2.39599L60.4051 0.574705C60.2401 0.22409 59.8875 0 59.4998 0C59.1121 0 58.7591 0.22409 58.5946 0.575194L57.7401 2.39599L55.8489 2.68453C55.4783 2.74117 55.1707 3.00048 55.0516 3.35595C54.9324 3.71093 55.0223 4.10347 55.284 4.37157L56.6824 5.80519L56.3504 7.83881C56.2884 8.21677 56.4481 8.59666 56.7611 8.81736C56.9334 8.93848 57.1351 8.99997 57.3372 8.99997C57.5032 8.99997 57.6702 8.95847 57.8211 8.87497L59.4998 7.94675L61.1785 8.87497C61.513 9.06 61.9251 9.03757 62.2381 8.81782C62.5511 8.59711 62.7108 8.21726 62.6492 7.83933L62.3187 5.80519L63.7161 4.37108C63.9774 4.10302 64.0672 3.71093 63.9481 3.35543C63.8289 2.99999 63.5213 2.74117 63.1507 2.68453ZM60.5345 4.77046C60.3133 4.99751 60.2127 5.31587 60.264 5.62889L60.345 6.12889L59.9837 5.92918C59.8333 5.84569 59.6663 5.80418 59.4998 5.80418C59.3333 5.80418 59.1663 5.84569 59.0159 5.92918L58.6561 6.12791L58.7376 5.62938C58.7889 5.31639 58.6883 4.99703 58.4666 4.76998L58.0746 4.36812L58.5696 4.29293C58.8992 4.24218 59.1824 4.03072 59.324 3.72899L59.5003 3.35348L59.6766 3.72948C59.8187 4.03124 60.1014 4.24218 60.431 4.29293L60.9261 4.36812L60.5345 4.77046Z" fill="#FF7D59"/>
<path d="M47.9483 5.11962C47.8292 4.76464 47.5216 4.50533 47.1509 4.44872L44.5694 4.05468L43.4053 1.57519C43.2403 1.22409 42.8878 1 42.5001 1C42.1119 1 41.7594 1.22409 41.5948 1.57519L40.4317 4.05468L37.8492 4.44872C37.4786 4.50533 37.171 4.76464 37.0519 5.12007C36.9327 5.47557 37.0225 5.86769 37.2843 6.13573L39.1827 8.08152L38.7325 10.8388C38.6705 11.2168 38.8302 11.5966 39.1431 11.8174C39.3155 11.9385 39.5172 12 39.7193 12C39.8853 12 40.0518 11.9585 40.2032 11.875L42.5001 10.6054L44.797 11.875C45.1329 12.06 45.5435 12.0381 45.8565 11.8174C46.1695 11.5971 46.3292 11.2173 46.2676 10.8393L45.8189 8.08152L47.7163 6.13573C47.9776 5.86717 48.0674 5.47508 47.9483 5.11962ZM44.0347 7.04637C43.8136 7.27342 43.713 7.59227 43.7642 7.90522L43.963 9.12888L42.984 8.58787C42.8331 8.50437 42.6666 8.46287 42.5001 8.46287C42.3336 8.46287 42.1671 8.50437 42.0162 8.58787L41.0382 9.12836L41.2379 7.90571C41.2891 7.59227 41.1886 7.27342 40.9669 7.04637L40.0753 6.13228L41.2613 5.95162C41.5909 5.90086 41.8741 5.68944 42.0157 5.38768L42.5006 4.35399L42.9859 5.38768C43.1275 5.68993 43.4107 5.90086 43.7403 5.95162L44.9259 6.13228L44.0347 7.04637Z" fill="#FF7D59"/>
<path d="M63.1507 19.0043L57.8035 18.1879L55.4051 13.0751C55.2405 12.724 54.8875 12.4999 54.4998 12.4999C54.1121 12.4999 53.7596 12.724 53.5946 13.0751L51.1942 18.1879L45.849 19.0043C45.4783 19.061 45.1708 19.3202 45.0516 19.6752C44.9325 20.0306 45.0223 20.4228 45.2836 20.6913L49.1795 24.6874L48.2601 30.3392C48.1986 30.7172 48.3583 31.097 48.6712 31.3173C48.9843 31.538 49.3954 31.5599 49.7308 31.3749L54.4998 28.7386L59.2684 31.3749C59.4197 31.4584 59.5863 31.4999 59.7523 31.4999C59.9544 31.4999 60.1561 31.4384 60.3284 31.3173C60.6414 31.0966 60.8011 30.7167 60.7391 30.3387L59.8162 24.6874L63.7156 20.6913C63.9773 20.4233 64.0672 20.0312 63.9481 19.6757C63.8289 19.3202 63.5213 19.061 63.1507 19.0043ZM58.0321 23.6523C57.8104 23.8793 57.7098 24.1981 57.7611 24.5116L58.4334 28.6278L54.9837 26.7211C54.6829 26.5541 54.3167 26.5541 54.0159 26.7211L50.5643 28.6288L51.2343 24.5111C51.2855 24.1981 51.1849 23.8793 50.9637 23.6523L48.0736 20.6879L52.0233 20.0848C52.3529 20.0341 52.6361 19.8232 52.7777 19.5209L54.4993 15.8539L56.2196 19.5209C56.3612 19.8227 56.6439 20.0341 56.9739 20.0848L60.9246 20.6879L58.0321 23.6523Z" fill="#FF7D59"/>
<path d="M28.7304 38.0975L27.0464 49.5833C26.874 50.3836 27.2173 51.8406 28.0782 52.4403L30.4736 54.5311L30.6133 54.6326C31.0195 54.8792 31.5176 55.0023 32.0161 55.0023C32.5141 55.0023 33.0122 54.8792 33.4189 54.6331L35.9575 52.4383C36.7719 51.8621 37.1645 50.4149 36.9316 49.5477L34.8711 38.1893C34.226 38.33 33.5639 38.4232 32.8886 38.4676L34.9731 49.9559L34.998 50.0545C35.0244 50.2332 34.9057 50.6658 34.7944 50.8089L32.331 52.9481C32.1616 53.0169 31.8716 53.0174 31.7021 52.9486L29.3423 50.889L29.2339 50.806C29.1137 50.659 28.9775 50.1971 28.9946 50.033L30.7002 38.4359C30.0278 38.3715 29.3701 38.2572 28.7304 38.0975Z" fill="#FF7D59"/>
<path d="M41.4764 34.6034C40.8983 35.1737 40.2694 35.6927 39.597 36.1527C42.9681 36.9974 46.1468 38.6385 48.7367 40.9369C52.7758 44.5209 54.9999 49.3021 54.9999 54.4007V59.8817C54.9999 61.0496 54.0668 61.9998 52.9198 61.9998H11.0796C9.9331 61.9998 8.99999 61.0496 8.99999 59.8817V54.4007C8.99999 49.3026 11.2246 44.5209 15.2641 40.9369C17.854 38.639 21.0322 36.9979 24.4032 36.1527C23.7304 35.6932 23.102 35.1742 22.5239 34.6039C13.8838 37.3304 7 44.8749 7 54.4007V59.8817C7 62.1541 8.82614 63.9998 11.0796 63.9998H52.9198C55.1722 63.9998 56.9999 62.1541 56.9999 59.8817V54.4007C56.9999 44.8744 50.1171 37.33 41.4764 34.6034Z" fill="#FF7D59"/>
<path d="M43.4999 25.0004C43.4999 18.6493 38.3505 13.4999 32 13.4999C25.6484 13.4999 20.5 18.6493 20.5 25.0004C20.5 31.3505 25.6484 36.4999 32 36.4999C38.3505 36.4999 43.4999 31.3505 43.4999 25.0004ZM32 34.4999C26.7617 34.4999 22.5 30.2386 22.5 25.0004C22.5 19.7616 26.7617 15.4999 32 15.4999C37.2382 15.4999 41.4999 19.7616 41.4999 25.0004C41.4999 30.2386 37.2382 34.4999 32 34.4999Z" fill="#FF7D59"/>
</svg>
