<svg width="64" height="64" viewBox="0 0 64 64" fill="none" xmlns="http://www.w3.org/2000/svg">
<path d="M50.3606 37.3353V33.069C50.3606 32.9289 50.3335 32.7902 50.2808 32.6608C50.2281 32.5314 50.1508 32.4138 50.0534 32.3147C49.9559 32.2157 49.8403 32.1371 49.7129 32.0835C49.5856 32.0299 49.4492 32.0024 49.3114 32.0024H36.9221C37.4802 31.0317 37.7731 29.927 37.7704 28.8026C37.7704 27.1054 37.1072 25.4777 35.9266 24.2775C34.7461 23.0774 33.1449 22.4031 31.4753 22.4031C29.8058 22.4031 28.2046 23.0774 27.024 24.2775C25.8435 25.4777 25.1803 27.1054 25.1803 28.8026C25.1776 29.927 25.4705 31.0317 26.0286 32.0024H13.6393C13.5015 32.0024 13.365 32.0299 13.2377 32.0835C13.1104 32.1371 12.9947 32.2157 12.8973 32.3147C12.7999 32.4138 12.7226 32.5314 12.6699 32.6608C12.6172 32.7902 12.5901 32.9289 12.5901 33.069V37.3353C12.5901 37.4754 12.6172 37.6141 12.6699 37.7435C12.7226 37.873 12.7999 37.9906 12.8973 38.0896C12.9947 38.1887 13.1104 38.2672 13.2377 38.3208C13.365 38.3744 13.5015 38.402 13.6393 38.4019H25.0409L22.0409 62.8011C22.0224 62.9512 22.0355 63.1035 22.0794 63.2481C22.1232 63.3926 22.1968 63.526 22.2953 63.6394C22.3937 63.7527 22.5148 63.8435 22.6504 63.9057C22.786 63.9679 22.9331 64 23.0819 64H28.3278C28.5703 63.9999 28.8053 63.9145 28.9928 63.7582C29.1803 63.6019 29.3089 63.3844 29.3565 63.1427L31.4753 52.3732L33.5942 63.1427C33.6418 63.3844 33.7703 63.6019 33.9579 63.7582C34.1454 63.9145 34.3804 63.9999 34.6229 64H39.8688C40.0176 64 40.1646 63.9679 40.3003 63.9057C40.4359 63.8435 40.5569 63.7527 40.6554 63.6394C40.7539 63.526 40.8275 63.3926 40.8713 63.2481C40.9152 63.1035 40.9283 62.9512 40.9098 62.8011L37.9098 38.4019H49.3114C49.4492 38.402 49.5856 38.3744 49.7129 38.3208C49.8403 38.2672 49.9559 38.1887 50.0534 38.0896C50.1508 37.9906 50.2281 37.873 50.2808 37.7435C50.3335 37.6141 50.3606 37.4754 50.3606 37.3353V37.3353ZM48.2622 36.2687H36.7212C36.5725 36.2687 36.4254 36.3008 36.2898 36.363C36.1541 36.4252 36.0331 36.516 35.9346 36.6294C35.8362 36.7427 35.7626 36.8761 35.7187 37.0206C35.6748 37.1652 35.6617 37.3175 35.6802 37.4676L38.6803 61.8668H35.4825L32.504 46.7252C32.4564 46.4835 32.3279 46.266 32.1404 46.1097C31.9529 45.9534 31.7178 45.868 31.4753 45.868C31.2328 45.868 30.9978 45.9534 30.8103 46.1097C30.6227 46.266 30.4942 46.4835 30.4466 46.7252L27.4682 61.8668H24.2704L27.2704 37.4676C27.2889 37.3175 27.2758 37.1652 27.232 37.0206C27.1881 36.8761 27.1145 36.7427 27.0161 36.6294C26.9176 36.516 26.7965 36.4252 26.6609 36.363C26.5253 36.3008 26.3782 36.2687 26.2294 36.2687H14.6884V34.1356H28.3565C28.5769 34.1356 28.7918 34.065 28.9706 33.9338C29.1493 33.8026 29.2829 33.6175 29.3523 33.4048C29.4217 33.1921 29.4235 32.9625 29.3573 32.7487C29.2911 32.5349 29.1603 32.3478 28.9835 32.2138C28.4554 31.8217 28.0258 31.3084 27.7295 30.7157C27.4333 30.1229 27.2788 29.4675 27.2786 28.8026C27.2786 27.6711 27.7208 26.586 28.5078 25.7859C29.2948 24.9858 30.3623 24.5363 31.4753 24.5363C32.5884 24.5363 33.6558 24.9858 34.4429 25.7859C35.2299 26.586 35.6721 27.6711 35.6721 28.8026C35.6719 29.4675 35.5174 30.1229 35.2211 30.7157C34.9249 31.3084 34.4953 31.8217 33.9671 32.2138C33.7904 32.3478 33.6596 32.5349 33.5934 32.7487C33.5272 32.9625 33.5289 33.1921 33.5984 33.4048C33.6678 33.6175 33.8013 33.8026 33.9801 33.9338C34.1589 34.065 34.3737 34.1356 34.5942 34.1356H48.2622V36.2687Z" fill="#FF7D59"/>
<path d="M36.3546 1.89071C34.9366 0.606411 33.0841 -0.0692589 31.1864 0.00562058C29.2886 0.0805001 27.4932 0.900102 26.1774 2.29227C24.8615 3.68444 24.1275 5.54084 24.1296 7.47153C24.1317 9.40222 24.8698 11.257 26.1887 12.6462C26.9197 13.4618 27.3105 14.5341 27.2788 15.637V16.0037C27.2788 16.1438 27.3059 16.2825 27.3586 16.4119C27.4113 16.5413 27.4886 16.6589 27.586 16.758C27.6835 16.857 27.7991 16.9356 27.9265 16.9892C28.0538 17.0427 28.1902 17.0703 28.328 17.0703H34.6231C34.7609 17.0703 34.8973 17.0427 35.0246 16.9892C35.1519 16.9356 35.2676 16.857 35.365 16.758C35.4625 16.6589 35.5398 16.5413 35.5925 16.4119C35.6452 16.2825 35.6723 16.1438 35.6723 16.0037V15.4501C35.7076 14.3413 36.1481 13.2857 36.9079 12.4894C37.5618 11.7594 38.0665 10.9047 38.393 9.97482C38.7194 9.04496 38.861 8.05848 38.8095 7.07258C38.758 6.08667 38.5145 5.12096 38.0931 4.23146C37.6717 3.34195 37.0808 2.54633 36.3546 1.89076V1.89071ZM35.3567 11.052C34.3623 12.1128 33.7428 13.4794 33.5954 14.9371H29.3444C29.2331 13.5261 28.6528 12.1957 27.6989 11.1645C26.9892 10.4158 26.5103 9.47258 26.3211 8.45083C26.1319 7.42908 26.2406 6.37338 26.6339 5.41364C27.0272 4.45389 27.6879 3.63196 28.5348 3.04897C29.3816 2.46599 30.3776 2.14739 31.4002 2.13236C32.4228 2.11734 33.4275 2.40655 34.2905 2.96442C35.1536 3.52229 35.8374 4.32447 36.2578 5.27226C36.6782 6.22006 36.8169 7.27212 36.6568 8.299C36.4967 9.32588 36.0448 10.2828 35.3567 11.052V11.052Z" fill="#FF7D59"/>
<path d="M33.5737 18.1368H29.377V20.27H33.5737V18.1368Z" fill="#FF7D59"/>
<path d="M0.719266 20.9309L2.54611 21.5459L2.81455 22.2021L2.04508 23.8484C1.96488 24.0199 1.93123 24.2101 1.94762 24.3992C1.96402 24.5884 2.02986 24.7697 2.13832 24.9243C2.88778 25.9971 3.80946 26.9341 4.86476 27.696C5.01672 27.8061 5.19489 27.8729 5.38081 27.8895C5.56673 27.9061 5.75363 27.8718 5.92213 27.7902L7.54206 27.0085L8.18755 27.2809L8.79206 29.1375C8.86124 29.3505 8.99473 29.5358 9.17352 29.6672C9.35231 29.7985 9.5673 29.8693 9.78791 29.8692H13.2941C13.5147 29.8693 13.7297 29.7986 13.9085 29.6672C14.0873 29.5358 14.2208 29.3505 14.29 29.1376L14.8811 27.3226C15.1168 27.2335 15.3494 27.1351 15.5788 27.0273L17.1598 27.7903C17.3283 27.872 17.5152 27.9064 17.7011 27.8898C17.8871 27.8732 18.0653 27.8063 18.2172 27.696C19.2723 26.934 20.194 25.997 20.9436 24.9243C21.0521 24.7697 21.1179 24.5884 21.1343 24.3993C21.1507 24.2101 21.117 24.0199 21.0368 23.8484L20.2859 22.2417C20.3925 22.0079 20.4894 21.7714 20.5769 21.5324L22.3627 20.9309C22.5721 20.8604 22.7543 20.7246 22.8834 20.5429C23.0125 20.3611 23.082 20.1426 23.082 19.9184V16.3552C23.082 16.131 23.0125 15.9125 22.8834 15.7307C22.7543 15.5489 22.5721 15.4132 22.3627 15.3427L20.5768 14.7417C20.4898 14.5022 20.3928 14.2656 20.2859 14.0319L21.0369 12.4253C21.1171 12.2537 21.1507 12.0635 21.1343 11.8744C21.118 11.6852 21.0521 11.5039 20.9436 11.3493C20.1943 10.2766 19.273 9.3395 18.2182 8.57711C18.066 8.46712 17.8877 8.4004 17.7016 8.38383C17.5156 8.36726 17.3286 8.40144 17.1598 8.48285L15.5789 9.24633C15.3494 9.13853 15.1168 9.0401 14.8812 8.95104L14.29 7.13604C14.2208 6.92309 14.0873 6.73774 13.9085 6.60638C13.7297 6.47502 13.5147 6.40432 13.2941 6.40436H9.78791C9.5673 6.40432 9.3523 6.47502 9.1735 6.60638C8.9947 6.73774 8.8612 6.92309 8.792 7.13604L8.1875 8.9927L7.54201 9.26508L5.92208 8.48285C5.75328 8.40173 5.56631 8.36772 5.38032 8.38428C5.19433 8.40084 5.01602 8.4674 4.86367 8.57711C3.80928 9.33973 2.88805 10.2766 2.13827 11.3488C2.02981 11.5033 1.96396 11.6845 1.94757 11.8736C1.93117 12.0627 1.96482 12.2528 2.04503 12.4242L2.8145 14.0715L2.54606 14.7277L0.719213 15.3427C0.509853 15.4132 0.327667 15.549 0.198552 15.7307C0.069436 15.9125 -3.95127e-05 16.131 1.6859e-08 16.3552V19.9184C-3.58625e-05 20.1426 0.0694473 20.3611 0.198573 20.5429C0.327698 20.7246 0.509896 20.8604 0.719266 20.9309ZM2.09836 17.1254L3.66086 16.5994C3.80373 16.5514 3.93476 16.4726 4.04507 16.3686C4.15538 16.2645 4.24239 16.1376 4.3002 15.9963L4.93136 14.4517C4.9875 14.3137 5.0146 14.1653 5.01089 14.016C5.00718 13.8668 4.97276 13.72 4.90984 13.5851L4.21414 12.095C4.62667 11.5788 5.09054 11.1072 5.59836 10.6878L7.06352 11.3956C7.19616 11.4598 7.3406 11.495 7.48746 11.4987C7.63433 11.5025 7.78033 11.4748 7.91598 11.4175L9.43545 10.7764C9.57445 10.7176 9.69938 10.6291 9.80174 10.5168C9.9041 10.4046 9.9815 10.2713 10.0287 10.1259L10.5461 8.53753H12.5359L13.0533 10.126C13.1058 10.288 13.1959 10.4348 13.3159 10.554C13.4359 10.6733 13.5823 10.7615 13.7428 10.8113C14.2036 10.9544 14.6497 11.1426 15.0748 11.3732C15.2195 11.4515 15.3802 11.4942 15.544 11.4981C15.7078 11.502 15.8703 11.4669 16.0184 11.3956L17.4836 10.6879C17.9916 11.1073 18.4554 11.5791 18.8678 12.0956L18.1721 13.5845C18.1019 13.7351 18.0673 13.9002 18.0711 14.0668C18.0748 14.2333 18.1168 14.3967 18.1936 14.5439C18.4204 14.9762 18.606 15.4296 18.7479 15.8979C18.7967 16.0611 18.8833 16.21 19.0004 16.3321C19.1176 16.4542 19.2618 16.5459 19.4211 16.5994L20.9836 17.1254V19.1482L19.4211 19.6742C19.262 19.7279 19.1178 19.8196 19.0007 19.9415C18.8836 20.0635 18.7969 20.2122 18.7479 20.3752C18.6059 20.8437 18.4203 21.2975 18.1936 21.7303C18.1168 21.8773 18.0748 22.0406 18.0711 22.2071C18.0673 22.3735 18.1019 22.5386 18.1721 22.6891L18.8678 24.178C18.4556 24.6945 17.9917 25.1661 17.4836 25.5852L16.0184 24.878C15.8705 24.8061 15.7079 24.7706 15.544 24.7745C15.38 24.7784 15.2193 24.8215 15.0748 24.9004C14.6497 25.131 14.2036 25.3192 13.7428 25.4623C13.5823 25.5121 13.4359 25.6003 13.3159 25.7196C13.1959 25.8388 13.1058 25.9856 13.0533 26.1477L12.5359 27.7361H10.5461L10.0287 26.1476C9.9815 26.0023 9.9041 25.869 9.80174 25.7567C9.69938 25.6445 9.57445 25.556 9.43545 25.4972L7.91598 24.8561C7.78027 24.799 7.6343 24.7715 7.48747 24.7752C7.34065 24.779 7.19623 24.814 7.06352 24.8779L5.59836 25.5852C5.0903 25.1661 4.6264 24.6945 4.21414 24.178L4.90984 22.689C4.97276 22.554 5.00718 22.4071 5.01089 22.2578C5.01459 22.1085 4.9875 21.96 4.93136 21.8219L4.3002 20.2772C4.24239 20.136 4.15538 20.009 4.04507 19.905C3.93476 19.8009 3.80373 19.7222 3.66086 19.6742L2.09836 19.1482V17.1254Z" fill="#FF7D59"/>
<path d="M62.9508 7.47095H46.1639C46.0261 7.47091 45.8897 7.49847 45.7624 7.55206C45.6351 7.60565 45.5194 7.68421 45.422 7.78326C45.3245 7.88231 45.2472 7.9999 45.1945 8.12933C45.1418 8.25875 45.1147 8.39746 45.1147 8.53753V28.8027C45.1147 28.9427 45.1418 29.0814 45.1945 29.2109C45.2472 29.3403 45.3245 29.4579 45.422 29.5569C45.5194 29.656 45.6351 29.7345 45.7624 29.7881C45.8897 29.8417 46.0261 29.8693 46.1639 29.8692H62.9508C63.0886 29.8693 63.2251 29.8417 63.3524 29.7881C63.4797 29.7345 63.5953 29.656 63.6928 29.5569C63.7902 29.4579 63.8675 29.3403 63.9202 29.2109C63.9729 29.0814 64 28.9427 64 28.8027V8.53753C64 8.39746 63.9729 8.25875 63.9202 8.12933C63.8675 7.9999 63.7902 7.88231 63.6928 7.78326C63.5953 7.68421 63.4797 7.60565 63.3524 7.55206C63.2251 7.49847 63.0886 7.47091 62.9508 7.47095V7.47095ZM61.9016 27.7361H47.2131V9.60412H61.9016V27.7361Z" fill="#FF7D59"/>
<path d="M51.4099 18.1368H49.3115V25.6029H51.4099V18.1368Z" fill="#FF7D59"/>
<path d="M55.6067 14.9371H53.5083V25.6029H55.6067V14.9371Z" fill="#FF7D59"/>
<path d="M59.8032 11.7374H57.7048V25.603H59.8032V11.7374Z" fill="#FF7D59"/>
<path d="M55.6067 34.1356H53.5083V36.2687H55.6067V34.1356Z" fill="#FF7D59"/>
<path d="M9.4426 34.1356H7.34424V36.2687H9.4426V34.1356Z" fill="#FF7D59"/>
<path d="M60.8525 57.6005H58.7542V59.7336H60.8525V57.6005Z" fill="#FF7D59"/>
<path d="M60.8525 61.8668H58.7542V64H60.8525V61.8668Z" fill="#FF7D59"/>
<path d="M62.9509 59.7337H60.8525V61.8669H62.9509V59.7337Z" fill="#FF7D59"/>
<path d="M58.7541 59.7337H56.6558V61.8669H58.7541V59.7337Z" fill="#FF7D59"/>
<path d="M4.19675 57.6005H2.09839V59.7336H4.19675V57.6005Z" fill="#FF7D59"/>
<path d="M4.19675 61.8668H2.09839V64H4.19675V61.8668Z" fill="#FF7D59"/>
<path d="M6.29514 59.7337H4.19678V61.8669H6.29514V59.7337Z" fill="#FF7D59"/>
<path d="M2.09836 59.7337H0V61.8669H2.09836V59.7337Z" fill="#FF7D59"/>
<path d="M11.5409 24.5364C12.786 24.5364 14.0031 24.1611 15.0383 23.4579C16.0735 22.7547 16.8804 21.7552 17.3568 20.5859C17.8333 19.4165 17.958 18.1298 17.7151 16.8884C17.4722 15.647 16.8726 14.5067 15.9922 13.6117C15.1118 12.7168 13.9902 12.1073 12.769 11.8603C11.5479 11.6134 10.2822 11.7401 9.13191 12.2245C7.98163 12.7089 6.99848 13.5291 6.30676 14.5815C5.61505 15.6339 5.24585 16.8712 5.24585 18.1369C5.24767 19.8336 5.91149 21.4602 7.09165 22.66C8.27181 23.8597 9.87193 24.5345 11.5409 24.5364V24.5364ZM11.5409 13.8705C12.371 13.8705 13.1824 14.1208 13.8725 14.5895C14.5627 15.0583 15.1006 15.7247 15.4182 16.5042C15.7358 17.2838 15.8189 18.1416 15.657 18.9692C15.4951 19.7968 15.0954 20.557 14.5085 21.1536C13.9215 21.7503 13.1738 22.1566 12.3597 22.3212C11.5456 22.4859 10.7018 22.4014 9.93492 22.0785C9.16807 21.7556 8.51263 21.2087 8.05149 20.5071C7.59034 19.8055 7.34421 18.9807 7.34421 18.1369C7.3454 17.0057 7.78793 15.9213 8.57471 15.1215C9.36149 14.3216 10.4283 13.8717 11.5409 13.8705V13.8705Z" fill="#FF7D59"/>
</svg>
