<svg xmlns="http://www.w3.org/2000/svg" width="32" height="31.996" viewBox="0 0 32 31.996"><defs><style>.a{fill:#303030;}</style></defs><path class="a" d="M15.845,21.7q-5,0-10,0c-1.5,0-3,.014-4.5.005C.541,21.7.106,21.191.106,20.273c0-2.9.005-5.812.005-8.717q0-4.6-.009-9.212C.1,2,.079,1.647.1,1.3A1.231,1.231,0,0,1,1.183.032,2.753,2.753,0,0,1,1.524.018c1.23,0,2.46.009,3.69.009Q16.409.024,27.6.016C28.475.016,29.346,0,30.217,0c1,0,1.452.518,1.451,1.636,0,.826-.014,1.654-.014,2.482q0,6.605,0,13.212c0,.927.012,1.856.014,2.785,0,1.069-.46,1.6-1.4,1.6-2.892,0-5.783-.012-8.675-.016Q18.717,21.695,15.845,21.7Zm.041-20.182H1.786a1.44,1.44,0,0,1-.2,0c-.128-.016-.172.042-.167.186.009.267.009.534.009.8q.005,2.11.007,4.219,0,4.262,0,8.522c0,1.59,0,3.181-.009,4.771,0,.161.044.214.18.207.2-.009.391-.009.587-.009q11.412,0,22.825,0,2.506,0,5.009.018c.235,0,.315-.053.311-.341-.018-1.656-.016-3.31-.014-4.964q0-6.565.011-13.129c0-.223-.043-.3-.251-.292-1.157.014-2.314.014-3.47.014Z" transform="translate(0.072)"/><path class="a" d="M16,20.187q-5.266,0-10.532,0c-1.376,0-2.752.027-4.127.039a1.789,1.789,0,0,1-.388-.039C.416,20.083.1,19.664.045,18.949a14.677,14.677,0,0,1,0-2.339c.069-.84.483-1.353,1.132-1.44a6.628,6.628,0,0,1,.876-.058q12.878-.005,25.756,0c.946,0,1.89-.009,2.835-.009a2.018,2.018,0,0,1,.412.034,1.206,1.206,0,0,1,.9,1.258,19.218,19.218,0,0,1,.006,2.479c-.055.828-.444,1.33-1.077,1.343-1.173.023-2.346,0-3.52,0-.057,0-.114-.007-.171-.007q-3.615-.011-7.231-.021-1.981,0-3.959,0Zm.011-1.767.008-.012c1.785,0,3.568,0,5.352,0,1.205,0,2.41.014,3.615.021,1.8.011,3.6.016,5.4.041.233,0,.292-.092.274-.379a8.828,8.828,0,0,1-.008-.92c.014-.249-.052-.311-.233-.308q-1.624.027-3.249.025l-25.076,0c-.194,0-.389.021-.585.021-.116,0-.158.062-.156.211,0,.336.012.674-.005,1.008-.014.264.059.327.247.326q1.989-.032,3.982-.037Q10.792,18.415,16.009,18.42Z" transform="translate(0 11.766)"/><path class="a" d="M10.784,11.768c-1-.009-2.008-.03-3.011.005-.9.034-1.3-.3-1.362-1.189a10.272,10.272,0,0,1,.037-1.851,1.591,1.591,0,0,1,.962-1.32,7.661,7.661,0,0,1,7.39.142,1.435,1.435,0,0,1,.8,1.311c.007.439.018.879,0,1.32a1.433,1.433,0,0,1-1.49,1.544c-.934.071-1.868.023-2.8.037C11.14,11.769,10.961,11.768,10.784,11.768Zm.1-1.267c.826,0,1.654,0,2.48,0,.248,0,.494-.023.74-.039a.219.219,0,0,0,.23-.23,10.969,10.969,0,0,0,0-1.343c-.005-.131-.087-.186-.186-.241a6.377,6.377,0,0,0-6.192-.09.433.433,0,0,0-.269.4c-.016.471-.021.943-.034,1.414,0,.1.027.15.147.143C8.835,10.457,9.861,10.5,10.889,10.5Z" transform="translate(4.987 5.091)"/><path class="a" d="M13.317,5.506A3.013,3.013,0,1,1,10.362,2.5,3,3,0,0,1,13.317,5.506Zm-1.268.007A1.745,1.745,0,1,0,10.3,7.264,1.743,1.743,0,0,0,12.048,5.513Z" transform="translate(5.684 1.921)"/><path class="a" d="M5.4,11.214c-.6,0-1.2,0-1.806,0a.931.931,0,0,1-1.008-.819,3.252,3.252,0,0,1-.078-.943,1.355,1.355,0,0,1,.57-1.044A5.8,5.8,0,0,1,6.4,7.274a4.256,4.256,0,0,1,.6.044.893.893,0,0,1,.8.906c.007.688.005,1.375,0,2.063a.831.831,0,0,1-.819.886c-.524.028-1.051.007-1.575.007ZM5.317,9.929c.359,0,.692-.005,1.023,0,.149,0,.205-.041.2-.2-.009-.331-.011-.663,0-.994.005-.172-.065-.209-.218-.205a3.961,3.961,0,0,0-1.668.423c-.255.126-.5.271-.748.412-.186.106-.163.29-.129.455s.177.073.272.087A10.15,10.15,0,0,0,5.317,9.929Z" transform="translate(1.923 5.664)"/><path class="a" d="M15.128,11.206c-.51,0-1.019,0-1.529,0a.949.949,0,0,1-1.051-.911,13.053,13.053,0,0,1-.046-2.1.953.953,0,0,1,.892-.883,5.132,5.132,0,0,1,3.054.635c.184.1.363.205.538.318a1.583,1.583,0,0,1,.786,1.854c-.007.039-.018.076-.025.113-.136.7-.382.913-1.092.939C16.145,11.185,15.638,11.212,15.128,11.206Zm.037-1.261V9.913c.393,0,.787,0,1.18,0,.069,0,.17.03.188-.085.025-.17.048-.34-.145-.444-.149-.081-.288-.18-.435-.265a4.089,4.089,0,0,0-2-.577c-.1,0-.205-.028-.2.138.011.363.011.725.012,1.088,0,.134.057.186.2.182C14.362,9.94,14.764,9.945,15.165,9.945Z" transform="translate(9.752 5.665)"/><path class="a" d="M5.665,8.723A2.215,2.215,0,1,1,7.91,6.517,2.226,2.226,0,0,1,5.665,8.723Zm.011-3.161a.969.969,0,0,0-.98.959.973.973,0,0,0,1.946-.012A.962.962,0,0,0,5.676,5.561Z" transform="translate(2.67 3.344)"/><path class="a" d="M14.2,8.725a2.216,2.216,0,1,1,2.312-2.141A2.237,2.237,0,0,1,14.2,8.725Zm.062-3.163a.969.969,0,0,0-.966.95.984.984,0,0,0,.945.95A1,1,0,0,0,15.251,6.5.989.989,0,0,0,14.26,5.562Z" transform="translate(9.366 3.344)"/><rect class="a" width="1.575" height="7.164" transform="translate(15.211 21.026)"/><rect class="a" width="1.575" height="7.164" transform="matrix(0.94, -0.342, 0.342, 0.94, 19.369, 21.511)"/><rect class="a" width="1.575" height="7.164" transform="translate(11.147 20.973) rotate(20)"/></svg>