<svg xmlns="http://www.w3.org/2000/svg" width="33.296" height="25.602" viewBox="0 0 33.296 25.602"><defs><style>.a{fill:#303030;stroke:#accaff;stroke-width:0.8px;}</style></defs><g transform="translate(30.73 -2.441)"><path class="a" d="M-30.33,13.7c1.791-1.6,3.415-3.377,5.133-5.054q1.5-1.46,2.957-2.963a.72.72,0,0,1,1.209-.019c1.16,1.135,1.174,1.12,0,2.288l-6.411,6.395c2.258,2.257,4.491,4.482,6.713,6.716.274.275.773.538.531,1a2.626,2.626,0,0,1-1.377,1.305c-.341.122-.55-.229-.766-.444q-3.654-3.648-7.3-7.3c-.218-.218-.458-.416-.688-.623Z" transform="translate(0 0.887)"/><path class="a" d="M-3.665,15.006q-2.744,2.711-5.486,5.421c-.872.862-1.747,1.724-2.6,2.608a.728.728,0,0,1-1.216.012c-1.16-1.131-1.173-1.116-.05-2.234l6.482-6.459C-8.821,12.078-11.072,9.84-13.321,7.6c-.72-.718-.718-.837.008-1.564.118-.119.246-.23.355-.359.41-.485.78-.416,1.205.014q2.764,2.8,5.561,5.565a34.843,34.843,0,0,0,2.528,2.452Z" transform="translate(5.831 0.884)"/><path class="a" d="M-12.609,3.671c-.573,1.99-1.1,3.813-1.622,5.635q-2.506,8.683-5.021,17.365c-.11.374-.1.925-.608.964a2.434,2.434,0,0,1-1.625-.46c-.337-.249-.127-.631-.038-.941q1.489-5.189,3-10.376,1.749-6.054,3.5-12.107c.108-.372.129-.933.658-.909a2.471,2.471,0,0,1,1.606.525A.537.537,0,0,1-12.609,3.671Z" transform="translate(3.066)"/></g></svg>