<svg xmlns="http://www.w3.org/2000/svg" width="23.579" height="23.579" viewBox="0 0 23.579 23.579">
  <g id="Group_26" data-name="Group 26" transform="translate(-818.627 -769.964)">
    <path id="Path_161" data-name="Path 161" d="M820.625,772.226c-.276.3-.546.614-.83.912a.61.61,0,0,1-.948.08c-.351-.332-.248-.671.063-.981.674-.672,1.349-1.344,2.019-2.021a.623.623,0,0,1,.988-.016q1.058,1.038,2.1,2.1a.59.59,0,0,1,.024.907.579.579,0,0,1-.9-.018c-.31-.317-.586-.668-.87-1a.468.468,0,0,0-.193.5q-.006,8.435-.009,16.871c0,.353.022.549.476.548,5.678-.016,11.355-.01,17.033-.013a.369.369,0,0,0,.388-.163c-.293-.261-.6-.524-.9-.8-.311-.293-.447-.64-.109-.986s.678-.236.987.073q1.009,1.011,2.019,2.02a.619.619,0,0,1,0,.986c-.7.7-1.394,1.4-2.1,2.095a.576.576,0,0,1-.9.018.587.587,0,0,1,.018-.907c.311-.313.649-.6,1-.925a.975.975,0,0,0-.676-.126q-8.705-.006-17.41,0c-.97,0-1.108-.14-1.108-1.13q0-8.679,0-17.357v-.579Z" transform="translate(0 0)" fill="#404040"/>
    <path id="Path_162" data-name="Path 162" d="M845.579,778.791c-.628.088-1.106.152-1.584.222-.422.062-.716-.086-.784-.524s.179-.668.6-.721c.943-.119,1.886-.242,2.831-.349.628-.071.822.076.915.681q.213,1.383.4,2.769c.07.513-.143.857-.552.871a.66.66,0,0,1-.732-.684c-.04-.37-.106-.737-.179-1.229-.314.373-.555.666-.8.954a17.169,17.169,0,0,1-11.014,5.944,15.592,15.592,0,0,1-1.771.11.62.62,0,0,1-.723-.618c-.036-.4.254-.654.731-.669a16.059,16.059,0,0,0,9.5-3.435A14.958,14.958,0,0,0,845.579,778.791Z" transform="translate(-8.557 -4.696)" fill="#404040"/>
    <path id="Path_163" data-name="Path 163" d="M866.653,800.22c0,1.185,0,2.371,0,3.556,0,.571-.233.887-.635.887s-.647-.336-.647-.886q0-3.557,0-7.113c0-.57.229-.87.646-.873s.635.287.636.872C866.655,797.849,866.653,799.035,866.653,800.22Z" transform="translate(-29.503 -16.303)" fill="#404040"/>
    <path id="Path_164" data-name="Path 164" d="M857.255,805.229c0,.826.006,1.653,0,2.479-.005.507-.283.854-.663.8-.448-.059-.617-.354-.614-.8q.016-2.506,0-5.013c0-.441.149-.745.609-.8.4-.045.663.274.669.792C857.261,803.54,857.255,804.385,857.255,805.229Z" transform="translate(-23.574 -20.158)" fill="#404040"/>
    <path id="Path_165" data-name="Path 165" d="M847.843,808.538c0,.611,0,1.222,0,1.832,0,.415-.2.728-.624.727-.453,0-.641-.312-.638-.761q.013-1.777,0-3.556c0-.442.156-.769.62-.778s.645.322.645.758q0,.889,0,1.778Z" transform="translate(-17.644 -22.748)" fill="#404040"/>
    <path id="Path_166" data-name="Path 166" d="M838.4,811.6c0,.412.008.825,0,1.237a.588.588,0,0,1-.606.624.579.579,0,0,1-.631-.6q-.031-1.263,0-2.527a.57.57,0,0,1,.631-.593.579.579,0,0,1,.606.62C838.412,810.771,838.4,811.184,838.4,811.6Z" transform="translate(-11.691 -25.106)" fill="#404040"/>
  </g>
</svg>
