<svg xmlns="http://www.w3.org/2000/svg" width="20.781" height="24.8" viewBox="0 0 20.781 24.8"><defs><style>.a{fill:#303030;stroke:#accaff;stroke-width:0.8px;}</style></defs><g transform="translate(-20735.102 -5939.6)"><path class="a" d="M18.359,24H1.612A2.1,2.1,0,0,1,0,21.585V2.415A2.1,2.1,0,0,1,1.612,0H13.986a4.119,4.119,0,0,1,1.441,1.044C16.66,2.3,17.9,3.552,19.162,4.773a2.558,2.558,0,0,1,.819,1.988c-.019,4.94-.009,9.88-.01,14.82A2.1,2.1,0,0,1,18.359,24ZM1.97,12.013c0,3.145.009,6.29-.011,9.435,0,.452.129.581.568.555.619-.036,1.243-.009,1.865-.009q6.529,0,13.058,0c.272,0,.561.088.56-.39q-.021-6.611,0-13.219c0-.307-.108-.391-.4-.387-1.119.014-2.239.009-3.358,0a2.031,2.031,0,0,1-2.259-2.231c-.01-1.084-.024-2.169.008-3.251.013-.437-.137-.525-.541-.523Q6.976,2.021,2.5,2c-.411,0-.541.1-.539.529C1.978,5.688,1.97,8.851,1.97,12.013ZM17.409,6,13.985,2.585c0,1.037,0,2.094,0,3.15,0,.219.1.272.294.271Q15.844,6,17.409,6Z" transform="translate(20735.502 5940)"/><path class="a" d="M9.988,16c-1.652,0-3.3.009-4.956-.005A.991.991,0,0,1,3.995,15a1,1,0,0,1,.98-1A4.78,4.78,0,0,1,5.454,14h7.727c.533,0,1.066-.006,1.6,0,.737.01,1.2.4,1.2,1s-.455.994-1.193,1C13.185,16,11.587,16,9.988,16Z" transform="translate(20735.502 5940)"/><path class="a" d="M9.987,11.976q-2.426,0-4.85,0C4.425,11.973,4,11.6,3.995,11s.437-.985,1.14-.985q4.851,0,9.7,0c.7,0,1.141.385,1.141.983s-.427.975-1.139.976Q12.412,11.98,9.987,11.976Z" transform="translate(20735.502 5940)"/><path class="a" d="M6.558,7.7c-1.616,0,.195,0-1.421,0C4.425,7.7,4,7.322,3.995,6.722s.437-.984,1.14-.985c3.234,0,.295,0,3.529,0,.7,0,1.141.385,1.141.983s-.427.975-1.14.976C7.049,7.7,8.175,7.7,6.558,7.7Z" transform="translate(20735.502 5940)"/><path class="a" d="M9.974,19.984c-1.616,0-3.233,0-4.849,0A.988.988,0,0,1,4,19.093.978.978,0,0,1,5.095,18.02q3.971-.006,7.94,0c.64,0,1.279-.008,1.919,0a.966.966,0,0,1,1.022.989.949.949,0,0,1-.992.966c-1.67.015-3.34.005-5.01.005Z" transform="translate(20735.502 5940)"/></g></svg>