<svg xmlns="http://www.w3.org/2000/svg" width="32" height="32.001" viewBox="0 0 32 32.001"><defs><style>.a{fill:#303030;}</style></defs><path class="a" d="M18.444,23.931c-.421.164-.839.331-1.262.485a.4.4,0,0,0-.236.316c-.151.512-.309,1.02-.455,1.532a.658.658,0,0,1-.709.533c-1.588-.005-3.175,0-4.763,0-.421,0-.594-.146-.718-.564-.149-.5-.3-1-.439-1.5a.481.481,0,0,0-.332-.357c-.393-.14-.779-.3-1.157-.473a.442.442,0,0,0-.452.016c-.464.261-.937.508-1.41.754a.645.645,0,0,1-.933-.135q-1.661-1.656-3.317-3.319a.651.651,0,0,1-.132-.907c.245-.473.494-.946.754-1.41a.45.45,0,0,0,.02-.453c-.176-.389-.336-.789-.484-1.189a.442.442,0,0,0-.332-.309c-.5-.137-1-.29-1.5-.444C.13,16.363,0,16.192,0,15.728Q0,13.416,0,11.1c0-.5.119-.663.588-.805.489-.148.976-.3,1.468-.43a.49.49,0,0,0,.379-.354,3.413,3.413,0,0,1,.3-.775.979.979,0,0,0-.036-1.179,10.144,10.144,0,0,1-.578-1.07.653.653,0,0,1,.132-.908Q3.915,3.921,5.577,2.263a.648.648,0,0,1,.907-.135c.471.249.94.5,1.4.772a.507.507,0,0,0,.521.018q.565-.267,1.15-.491a.459.459,0,0,0,.3-.343c.146-.512.3-1.024.453-1.532A.645.645,0,0,1,11.042,0c1.577,0,3.152,0,4.729,0a.67.67,0,0,1,.716.53c.155.521.318,1.042.462,1.566a.454.454,0,0,0,.308.334c.389.151.775.311,1.15.489a.507.507,0,0,0,.521-.023c.452-.261.908-.512,1.367-.759a.658.658,0,0,1,.935.139q1.651,1.643,3.294,3.294a.656.656,0,0,1,.133.962c-.247.459-.5.916-.759,1.367a.46.46,0,0,0-.011.484,9.718,9.718,0,0,1,.459,1.088.576.576,0,0,0,.45.414c.471.123.935.27,1.4.409s.594.3.594.764q.005,2.347,0,4.693c0,.464-.119.62-.56.754-.487.149-.976.3-1.467.427a.533.533,0,0,0-.405.379c-.13.382-.284.757-.43,1.134a.326.326,0,0,0-.03.459c.267.444.508.9.759,1.36a.676.676,0,0,1-.133.987q-1.64,1.648-3.285,3.285a.67.67,0,0,1-.96.139c-.468-.251-.939-.5-1.4-.757A.327.327,0,0,0,18.444,23.931ZM23.39,6.251c0-.1-.075-.149-.13-.2-.836-.836-1.676-1.668-2.5-2.51-.14-.144-.244-.117-.388-.034-.432.247-.869.484-1.3.729a.755.755,0,0,1-.789.005,9.1,9.1,0,0,0-1.817-.773.776.776,0,0,1-.571-.592c-.128-.468-.279-.932-.4-1.4a.268.268,0,0,0-.311-.235q-1.773.013-3.547,0a.265.265,0,0,0-.308.238c-.123.471-.272.933-.407,1.4a.715.715,0,0,1-.478.549,11.7,11.7,0,0,0-1.945.827.715.715,0,0,1-.727-.011c-.434-.245-.875-.475-1.3-.727a.3.3,0,0,0-.443.046Q4.8,4.806,3.557,6.021a.307.307,0,0,0-.055.444c.236.411.446.837.679,1.25a.8.8,0,0,1,.014.821,9.788,9.788,0,0,0-.729,1.8.8.8,0,0,1-.619.588c-.457.123-.907.277-1.365.4-.174.046-.249.108-.247.3.007,1.182.009,2.364,0,3.547,0,.21.084.277.261.325.459.123.91.268,1.369.391a.794.794,0,0,1,.608.6,8.567,8.567,0,0,0,.743,1.829.708.708,0,0,1-.007.725c-.244.446-.476.9-.724,1.346a.251.251,0,0,0,.039.359c.85.839,1.691,1.685,2.532,2.535a.252.252,0,0,0,.357.05c.423-.238.866-.444,1.284-.692a.819.819,0,0,1,.884-.011,8.682,8.682,0,0,0,1.764.718.784.784,0,0,1,.572.59c.132.466.286.928.407,1.4.052.2.146.251.34.251q1.736-.013,3.476,0a.312.312,0,0,0,.357-.277c.13-.48.286-.953.42-1.431a.689.689,0,0,1,.512-.512,9.491,9.491,0,0,0,1.858-.761.759.759,0,0,1,.789.014c.427.235.86.452,1.284.692a.283.283,0,0,0,.414-.048c.82-.837,1.648-1.662,2.482-2.485a.265.265,0,0,0,.057-.386c-.256-.439-.492-.891-.741-1.335a.674.674,0,0,1-.02-.724,8.2,8.2,0,0,0,.812-1.911.69.69,0,0,1,.517-.5c.491-.135.974-.292,1.465-.427a.274.274,0,0,0,.235-.316q-.008-1.773,0-3.547a.252.252,0,0,0-.22-.29c-.48-.13-.955-.283-1.433-.416a.787.787,0,0,1-.587-.574,8.14,8.14,0,0,0-.754-1.787A.776.776,0,0,1,22.6,7.7c.238-.411.46-.83.688-1.246C23.322,6.388,23.358,6.315,23.39,6.251Z" transform="translate(0 0)"/><path class="a" d="M10.623,17.225a.649.649,0,0,1,.683.565c.025.167.162.165.258.181a1.07,1.07,0,0,1,.99.953.471.471,0,0,0,.075.192,1.079,1.079,0,0,1-.039,1.378.229.229,0,0,0,.044.354c.272.251.533.514.786.786a.233.233,0,0,0,.357.043,1.093,1.093,0,0,1,1.378-.039.84.84,0,0,0,.324.121.885.885,0,0,1,.772.818c.041.3.2.4.492.37a5.47,5.47,0,0,1,.9,0,.263.263,0,0,0,.325-.258,1.013,1.013,0,0,1,.894-.956.983.983,0,0,0,.352-.144.962.962,0,0,1,1.191.053.315.315,0,0,0,.5-.066,8.082,8.082,0,0,1,.686-.688c.148-.133.183-.251.062-.412a1.054,1.054,0,0,1-.05-1.317.87.87,0,0,0,.126-.322A.953.953,0,0,1,22.617,18c.263-.036.331-.174.315-.421a8.265,8.265,0,0,1,0-.939c.011-.192-.041-.311-.245-.338a1.049,1.049,0,0,1-.985-.951.742.742,0,0,0-.117-.288.938.938,0,0,1,.036-1.188.325.325,0,0,0-.08-.523,1.545,1.545,0,0,1-.268-.27c-.34-.432-.692-.718-1.232-.256a.56.56,0,0,1-.6-.021,2.97,2.97,0,0,0-.636-.272,1,1,0,0,1-.827-.823.529.529,0,0,0-.395-.459c-.272-.073-.348-.347-.372-.613a1.051,1.051,0,0,1,1.433-.466c.254.133.306.386.389.629.078.226.05.508.356.629a.687.687,0,0,0,.718-.03c.1-.073.224-.119.334-.183a.638.638,0,0,1,.827.11c.562.553,1.118,1.113,1.673,1.671a.656.656,0,0,1,.117.8c-.073.156-.164.306-.244.46a.626.626,0,0,0,.361.885c1.076.292,1,.411,1,1.378,0,.476,0,.951,0,1.426,0,.853-.039.921-.848,1.132a.678.678,0,0,0-.549.5.481.481,0,0,0,.032.425c.089.149.167.306.244.462a.655.655,0,0,1-.123.827q-.824.821-1.648,1.648a.656.656,0,0,1-.827.123c-.144-.071-.286-.151-.43-.226a.632.632,0,0,0-.921.4c-.036.123-.068.245-.1.368-.144.457-.306.581-.777.583q-1.077.005-2.155,0c-.508,0-.667-.128-.82-.624-.094-.311-.108-.668-.535-.77a.55.55,0,0,0-.459.034,4.312,4.312,0,0,1-.491.26.643.643,0,0,1-.77-.124c-.56-.555-1.122-1.108-1.671-1.673-.281-.292-.283-.5-.069-.917.151-.29.386-.553.176-.93a.536.536,0,0,0-.37-.32c-.078-.016-.155-.055-.233-.066-.754-.108-.857-.628-.7-1.383C10.18,17.411,10.411,17.322,10.623,17.225Z" transform="translate(7.825 7.815)"/><path class="a" d="M15.125,17.439a2.364,2.364,0,0,1-2.414-2.245c-.007-.443.2-.713.556-.74s.622.2.668.638a1.09,1.09,0,0,0,.807,1.051,1.121,1.121,0,0,0,1.419-.821,1.138,1.138,0,0,0-.887-1.355c-.1-.02-.208-.025-.309-.046a.6.6,0,0,1-.508-.676.589.589,0,0,1,.62-.533,2.259,2.259,0,0,1,1.993,1.127,2.211,2.211,0,0,1,.073,2.345A2.3,2.3,0,0,1,15.125,17.439Z" transform="translate(9.886 9.887)"/><path class="a" d="M13.117,10.3a.629.629,0,0,1-.08.953c-1.481,1.484-2.217,2.264-3.7,3.745a.635.635,0,0,1-1.049-.005q-2.056-2.048-4.1-4.1a.615.615,0,0,1-.005-.972Q5.226,8.851,6.289,7.8a.622.622,0,0,1,1,.018c.446.439.9.875,1.324,1.33.164.172.251.151.407-.007Q11.146,7,13.292,4.865c.469-.469.75-.466,1.225.009.629.631,1.264,1.259,1.893,1.892.423.425.425.734.007,1.154q-.563.568-1.131,1.131a.636.636,0,1,1-.875-.869c.212-.213.418-.436.642-.636.156-.14.169-.238.005-.388-.313-.292-.624-.588-.907-.91-.2-.228-.316-.192-.516.007-1.4,1.419-2.812,2.823-4.222,4.233-.469.468-.743.468-1.2.007-.409-.409-.827-.811-1.227-1.23-.153-.16-.249-.181-.409-.007-.29.315-.592.62-.908.908-.194.174-.188.286,0,.469q1.44,1.411,2.85,2.852c.228.235.348.261.592.012,1.248-1.275,1.769-1.827,3.033-3.088A.64.64,0,0,1,13.117,10.3Z" transform="translate(3.063 3.512)"/></svg>