<svg xmlns="http://www.w3.org/2000/svg" width="23.006" height="24.016" viewBox="0 0 23.006 24.016"><defs><style>.a{fill:#646464;}</style></defs><g transform="translate(-0.457 -0.006)"><path class="a" d="M15.38,24H3.14A1.81,1.81,0,0,1,1.2,22.17V16.83a.42.42,0,0,0-.15-.34A1.79,1.79,0,0,1,.54,15.3a15.3,15.3,0,0,1-.06-2.44,2.91,2.91,0,0,1,3-2.73H4.62c.17,0,.22,0,.22-.2V5.15c0-.16.01-.15.16-.15H7.34c.17,0,.2,0,.2.2V9.9c0,.19.06.24.25.23h2.6c.19,0,.24-.05.24-.23V5.23c0-.26,0-.26.28-.26h2.17c.29,0,.29,0,.29.27V9.86c0,.27,0,.27.29.27h2.57c.19,0,.23-.05.23-.22V5.25c0-.27,0-.27.29-.27h2.21c.18,0,.21.07.21.22V9.9c0,.18.06.23.24.22h1a3,3,0,0,1,2.91,2,2.43,2.43,0,0,1,.14.84v3.56a1.35,1.35,0,0,1-.61,1.22.28.28,0,0,0-.12.27v4.24a1.71,1.71,0,0,1-1,1.61,1.88,1.88,0,0,1-.84.16ZM12,11.13H3.55a1.88,1.88,0,0,0-2,1.9v1.22a7.46,7.46,0,0,0,.09,1.16.38.38,0,0,0,.37.36.7.7,0,0,0,.72-.34c.12-.23.22-.47.34-.71a1.25,1.25,0,0,1,1.43-.61,1.86,1.86,0,0,1,1.27,1.21A11.4,11.4,0,0,1,6,16.61a1.54,1.54,0,0,0,.5.89.59.59,0,0,0,.87-.05,2.89,2.89,0,0,0,.5-.91,2.65,2.65,0,0,1,.82-1.12,1.27,1.27,0,0,1,1.73.17,2.61,2.61,0,0,1,.51.94,2.63,2.63,0,0,0,.86,1.28,1.58,1.58,0,0,0,2.4-.51c.2-.43.34-.88.53-1.31a2.56,2.56,0,0,1,1.09-1.26,1.58,1.58,0,0,1,2.09.54,5.17,5.17,0,0,1,.54,1.23,1.64,1.64,0,0,0,.51.79.51.51,0,0,0,.8-.07,2.1,2.1,0,0,0,.22-.3,2.39,2.39,0,0,1,.51-.63,1.07,1.07,0,0,1,1.42-.07,2.11,2.11,0,0,1,.35.38s.06.13.13.11,0-.11,0-.17V12.93A1.74,1.74,0,0,0,22.2,12a2,2,0,0,0-1.82-.91Zm9.72,7.21h0a5.89,5.89,0,0,1,0-.84.78.78,0,0,0-.32-.69.22.22,0,0,0-.3,0,1,1,0,0,0-.22.2,4.89,4.89,0,0,0-.41.6,1.38,1.38,0,0,1-2.14.19,2.78,2.78,0,0,1-.64-1,3.91,3.91,0,0,0-.51-1.12.74.74,0,0,0-1.12-.14,2.15,2.15,0,0,0-.71,1.05,12.47,12.47,0,0,1-.53,1.26,2.35,2.35,0,0,1-2.74,1,2.84,2.84,0,0,1-1.79-1.74A4.6,4.6,0,0,0,10,16.2a.49.49,0,0,0-.83-.11,1.8,1.8,0,0,0-.42.61A4.26,4.26,0,0,1,8,17.9a1.37,1.37,0,0,1-1.53.44,2.12,2.12,0,0,1-1.14-1.21,10.18,10.18,0,0,1-.29-1.33,1.21,1.21,0,0,0-.66-.91.46.46,0,0,0-.67.2c-.06.12-.12.25-.17.37a1.48,1.48,0,0,1-1.19,1c-.12,0-.14.08-.14.17v2.7c0,.14,0,.17.18.17H21.53c.16,0,.21-.05.2-.19.01-.31.02-.64.02-.97Zm-9.73,3H2.45c-.15,0-.21,0-.2.18s0,.43,0,.64c0,.53.29.79.85.79H20.94a.71.71,0,0,0,.8-.73v-.68c0-.23,0-.2-.22-.2H12Zm7.71-.49h1.82c.16,0,.21,0,.2-.19a3.53,3.53,0,0,1,0-.46c0-.18-.05-.22-.23-.22H2.45c-.14,0-.21,0-.2.19a2.94,2.94,0,0,1,0,.42c0,.26,0,.26.27.26H17.78a18.7,18.7,0,0,0,1.95.04ZM17.33,8v2c0,.13,0,.18.19.17a5,5,0,0,1,.55,0c.2,0,.24-.05.24-.23V6.55a4,4,0,0,0,0-.6c0-.09,0-.11-.13-.13s-.41,0-.62,0-.24,0-.23.22C17.34,6.68,17.33,7.33,17.33,8ZM6.67,8V6c0-.15,0-.21-.21-.2H5.9c-.17,0-.22,0-.22.21V9.93c0,.14.05.19.19.18s.39,0,.58,0,.22-.05.22-.21C6.66,9.28,6.67,8.63,6.67,8Zm5.82,0V6c0-.14,0-.2-.2-.19a3.74,3.74,0,0,1-.58,0c-.18,0-.22.06-.21.21V10c0,.13,0,.19.18.18a5.61,5.61,0,0,1,.58,0c.19,0,.23-.06.23-.22Z"/><path class="a" d="M13.38,3.05a2.19,2.19,0,0,1-.29,1,1.22,1.22,0,0,1-1.28.57,1.24,1.24,0,0,1-1.05-.89,3.09,3.09,0,0,1,.29-2.43A5.33,5.33,0,0,1,11.92.06C12,0,12,0,12.07.05a4.61,4.61,0,0,1,1.3,2.73.76.76,0,0,1,0,.15ZM11.51,2.9a1.48,1.48,0,0,0,.15.72.38.38,0,0,0,.34.19.36.36,0,0,0,.33-.19,1.12,1.12,0,0,0,.14-.4,2.75,2.75,0,0,0-.4-1.72c0-.07-.08-.1-.13,0a3.06,3.06,0,0,0-.43,1.4Z"/><path class="a" d="M16.45,2.89A4.32,4.32,0,0,1,17.61.21c.21-.24.22-.24.43,0a4.38,4.38,0,0,1,1.11,2.26A2.31,2.31,0,0,1,18.92,4a1.21,1.21,0,0,1-1.18.6,1.17,1.17,0,0,1-1-.6,2.07,2.07,0,0,1-.29-1.11Zm.87,0a1.61,1.61,0,0,0,.19.72.38.38,0,0,0,.61,0,.69.69,0,0,0,.14-.3,2.62,2.62,0,0,0-.36-1.85c0-.09-.1-.1-.15,0a3.23,3.23,0,0,0-.43,1.47Z"/><path class="a" d="M7.54,3a1.74,1.74,0,0,1-.38,1.2A1.29,1.29,0,0,1,5,3.87a2.41,2.41,0,0,1-.1-1.65A4.86,4.86,0,0,1,6.08.07c.06-.07.11-.1.19,0A5.4,5.4,0,0,1,7.41,2,3.14,3.14,0,0,1,7.54,3ZM5.69,3a1.65,1.65,0,0,0,.09.47.41.41,0,0,0,.51.31c.23,0,.26-.22.3-.37a2.5,2.5,0,0,0-.33-1.9c-.06-.11-.11-.09-.16,0A3,3,0,0,0,5.69,3Z"/><path class="a" d="M13,16.54a1.11,1.11,0,0,1-.39.2c-.1,0-.11-.07-.14-.12-.17-.28-.32-.58-.49-.86-.07-.11,0-.16.07-.22.33-.16.32-.16.49.15l.39.7A.52.52,0,0,1,13,16.54Z"/><path class="a" d="M8.67,12.55a.47.47,0,0,0-.06.09c-.2.29-.41.58-.6.87a.14.14,0,0,1-.22,0c-.37-.25-.33-.16-.12-.47s.34-.46.5-.7.13-.1.21,0S8.6,12.44,8.67,12.55Z"/><path class="a" d="M20.21,15.46a.1.1,0,0,1-.07.09,1,1,0,0,0-.18.09c-.13.08-.21.07-.28-.08s-.31-.56-.47-.84c-.07-.11-.07-.17.07-.24.31-.14.3-.15.47.14l.41.74Z"/><path class="a" d="M21,12.47a1.7,1.7,0,0,1-.26.34.457.457,0,0,1-.22-.11l-.81-.49c-.1-.06-.13-.11-.06-.21.21-.29.2-.29.52-.1l.72.45S21,12.4,21,12.47Z"/><path class="a" d="M17.09,12.25l-.06.09c-.21.29-.42.59-.62.89a.11.11,0,0,1-.18,0c-.33-.2-.33-.19-.12-.51s.29-.4.42-.6.2-.21.36-.06S17.05,12.16,17.09,12.25Z"/><path class="a" d="M7.25,15.29c0,.08-.14.1-.22.14-.24.11-.24.1-.35-.13s-.28-.56-.43-.83c-.06-.1,0-.14.06-.18h0c.32-.16.32-.16.48.15l.37.72S7.22,15.24,7.25,15.29Z"/><path class="a" d="M3.64,11.72l.11.06c.3.2.61.39.92.58.12.07.09.13,0,.21-.19.27-.19.27-.46.1l-.76-.46c-.12-.07-.13-.13,0-.23S3.57,11.81,3.64,11.72Z"/><path class="a" d="M13.61,12.77l.09.05.91.57c.1.06.11.11,0,.21-.21.28-.2.28-.51.09s-.41-.25-.61-.39-.24-.16-.08-.39C13.49,12.86,13.52,12.78,13.61,12.77Z"/><path class="a" d="M11,13v.44c0,.14.05.18-.06.2a.79.79,0,0,1-.43,0V12.53c0-.13,0-.19.17-.18h.17c.12,0,.19,0,.18.16s0,.33,0,.5Z"/></g></svg>