<svg xmlns="http://www.w3.org/2000/svg" width="120" height="120.01" viewBox="0 0 120 120.01"><defs><style>.a{fill:#aedcf4;}.b{fill:#5780c1;}.c{fill:#fbc597;}.d{fill:#1d1814;}.e{fill:#f9b17c;}</style></defs><g transform="translate(-60 -947.61)"><path class="a" d="M180,957.61v100.01a9.985,9.985,0,0,1-6.81,9.47,9.619,9.619,0,0,1-3.19.53H155.95a23.987,23.987,0,0,0,18.71-8.95c-.01-.4-.03-.79-.05-1.18v-.03c-.01-.33-.02-.65-.05-.97-.03-.57-.07-1.13-.13-1.68q-.06-.66-.15-1.29c-.04-.33-.09-.66-.15-.98s-.11-.65-.18-.97c-.05-.27-.11-.53-.18-.8-.02-.1-.05-.2-.08-.3-.06-.26-.13-.51-.21-.76-.06-.23-.13-.45-.21-.67-.05-.15-.1-.3-.16-.44-.08-.24-.17-.48-.27-.71s-.2-.47-.32-.7a14.681,14.681,0,0,0-2.14-3.36,16.708,16.708,0,0,0-4.84-3.97,14.2,14.2,0,0,0-2.62-1.16c-.53-.26-1.03-.57-1.56-.81-7.07-3.13-14.53-5.22-21.48-8.69-1.11-.55-1.59-.21-1.95.81,0-1.91-1.5-2.88-2.55-4.13v-.01l-.02-.02c-.04-.63-.08-1.26-.13-1.9-.35-5.26-1.04-10.54,1.18-15.6.5-1.14.76-2.17,2.43-1.91,1.04.16,1.94-.86,2.21-1.91s.81-1.94,1.13-2.93c1.26-3.94,2.86-7.9-.27-11.73-.01,0-.01-.01-.02-.01h.02a51.529,51.529,0,0,0-.32-8.69,26.289,26.289,0,0,0-22.77-21.9c.13.37.25.67.34.99.22.74.61,1.7.07,2.22-.67.64-1.31-.33-1.93-.65a13.809,13.809,0,0,0-7.83-2.13,37.44,37.44,0,0,1,2.61,4.22c.13.4.34.88-.13,1.12-.21.12-.65-.06-.93-.22-1.28-.67-1.97-2.05-3.2-3.21a14.469,14.469,0,0,1-.79,4.88c-1.07,2.84-2.2,5.65-3.3,8.47a35.848,35.848,0,0,0-3.39,14.75,5.388,5.388,0,0,0-2.18,4.69c-.11,3.46,1.51,6.33,2.43,9.46.42,1.46,1.23,2.09,2.45,1.98,1.55-.12,1.95.83,2.5,1.96,2.05,4.22,1.72,8.74,1.81,13.24a7.322,7.322,0,0,1-2.8,6.04,3.519,3.519,0,0,0-1.49,2.98c0,.01,0,.01.01.02-.01,0-.01-.01-.02-.01a2.051,2.051,0,0,0-.07-.31c-.26-1.09-.86-1.45-2.14-.99-3.77,1.32-7.57,2.5-11.38,3.7a68.59,68.59,0,0,0-13.9,5.78,12.314,12.314,0,0,0-6.2,4.11,8.817,8.817,0,0,0-1.83,4.06c-.32,1.89-.6,3.78-.77,5.64-.05.53-.09,1.05-.13,1.58v.03a30.027,30.027,0,0,0,.27,6.75,23.973,23.973,0,0,0,17.15,7.2H70a10.011,10.011,0,0,1-10-10V957.61a10,10,0,0,1,10-10H170A10,10,0,0,1,180,957.61Z"/><path class="a" d="M174.66,1058.67a23.987,23.987,0,0,1-18.71,8.95H84.05a23.973,23.973,0,0,1-17.15-7.2,30.027,30.027,0,0,1-.27-6.75v-.03c.04-.53.08-1.05.13-1.58.17-1.86.45-3.75.77-5.64a8.817,8.817,0,0,1,1.83-4.06,12.314,12.314,0,0,1,6.2-4.11,68.59,68.59,0,0,1,13.9-5.78c3.81-1.2,7.61-2.38,11.38-3.7,1.28-.46,1.88-.1,2.14.99a2.051,2.051,0,0,1,.07.31c.01,0,.01.01.02.01-.01-.01-.01-.01-.01-.02a3.519,3.519,0,0,1,1.49-2.98,7.322,7.322,0,0,0,2.8-6.04c-.09-4.5.24-9.02-1.81-13.24-.55-1.13-.95-2.08-2.5-1.96-1.22.11-2.03-.52-2.45-1.98-.92-3.13-2.54-6-2.43-9.46a5.388,5.388,0,0,1,2.18-4.69,35.848,35.848,0,0,1,3.39-14.75c1.1-2.82,2.23-5.63,3.3-8.47a14.469,14.469,0,0,0,.79-4.88c1.23,1.16,1.92,2.54,3.2,3.21.28.16.72.34.93.22.47-.24.26-.72.13-1.12a37.44,37.44,0,0,0-2.61-4.22,13.809,13.809,0,0,1,7.83,2.13c.62.32,1.26,1.29,1.93.65.54-.52.15-1.48-.07-2.22-.09-.32-.21-.62-.34-.99a26.289,26.289,0,0,1,22.77,21.9,51.529,51.529,0,0,1,.32,8.69h-.02c.01,0,.01.01.02.01,3.13,3.83,1.53,7.79.27,11.73-.32.99-.86,1.89-1.13,2.93s-1.17,2.07-2.21,1.91c-1.67-.26-1.93.77-2.43,1.91-2.22,5.06-1.53,10.34-1.18,15.6.05.64.09,1.27.13,1.9l.02.02v.01c1.05,1.25,2.55,2.22,2.55,4.13.36-1.02.84-1.36,1.95-.81,6.95,3.47,14.41,5.56,21.48,8.69.53.24,1.03.55,1.56.81a14.2,14.2,0,0,1,2.62,1.16,16.708,16.708,0,0,1,4.84,3.97,14.681,14.681,0,0,1,2.14,3.36c.12.23.22.46.32.7s.19.47.27.71c.06.14.11.29.16.44.08.22.15.44.21.67.08.25.15.5.21.76.03.1.06.2.08.3.07.27.13.53.18.8.07.32.13.64.18.97s.11.65.15.98q.09.63.15,1.29c.06.55.1,1.11.13,1.68.02.32.04.65.05.97v.03C174.63,1057.88,174.65,1058.27,174.66,1058.67Z"/><path class="a" d="M174.66,1058.67a23.987,23.987,0,0,1-18.71,8.95H84.05a23.973,23.973,0,0,1-17.15-7.2,30.027,30.027,0,0,1-.27-6.75v-.03c.04-.53.08-1.05.13-1.58.17-1.86.45-3.75.77-5.64a8.817,8.817,0,0,1,1.83-4.06,12.314,12.314,0,0,1,6.2-4.11,68.59,68.59,0,0,1,13.9-5.78c3.81-1.2,7.61-2.38,11.38-3.7,1.28-.46,1.88-.1,2.14.99a2.051,2.051,0,0,1,.07.31c.01,0,.01.01.02.01-.01-.01-.01-.01-.01-.02a3.519,3.519,0,0,1,1.49-2.98,7.322,7.322,0,0,0,2.8-6.04c-.09-4.5.24-9.02-1.81-13.24-.55-1.13-.95-2.08-2.5-1.96-1.22.11-2.03-.52-2.45-1.98-.92-3.13-2.54-6-2.43-9.46a5.388,5.388,0,0,1,2.18-4.69,35.848,35.848,0,0,1,3.39-14.75c1.1-2.82,2.23-5.63,3.3-8.47a14.469,14.469,0,0,0,.79-4.88c1.23,1.16,1.92,2.54,3.2,3.21.28.16.72.34.93.22.47-.24.26-.72.13-1.12a37.44,37.44,0,0,0-2.61-4.22,13.809,13.809,0,0,1,7.83,2.13c.62.32,1.26,1.29,1.93.65.54-.52.15-1.48-.07-2.22-.09-.32-.21-.62-.34-.99a26.289,26.289,0,0,1,22.77,21.9,51.529,51.529,0,0,1,.32,8.69h-.02c.01,0,.01.01.02.01,3.13,3.83,1.53,7.79.27,11.73-.32.99-.86,1.89-1.13,2.93s-1.17,2.07-2.21,1.91c-1.67-.26-1.93.77-2.43,1.91-2.22,5.06-1.53,10.34-1.18,15.6.05.64.09,1.27.13,1.9l.02.02v.01c1.05,1.25,2.55,2.22,2.55,4.13.36-1.02.84-1.36,1.95-.81,6.95,3.47,14.41,5.56,21.48,8.69.53.24,1.03.55,1.56.81a14.2,14.2,0,0,1,2.62,1.16,16.708,16.708,0,0,1,4.84,3.97,14.681,14.681,0,0,1,2.14,3.36c.12.23.22.46.32.7s.19.47.27.71c.06.14.11.29.16.44.08.22.15.44.21.67.08.25.15.5.21.76.03.1.06.2.08.3.07.27.13.53.18.8.07.32.13.64.18.97s.11.65.15.98q.09.63.15,1.29c.06.55.1,1.11.13,1.68.02.32.04.65.05.97v.03C174.63,1057.88,174.65,1058.27,174.66,1058.67Z"/><path class="b" d="M174.63,1059.79c-.35,1.75.18,3.48-.4,5.27a7.09,7.09,0,0,1-1.04,2.03,9.619,9.619,0,0,1-3.19.53H70a9.968,9.968,0,0,1-3.29-.56c-.66-1.8-.47-3.79-.44-5.7.03-2.13.09-4.27.16-6.4a4.774,4.774,0,0,1,.2-1.29v-.03c0-.01.01-.02.01-.03.03-.51.07-1.03.12-1.55.17-1.86.45-3.75.77-5.64a8.817,8.817,0,0,1,1.83-4.06,12.314,12.314,0,0,1,6.2-4.11,68.59,68.59,0,0,1,13.9-5.78c3.81-1.2,7.61-2.38,11.38-3.7,1.28-.46,1.88-.1,2.14.99a2.051,2.051,0,0,1,.07.31c.01,0,.01.01.02.01.64.24.85.86,1.14,1.41a17.681,17.681,0,0,0,15.87,9.55,17.122,17.122,0,0,0,15.52-7.44c.84-1.13.82-2.86,2.28-3.56.03,0,.03-.02.05-.02v-.01c.36-1.02.84-1.36,1.95-.81,6.95,3.47,14.41,5.56,21.48,8.69.53.24,1.03.55,1.56.81a14.2,14.2,0,0,1,2.62,1.16,16.708,16.708,0,0,1,4.84,3.97,14.681,14.681,0,0,1,2.14,3.36c.12.23.22.46.32.7s.19.47.27.71c.06.14.11.29.16.44.08.22.15.44.21.67.08.25.15.5.21.76.03.1.06.2.08.3.07.27.13.53.18.8.07.32.13.64.18.97s.11.65.15.98q.09.63.15,1.29c.05.55.1,1.11.13,1.68.02.32.04.65.05.97v.03A5.567,5.567,0,0,1,174.63,1059.79Z"/><path class="c" d="M142.18,1001.6c-.32.99-.86,1.89-1.13,2.93s-1.17,2.07-2.21,1.91c-1.67-.26-1.93.77-2.43,1.91-2.22,5.06-1.53,10.34-1.18,15.6.05.64.09,1.27.13,1.9-1.48-.04-1.27-1.26-1.32-2.16-.1-2.12-.02-4.25-.04-6.37a4.469,4.469,0,0,0-.35-2.31,20.2,20.2,0,0,1-8.11,5.63,16.443,16.443,0,0,1-9.72.28,34.743,34.743,0,0,0,15.93,6.03,4.005,4.005,0,0,0,3.63-1.08v.01c1.05,1.25,2.55,2.22,2.55,4.13v.01c-5.1,13.7-21.88,14.69-30.73,6.5a15.054,15.054,0,0,1-4.13-6.44c-.01-.01-.01-.01-.01-.02a3.519,3.519,0,0,1,1.49-2.98,7.322,7.322,0,0,0,2.8-6.04c-.09-4.5.24-9.02-1.81-13.24-.55-1.13-.95-2.08-2.5-1.96-1.22.11-2.03-.52-2.45-1.98-.92-3.13-2.54-6-2.43-9.46a5.388,5.388,0,0,1,2.18-4.69c1.44-.58,1.78.94,2.72,1.59.44-2.58.63-5.11,1.12-7.59.1-.48.14-.98.24-1.46,1.2-5.36,2.92-6.77,8.23-6.21,6.91.72,13.77,1.89,20.63,3.06a3.839,3.839,0,0,1,3.41,3.38c.65,2.89,1.4,5.78,2.13,8.83.92-.84,1.62-2.09,3.07-1.45.01,0,.01.01.02.01C145.04,993.7,143.44,997.66,142.18,1001.6Z"/><path class="d" d="M141.91,989.86h-.02c-1.74.21-2.42,1.59-3.19,3.5-.92-3.89-1.81-7.29-2.5-10.73a3.188,3.188,0,0,0-3.04-2.97c-7.68-1.18-15.31-2.69-23.09-3.16a3.664,3.664,0,0,0-3.97,2.54,41.783,41.783,0,0,0-2.3,11.38c-.12.83-.16,1.68-.26,2.77-1.32-1.12-1.37-3.22-3.2-3.48a35.848,35.848,0,0,1,3.39-14.75c1.1-2.82,2.23-5.63,3.3-8.47a14.469,14.469,0,0,0,.79-4.88c1.23,1.16,1.92,2.54,3.2,3.21.28.16.72.34.93.22.47-.24.26-.72.13-1.12a37.44,37.44,0,0,0-2.61-4.22,13.809,13.809,0,0,1,7.83,2.13c.62.32,1.26,1.29,1.93.65.54-.52.15-1.48-.07-2.22-.09-.32-.21-.62-.34-.99a26.289,26.289,0,0,1,22.77,21.9A51.529,51.529,0,0,1,141.91,989.86Z"/><path class="e" d="M135.38,1025.87v.01c.06,1.37-.86,1.71-1.88,1.65a32.409,32.409,0,0,1-19.43-7.32,12.189,12.189,0,0,1,4.44.66,15.705,15.705,0,0,0,10.82-2.78,8.652,8.652,0,0,0,3.32-3.09c.27-.54.72-1.15,1.45-.89.67.24.42.96.43,1.49.03,2.68.01,5.36.03,8.05,0,.83-.17,1.74.8,2.2Z"/></g></svg>