<svg xmlns="http://www.w3.org/2000/svg" width="45.5" height="41.686" viewBox="0 0 45.5 41.686">
  <g id="icon_username" transform="translate(0.25 -0.644)">
    <path id="Path_944" data-name="Path 944" d="M10.406,29.033q-3.358,0-6.716,0c-1.577,0-1.588-.013-1.6-1.639,0-.585.021-1.172,0-1.755A7.35,7.35,0,0,1,5.546,18.8c.651-.429.253-.7.064-1.046a5.643,5.643,0,1,1,10.082-5.017,5.428,5.428,0,0,1-.4,5.137c-.285.469-.262.647.189.949a7.366,7.366,0,0,1,3.405,6.562c-.006.791-.032,1.584.011,2.376.051.924-.317,1.3-1.266,1.288C15.226,29.007,12.815,29.033,10.406,29.033Zm.133-1.425h4.646c2.314,0,2.291,0,2.3-2.295a6.081,6.081,0,0,0-2.9-5.376,1.143,1.143,0,0,0-1.391-.066,4.863,4.863,0,0,1-4.935.2c-1.207-.675-1.879-.2-2.681.5-1.89,1.643-2.122,3.812-2.042,6.12.024.7.172.951.913.932C6.477,27.576,8.508,27.608,10.539,27.608ZM6.292,14.894A4.171,4.171,0,0,0,10.4,19.174a4.218,4.218,0,1,0,.137-8.434A4.19,4.19,0,0,0,6.292,14.894Z" transform="translate(1.821 7.54)" fill="#646464" stroke="#646464" stroke-linecap="round" stroke-width="0.5"/>
    <path id="Path_945" data-name="Path 945" d="M21.233,9.94c2.376,0,4.753-.006,7.129.006.488,0,1.127-.128,1.153.645.028.832-.636.756-1.17.757q-7.13.011-14.257,0c-.431,0-.971.084-1.121-.472-.21-.782.3-.937.934-.936Q17.565,9.945,21.233,9.94Z" transform="translate(11.304 8.133)" fill="#646464" stroke="#646464" stroke-linecap="round" stroke-width="0.5"/>
    <path id="Path_946" data-name="Path 946" d="M21.166,17.485c-2.377,0-4.755,0-7.131,0-.5,0-1.116.084-1.11-.694.006-.758.611-.711,1.117-.711q7.18-.008,14.361,0c.508,0,1.11-.041,1.11.718,0,.78-.619.684-1.116.686C25.986,17.489,23.575,17.485,21.166,17.485Z" transform="translate(11.309 13.5)" fill="#646464" stroke="#646464" stroke-linecap="round" stroke-width="0.5"/>
    <path id="Path_947" data-name="Path 947" d="M21.211,12.947q3.462,0,6.923,0a6.9,6.9,0,0,1,.812.032.609.609,0,0,1,.579.7.591.591,0,0,1-.559.621,5.973,5.973,0,0,1-.711.028q-7.023,0-14.046,0c-.2,0-.407,0-.611-.011a.629.629,0,0,1-.677-.718.608.608,0,0,1,.656-.636c.645-.023,1.29-.021,1.933-.021Q18.363,12.943,21.211,12.947Z" transform="translate(11.305 10.765)" fill="#646464" stroke="#646464" stroke-linecap="round" stroke-width="0.5"/>
    <path id="Path_948" data-name="Path 948" d="M18.074,19.062c1.361,0,2.722.015,4.084-.006.538-.007,1.018.109,1.027.714.011.622-.495.731-1.018.731q-4.132-.006-8.267,0c-.531,0-1-.144-.973-.774.026-.553.461-.677.962-.669C15.284,19.073,16.679,19.062,18.074,19.062Z" transform="translate(11.31 16.11)" fill="#646464" stroke="#646464" stroke-linecap="round" stroke-width="0.5"/>
    <path id="Path_949" data-name="Path 949" d="M17.418,5.732c-.969-.006-1.854-.084-1.806-.84.043-.667.853-.774,1.806-.767,1.018.008,1.847.113,1.808.866C19.189,5.665,18.353,5.728,17.418,5.732Z" transform="translate(13.659 3.046)" fill="#646464" stroke="#646464" stroke-linecap="round" stroke-width="0.5"/>
    <path id="Path_950" data-name="Path 950" d="M12.8,3.375a1.658,1.658,0,0,1,1.727,1.77,1.671,1.671,0,0,1-1.661,1.734,1.706,1.706,0,0,1-1.787-1.725A1.673,1.673,0,0,1,12.8,3.375Z" transform="translate(9.694 2.39)" fill="#646464"/>
    <path id="Path_951" data-name="Path 951" d="M9.179,10.169a5.333,5.333,0,0,0,5.488,5.2A5.391,5.391,0,0,0,19.94,9.92c.088-2.627.011-5.259.028-7.888.006-.943-.366-1.4-1.361-1.387q-4.07.045-8.143,0c-1-.011-1.367.456-1.352,1.4.023,1.314-.062,2.634.028,3.943a2.069,2.069,0,0,1-.032.562V9.77A2.326,2.326,0,0,1,9.179,10.169Zm1.7-6.992c0-.519.143-.776.718-.769,1.948.023,3.9.026,5.85,0,.656-.009.771.306.757.857C18.181,4.407,18.2,5.551,18.2,6.7H18.19c0,1.144.053,2.291-.013,3.433A3.614,3.614,0,0,1,14.5,13.589a3.574,3.574,0,0,1-3.587-3.418C10.825,7.842,10.895,5.508,10.878,3.177Z" transform="translate(7.96 0)" fill="#646464"/>
    <path id="Path_952" data-name="Path 952" d="M45,5.725c0-.934-.274-1.273-1.239-1.262-4,.043-4.245.017-8.243.019a3.167,3.167,0,0,0-.72.039.683.683,0,0,0-.536.675.622.622,0,0,0,.54.66,5.235,5.235,0,0,0,.924.06c3.516,0,3.279.024,6.795-.015.816-.009,1.127.148,1.123,1.056-.036,8.2-.034,21.547,0,29.749,0,.872-.246,1.08-1.093,1.078q-20.059-.039-40.114,0c-.849,0-1.1-.21-1.093-1.08.032-8.2.034-21.546,0-29.749,0-.907.309-1.059,1.123-1.054,4.86.034,8.721.03,13.579,0,.628,0,.923.116,1.037.654V3.938c-.086.442-.4.564-1.018.561-5.2-.034-9.409-.019-14.614-.017C.006,4.482,0,4.486,0,5.914V37.733C0,39.154.041,39.2,1.444,39.2q10.493,0,20.987,0,10.6,0,21.195,0c1.275,0,1.357-.083,1.357-1.343C44.985,28.857,44.974,14.719,45,5.725Z" transform="translate(0 2.882)" fill="#646464" stroke="#646464" stroke-linecap="round" stroke-width="0.5"/>
  </g>
</svg>
