<svg xmlns="http://www.w3.org/2000/svg" width="46.115" height="46.129" viewBox="0 0 46.115 46.129"><defs><style>.a{fill:#646464;}.b{fill:#797979;stroke:#797979;stroke-width:0.7px;}</style></defs><g transform="translate(-596.33 -531.937)"><g transform="translate(604.927 540.849)"><path class="a" d="M8.712,16.377C3.42,12.155,4.361,5.9,7.414,2.81a8.959,8.959,0,0,1,12.261-.473,8.888,8.888,0,0,1-.824,13.969,21.438,21.438,0,0,1,3.369,2.217,12.362,12.362,0,0,1,4.185,7.99,1.172,1.172,0,0,1-.912,1.44,1.219,1.219,0,0,1-1.585-1.043,11.146,11.146,0,0,0-1.662-4.6,9.814,9.814,0,0,0-7.037-4.355,10.123,10.123,0,0,0-11.133,7.13c-.188.645-.277,1.319-.452,1.968a1.127,1.127,0,0,1-1.28.969c-.628-.05-.975-.386-1.089-1.109a5.062,5.062,0,0,1,.274-2.18,12.642,12.642,0,0,1,6.618-8.071C8.313,16.578,8.482,16.494,8.712,16.377ZM13.855,2.671A6.289,6.289,0,0,0,7.45,8.96a6.361,6.361,0,1,0,6.406-6.289Z" transform="translate(0 0)"/></g><g transform="translate(596.684 532.314)"><path class="b" d="M270.581-2224.615a22.859,22.859,0,0,0-26.063-11.148,21.7,21.7,0,0,0-5.179,2.057c-.425.236-.7.558-.412,1.044.249.422.634.4,1.025.167.125-.073.253-.14.38-.206a20.97,20.97,0,0,1,10.24-2.411,15.838,15.838,0,0,1,3.54.317c11.428,2.053,19.292,12.606,17.547,23.917a20.4,20.4,0,0,1-10.744,15.494,18.7,18.7,0,0,1-10.3,2.85c-.151,0-.289-.019-.436-.021a20.78,20.78,0,0,1-4.128-.393.74.74,0,0,1-.413-.179,17.611,17.611,0,0,1-4.218-1.605,21.479,21.479,0,0,1-7.717-32.306c.153-.2.317-.392.463-.6.253-.353.364-.765-.008-1.061a.7.7,0,0,0-1.039.2c-.115.135-.228.276-.34.417a23.659,23.659,0,0,0-1.441,26.386c5.606,9.039,16.554,12.966,27.419,8.978C271.444-2197.367,277.122-2212.8,270.581-2224.615Z" transform="translate(-228 2236.531)"/><path class="b" d="M233.775-2233.437a.649.649,0,0,1-.682.657.584.584,0,0,1-.64-.587.6.6,0,0,1,.665-.668C233.513-2234.039,233.692-2233.8,233.775-2233.437Z" transform="translate(-224.046 2238.749)"/></g></g></svg>