<svg xmlns="http://www.w3.org/2000/svg" width="144.296" height="110.255" viewBox="0 0 144.296 110.255"><defs><style>.a{fill:#5865f2;}</style></defs><path class="a" d="M-421.941-485.764c.675-4.533,1.279-9.077,2.039-13.6,2.894-17.233,9.685-32.919,19.084-47.566a6.442,6.442,0,0,1,2.99-2.457,132.27,132.27,0,0,1,24.434-7.836c2.515-.56,3.792.244,4.86,2.5,2.3,4.858,2.39,4.614,7.854,4.138a102.315,102.315,0,0,1,23.031.217c3.165.443,5.337.058,6.276-3.294,1.018-3.631,3.246-4.125,6.788-3.246a148.167,148.167,0,0,1,22.223,7.2,8.83,8.83,0,0,1,4.2,3.488c12.942,20.12,19.98,42.067,20.505,66,.1,4.371-.354,8.752-.489,13.131a3.607,3.607,0,0,1-1.71,2.99,121.283,121.283,0,0,1-32.39,16.675c-1.774.6-2.936.26-3.869-1.322-1.67-2.832-3.351-5.658-5.114-8.435-.964-1.516-.571-2.257,1.024-2.94,2.62-1.124,5.168-2.426,7.7-3.744.771-.4,2.28-.695,1.568-1.98-.6-1.087-1.7-2.114-3.269-1.547-1.133.408-2.228.927-3.348,1.379-21.869,8.842-43.679,8.537-65.427-.441-.71-.294-1.41-.612-2.126-.893a2.609,2.609,0,0,0-3.33,1.418c-.82,1.474.873,1.757,1.708,2.2,2.422,1.283,4.889,2.5,7.415,3.565,1.607.677,2,1.449,1.043,2.959-1.812,2.871-3.567,5.781-5.3,8.7-.81,1.362-1.824,1.626-3.328,1.133a122.566,122.566,0,0,1-32.73-16.721c-2.493-1.76-.991-4.568-2.3-6.545Zm61.416-10.934c.04-8.011-5.722-14.666-12.842-14.834-6.707-.16-12.067,4.885-13.327,12.54-1.2,7.305,3.132,14.733,9.743,16.7C-368.715-479.85-360.573-486.988-360.525-496.7Zm21.652-.162c-.067,7.873,5.358,14.491,12.34,15.053,6.863.552,12.7-4.985,13.826-13.106,1.076-7.777-4.183-15.538-11.205-16.532C-331.864-512.571-338.8-505.812-338.873-496.86Z" transform="translate(421.941 557.391)"/></svg>