<svg xmlns="http://www.w3.org/2000/svg" width="193.141" height="117.782" viewBox="0 0 193.141 117.782"><defs><style>.a{fill:#466ae0;}.b{fill:#57273f;}.c{fill:#934751;}.d{fill:#7be2ca;}.e{fill:#5fd0ce;}.f{fill:#2a5c6a;}.g{fill:#35305d;}.h{fill:#4f2439;}.i{fill:#505a90;}.j{fill:#172977;}.k{fill:#863d47;}.l{fill:#43477a;}.m{fill:#b63675;}.n{fill:#a02b63;}.o{fill:#2b4bc7;}.p{fill:#e1ab98;}.q{fill:#6d2c37;}.r{fill:#852353;}.s{fill:#7f3434;}.t{fill:#c3cefe;}.u{fill:#b7bffe;}.v{fill:#dce3fe;}.w{fill:#eaf8fe;}.x{fill:#ced7fe;}.y{fill:#213db2;}.z{fill:#606b98;}.aa{fill:#7b9bc1;}.ab{fill:#d3defd;}.ac{fill:#454b83;}.ad{fill:#caf3ea;}.ae{fill:#e3d9ea;}</style></defs><g transform="translate(0)"><g transform="translate(0)"><path class="a" d="M-700,861.177c.978-3.516,1.992-7.022,2.905-10.554a1.533,1.533,0,0,1,1.372-1.286,53.49,53.49,0,0,0,12.958-4.38,37.368,37.368,0,0,0,4.18-2.3,31.764,31.764,0,0,0,9.033-9.191.975.975,0,0,1,1.155-.576q18.527,3.338,37.062,6.628a1.372,1.372,0,0,1,.352.18,27.1,27.1,0,0,0,2.107,9.5c2.088,4.781,5.674,8.206,9.872,11.116,2.618,1.815,5.526,3.124,8.2,4.834-1.156,4.256-2.278,8.522-3.477,12.766-2.064,7.3-3.721,14.722-6.141,21.917a47.532,47.532,0,0,1-13.871,20.48c-1.609,1.434-3.279,2.8-4.921,4.2-.455.267-.924.512-1.362.8a72.68,72.68,0,0,1-18.676,8.887,106.337,106.337,0,0,1-16.369,3.6c-.356.053-1.008-.281-.983.534h-1.857c.314-.365-.109-.409-.256-.52q-3.178-2.411-6.373-4.8-.01-3.721-.02-7.441c2.55,2.03,4.926,4.274,7.592,6.163.446.316.839.684,1.413.295a69.128,69.128,0,0,0,11.528-2.181,67.5,67.5,0,0,0,15.567-6.086,47.6,47.6,0,0,0,6.956-4.326,46.039,46.039,0,0,0,13.2-14.779,29.407,29.407,0,0,0,3.538-7.943c2.613-9.29,5.113-18.612,7.691-27.911a1,1,0,0,0-.588-1.36,49.652,49.652,0,0,1-9.818-7.138,31.843,31.843,0,0,1-6.689-10.278,15.969,15.969,0,0,1-.805-2.918c-.182-2.116-1.268-2.839-3.324-3.12-4.741-.648-9.441-1.594-14.157-2.419l-2.658-.519-2.61-.469a33.947,33.947,0,0,0-5.543-.847c-1.961-.932-2.52-.882-3.829.7a37.154,37.154,0,0,1-9.057,7.641,54.88,54.88,0,0,1-15.262,6.215,1.752,1.752,0,0,0-.585,1.144c-1.992,7.272-4.019,14.534-5.978,21.815a61.379,61.379,0,0,0-2.5,13.616A40.107,40.107,0,0,0-698.9,905.69c-1.058.008-2.118,0-3.175.032-.715.023-1.084-.238-1.041-.992.022-.4,0-.793,0-1.19,0-3.021,0-3.021-3-3.175a49.5,49.5,0,0,1,.974-20.153c.626-2.652,1.562-5.226,2-7.925C-701.867,868.649-701.018,864.89-700,861.177Z" transform="translate(760.192 -820.59)"/><path class="b" d="M-363.248,1046.607h-5.04c.342-1.229.768-2.442,1-3.691a2.4,2.4,0,0,0-.9-2.6,2.4,2.4,0,0,0-2.739.194c-.515.307-1,.669-1.576,1.064a17.772,17.772,0,0,0-.979-6.082c-.373-.939-.809-2-1.98-2.1-1.2-.1-1.674.965-2.232,1.8a3.433,3.433,0,0,0-.305.587c-.43,1.034-.852,2.072-1.335,3.253l-1.975-2.97a3.655,3.655,0,0,1,.408-1.387,49.779,49.779,0,0,0,3.839-15.86c.34-3.678.561-7.367.789-11.054.047-.765.27-1.595-.3-2.3l.1-.5.207-.385a82.879,82.879,0,0,1,2.157-8.434c1.438-5.309,2.951-10.6,4.433-15.894a3.278,3.278,0,0,1,.3.714c.9,5.427,1.75,10.862,2.687,16.282a61.7,61.7,0,0,0,1.547,8.286,21.34,21.34,0,0,0,.434,3.932,117.775,117.775,0,0,1,1.7,18.251C-363.033,1034.011-363.164,1040.309-363.248,1046.607Zm-6.081-34.251c-.038-1.538-.26-3.063-.34-4.6a14.742,14.742,0,0,0-1.14-5.129c-.211-.487-.454-1.034-1.085-1.011-.591.022-.7.589-.879,1.034a4.479,4.479,0,0,0-.18,2.727,6.288,6.288,0,0,1,.1,2.624c-.451,2.349.039,4.634.376,6.927a7.577,7.577,0,0,0,.693,1.846c.158.359.365.762.82.771.5.01.608-.457.74-.816A12.439,12.439,0,0,0-369.329,1012.356Zm.226,20.565a2.5,2.5,0,0,1,1.423-1.637c.4-.137.456-.5.026-.625-.8-.237-1.044-1-1.529-1.537-1.224,1.589-1.252,1.884-.334,3.342A4.878,4.878,0,0,0-369.1,1032.921Z" transform="translate(521.109 -928.864)"/><path class="c" d="M-322.8,973.739c.084-6.3.215-12.6.24-18.895a117.765,117.765,0,0,0-1.7-18.251,21.32,21.32,0,0,1-.434-3.932,25.2,25.2,0,0,0,.509-6.156,140,140,0,0,0-.461-17.447c-.276-3.024-.345-6.066-.587-9.094-.413-5.177-.924-10.347-1.027-15.545.865-.056,1.585-.253,1.353-1.382l.583-1.977c.627.559.564,2.876,2.192.679.217,1.7,1.077,2.133,2.533,1.849.827-.161,1.333.26,1.326,1.292-.035,5.113.005,10.226.019,15.34q0,16.472,0,32.945a40.646,40.646,0,0,0,.251,7.69,22.6,22.6,0,0,0,4.2,11.669c-1.254.705-1.435,2.054-1.828,3.223a25.782,25.782,0,0,0-1.072,9.39,5.738,5.738,0,0,1-.475,2.84,10.947,10.947,0,0,0-1.12,5.76Z" transform="translate(480.66 -855.996)"/><path class="d" d="M-908.069,1037.442c.778-.069.461-.7.508-1.085a43.048,43.048,0,0,1,3.551-13.351,24.493,24.493,0,0,1,13.089-12.307,46.364,46.364,0,0,1,11.684-3.241c1.37-.2,1.487-.721,1.369-1.94a30.141,30.141,0,0,1,8.194-24.391q.024.839.047,1.677c-.335.283-.163.542.039.8q.081,3.7.162,7.407a.563.563,0,0,0,.033.832q.087,3.975.174,7.951a.791.791,0,0,0,.049,1.075q.051,2.238.1,4.475a1.275,1.275,0,0,0,.044,1.065q.023,1.441.046,2.882l-2.012.085c-1.232-.02-2.467-.006-3.7-.071-.84-.044-1.058.331-1.036,1.1.04,1.408.01,2.818.009,4.227l-2.959.05-5.977-.007c-1.575-.012-3.15-.016-4.724-.039a1.62,1.62,0,0,0-1.3.491c-.931.983-1.881,1.948-2.824,2.92-.368.41-.232.914-.235,1.381-.011,1.384.531,2.91.319,4.07-.32,1.749-.1,3.471-.375,5.177a3.96,3.96,0,0,0-.689.37,48.41,48.41,0,0,0-9.14,10.031c-1.687,2.442-2.944,5.115-4.454,7.648Z" transform="translate(908.096 -929.511)"/><path class="e" d="M-290.926,1118.084a22.6,22.6,0,0,1-4.2-11.669c10.066,2.031,18.321,7.194,25.265,14.616.3.321.5.734,1,.778a47.5,47.5,0,0,1,3.674,13.535,6.861,6.861,0,0,0,.171,1.036c.06.2.241.2.365,0v2.917H-273.4a2.422,2.422,0,0,0-1.554-2.181c-1.347-.668-2.872-1.009-3.99-2.11l-1.836-3.239a14.458,14.458,0,0,0-3.443-6.343,2.517,2.517,0,0,0-.859-.977l-5.521-5.909Z" transform="translate(457.792 -1021.555)"/><path class="b" d="M-444.663,1151.71h-13.529a14.52,14.52,0,0,1,.177-2.094c.506-3.086,1.615-6.022,2.2-9.085.861-.941,2.165-1.31,2.98-2.31a40.931,40.931,0,0,0,5.734-4.657,57.191,57.191,0,0,0,8.5-10.253c.591,1.776,0,3.54-.116,5.3a19.162,19.162,0,0,1-3.293,8.8,21.856,21.856,0,0,0-2.654,8.751c-.754.068-1.694-.424-2.208.371-.549.85.09,1.663.438,2.46C-446,1150-445.011,1150.646-444.663,1151.71Z" transform="translate(577.589 -1033.968)"/><path class="f" d="M-413.924,1193.735c-.348-1.065-1.334-1.711-1.774-2.721-.348-.8-.987-1.61-.438-2.46.514-.8,1.454-.3,2.208-.371l3.19,1.524c-.105-.493-.139-.7-.2-.906a16.789,16.789,0,0,1-.607-5.871c.129-1.53,1.193-2.062,2.481-1.236.7.45,1.339,1,2.006,1.5l1.975,2.969c.484-1.181.906-2.219,1.335-3.253a3.427,3.427,0,0,1,.305-.587c.558-.836,1.031-1.9,2.232-1.8,1.171.1,1.607,1.16,1.98,2.1a17.772,17.772,0,0,1,.979,6.082c.58-.395,1.061-.757,1.576-1.064a2.4,2.4,0,0,1,2.739-.194,2.4,2.4,0,0,1,.9,2.6c-.233,1.249-.658,2.462-1,3.691Z" transform="translate(546.849 -1075.993)"/><path class="e" d="M-908.143,1178.369c1.51-2.534,2.767-5.207,4.454-7.648a48.413,48.413,0,0,1,9.14-10.031,3.935,3.935,0,0,1,.689-.37q.024,6.808.05,13.617c0,.557-.133,1.174.5,1.532.891,1.22,2.328,1.972,2.939,3.431q-8.493,0-16.987-.009C-907.694,1178.89-908.305,1179.174-908.143,1178.369Z" transform="translate(908.17 -1061.157)"/><path class="g" d="M-724.809,1219.248h-31.3c.151-1.416,1.163-2.533,1.367-3.931.925-.013,1.85-.035,2.776-.036q15.276-.022,30.553-.039c-.247.635-.847.969-1.251,1.47C-723.362,1217.573-724.463,1218.093-724.809,1219.248Z" transform="translate(796.458 -1101.506)"/><path class="h" d="M-532.2,1188.21c-.583,3.064-1.692,6-2.2,9.086a14.5,14.5,0,0,0-.177,2.093h-27.588c.137-.607.646-.475,1.064-.546a88.624,88.624,0,0,0,16.811-4.638A84.489,84.489,0,0,0-532.2,1188.21Z" transform="translate(653.973 -1081.646)"/><path class="i" d="M-849.226,1220.011c-.611-1.459-2.049-2.211-2.939-3.43.5-.416,1.092-.279,1.653-.28q10.321-.011,20.642,0a20.178,20.178,0,0,1,2.737,3.318c-.4.033-.692.059-.982.081-.343.026-.72-.053-.95.314Z" transform="translate(867.025 -1102.268)"/><path class="j" d="M-554.973,1180.889a84.5,84.5,0,0,1-12.087,6,88.65,88.65,0,0,1-16.811,4.638c-.418.071-.927-.062-1.064.546h-8.223c-.026-.814.627-.48.983-.534a106.35,106.35,0,0,0,16.369-3.6,72.687,72.687,0,0,0,18.676-8.886c.438-.293.907-.537,1.362-.8,1.215.615,2.529.1,3.776.334C-552.807,1179.58-554.112,1179.948-554.973,1180.889Z" transform="translate(676.744 -1074.326)"/><path class="c" d="M-283.345,1152.1l5.521,5.909c-.576.063-.781.513-1,.952a10.757,10.757,0,0,0-1.12,5.1,3.978,3.978,0,0,1-.642,2.9,7.921,7.921,0,0,0-1.741,5.9h-2.918c.267-2.047.335-4.138,1.393-6.005a2.191,2.191,0,0,0,.161-1.294C-284.041,1161.066-284.917,1156.554-283.345,1152.1Z" transform="translate(450.528 -1055.121)"/><path class="a" d="M-648.585,786.6c-.46.47.123.681.286.924q1.62,2.412,3.333,4.761a1,1,0,0,1,.03,1.4c-1.225,1.668-2.424,3.357-3.574,5.077-.465.695-.709.531-1.1-.038-1.168-1.709-2.34-3.416-3.577-5.075a.982.982,0,0,1,.067-1.382c1.084-1.5,2.152-3.009,3.19-4.54.228-.336.68-.6.547-1.122Z" transform="translate(721.03 -786.598)"/><path class="c" d="M-264.516,1178.056a14.458,14.458,0,0,1,3.443,6.343c-1.852,2.174-1.746,4.98-2.434,7.53h-4.775c.035-2.04-.343-4.166,1.327-5.845a4.863,4.863,0,0,0,1.335-4.11A4.572,4.572,0,0,1-264.516,1178.056Z" transform="translate(438.079 -1074.187)"/><path class="k" d="M-291.5,1150.847c-1.572,4.45-.7,8.962-.341,13.46A2.191,2.191,0,0,1-292,1165.6c-1.057,1.867-1.125,3.958-1.392,6.005h-2.918a10.946,10.946,0,0,1,1.12-5.76,5.737,5.737,0,0,0,.475-2.84,25.782,25.782,0,0,1,1.073-9.39c.393-1.168.573-2.518,1.828-3.223Z" transform="translate(458.684 -1053.864)"/><path class="h" d="M-638.143,1215.618c.346-1.156,1.447-1.675,2.143-2.537.4-.5,1-.835,1.251-1.469q.028-.656.056-1.312,3.189,2.4,6.373,4.8c.147.111.57.155.256.52Z" transform="translate(709.792 -1097.875)"/><path class="k" d="M-268.909,1175.351a4.573,4.573,0,0,0-1.1,3.919,4.863,4.863,0,0,1-1.335,4.11c-1.669,1.679-1.291,3.8-1.327,5.845h-1.592a7.921,7.921,0,0,1,1.741-5.9,3.979,3.979,0,0,0,.642-2.9,10.758,10.758,0,0,1,1.119-5.1c.214-.439.419-.89,1-.952A2.517,2.517,0,0,1-268.909,1175.351Z" transform="translate(442.473 -1071.482)"/><path class="k" d="M-250.249,1209.491c.688-2.55.582-5.356,2.434-7.53l1.836,3.239a6.517,6.517,0,0,0-1.087,4.292Z" transform="translate(424.822 -1091.749)"/><path class="c" d="M-238.35,1218.459a6.516,6.516,0,0,1,1.087-4.292c1.118,1.1,2.643,1.443,3.99,2.11a2.423,2.423,0,0,1,1.554,2.181Z" transform="translate(416.105 -1100.716)"/><path class="l" d="M-767.337,1219.329c.23-.367.607-.288.95-.314.29-.022.58-.048.982-.081a20.167,20.167,0,0,0-2.737-3.318c.011-.083.019-.166.024-.25l4.5-.015.041.046c-.2,1.4-1.217,2.514-1.368,3.931Z" transform="translate(805.297 -1101.587)"/><path class="e" d="M-296.081,986.217q0-16.472,0-32.945a24.245,24.245,0,0,1,15.7,25.721,25.066,25.066,0,0,1-5.168,12.27,12.545,12.545,0,0,1-1.178-.561A55.855,55.855,0,0,0-296.081,986.217Z" transform="translate(458.494 -909.047)"/><path class="b" d="M-764.593,934.376c-.2-.257-.374-.516-.038-.8.176,0,.353.008.529.007,1.689-.013,1.7-.064,1.46-1.738a18.149,18.149,0,0,1-.108-2.371c-.025-1.9-.094-1.971-2.059-1.968l0-.827c.562-.3,1.667.827,1.765-.532.126-1.751.033-3.519.026-5.279,0-.559-.259-.8-.843-.664a9.055,9.055,0,0,1-1.045.124.733.733,0,0,1-.112-.821c1.315.192,2.255-.045,2.07-1.7a5.426,5.426,0,0,1,.173-1.03c.2-2.082.024-2.274-2.04-2.271l-.263,0-.069-.281,1.838-.1a59.2,59.2,0,0,0,7.232,0l4.484.1q-.029.4-.059.8a18.861,18.861,0,0,0-2.368.015c-.875.109-1.83-.621-2.547-.032-.765.627-.131,1.78-.535,2.624a.926.926,0,0,0-.046.258c-.134.9.1,1.43,1.161,1.389,1.447-.056,2.9-.016,4.346-.018q-.017.4-.034.8c-1.458,0-2.916-.008-4.373,0-.488,0-1.047-.027-1.095.658-.113,1.624-.248,3.25-.258,4.876-.007,1.1.622,1.671,1.788,1.632,1.235-.042,2.474-.006,3.711,0a.777.777,0,0,1,0,.787c-1.408,0-2.815.009-4.223,0-.6,0-1.055.148-1.042.865a21.968,21.968,0,0,0,.093,3.289c.138.817.507,1.22,1.407,1.171,1.228-.066,2.462-.014,3.694-.013a.975.975,0,0,1-.138,1.059c-1.22,0-2.44.007-3.66-.009-.653-.009-1.128.065-.921.936a1.874,1.874,0,0,1-1.546,2.514,10.173,10.173,0,0,0-1.054.072c-2.3.389-2.639.232-2.854-2.127-.11-1.207-.582-1.529-1.648-1.4A6.432,6.432,0,0,1-764.593,934.376Z" transform="translate(803.101 -880.283)"/><path class="m" d="M-858.917,880.945c-.093-2.671,1.184-4.722,2.95-6.563a97.222,97.222,0,0,1,8.042-7.1,18.816,18.816,0,0,0,4.074-4.667c.435-.714.974-1.364,1.447-2.057a5.474,5.474,0,0,1,5.2-2.541c1.32.083,2.648.052,3.972.072a19.7,19.7,0,0,0-4.055,3.733,55.964,55.964,0,0,1-5.974,7.056c-2.518,2.47-5.269,4.7-7.635,7.32a10.7,10.7,0,0,0-2.62,3.927,1.118,1.118,0,0,1-1.3.84C-856.178,880.931-857.548,880.948-858.917,880.945Z" transform="translate(871.989 -839.054)"/><path class="d" d="M-296.236,1077.432a55.85,55.85,0,0,1,9.355,4.486,12.6,12.6,0,0,0,1.178.561,47.035,47.035,0,0,1,10.2,8.685,33.2,33.2,0,0,1,5.787,9.352c-.5-.044-.7-.457-1-.778-6.944-7.421-15.2-12.585-25.265-14.616A40.646,40.646,0,0,1-296.236,1077.432Z" transform="translate(458.649 -1000.262)"/><path class="n" d="M-858.906,880.846c1.369,0,2.739-.014,4.107.018a1.118,1.118,0,0,0,1.3-.84,10.7,10.7,0,0,1,2.62-3.926c2.367-2.625,5.118-4.85,7.635-7.32a55.948,55.948,0,0,0,5.974-7.056,19.692,19.692,0,0,1,4.055-3.733c3.386-.5,5.48.484,7.188,3.382a20.045,20.045,0,0,1,2.253,6.442l-.9-.036a.407.407,0,0,0-.067-.175c-.676-2.371-1.236-4.777-2.815-6.788a4.455,4.455,0,0,0-6.729-.745c-.5.427-.919.946-1.376,1.423a3.945,3.945,0,0,0-1.077,1.144,48.82,48.82,0,0,1-6.729,7.928c-.749.715-1.832,1.1-2.216,2.188l-.287.423.019-.026a27,27,0,0,0-5.328,5.259,5.859,5.859,0,0,0-1.457,3.892c.565,2.8,2.589,3.587,4.864,1.942a13.234,13.234,0,0,0,2.706-2.868,93.665,93.665,0,0,0,8.13-13.777c1.153-2.223,2.237-4.537,4.62-5.8,3.214-.276,4.327-.221,6.011,3.89a17.625,17.625,0,0,1,.547,1.895l-1.218-.132a6.127,6.127,0,0,0-1.168-3.151c-1.362-2.1-3.111-2.308-5.008-.613a8.236,8.236,0,0,0-2.307,3.177,134.354,134.354,0,0,1-7.982,13.879,18.857,18.857,0,0,1-3.447,4,4.96,4.96,0,0,1-3.3,1.152c-1.28-.024-2.562.024-3.843-.006A5.168,5.168,0,0,1-858.906,880.846Z" transform="translate(871.979 -838.955)"/><path class="d" d="M-716.025,953.075a.975.975,0,0,0,.138-1.06q.035-2.657.07-5.313a.777.777,0,0,0,0-.787,23.38,23.38,0,0,1,.258-4.233l.3-.145a32.624,32.624,0,0,1,8.442-1.978c-1.015,3.713-1.863,7.472-3.139,11.111a2.682,2.682,0,0,0-1.459.822,37.891,37.891,0,0,0-4.588,5.015Q-716.016,954.791-716.025,953.075Z" transform="translate(767.009 -898.972)"/><path class="o" d="M-401.047,884.074c-2.674-1.711-5.582-3.02-8.2-4.834-4.2-2.911-7.785-6.335-9.872-11.117a27.1,27.1,0,0,1-2.107-9.5c3.282.335,3.272.337,3.816,3.427a16.519,16.519,0,0,0,.8,3.578,11.588,11.588,0,0,0,1.346,3.578,19.075,19.075,0,0,0,4.657,6.6,7.975,7.975,0,0,0,1.833,1.665,36.388,36.388,0,0,0,7.67,5.116l2.986,1.733Z" transform="translate(550.432 -839.515)"/><path class="p" d="M-402.466,888.607a11.6,11.6,0,0,1-1.346-3.578c7.322.017,14.637.243,21.932.924.233,1.129-.488,1.326-1.352,1.382l-6.08.35a61.208,61.208,0,0,0-6.121.437l-2.92.2A17.281,17.281,0,0,0-402.466,888.607Z" transform="translate(537.638 -858.911)"/><path class="q" d="M-730.2,939.443a23.383,23.383,0,0,0-.258,4.232c-1.237,0-2.475-.037-3.711,0-1.166.04-1.8-.534-1.788-1.632.01-1.626.145-3.252.258-4.876.047-.686.607-.656,1.095-.658,1.458-.006,2.916,0,4.373,0q.015,1.4.032,2.8Z" transform="translate(781.654 -896.733)"/><path class="l" d="M-750.774,894.142a.4.4,0,0,1,.067.176,33.968,33.968,0,0,1-.286,5.016,59.391,59.391,0,0,1-7.232,0c.094-1.576.768-3.089.517-4.7a.632.632,0,0,1,.107-.2l4.494-.438,1.218.132Z" transform="translate(798.011 -865.497)"/><path class="q" d="M-729.595,921.083c-1.449,0-2.9-.038-4.346.018-1.064.041-1.3-.491-1.161-1.388a.924.924,0,0,1,.046-.258c.4-.844-.23-2,.535-2.624.717-.589,1.673.141,2.547.032a18.848,18.848,0,0,1,2.368-.015Q-729.6,918.965-729.595,921.083Z" transform="translate(781.049 -882.104)"/><path class="i" d="M-730.969,900.232a33.958,33.958,0,0,0,.285-5.016l.9.035c.3.074.6.149.9.221,2.592.626,3.011,1.148,3.258,3.834.065.71-.222.976-.856,1.029Z" transform="translate(777.987 -866.396)"/><path class="r" d="M-756.038,880.434l-4.494.438a11.941,11.941,0,0,0-1.682-4.2c1.9-1.7,3.646-1.487,5.008.613A6.128,6.128,0,0,1-756.038,880.434Z" transform="translate(800.942 -851.938)"/><path class="p" d="M-855.461,1028.927a4.709,4.709,0,0,0-3.957,3.968c-1.607-2.7-1.607-2.7-4.082-4.087,2.034-.609,3.534-1.629,4.018-3.752a8.641,8.641,0,0,0,1.225,2.394A11.571,11.571,0,0,0-855.461,1028.927Z" transform="translate(875.352 -961.784)"/><path class="i" d="M-765.2,896.4c.252,1.614-.422,3.127-.517,4.7l-1.838.1c-.462-.059-.818-.18-.857-.768a3.55,3.55,0,0,1,3.082-4.025A1.116,1.116,0,0,1-765.2,896.4Z" transform="translate(805.508 -867.264)"/><path class="s" d="M-764.246,937.071a9.031,9.031,0,0,0,1.045-.124c.584-.136.841.1.843.664.007,1.76.1,3.528-.025,5.279-.1,1.36-1.2.232-1.765.533Q-764.2,940.247-764.246,937.071Z" transform="translate(802.435 -897.026)"/><path class="s" d="M-763.86,964.569c1.965,0,2.034.071,2.059,1.968a18.149,18.149,0,0,0,.108,2.371c.244,1.674.229,1.726-1.46,1.738-.176,0-.353,0-.529-.007q-.023-.838-.047-1.677Q-763.795,966.766-763.86,964.569Z" transform="translate(802.151 -917.346)"/><path class="s" d="M-764.893,915.559l.263,0c2.063,0,2.24.189,2.04,2.271a5.423,5.423,0,0,0-.173,1.03c.185,1.659-.755,1.9-2.07,1.7Q-764.863,918.061-764.893,915.559Z" transform="translate(802.91 -881.339)"/><path class="b" d="M-714.264,947.158v-.124l.3-.022Z" transform="translate(765.715 -904.448)"/><path class="l" d="M-717.685,1144.255q-.027.656-.056,1.312-15.277.018-30.553.039c-.925,0-1.851.023-2.776.036l-.04-.046.019-25.175,33.141-.02.25.8c-.171,4.73-.015,9.459.036,14.188l-.041,1.428Q-717.7,1140.534-717.685,1144.255Z" transform="translate(792.784 -1031.83)"/><path class="t" d="M-469,936.278a49.655,49.655,0,0,0,9.818,7.138,1,1,0,0,1,.588,1.36c-2.578,9.3-5.078,18.622-7.691,27.911a29.4,29.4,0,0,1-3.538,7.943c-4-3.206-7.816-6.639-11.724-9.958-1.357-1.152-2.539-2.549-4.21-3.308a69.5,69.5,0,0,0-.208-13.2c-.4-3.364-1.184-6.4-4.319-8.27a23.126,23.126,0,0,0,4.887-1.918c5.093-2.272,10.17-4.582,15.258-6.866A2.027,2.027,0,0,0-469,936.278Zm-4.408,28.176c-.878,0-1.755,0-2.633,0-.718,0-1.055.189-.465.9.672.806,1.312,1.639,1.965,2.46.438.551.846.62,1.413.092.862-.8,1.807-1.519,2.715-2.274.27-.225.593-.457.438-.863-.134-.35-.5-.305-.8-.309C-471.657,964.45-472.535,964.456-473.413,964.454Z" transform="translate(601.169 -896.562)"/><path class="u" d="M-536.734,1053.435c1.671.76,2.853,2.156,4.21,3.308,3.908,3.319,7.719,6.752,11.724,9.958a46.038,46.038,0,0,1-13.2,14.779,47.6,47.6,0,0,1-6.956,4.326,31.316,31.316,0,0,0-3.352-5.524c-4.786-7.47-9.67-14.877-14.489-22.325-.389-.6-.992-1.164-.847-2.012a29.556,29.556,0,0,0,7.894.416,39.429,39.429,0,0,0,6.71-1.433l.141.141a10.3,10.3,0,0,1-4.722,2.215c-1.739.443-1.769.441-.921,2.038.388.731.5,1.709,1.682,1.794a15.028,15.028,0,0,0,9.6-2.236,3.78,3.78,0,0,0,2.079-3.131A14.773,14.773,0,0,1-536.734,1053.435Z" transform="translate(652.142 -982.633)"/><path class="v" d="M-631.934,863.713l2.658.519c-.131.509-.222,1.033-.4,1.525-2.7,7.464-5.25,14.977-7.55,22.574-.371.655-.35,1.506-1.01,2.016a34.752,34.752,0,0,0-13.681.6c2.84-1.531,5.946-2.083,9.248-2.655-.922-.492-.922-.491-1.43-.519a19.456,19.456,0,0,0-8.894,1.675,3.812,3.812,0,0,0-1.626,1.3A53.945,53.945,0,0,0-663.6,909.48a2.5,2.5,0,0,0,.216,1.894,13.421,13.421,0,0,0,3.927,4.411,2.438,2.438,0,0,1-.888.954c-2.579,1.852-5.125,3.75-7.727,5.568-1.69,1.181-3.177,2.667-5.12,3.476a40.5,40.5,0,0,1-.081-19.684,1.073,1.073,0,0,0,.353-.167c3.385-3.716,7.156-7.052,10.516-10.8,3.205-3.576,6.762-6.823,10.065-10.317,5.573-5.894,11.361-11.585,17.038-17.382C-634.132,866.237-633.054,864.954-631.934,863.713Z" transform="translate(736.464 -843.251)"/><path class="t" d="M-584.3,1062.082c-.146.848.458,1.411.847,2.012,4.819,7.449,9.7,14.856,14.489,22.325a31.323,31.323,0,0,1,3.352,5.524,67.486,67.486,0,0,1-15.567,6.086,69.1,69.1,0,0,1-11.528,2.181l-.518-.522a8.8,8.8,0,0,1,.054-.926q2.321-14.437,5.687-28.666c.6-2.531,1.145-5.074,1.716-7.612l.331-.7.723.206.353.129Z" transform="translate(676.795 -988.769)"/><path class="w" d="M-628.684,862.413c-1.12,1.242-2.2,2.524-3.367,3.718-5.677,5.8-11.465,11.488-17.038,17.382-3.3,3.495-6.86,6.742-10.065,10.317-3.36,3.748-7.131,7.085-10.516,10.8a1.073,1.073,0,0,1-.353.167c.344-1.454.644-2.921,1.039-4.361,1.4-5.091,2.826-10.174,4.244-15.26,3-2,6.015-3.967,8.985-6q11.711-8.033,23.391-16.112c.439-.3.9-.564,1.072-1.117Z" transform="translate(733.214 -841.952)"/><path class="x" d="M-537.969,915.179c.66-.51.639-1.361,1.01-2.016a5.176,5.176,0,0,0,1.783-.834c7.169-4.486,14.329-8.986,21.527-13.425.9-.558,1.689-1.486,2.926-1.383a31.844,31.844,0,0,0,6.69,10.278,2.028,2.028,0,0,1-1.139.835c-5.088,2.285-10.164,4.594-15.258,6.866a23.123,23.123,0,0,1-4.886,1.918,20.446,20.446,0,0,0-5.1-2.423c-.413-.1-.96-.4-1.155.155-.165.472.462.544.767.731,2.971,1.824,3.286,2.078,4.2,3.712A30.526,30.526,0,0,0-537.969,915.179Z" transform="translate(636.198 -868.083)"/><path class="t" d="M-507.928,874.127c-1.237-.1-2.022.825-2.926,1.383-7.2,4.439-14.358,8.939-21.527,13.425a5.175,5.175,0,0,1-1.783.834c2.3-7.6,4.851-15.11,7.55-22.574.178-.492.268-1.016.4-1.525,4.716.825,9.416,1.771,14.157,2.419,2.056.281,3.142,1,3.324,3.12A15.974,15.974,0,0,0-507.928,874.127Z" transform="translate(633.403 -844.688)"/><path class="y" d="M-423.835,954.531l2.935.247c.805.092.678.573.524,1.139-.49,1.807-.943,3.624-1.41,5.438-1.482,5.3-2.995,10.585-4.433,15.894a82.922,82.922,0,0,0-2.157,8.435l-.206.384-.1.5c-.285.868-.575,1.735-.855,2.605a59.345,59.345,0,0,1-4.7,10.138,57.2,57.2,0,0,1-8.5,10.253,40.931,40.931,0,0,1-5.734,4.657c-1.247-.238-2.562.281-3.776-.334,1.642-1.4,3.311-2.763,4.921-4.2a47.532,47.532,0,0,0,13.871-20.48c2.42-7.2,4.077-14.615,6.141-21.917C-426.113,963.053-424.992,958.787-423.835,954.531Z" transform="translate(573.22 -909.972)"/><path class="i" d="M-722.33,1096.046l-33.141.02-.024-.021c-.57-1.037-.772-2.257-1.577-3.177l.533-.264h3a.469.469,0,0,0-.446-.261c-1.282.193-1.591-.455-1.516-1.6s.016-2.281.016-3.422l3.168-.06,5.584.021,3.644-.031c3,.154,3,.154,3,3.175,0,.4.021.795,0,1.19-.043.753.327,1.015,1.041.992,1.058-.035,2.117-.024,3.176-.032h2.685q3.309.014,6.618.028c.431,0,.875-.078,1.227.313A40.764,40.764,0,0,1-722.33,1096.046Z" transform="translate(797.164 -1007.474)"/><path class="o" d="M-680.457,965.006h-2.685a40.1,40.1,0,0,1-2.123-14.824,61.377,61.377,0,0,1,2.5-13.616c1.959-7.281,3.986-14.543,5.978-21.815a1.753,1.753,0,0,1,.585-1.144,7,7,0,0,0,2.666.531c-.881,2.978-1.765,5.956-2.424,8.994-1.417,5.086-2.847,10.168-4.244,15.26-.4,1.44-.7,2.906-1.039,4.361a40.5,40.5,0,0,0,.081,19.684Z" transform="translate(744.435 -879.906)"/><path class="v" d="M-650.116,882.829c.66-3.038,1.543-6.016,2.424-8.994a51.555,51.555,0,0,0,11.662-4.076,37.355,37.355,0,0,0,13.819-11.011,33.947,33.947,0,0,1,5.543.847c-.17.553-.633.815-1.072,1.117q-11.7,8.054-23.391,16.112C-644.1,878.862-647.119,880.83-650.116,882.829Z" transform="translate(718.588 -839.603)"/><path class="e" d="M-714.5,1009.51l-3.643.032q-.008-1.32-.016-2.641a.523.523,0,0,0,.025-.795q.094-2.655.188-5.309a1.26,1.26,0,0,0,.026-1.052q.11-3.849.22-7.7,0-.388-.008-.776l.133-4a37.913,37.913,0,0,1,4.588-5.015,2.683,2.683,0,0,1,1.459-.822c-.435,2.7-1.371,5.272-2,7.925A49.5,49.5,0,0,0-714.5,1009.51Z" transform="translate(768.574 -929.736)"/><path class="y" d="M-622.881,857.053A37.355,37.355,0,0,1-636.7,868.064a51.559,51.559,0,0,1-11.662,4.076,7,7,0,0,1-2.666-.532,54.88,54.88,0,0,0,15.262-6.214,37.151,37.151,0,0,0,9.057-7.641C-625.4,856.171-624.843,856.121-622.881,857.053Z" transform="translate(719.259 -837.908)"/><path class="o" d="M-616.728,1184.239l.518.522c-.574.389-.967.021-1.413-.3-2.666-1.888-5.042-4.133-7.592-6.162l.041-1.428c.354.33.712.654,1.059.99A53.889,53.889,0,0,0-616.728,1184.239Z" transform="translate(700.294 -1073.32)"/><path class="k" d="M-346.059,916.679c.467-1.813.92-3.631,1.41-5.437.154-.566.281-1.047-.524-1.139l-2.986-1.734c.01-2.328-.224-4.641-.414-6.957q-.3-3.671-.594-7.342l6.08-.35c.1,5.2.614,10.367,1.027,15.545.242,3.027.311,6.07.587,9.094a140,140,0,0,1,.461,17.447,25.2,25.2,0,0,1-.509,6.156,61.656,61.656,0,0,1-1.548-8.286c-.937-5.42-1.788-10.855-2.687-16.282A3.274,3.274,0,0,0-346.059,916.679Z" transform="translate(497.493 -865.296)"/><path class="h" d="M-401.158,1088.028a59.351,59.351,0,0,0,4.7-10.138c.28-.87.57-1.737.855-2.605.566.7.343,1.533.3,2.3-.227,3.687-.448,7.376-.789,11.054a49.78,49.78,0,0,1-3.839,15.86,3.655,3.655,0,0,0-.408,1.387c-.667-.5-1.305-1.048-2.006-1.5-1.288-.827-2.352-.294-2.481,1.236a16.791,16.791,0,0,0,.607,5.871c.056.2.09.413.2.906l-3.19-1.524a21.855,21.855,0,0,1,2.654-8.751,19.163,19.163,0,0,0,3.293-8.8C-401.161,1091.567-400.567,1089.8-401.158,1088.028Z" transform="translate(540.143 -998.684)"/><path class="h" d="M-346.549,1071.523a12.437,12.437,0,0,1-.9,4.374c-.132.358-.24.826-.74.816-.455-.009-.662-.412-.82-.771a7.576,7.576,0,0,1-.693-1.846c-.337-2.292-.827-4.578-.376-6.927a6.289,6.289,0,0,0-.1-2.624,4.478,4.478,0,0,1,.18-2.727c.176-.444.289-1.012.879-1.034.631-.023.874.524,1.085,1.011a14.743,14.743,0,0,1,1.14,5.129C-346.809,1068.46-346.587,1069.985-346.549,1071.523Z" transform="translate(498.329 -988.031)"/><path class="b" d="M-338.219,1168.243a4.888,4.888,0,0,1-.414-.458c-.918-1.457-.889-1.753.334-3.342.485.54.724,1.3,1.529,1.537.43.127.375.488-.026.625A2.5,2.5,0,0,0-338.219,1168.243Z" transform="translate(490.225 -1064.186)"/><path class="h" d="M-363.068,1072.322l.206-.384Z" transform="translate(507.705 -996.226)"/><path class="z" d="M-831.372,1145.419c-.005.083-.013.167-.024.25q-10.321,0-20.642,0c-.561,0-1.157-.136-1.653.28-.633-.358-.5-.975-.5-1.532q-.032-6.808-.05-13.617c.272-1.707.055-3.428.375-5.177.212-1.16-.33-2.686-.319-4.07,0-.467-.132-.971.235-1.381l5.867.034c2.006,0,4.013.124,6.017-.067l10.688.084q0,5.573.006,11.146,0,1.175,0,2.348Z" transform="translate(868.55 -1031.638)"/><path class="aa" d="M-797.668,1096.077l-10.687-.084c.72-1.34,2.088-2.108,2.939-3.333l2.959-.05c1.221,0,2.443-.016,3.664.014.776.019,1.1-.29,1.081-1.082-.04-1.394-.017-2.791-.021-4.186l2.012-.085,1.512.06-.006,5.287-.533.264a23.193,23.193,0,0,0-2.916,3.188Z" transform="translate(834.84 -1007.491)"/><path class="s" d="M-762.133,1029.456q-.087-3.976-.174-7.951l6.145,0,0,7.675C-758.128,1029.74-760.144,1029.313-762.133,1029.456Z" transform="translate(801.01 -959.173)"/><path class="s" d="M-763.043,990.376a6.431,6.431,0,0,0,.794,0c1.066-.13,1.538.191,1.648,1.4.215,2.359.549,2.516,2.854,2.127a10.14,10.14,0,0,1,1.054-.072q0,1.988,0,3.976l-6.182-.018Q-762.962,994.079-763.043,990.376Z" transform="translate(801.551 -936.283)"/><path class="s" d="M-761.362,1059.236q-.051-2.238-.1-4.476l5.921-.276q0,2.509,0,5.017A36.476,36.476,0,0,0-761.362,1059.236Z" transform="translate(800.391 -983.403)"/><path class="z" d="M-781.432,1087.386c0,1.4-.019,2.792.021,4.186.022.792-.3,1.1-1.081,1.082-1.221-.03-2.443-.012-3.664-.014,0-1.409.03-2.819-.009-4.227-.022-.767.2-1.142,1.036-1.1C-783.9,1087.38-782.664,1087.366-781.432,1087.386Z" transform="translate(818.539 -1007.52)"/><path class="u" d="M-822.077,1107.561c-.851,1.224-2.219,1.993-2.939,3.333-2,.19-4.011.068-6.018.067.875-1.239,2.226-2.062,2.98-3.407Z" transform="translate(851.501 -1022.391)"/><path class="aa" d="M-844.3,1107.445c-.754,1.345-2.105,2.168-2.98,3.407l-5.867-.034c.943-.973,1.893-1.937,2.824-2.921a1.619,1.619,0,0,1,1.3-.491C-847.447,1107.429-845.872,1107.434-844.3,1107.445Z" transform="translate(867.745 -1022.283)"/><path class="s" d="M-759.356,1079.352l-1.512-.06q-.024-1.442-.046-2.882l5.772.022q0,1.432.006,2.864l-3.168.06Z" transform="translate(799.987 -999.511)"/><path class="b" d="M-756.2,1051.5l-5.921.276a.791.791,0,0,1-.049-1.074c1.989-.143,4.005.285,5.975-.278l5.8.005a1.261,1.261,0,0,1-.026,1.052Z" transform="translate(801.043 -980.423)"/><path class="b" d="M-755.546,1073.48l-5.772-.022a1.276,1.276,0,0,1-.044-1.066,36.479,36.479,0,0,1,5.82.266,44.419,44.419,0,0,1,5.594.272.523.523,0,0,1-.025.795C-751.83,1073.641-753.7,1073.943-755.546,1073.48Z" transform="translate(800.39 -996.56)"/><path class="b" d="M-762.894,1018.375l6.182.018,6.017.019q0,.388.008.776l-6.029.017-6.145,0A.563.563,0,0,1-762.894,1018.375Z" transform="translate(801.564 -956.875)"/><path class="i" d="M-768.071,1145.605q0-5.85,0-11.7c.839-.1,1.154-.481.665-1.275-.22-.359-.444-.715-.666-1.073l-.006-11.147,0-.005,4.494-.012.024.021-.019,25.175Z" transform="translate(805.249 -1031.825)"/><path class="q" d="M-733.116,997.9l-6.017-.019q0-1.988,0-3.976a1.874,1.874,0,0,0,1.546-2.514c-.207-.871.268-.945.921-.936,1.22.016,2.44.008,3.66.01q.01,1.716.019,3.432Q-733.049,995.9-733.116,997.9Z" transform="translate(783.985 -936.366)"/><path class="q" d="M-729.859,966.478q-.035,2.657-.07,5.314c-1.232,0-2.466-.053-3.694.013-.9.049-1.269-.354-1.407-1.171a21.976,21.976,0,0,1-.093-3.289c-.013-.716.439-.868,1.042-.864C-732.674,966.487-731.266,966.479-729.859,966.478Z" transform="translate(781.051 -918.749)"/><path class="r" d="M-828.6,882.742c.384-1.085,1.467-1.473,2.216-2.188a48.815,48.815,0,0,0,6.729-7.928,3.937,3.937,0,0,1,1.077-1.144c1.077.157,2.212-.3,3.246.308-2.383,1.26-3.468,3.574-4.62,5.8a93.662,93.662,0,0,1-8.131,13.778,13.227,13.227,0,0,1-2.706,2.868c-2.275,1.645-4.3.858-4.865-1.942.483.274.775-.088,1-.38a67.485,67.485,0,0,0,5.789-8.772l-.019.026Z" transform="translate(854.894 -848.946)"/><path class="b" d="M-768.052,864.557c-1.034-.6-2.169-.151-3.246-.308.456-.477.876-1,1.375-1.423a4.455,4.455,0,0,1,6.729.745c1.579,2.011,2.138,4.418,2.815,6.788l-1.115-.017a17.675,17.675,0,0,0-.547-1.895C-763.725,864.336-764.839,864.281-768.052,864.557Z" transform="translate(807.616 -841.713)"/><path d="M-809.864,913.966l-.287.423Z" transform="translate(836.159 -880.17)"/><path class="c" d="M-367.614,895.04q.3,3.671.594,7.342c.19,2.316.424,4.629.414,6.957a36.386,36.386,0,0,1-7.67-5.116,4.483,4.483,0,0,0,.26-1.009c.057-2.581.454-5.149.281-7.737A61.137,61.137,0,0,1-367.614,895.04Z" transform="translate(515.94 -866.266)"/><path class="k" d="M-380.322,896.687c.173,2.588-.224,5.157-.281,7.738a4.485,4.485,0,0,1-.26,1.009,7.983,7.983,0,0,1-1.833-1.665,49.5,49.5,0,0,0-.545-6.884Z" transform="translate(522.526 -867.476)"/><path class="c" d="M-394.626,897.431a49.5,49.5,0,0,1,.545,6.884,19.078,19.078,0,0,1-4.657-6.6A17.277,17.277,0,0,1-394.626,897.431Z" transform="translate(533.911 -868.023)"/><path class="v" d="M-616.927,1101.62a53.879,53.879,0,0,1-7.387-6.373c-.347-.336-.706-.66-1.059-.99-.051-4.73-.206-9.458-.036-14.188,1.56-.693,2.368-2.167,3.487-3.324,3.737-3.865,7.506-7.7,11.265-11.542a1.99,1.99,0,0,1,1.186-.785c-.57,2.537-1.116,5.081-1.716,7.612q-3.372,14.228-5.687,28.666A8.811,8.811,0,0,0-616.927,1101.62Z" transform="translate(700.494 -990.701)"/><path class="ab" d="M-641.966,1046.733a1.99,1.99,0,0,0-1.185.785c-3.759,3.844-7.529,7.677-11.266,11.542-1.119,1.157-1.927,2.631-3.487,3.324l-.25-.8a40.767,40.767,0,0,0-3.011-3.131c-.352-.391-.8-.31-1.227-.313q-3.309-.02-6.618-.028l-.708-2.568c1.943-.809,3.43-2.294,5.12-3.476,2.6-1.818,5.148-3.716,7.727-5.568a2.439,2.439,0,0,0,.888-.954c.739.394,1.459.829,2.219,1.175,2.833,1.292,3.242,1.192,5.528-.918.549-.507.546-.729-.1-1.127a10,10,0,0,1-4.081-4.212l.117-.123a29.617,29.617,0,0,0,10.661,5.689Z" transform="translate(732.99 -973.017)"/><path class="ac" d="M-626.112,977.232a10,10,0,0,0,4.081,4.212c.642.4.646.621.1,1.127-2.286,2.11-2.694,2.209-5.528.918-.76-.346-1.481-.781-2.219-1.175a13.423,13.423,0,0,1-3.927-4.412,2.505,2.505,0,0,1-.215-1.894,53.943,53.943,0,0,1,8.982-18.739,3.813,3.813,0,0,1,1.626-1.3,19.458,19.458,0,0,1,8.894-1.675c.509.028.509.027,1.43.519-3.3.573-6.408,1.124-9.248,2.655a34.754,34.754,0,0,1,13.681-.6,30.523,30.523,0,0,1,11.357,4.415c-.913-1.633-1.227-1.888-4.2-3.712-.3-.187-.932-.26-.767-.731.194-.555.742-.259,1.155-.155a20.457,20.457,0,0,1,5.1,2.423c3.135,1.875,3.916,4.907,4.32,8.27a69.5,69.5,0,0,1,.207,13.2,14.782,14.782,0,0,0-.452,2.316,3.78,3.78,0,0,1-2.079,3.131,15.029,15.029,0,0,1-9.6,2.236c-1.183-.085-1.294-1.064-1.682-1.794-.848-1.6-.818-1.6.921-2.038a10.3,10.3,0,0,0,4.722-2.216c.094-.043.247-.057.155-.208-.017-.028-.193.043-.3.068a39.412,39.412,0,0,1-6.71,1.433,29.564,29.564,0,0,1-7.894-.416l-.063.041-.353-.129-.723-.206A29.621,29.621,0,0,1-626,977.109l-.211-.15Zm6.1-1.64c2.018,1.593,5.65-.516,5.621-3.762a3.526,3.526,0,0,0-2.275-3.739,3.861,3.861,0,0,0-4.754,2.234A3.954,3.954,0,0,0-620.014,975.592Zm18.771-1.565a3.573,3.573,0,0,0-3.418-3.781,4.387,4.387,0,0,0-4.093,4.491,3.642,3.642,0,0,0,3.469,3.757A4.186,4.186,0,0,0-601.243,974.027Z" transform="translate(706.689 -909.78)"/><path class="u" d="M-436.1,1042.466c.878,0,1.755-.005,2.633,0,.3,0,.667-.042.8.309.155.407-.168.639-.438.863-.908.755-1.853,1.47-2.715,2.274-.567.528-.975.459-1.413-.092-.653-.822-1.293-1.654-1.965-2.461-.59-.708-.253-.894.465-.9C-437.859,1042.463-436.981,1042.466-436.1,1042.466Z" transform="translate(563.86 -974.573)"/><path class="u" d="M-561.155,1062.563l.353.129Z" transform="translate(653.232 -989.339)"/><path class="q" d="M-739.162,1076.491c1.841.462,3.716.161,5.574.245q.008,1.321.016,2.641l-5.584-.022Q-739.159,1077.923-739.162,1076.491Z" transform="translate(784.007 -999.571)"/><path class="z" d="M-763.57,1111.6l-4.494.012a23.232,23.232,0,0,1,2.917-3.189C-764.342,1109.342-764.14,1110.561-763.57,1111.6Z" transform="translate(805.24 -1023.029)"/><path class="z" d="M-755.056,1087.5l1.052,0c0,1.141.059,2.286-.016,3.422s.233,1.793,1.516,1.6a.469.469,0,0,1,.446.261h-3Q-755.059,1090.143-755.056,1087.5Z" transform="translate(795.688 -1007.658)"/><path class="q" d="M-739.147,1021.456l6.029-.017q-.11,3.848-.22,7.7l-5.8-.005Q-739.145,1025.294-739.147,1021.456Z" transform="translate(783.995 -959.126)"/><path class="q" d="M-733.553,1059.721a44.4,44.4,0,0,0-5.594-.273q0-2.509,0-5.017l5.783-.019Q-733.459,1057.067-733.553,1059.721Z" transform="translate(783.996 -983.35)"/><path class="l" d="M-768.053,1162.466c.222.358.445.715.666,1.073.489.795.174,1.172-.665,1.276Q-768.052,1163.64-768.053,1162.466Z" transform="translate(805.232 -1062.733)"/><path class="u" d="M-531.567,1018.261a4.186,4.186,0,0,1-4.041,4.467,3.642,3.642,0,0,1-3.469-3.757,4.387,4.387,0,0,1,4.093-4.491A3.573,3.573,0,0,1-531.567,1018.261Z" transform="translate(637.012 -954.014)"/><path class="v" d="M-586.7,1013.277a3.954,3.954,0,0,1-1.408-5.267,3.861,3.861,0,0,1,4.754-2.234,3.527,3.527,0,0,1,2.275,3.739,1.815,1.815,0,0,0-1.166.519C-583.718,1011.13-585.213,1012.2-586.7,1013.277Z" transform="translate(673.374 -947.464)"/><path class="ab" d="M-581.516,1024.21c1.487-1.079,2.981-2.147,4.455-3.243a1.815,1.815,0,0,1,1.166-.519C-575.866,1023.694-579.5,1025.8-581.516,1024.21Z" transform="translate(668.19 -958.398)"/><path class="u" d="M-504.549,1058.86c.1-.025.279-.1.3-.068.093.151-.061.165-.154.208Z" transform="translate(611.646 -986.564)"/><path class="ab" d="M-604.757,1040.054l-.093-.273.211.15Z" transform="translate(685.333 -972.601)"/><path class="ad" d="M-342.461,1120.289c-3.393.849-5.384,2.676-5.984,6-2.431-4.081-2.431-4.081-6.173-6.182,3.077-.92,5.344-2.465,6.077-5.674.595,1.23.943,2.7,1.853,3.62C-345.76,1118.99-344.277,1119.374-342.461,1120.289Z" transform="translate(501.498 -1027.447)"/><path class="ae" d="M-350.275,1100.127a3.378,3.378,0,0,0-2.838,2.846c-1.153-1.935-1.153-1.935-2.928-2.932a3.628,3.628,0,0,0,2.882-2.691,6.2,6.2,0,0,0,.879,1.717A8.307,8.307,0,0,0-350.275,1100.127Z" transform="translate(502.543 -1014.896)"/></g></g></svg>