<svg xmlns="http://www.w3.org/2000/svg" xmlns:xlink="http://www.w3.org/1999/xlink" width="314.732" height="288.062" viewBox="0 0 314.732 288.062"><defs><style>.a,.i{fill:#9ba1a3;}.a,.b,.c,.d,.g,.h,.q{stroke:#000;}.a,.b,.c,.d,.g,.q,.r{stroke-linecap:round;stroke-linejoin:round;}.b,.e,.u{fill:#8264b4;}.c,.f,.s{fill:#fff;}.d,.z{fill:#5e676c;}.f{opacity:0.7;}.g,.h,.r{fill:none;}.h{stroke-miterlimit:10;}.j{clip-path:url(#a);}.k{opacity:0.2;}.l{clip-path:url(#b);}.m{fill:rgba(0,0,0,0.7);}.m,.n{opacity:0.3;}.n{fill:rgba(255,255,255,0.7);}.o{clip-path:url(#c);}.p{clip-path:url(#d);}.q{fill:#263238;}.r{stroke:#fff;}.t{clip-path:url(#e);}.u{opacity:0.4;}.v{clip-path:url(#f);}.w{clip-path:url(#g);}.x{clip-path:url(#h);}.y{clip-path:url(#i);}.aa{clip-path:url(#j);}.ab{clip-path:url(#k);}.ac{clip-path:url(#m);}</style><clipPath id="a"><path class="a" d="M170.571,247.551l3.209,6.784a359.185,359.185,0,0,1,21.35,58.7c.192.74,4.388,15.586,1.024,52.543l1.918,6.485-2.094,10.711s3.151,4.557,3.038,6.043c0,0-7.779,1.453-10.37,2.846-2.021,1.086-8.08,7.069-8.08,7.069-1.718-.355-1.868-7.306-1.868-7.306s-3.6-61.692-4.627-64.354-7.347-14.119-17.19-40.35c0,0-.223,36.641-2.852,45.907-2.34,8.246.431,31.326.431,31.326l-1.579,25.69s5.536,5.754,1.045,7.3c0,0-3-5.773-11.549-7.085-4.345-.667-9.763,7.05-9.763,7.05-1.9-.608.809-10.3.809-10.3-6.06-45.729-1.586-37.452-2.8-59.8-.777-14.342-4.85-75.714-.074-80.7Z" transform="translate(-128.267 -246.1)"/></clipPath><clipPath id="b"><path class="b" d="M1.882,0H18.7a1.882,1.882,0,0,1,1.882,1.882V14.075a0,0,0,0,1,0,0H0a0,0,0,0,1,0,0V1.882A1.882,1.882,0,0,1,1.882,0Z" transform="translate(0 1.892) rotate(-5.272)"/></clipPath><clipPath id="c"><path class="b" d="M1.881,0H18.7a1.881,1.881,0,0,1,1.881,1.881V14.075a0,0,0,0,1,0,0H0a0,0,0,0,1,0,0V1.881A1.881,1.881,0,0,1,1.881,0Z" transform="translate(0 1.892) rotate(-5.272)"/></clipPath><clipPath id="d"><path class="b" d="M276.108,108.591l5.31,57.545L188.7,174.692l-5.31-57.545a3.64,3.64,0,0,1,3.292-3.962l85.461-7.886A3.64,3.64,0,0,1,276.108,108.591Z" transform="translate(-183.377 -105.283)"/></clipPath><clipPath id="e"><path class="c" d="M351.723,394.891s-10.4-3.835-12.445,3.835c0,0,1.857,8.448.743,13.061s-6.712,13.439-7.058,15.119c-.677,3.277-.166,3.5-.166,3.5a10.827,10.827,0,0,0,9.546-.167c5.471-2.522,14.952-13.374,16.439-15.607s-4.644-11.072-4.644-11.072Z" transform="translate(-332.611 -393.933)"/></clipPath><clipPath id="f"><path class="b" d="M1.882,0H18.7a1.882,1.882,0,0,1,1.882,1.882V14.075a0,0,0,0,1,0,0H0a0,0,0,0,1,0,0V1.882A1.882,1.882,0,0,1,1.882,0Z" transform="translate(1.206 0) rotate(4.915)"/></clipPath><clipPath id="g"><path class="b" d="M1.882,0H18.7a1.882,1.882,0,0,1,1.882,1.882V14.075a0,0,0,0,1,0,0H0a0,0,0,0,1,0,0V1.882A1.882,1.882,0,0,1,1.882,0Z" transform="translate(1.206 0) rotate(4.914)"/></clipPath><clipPath id="h"><path class="b" d="M314.84,243.576l-4.951,57.577-92.766-7.977,4.95-57.577a3.641,3.641,0,0,1,3.941-3.317l85.508,7.353A3.64,3.64,0,0,1,314.84,243.576Z" transform="translate(-217.123 -232.269)"/></clipPath><clipPath id="i"><path class="c" d="M384.365,408.161s-4.433-3.167-13.618-2.534c0,0-.664,11.009-1.916,14.213s-7.832,8.747-9.055,9.7-1.222,4.276-1.222,4.276h27.868a88.188,88.188,0,0,0-2.217-14.135Z" transform="translate(-358.555 -405.543)"/></clipPath><clipPath id="j"><path class="d" d="M386.572,248.2s-17.78,3.482-35.215-2.169a50.42,50.42,0,0,1-11.319-5.227s.048-1.121.08-2.954c.144-7.157.1-25.16-3.666-29.651-2.37-2.81-4.283-20.181.352-28.963l14.177-11.4c19.629,3.834,23.775,9.03,27.018,20.237.6,2.049,1.161,4.3,1.785,6.78.68,2.706,1.321,6.012,1.929,9.646C384.659,222.42,386.572,248.2,386.572,248.2Z" transform="translate(-333.969 -167.84)"/></clipPath><clipPath id="k"><path class="b" d="M1.882,0H18.7a1.882,1.882,0,0,1,1.882,1.882V14.075a0,0,0,0,1,0,0H0a0,0,0,0,1,0,0V1.882A1.882,1.882,0,0,1,1.882,0Z"/></clipPath><clipPath id="m"><path class="b" d="M296.219,370.325v57.79H203.11v-57.79a3.64,3.64,0,0,1,3.642-3.642h85.824A3.64,3.64,0,0,1,296.219,370.325Z" transform="translate(-203.11 -366.683)"/></clipPath></defs><g transform="translate(-53.545 -84.21)"><g transform="translate(74.19 84.21)"><g transform="translate(0)"><path class="e" d="M103.869,106.832C114.635,93.961,129.194,84,146.547,84.213c29.611.364,45.618,26.579,62.618,46.8,8.816,10.488,18.8,20.607,31.883,25.533,19.626,7.391,41.478,3.075,60.6-3.785,8.563-3.072,18.71-7.394,28.354-5.187,29.324,6.708,26.268,42.5,21.424,65.154-6.539,30.591-17.168,63.164-38.712,86.67-51.574,56.27-144.4,21.777-190.919-23.125-3.42-3.3-6.7-6.749-9.777-10.37a143.989,143.989,0,0,1-20.141-30.776c-15.007-31.175-17.071-69.078-4.068-101.3A102.43,102.43,0,0,1,103.869,106.832Z" transform="translate(-79.21 -84.21)"/><path class="f" d="M103.869,106.832C114.635,93.961,129.194,84,146.547,84.213c29.611.364,45.618,26.579,62.618,46.8,8.816,10.488,18.8,20.607,31.883,25.533,19.626,7.391,41.478,3.075,60.6-3.785,8.563-3.072,18.71-7.394,28.354-5.187,29.324,6.708,26.268,42.5,21.424,65.154-6.539,30.591-17.168,63.164-38.712,86.67-51.574,56.27-144.4,21.777-190.919-23.125-3.42-3.3-6.7-6.749-9.777-10.37a143.989,143.989,0,0,1-20.141-30.776c-15.007-31.175-17.071-69.078-4.068-101.3A102.43,102.43,0,0,1,103.869,106.832Z" transform="translate(-79.21 -84.21)"/></g></g><g transform="translate(54.045 371.771)"><line class="g" x2="313.732"/></g><g transform="translate(244.511 91.775)"><g transform="translate(0 0)"><path class="g" d="M291.973,211.447V93.66h7.291" transform="translate(-291.973 -93.66)"/><line class="g" y1="3.129" transform="translate(0 128.68)"/><path class="g" d="M318.022,93.66h75.253V236.447h-101.3" transform="translate(-291.973 -93.66)"/><line class="g" x2="6.613" transform="translate(16.822)"/><rect class="g" width="93.683" height="135.184" transform="translate(3.809 3.801)"/><path class="g" d="M387.144,107.454v56.134H302.174v-3.661" transform="translate(-294.008 -96.412)"/><path class="g" d="M302.174,150.533V103.388h84.969" transform="translate(-294.008 -95.601)"/><line class="g" y1="3.559" transform="translate(8.166 57.142)"/><line class="g" x2="18.705" transform="translate(78.788 71.393)"/><line class="g" x2="2.647" transform="translate(72.136 71.393)"/><line class="g" x2="65.166" transform="translate(3.809 71.393)"/><path class="g" d="M349.364,177.1v-1.932H357.2v1.1h-3.126v.833" transform="translate(-303.421 -109.919)"/><path class="g" d="M296.934,245.357s1.3.982,2.212,6.935c0,0,1.573-9.5,3.48-9.653s1.519,6.185,1.519,6.185.318-3.12,1.812-2.976,0,6.445,0,6.445,1.791-4.911,3.49-4.828-1.128,8.9-1.128,8.9,4.356-3.153,6.121-1.609-.981,5.434-.981,5.434,6.246-1.355,7.218,2.31" transform="translate(-292.963 -123.378)"/><path class="g" d="M326.593,258.338s2.723-1.784,4.862-.952c0,0-1.362-2.076,0-3.345s3.112,3.345,3.112,3.345.195-7.727,2.918-7.338,0,7.338,0,7.338,4.862-4.312,6.03-2.81-.778,3.762-.778,3.762a5.245,5.245,0,0,1,5.056,1.242s3.261-3.326,6.882-3.8c0,0-2.408-6.993-1.241-8.4s3.288,6.1,3.288,6.1.925-4.886,3.968-5.263c0,0-2.533-1.378-1.782-3.466s4.251.49,4.251.49-1.437-3.674.837-4.682,3.225,3.076,3.225,3.076.633-4.279,3.309-4.043c2.654.234,1.808,5.159,1.808,5.159s2.523-3.914,3.875-3.515c2.7.8,1.88,6.981,1.88,6.981s3.769-2.619,4.739-1.413c1.047,1.3-3.919,4.648-3.919,4.648a12.048,12.048,0,0,1,6.066,2.593" transform="translate(-298.879 -122.768)"/><path class="g" d="M409.409,246.769a4.667,4.667,0,0,0-4.357-4.131c-3.927-.206,1.079,8.606,1.079,8.606s-3.236-2.678-4.4-1.854,3.32,5.366,3.32,5.366-2.151-1.99-4.421-1.374,1.3,6.932,1.3,6.932a16.2,16.2,0,0,0-9.977,1.166" transform="translate(-311.916 -123.378)"/></g></g><g transform="translate(57.96 221.071)"><g transform="translate(0 79.056)"><line class="g" y2="34.843" transform="translate(150.301 36.597)"/><line class="g" y2="7.466" transform="translate(150.301 25.196)"/><path class="g" d="M63.49,427.25V362.328H210.145v14.251" transform="translate(-59.844 -355.606)"/><path class="g" d="M87.009,371.2H74.284v51.872" transform="translate(-61.997 -357.375)"/><path class="g" d="M208.67,428.815V371.2H99.411" transform="translate(-67.01 -357.375)"/><line class="g" x1="4.043" transform="translate(131.521)"/><path class="g" d="M184.655,353.931H58.936v6.675H212.883v-6.675H197.077" transform="translate(-58.936 -353.931)"/></g><g transform="translate(8.669)"><path class="g" d="M69.765,300.49s12.05.95,12.553,9.841C82.318,310.331,70.116,315.95,69.765,300.49Z" transform="translate(-69.765 -264.214)"/><path class="g" d="M99.543,301.81s6.732-9.1,17.609-4.434C117.152,297.376,110.51,308.38,99.543,301.81Z" transform="translate(-75.705 -263.328)"/><path class="g" d="M116.9,267.35s1.936,17.511-14,12.688C102.9,280.039,107.958,267.166,116.9,267.35Z" transform="translate(-76.374 -257.603)"/><path class="g" d="M95.493,255.175s12.6,6.8,3.337,17.112C98.831,272.287,89.99,264.92,95.493,255.175Z" transform="translate(-74.537 -255.175)"/><path class="g" d="M76.569,274.709s13.7-1.383,13.7,11.3C90.274,286.013,76.569,286.553,76.569,274.709Z" transform="translate(-71.122 -259.063)"/><path class="g" d="M89.38,309.758c-.2-4.256-.2-9.732,2.4-15.521,6-13.355,8.025-24.6,4.891-32.528" transform="translate(-73.662 -256.478)"/><path class="g" d="M82.193,278.981s8.215,3.264,11.007,11.726" transform="translate(-72.244 -259.924)"/><path class="g" d="M111.79,276.1s-4.747,6.467-12.79,5.769" transform="translate(-75.597 -259.35)"/><path class="g" d="M110.4,300.032S97.25,303.82,92.025,302.58" transform="translate(-74.205 -264.123)"/><path class="g" d="M74.674,305.491s5.877,6.451,11.788,6.349" transform="translate(-70.744 -265.212)"/><path class="h" d="M101.633,321.731H73.062a.7.7,0,0,0-.7.7v2.166a.7.7,0,0,0,.7.7H73.9l2.546,22.219H98.253l2.546-22.219h.834a.7.7,0,0,0,.7-.7v-2.166A.7.7,0,0,0,101.633,321.731Z" transform="translate(-70.284 -268.452)"/><line class="g" x2="16.618" transform="translate(5.446 56.837)"/><line class="g" x2="2.497" transform="translate(25.198 56.837)"/></g></g><g transform="translate(108.969 94.119)"><g transform="translate(0 0)"><path d="M133.27,438.51s-1.368-5.224.231-7.16c2.873-3.477-.351-6.391,2.533-7.6l1.208,1.4c.235-1.424-.438-5.749,4.91-6.313,6.465-.682,6.587,4.023,6.936,5.572l-.106-2.165c2.756,0,1.328,2.751,5.508,7.253a11.916,11.916,0,0,1,3.02,9.008Z" transform="translate(-124.664 -160.858)"/><path d="M194.576,438.459c-2.6-1.163-.211-10.97-.211-10.97s-3.5-2.35,0-4.785a9.741,9.741,0,0,0,9.934,1.614s.684-6.568,4.789-5.724c0,0,1.053,4.161,3.461,6.536,6.528,6.439,14.959,7.175,16.371,10.279.422.929-.09,3.049-.09,3.049Z" transform="translate(-136.649 -160.807)"/><g transform="translate(4.493 119.687)"><path class="i" d="M170.571,247.551l3.209,6.784a359.185,359.185,0,0,1,21.35,58.7c.192.74,4.388,15.586,1.024,52.543l1.918,6.485-2.094,10.711s3.151,4.557,3.038,6.043c0,0-7.779,1.453-10.37,2.846-2.021,1.086-8.08,7.069-8.08,7.069-1.718-.355-1.868-7.306-1.868-7.306s-3.6-61.692-4.627-64.354-7.347-14.119-17.19-40.35c0,0-.223,36.641-2.852,45.907-2.34,8.246.431,31.326.431,31.326l-1.579,25.69s5.536,5.754,1.045,7.3c0,0-3-5.773-11.549-7.085-4.345-.667-9.763,7.05-9.763,7.05-1.9-.608.809-10.3.809-10.3-6.06-45.729-1.586-37.452-2.8-59.8-.777-14.342-4.85-75.714-.074-80.7Z" transform="translate(-128.267 -246.1)"/><g class="j"><path class="k" d="M128.263,268.68c21.4,1.686,39.939-5.316,47.977-8.977-1.523-3.431-2.462-5.368-2.462-5.368l-3.209-6.781-40.02-1.449C128.825,247.9,128.255,257.049,128.263,268.68Z" transform="translate(-128.266 -246.101)"/><path class="k" d="M164.233,295.047c9.739,25.9,16,37.232,17.015,39.88.584,1.531,2.019,22.48,3.136,40.064,1.286-15.994,2.6-32.877,2.721-36.19.237-6.588-4.525-15.632-5.243-17.969s.9-4.866.9-4.866l-8.57-10.8c.288-3.667-4.244-19.67-4.244-19.67C167.25,288.044,164.877,293.479,164.233,295.047Z" transform="translate(-135.442 -253.958)"/></g><path class="g" d="M170.571,247.551l3.209,6.784a359.185,359.185,0,0,1,21.35,58.7c.192.74,4.388,15.586,1.024,52.543l1.918,6.485-2.094,10.711s3.151,4.557,3.038,6.043c0,0-7.779,1.453-10.37,2.846-2.021,1.086-8.08,7.069-8.08,7.069-1.718-.355-1.868-7.306-1.868-7.306s-3.6-61.692-4.627-64.354-7.347-14.119-17.19-40.35c0,0-.223,36.641-2.852,45.907-2.34,8.246.431,31.326.431,31.326l-1.579,25.69s5.536,5.754,1.045,7.3c0,0-3-5.773-11.549-7.085-4.345-.667-9.763,7.05-9.763,7.05-1.9-.608.809-10.3.809-10.3-6.06-45.729-1.586-37.452-2.8-59.8-.777-14.342-4.85-75.714-.074-80.7Z" transform="translate(-128.267 -246.1)"/><path class="g" d="M164.01,293.833s4.892-9.442,9.065-12.075" transform="translate(-135.397 -253.213)"/><path class="g" d="M172.637,277.94s-14.859,4.52-20.009,5.4" transform="translate(-133.127 -252.451)"/><path class="g" d="M167.824,259c.64,12.371,5,14.478.785,17.176,0,0,.115,5.787-1.98,9.454" transform="translate(-135.92 -248.673)"/><path class="g" d="M134.577,253.094s1.755,19.012-4.1,22.588" transform="translate(-128.709 -247.495)"/><path class="g" d="M130.433,260.746s-.439,12.66,0,22.858c0,0,1.463,43.11,2.925,48.521s-2.253,13.581-1.931,37" transform="translate(-128.661 -249.022)"/><path class="g" d="M147,418.994a6.091,6.091,0,0,0-4.095.548" transform="translate(-131.188 -280.563)"/><path class="g" d="M157.444,424.337a22.451,22.451,0,0,0-6.3-4.319" transform="translate(-132.832 -280.793)"/><path class="g" d="M152.514,300.573c-3.282,3.677-8.479,10.618-13.81,11.2" transform="translate(-130.349 -256.966)"/><path class="g" d="M161.5,293.087c-1.01,1.275-2.051,2.526-3.108,3.761" transform="translate(-134.277 -255.473)"/><path class="g" d="M153.549,346.91s-7.46,10.155-11.556,10.741" transform="translate(-131.005 -266.209)"/><path class="g" d="M167.391,294.549s13.285,37.006,17.905,40.662c0,0,.524,27.206.671,36.714a174.071,174.071,0,0,0,2.34,22.14" transform="translate(-136.072 -255.765)"/><path class="g" d="M208.509,418.52s-5.119,1.768-7.606,2.9a6.864,6.864,0,0,0-3.365,3.615" transform="translate(-142.086 -280.494)"/><path class="g" d="M190,324.2c-7.137-4.48-16.542-10.072-20.332-17.957" transform="translate(-136.527 -258.097)"/><path class="g" d="M201.842,332.706c-1.349-.746-2.679-1.527-4-2.324" transform="translate(-142.146 -262.913)"/><path class="g" d="M171.942,264.567c-3.838-.056-8.038-.56-11.312-2.725" transform="translate(-134.723 -249.24)"/><path class="g" d="M181.549,264.8c-1.1.156-2.2.249-3.312.306" transform="translate(-138.235 -249.83)"/></g><path d="M177.575,157.23c-2.931-4.432-17.862-5.564-27.442-5.564s-21.212-1.616-26.468,9.206c-4.01,8.256,5.223,51.9,5.223,51.9l-2.261,18.843c17.359,5.446,47.091,4.241,47.091,4.241l-4-17.034S180.5,161.663,177.575,157.23Z" transform="translate(-122.655 -107.558)"/><path class="c" d="M149.221,138s1.286,10.271-2.622,12.487c0,0,1.953,7.534,8.791,8s9.894-6.9,9.894-6.9Z" transform="translate(-127.432 -104.849)"/><g transform="translate(48.609)"><g transform="translate(8.032 5.002)"><path class="e" d="M1.882,0H18.7a1.882,1.882,0,0,1,1.882,1.882V14.075a0,0,0,0,1,0,0H0a0,0,0,0,1,0,0V1.882A1.882,1.882,0,0,1,1.882,0Z" transform="translate(0 1.892) rotate(-5.272)"/><g class="l" transform="translate(0 0)"><path class="m" d="M1.882,0H18.7a1.882,1.882,0,0,1,1.882,1.882V14.075a0,0,0,0,1,0,0H0a0,0,0,0,1,0,0V1.882A1.882,1.882,0,0,1,1.882,0Z" transform="translate(0 1.892) rotate(-5.272)"/><rect class="n" width="5.067" height="10.134" transform="matrix(0.996, -0.092, 0.092, 0.996, 14.47, 1.885)"/></g><path class="g" d="M1.882,0H18.7a1.882,1.882,0,0,1,1.882,1.882V14.075a0,0,0,0,1,0,0H0a0,0,0,0,1,0,0V1.882A1.882,1.882,0,0,1,1.882,0Z" transform="translate(0 1.892) rotate(-5.272)"/></g><g transform="translate(38.323 2.207)"><path class="e" d="M1.881,0H18.7a1.881,1.881,0,0,1,1.881,1.881V14.075a0,0,0,0,1,0,0H0a0,0,0,0,1,0,0V1.881A1.881,1.881,0,0,1,1.881,0Z" transform="translate(0 1.892) rotate(-5.272)"/><g class="o" transform="translate(0 0)"><path class="m" d="M1.881,0H18.7a1.881,1.881,0,0,1,1.881,1.881V14.075a0,0,0,0,1,0,0H0a0,0,0,0,1,0,0V1.881A1.881,1.881,0,0,1,1.881,0Z" transform="translate(0 1.892) rotate(-5.272)"/><rect class="n" width="3.061" height="10.134" transform="translate(16.134 1.732) rotate(-5.272)"/></g><path class="g" d="M1.881,0H18.7a1.881,1.881,0,0,1,1.881,1.881V14.075a0,0,0,0,1,0,0H0a0,0,0,0,1,0,0V1.881A1.881,1.881,0,0,1,1.881,0Z" transform="translate(0 1.892) rotate(-5.272)"/></g><path class="b" d="M1.882,0H18.7a1.882,1.882,0,0,1,1.882,1.882V14.075a0,0,0,0,1,0,0H0a0,0,0,0,1,0,0V1.882A1.882,1.882,0,0,1,1.882,0Z" transform="matrix(0.996, -0.092, 0.092, 0.996, 31.946, 4.687)"/><path class="b" d="M1.882,0H18.7a1.882,1.882,0,0,1,1.882,1.882V14.075a0,0,0,0,1,0,0H0a0,0,0,0,1,0,0V1.882A1.882,1.882,0,0,1,1.882,0Z" transform="matrix(0.996, -0.092, 0.092, 0.996, 62.237, 1.891)"/><rect class="n" width="5.067" height="10.134" transform="translate(46.416 4.681) rotate(-5.273)"/><rect class="n" width="5.067" height="10.134" transform="matrix(0.996, -0.092, 0.092, 0.996, 76.374, 1.916)"/><g transform="translate(0 6.96)"><path class="e" d="M276.108,108.591l5.31,57.545L188.7,174.692l-5.31-57.545a3.64,3.64,0,0,1,3.292-3.962l85.461-7.886A3.64,3.64,0,0,1,276.108,108.591Z" transform="translate(-183.377 -105.283)"/><g class="p"><path class="m" d="M276.108,108.591l5.31,57.545L188.7,174.692l-5.31-57.545a3.64,3.64,0,0,1,3.292-3.962l85.461-7.886A3.64,3.64,0,0,1,276.108,108.591Z" transform="translate(-183.377 -105.283)"/></g><path class="g" d="M276.108,108.591l5.31,57.545L188.7,174.692l-5.31-57.545a3.64,3.64,0,0,1,3.292-3.962l85.461-7.886A3.64,3.64,0,0,1,276.108,108.591Z" transform="translate(-183.377 -105.283)"/></g><path class="b" d="M282.067,108.591l5.31,57.545-68.8,6.349-5.31-57.545a3.639,3.639,0,0,1,3.293-3.961l61.546-5.68A3.64,3.64,0,0,1,282.067,108.591Z" transform="translate(-189.336 -98.323)"/><path class="n" d="M278.573,111.762l-58.813,5.427a1.5,1.5,0,0,1-1.636-1.359h0a1.5,1.5,0,0,1,1.36-1.636l58.813-5.428a1.5,1.5,0,0,1,1.635,1.36h0A1.5,1.5,0,0,1,278.573,111.762Z" transform="translate(-190.307 -99.016)"/></g><g transform="translate(18.152 11.325)"><path d="M160.7,112.458s-13.566-2.719-15.086,6.016,3.461,12.445,3.461,12.445Z" transform="translate(-145.331 -111)"/><path class="c" d="M149.7,135.973a23.531,23.531,0,0,1-.7-13.523c1.332-5.609,8.012-13.311,18.129-6.3,5.217,3.612,5.536,11.443,3.911,18.622-.388,1.712-.1,3.387-.666,4.958-2,5.527-5.659,9.778-7.659,9.874-3.343.163-10.02-3.878-9.744-7.4" transform="translate(-145.929 -111.257)"/><path class="g" d="M165.569,138.2s-2.7-1.953-5.294-.355" transform="translate(-148.312 -116.018)"/><path class="g" d="M173.251,137.591s2.04-1.871,3.367-1.607" transform="translate(-150.9 -115.768)"/><path d="M162.128,141.96c0,.5.252.9.564.9s.564-.4.564-.9-.253-.9-.564-.9S162.128,141.464,162.128,141.96Z" transform="translate(-148.681 -116.785)"/><ellipse cx="0.565" cy="0.899" rx="0.565" ry="0.899" transform="translate(21.786 23.777)"/><path class="g" d="M171.054,140.356c-1,1.3.4,6.242,0,6.591s-2.946-.649-2.946-.649-.6-.748.649-1.148" transform="translate(-149.846 -116.645)"/><path class="g" d="M167.868,151.377s-3.416,0-4.33-1.242" transform="translate(-148.963 -118.595)"/><path class="q" d="M156.445,127.076l-.267,4.129s-2.93,1.509-3.662,3.052a6.091,6.091,0,0,0-.466,3.207s-1.779-3.106-2.733-2.851c-.347.092-.346,1.391-.346,1.391s-3.979-8.927-.383-13.655S156.445,127.076,156.445,127.076Z" transform="translate(-145.68 -112.789)"/><path class="c" d="M150.524,139.477a5.738,5.738,0,0,0-3.5-3.8c-2.7-.8-.849,6.386,1.448,7.342s2.875,1.6,3.011.749" transform="translate(-145.402 -115.7)"/><path d="M147.08,124.5c-.22-.3-1.211-7.987,3.868-11.464s13.675-3.086,19.146,1.7,3.907,13.086,0,15.921v-3.463s-1.8,3.475-7.2,3.763l1.648-2.546a14.836,14.836,0,0,1-7.341,1.466s2.2-1.759,1.882-3.321C159.082,126.554,151.646,130.743,147.08,124.5Z" transform="translate(-145.635 -110.736)"/></g><path class="c" d="M146.656,160.224c-3.746.449-9.074,5.339-5.576,14.024,2.217,5.5,20.433,2.232,20.433,2.232,6.757-2.78,16.628-12.811,23.87-17.459,0,0-1.528-9.6-3.29-8.246-8.183,6.268-14.922,6.7-26.34,12.193C155.752,162.968,149.014,159.941,146.656,160.224Z" transform="translate(-126.103 -107.372)"/><path class="c" d="M158.777,175.93c-.113,3.589,1.364,4.222,3.846,5.067" transform="translate(-129.859 -112.416)"/><path class="c" d="M191.89,148.677c.165-.519,3.172-5.848,4.058-7.208s4.686-2.582,6.164-3.4,1.583-2.056,2.428-1.171,0,2.915-4.433,5.066a42.135,42.135,0,0,0,4.725,0c1.186-.17,2.241-1.25,2.769-.5s.634,2.079-2.005,2.893a13.465,13.465,0,0,1-3.906.769,28.071,28.071,0,0,1,3.8,1.1c.423.315,1.056,1.045,1.689,1.155s1.319.813.158,1.64a2.865,2.865,0,0,1-2.692.053s3.061,1.478,2.111,2.428-4.011.739-4.011.739-4.539,5.489-8.339,4.328" transform="translate(-136.466 -104.57)"/><path class="g" d="M198.659,142.683a1.438,1.438,0,0,1,1.109,1.068c.264.95,1.035,1,1.511,2.059s.337,2.694.812,3.247,0,2.928,0,2.928" transform="translate(-137.816 -105.784)"/><path class="r" d="M147.726,161.353c-1.965-2.5-6.363-1.368-6.363-1.368" transform="translate(-126.387 -109.184)"/><path class="r" d="M138.363,154.3s4.528.661,5.866,4.434" transform="translate(-125.789 -108.102)"/><path class="r" d="M145.552,183.752s-4.416,3.416-11.145-1.493" transform="translate(-124.999 -113.678)"/><path class="r" d="M139.443,185.409s-2.244,3.1-7.707,3.06" transform="translate(-124.467 -114.307)"/><path class="r" d="M170.633,234.1s-11.56,9.208-23.3,8.027" transform="translate(-127.577 -124.02)"/><path class="r" d="M137.407,208.81s17.945,13.159,31.247,14" transform="translate(-125.598 -118.975)"/></g></g><g transform="translate(184.592 118.857)"><g transform="translate(0 0)"><path d="M321.4,211.088,318.164,228.5,292.055,244.36l3.606,6.631s30.192-9.21,30.922-11.361,7.7-24.958,7.7-24.958Z" transform="translate(-232.07 -144.167)"/><path class="d" d="M339.734,174.33l-1.745,21.1-.921,11.071c-5.035,2.45-9.958-1.233-10.263-1.473a.025.025,0,0,0-.016-.008C328.207,201.011,329.8,178.333,339.734,174.33Z" transform="translate(-238.999 -136.835)"/><path d="M337.993,199.144l-.921,11.071c-5.035,2.45-9.958-1.233-10.263-1.473.216.1,2.866,1.217,4.587-.008a13.434,13.434,0,0,1-1.585-2.113c-.1-.416,1.585-.528,1.585-.528s-1.121-8.974,1.865-12.768C334.431,191.836,336.256,194.878,337.993,199.144Z" transform="translate(-239.003 -140.547)"/><g transform="translate(92.451 213.292)"><path class="b" d="M359.018,418.442l.833,2.348a47.643,47.643,0,0,1-4.066,5.722s-.823-.261-2.117.9a4.887,4.887,0,0,0-1.411,3.01s-6.111,7.335-13.874,7.441-5.416-3.8-5.416-3.8Z" transform="translate(-332.616 -398.822)"/><path class="s" d="M351.723,394.891s-10.4-3.835-12.445,3.835c0,0,1.857,8.448.743,13.061s-6.712,13.439-7.058,15.119c-.677,3.277-.166,3.5-.166,3.5a10.827,10.827,0,0,0,9.546-.167c5.471-2.522,14.952-13.374,16.439-15.607s-4.644-11.072-4.644-11.072Z" transform="translate(-332.611 -393.933)"/><g class="t"><path class="u" d="M351.723,394.891s-10.4-3.835-12.445,3.835c0,0,1.857,8.448.743,13.061s-6.712,13.439-7.058,15.119c-.677,3.277-.166,3.5-.166,3.5a10.827,10.827,0,0,0,9.546-.167c5.471-2.522,14.952-13.374,16.439-15.607s-4.644-11.072-4.644-11.072Z" transform="translate(-332.611 -393.933)"/></g><path class="g" d="M351.723,394.891s-10.4-3.835-12.445,3.835c0,0,1.857,8.448.743,13.061s-6.712,13.439-7.058,15.119c-.677,3.277-.166,3.5-.166,3.5a10.827,10.827,0,0,0,9.546-.167c5.471-2.522,14.952-13.374,16.439-15.607s-4.644-11.072-4.644-11.072Z" transform="translate(-332.611 -393.933)"/><path class="g" d="M349.184,408.678a22.615,22.615,0,0,1-2.6,15.055" transform="translate(-335.398 -396.874)"/><path class="b" d="M343.882,429.745a7.031,7.031,0,0,1-4.455,4.117,12.392,12.392,0,0,1-6.377,0l2.5-5.065A15.953,15.953,0,0,0,343.882,429.745Z" transform="translate(-332.699 -400.887)"/><path class="g" d="M346.355,425.975s-5.443.325-8.285-.784" transform="translate(-333.7 -400.168)"/><path class="g" d="M347.7,422.208s-5.087.779-7.93-.833" transform="translate(-334.04 -399.407)"/><path class="g" d="M348.925,418.069s-4.462.652-7.37-.73" transform="translate(-334.395 -398.602)"/><path class="g" d="M349.559,413.529s-4.961,1.557-7.31,0" transform="translate(-334.534 -397.842)"/><path class="b" d="M349.807,401.538l.867,5.454s-6.563,4.328-10.9-1.076l.02-5.691S341.4,404.062,349.807,401.538Z" transform="translate(-334.04 -395.188)"/></g><path d="M338.87,248.992c-6.651,21.075-27.3,54.886-25.2,63.533,1.144,4.724,7.956,31.488,13.284,43.256a20.889,20.889,0,0,0,6.4,7.494l3.164,6.782c7.706,3.351,10.469-3.471,10.469-3.471l-1.55-7.684c4.134-7.507,2.369-7.507-2.972-46.429-.629-4.586,10-18.764,10-18.764l5.468,35.658.889,29.219,2.84,9.027s.7,8.481.638,8.99h12.668l1.4-9.322s5.885-5.547,5.885-11.952-1.267-39.024,0-48.524-2.967-53.8-2.967-53.8Z" transform="translate(-236.352 -151.728)"/><g transform="translate(0 76.883)"><g transform="translate(13.744 0)"><path class="e" d="M1.882,0H18.7a1.882,1.882,0,0,1,1.882,1.882V14.075a0,0,0,0,1,0,0H0a0,0,0,0,1,0,0V1.882A1.882,1.882,0,0,1,1.882,0Z" transform="translate(1.206 0) rotate(4.915)"/><g class="v" transform="translate(0 0)"><path class="m" d="M1.882,0H18.7a1.882,1.882,0,0,1,1.882,1.882V14.075a0,0,0,0,1,0,0H0a0,0,0,0,1,0,0V1.882A1.882,1.882,0,0,1,1.882,0Z" transform="translate(1.206 0) rotate(4.915)"/><rect class="n" width="5.067" height="10.134" transform="translate(15.449 2.553) rotate(4.915)"/></g><path class="g" d="M1.882,0H18.7a1.882,1.882,0,0,1,1.882,1.882V14.075a0,0,0,0,1,0,0H0a0,0,0,0,1,0,0V1.882A1.882,1.882,0,0,1,1.882,0Z" transform="translate(1.206 0) rotate(4.915)"/></g><g transform="translate(44.052 2.606)"><path class="e" d="M1.882,0H18.7a1.882,1.882,0,0,1,1.882,1.882V14.075a0,0,0,0,1,0,0H0a0,0,0,0,1,0,0V1.882A1.882,1.882,0,0,1,1.882,0Z" transform="translate(1.206 0) rotate(4.914)"/><g class="w" transform="translate(0 0)"><path class="m" d="M1.882,0H18.7a1.882,1.882,0,0,1,1.882,1.882V14.075a0,0,0,0,1,0,0H0a0,0,0,0,1,0,0V1.882A1.882,1.882,0,0,1,1.882,0Z" transform="translate(1.206 0) rotate(4.914)"/><rect class="n" width="3.061" height="10.134" transform="translate(17.114 2.696) rotate(4.914)"/></g><path class="g" d="M1.882,0H18.7a1.882,1.882,0,0,1,1.882,1.882V14.075a0,0,0,0,1,0,0H0a0,0,0,0,1,0,0V1.882A1.882,1.882,0,0,1,1.882,0Z" transform="translate(1.206 0) rotate(4.914)"/></g><path class="b" d="M1.882,0H18.7a1.882,1.882,0,0,1,1.882,1.882V14.075a0,0,0,0,1,0,0H0a0,0,0,0,1,0,0V1.882A1.882,1.882,0,0,1,1.882,0Z" transform="translate(38.878 2.057) rotate(4.914)"/><path class="b" d="M1.882,0H18.7a1.882,1.882,0,0,1,1.882,1.882V14.075a0,0,0,0,1,0,0H0a0,0,0,0,1,0,0V1.882A1.882,1.882,0,0,1,1.882,0Z" transform="translate(69.186 4.663) rotate(4.914)"/><rect class="n" width="5.067" height="10.134" transform="matrix(0.996, 0.086, -0.086, 0.996, 53.121, 4.61)"/><rect class="n" width="5.067" height="10.134" transform="translate(83.095 7.188) rotate(4.915)"/><g transform="translate(0 6.994)"><path class="e" d="M314.84,243.576l-4.951,57.577-92.766-7.977,4.95-57.577a3.641,3.641,0,0,1,3.941-3.317l85.508,7.353A3.64,3.64,0,0,1,314.84,243.576Z" transform="translate(-217.123 -232.269)"/><g class="x"><path class="m" d="M314.84,243.576l-4.951,57.577-92.766-7.977,4.95-57.577a3.641,3.641,0,0,1,3.941-3.317l85.508,7.353A3.64,3.64,0,0,1,314.84,243.576Z" transform="translate(-217.123 -232.269)"/></g><path class="g" d="M314.84,243.576l-4.951,57.577-92.766-7.977,4.95-57.577a3.641,3.641,0,0,1,3.941-3.317l85.508,7.353A3.64,3.64,0,0,1,314.84,243.576Z" transform="translate(-217.123 -232.269)"/></g><path class="b" d="M320.8,244.089l-4.951,57.577-68.838-5.92,4.95-57.577a3.64,3.64,0,0,1,3.941-3.317l61.581,5.3A3.64,3.64,0,0,1,320.8,244.089Z" transform="translate(-223.085 -225.788)"/><path class="n" d="M318.148,246.444l-58.845-5.06a1.5,1.5,0,0,1-1.37-1.627h0a1.5,1.5,0,0,1,1.628-1.37l58.845,5.06a1.5,1.5,0,0,1,1.371,1.627h0A1.5,1.5,0,0,1,318.148,246.444Z" transform="translate(-225.262 -226.495)"/></g><g transform="translate(112.902 221.68)"><g transform="translate(0.317 0.906)"><path class="s" d="M384.365,408.161s-4.433-3.167-13.618-2.534c0,0-.664,11.009-1.916,14.213s-7.832,8.747-9.055,9.7-1.222,4.276-1.222,4.276h27.868a88.188,88.188,0,0,0-2.217-14.135Z" transform="translate(-358.555 -405.543)"/><g class="y"><path class="u" d="M384.365,408.161s-4.433-3.167-13.618-2.534c0,0-.664,11.009-1.916,14.213s-7.832,8.747-9.055,9.7-1.222,4.276-1.222,4.276h27.868a88.188,88.188,0,0,0-2.217-14.135Z" transform="translate(-358.555 -405.543)"/></g><path class="g" d="M384.365,408.161s-4.433-3.167-13.618-2.534c0,0-.664,11.009-1.916,14.213s-7.832,8.747-9.055,9.7-1.222,4.276-1.222,4.276h27.868a88.188,88.188,0,0,0-2.217-14.135Z" transform="translate(-358.555 -405.543)"/></g><path class="g" d="M382.284,410.593s-.659,10.134-2.229,12.773a18.685,18.685,0,0,1-3.089,4.011" transform="translate(-361.91 -405.644)"/><path class="b" d="M372.793,432.982a5.885,5.885,0,0,1-2.956,1.98c-1.557.237-9.757-.238-9.757-.238l3.345-2.891S370.26,430.686,372.793,432.982Z" transform="translate(-358.542 -409.824)"/><path class="g" d="M377.084,429.925s-5.941-3.415-10.175-.837" transform="translate(-359.904 -409.141)"/><path class="g" d="M379.158,426.98s-4.149-3.242-9.042-1.463" transform="translate(-360.544 -408.515)"/><path class="g" d="M381.323,422.568s-4.464-3.469-9.172-1.259" transform="translate(-360.95 -407.635)"/><path class="g" d="M382.036,417.174s-5.415-2.912-9.358-.7" transform="translate(-361.055 -406.652)"/><path class="b" d="M386.345,440.857v2.058h-3.192a5.62,5.62,0,0,0-5.359,0H362.751a10.93,10.93,0,0,1-4.592-1.029l.317-1.029Z" transform="translate(-358.159 -411.681)"/><path class="b" d="M384.967,407.3l-.713,4.485s-8.365-2.712-12.984-.95v-5.52S379.874,402.29,384.967,407.3Z" transform="translate(-360.774 -404.411)"/></g><g transform="translate(93.538 32.3)"><path class="z" d="M386.572,248.2s-17.78,3.482-35.215-2.169a50.42,50.42,0,0,1-11.319-5.227s.048-1.121.08-2.954c.144-7.157.1-25.16-3.666-29.651-2.37-2.81-4.283-20.181.352-28.963l14.177-11.4c19.629,3.834,23.775,9.03,27.018,20.237.6,2.049,1.161,4.3,1.785,6.78.68,2.706,1.321,6.012,1.929,9.646C384.659,222.42,386.572,248.2,386.572,248.2Z" transform="translate(-333.969 -167.84)"/><g class="aa"><path class="k" d="M383.225,209.547l-8.005,35.759s-11.568,3.234-22.35,5.772a50.421,50.421,0,0,1-11.319-5.227s.048-1.121.08-2.954c9.686-4.955,23.823-12.24,23.711-12.584-.184-.536,0-19.22,0-19.22s12.768-2.97,14.169-17.972c.6,2.049,1.161,4.3,1.785,6.78C381.976,202.606,382.617,205.912,383.225,209.547Z" transform="translate(-335.481 -172.883)"/></g><path class="g" d="M386.572,248.2s-17.78,3.482-35.215-2.169a50.42,50.42,0,0,1-11.319-5.227s.048-1.121.08-2.954c.144-7.157.1-25.16-3.666-29.651-2.37-2.81-4.283-20.181.352-28.963l14.177-11.4c19.629,3.834,23.775,9.03,27.018,20.237.6,2.049,1.161,4.3,1.785,6.78.68,2.706,1.321,6.012,1.929,9.646C384.659,222.42,386.572,248.2,386.572,248.2Z" transform="translate(-333.969 -167.84)"/></g><path class="c" d="M351.72,149.2s-6.258,8.967,2.066,15.959c0,0-10.1,11.341-13.428,9.778-1.4-.659,0-4.75,0-4.75L334.5,159.354Z" transform="translate(-240.538 -131.822)"/><g transform="translate(83.407)"><path class="c" d="M347.591,149.915c1.96-8.543,1.018-21.264-10.948-20.129-8.386.8-14.372,5.437-12.039,16.692.985,4.753,1.794,11.478,6.146,17.539,1.21,1.684,13.855-4.264,13.093-9.075" transform="translate(-321.869 -127.935)"/><path class="g" d="M332.057,148.233a5.816,5.816,0,0,1,5.193.5" transform="translate(-323.457 -131.551)"/><path class="g" d="M324.539,149.429a1.5,1.5,0,0,1,1.8-.825" transform="translate(-321.957 -131.695)"/><path class="c" d="M327.66,151.862s-2.463,4.489-2.47,5.133,3.033.853,3.033.853" transform="translate(-322.087 -132.353)"/><path d="M334.626,152.8c.015.488-.218.892-.52.9s-.561-.379-.576-.867.218-.893.521-.9S334.611,152.315,334.626,152.8Z" transform="translate(-323.751 -132.367)"/><path class="g" d="M330.545,162.785s4.736-.889,5.574-2.553" transform="translate(-323.155 -134.022)"/><path d="M323.864,138.326l3.682-1.072s5.16-2.364,6.258-2.066,3.323,3.761,3.256,5.712a12.783,12.783,0,0,1,3.907,7.5l1.063-.487s-.059-3.975,2.217-3.9,3.3,2.828,3.141,3.684-2.637,4.409-2.637,4.409,5.7-.847,5.881-11.977-12.047-13.052-18-12.569a78.564,78.564,0,0,1-9.059.334l.337,3.181-2.432.633,1.816,2.217-1.985.909Z" transform="translate(-321.314 -127.491)"/></g><path class="r" d="M350.258,293.008s14.5,3.837,18.418,14.627" transform="translate(-243.681 -160.508)"/><path class="r" d="M353.616,300.254s-7.836,13.04-19.821,19.812" transform="translate(-240.397 -161.954)"/><path class="r" d="M344.8,391.178s4.448-1,5.662-2.727" transform="translate(-242.592 -179.547)"/><path class="r" d="M375.763,393.683a10.134,10.134,0,0,1,8.69,0" transform="translate(-248.768 -180.391)"/><path class="r" d="M390.626,318.091s-7.306,18.93-11.006,20.684" transform="translate(-249.538 -165.512)"/><path class="r" d="M353.391,281.049c.2,2.054,8.82,11.592,15.91,15.374" transform="translate(-244.306 -158.123)"/><path class="r" d="M362.564,271a13.257,13.257,0,0,1,.612,8.042,12.374,12.374,0,0,0,0,7.094" transform="translate(-246.135 -156.119)"/><path class="g" d="M342.96,221.816s13.476,17.44,27.954,23.164" transform="translate(-242.225 -146.307)"/><path class="g" d="M360.42,186.611s-.046,11.856,8.5,17.2" transform="translate(-245.708 -139.284)"/><g transform="translate(70.951 64.53)"><path class="c" d="M358.1,208.194c-1.807,1.783.166,24.079.166,24.079s-10.516,4.119-13.8,6.771-18.881,8.732-18.881,8.732-2.4,8.184.6,8.463,34-10.288,41.088-13.995c0,0,4.617-27.245,4.586-34.143" transform="translate(-309.527 -208.101)"/><path class="c" d="M323.039,256.811c-1.439-.271-3.971-1.22-5.344-.9s-3.8,1.795-6.334,2.428-1.478,1.583,0,1.9a10.069,10.069,0,0,0,3.273,0l-2.053,2.005a32.042,32.042,0,0,1-3.648,1.689c-.739,0-3.378.719-3.167,1.837s1.689.991,3.378,1.054c0,0-2.692.54-2.428,2.07.18,1.045,3.167.106,4.75.106,0,0-1.266,1.372-.317,1.794s3.036-.633,3.036-.633-.08,1.139.87,1.256,3.321-.833,4.933-1.784a42.994,42.994,0,0,0,4.568-3.378,7.652,7.652,0,0,1,2.07-1.341" transform="translate(-305.754 -217.625)"/><path class="g" d="M309.989,269.4a18.414,18.414,0,0,0,2.217-.252c.633-.159,1.267-.37,1.267-.37" transform="translate(-306.599 -220.205)"/><path class="g" d="M312.89,272.038a7.709,7.709,0,0,0,2.745-.95" transform="translate(-307.178 -220.666)"/><path class="g" d="M316.287,273.541a4.682,4.682,0,0,0,2-.739" transform="translate(-307.855 -221.008)"/><path class="g" d="M314.54,264.56s-.58,1.32,0,2.059,1.267.781,1.373,1.631,1.478.8,1.979,1.325.874,1.516,2.454,1.583" transform="translate(-307.455 -219.363)"/></g><path class="d" d="M364.988,179.329c-5.453,12.334,0,29.452,0,29.452s13.187,4.487,14.423,2.551,3.445-11.387,3.819-15.759" transform="translate(-246.136 -137.832)"/><path class="g" d="M381.1,201.33s-5.626,7.706-10.059,7.811" transform="translate(-247.827 -142.22)"/></g></g><g transform="translate(89.256 238.378)"><path d="M138.023,330.087a13.684,13.684,0,0,1,10.123-1.266C154,330.3,169.2,352.044,171.314,354.155s6.07,3.238,9.712,7.039c5.764,6.013,14.146,11.329,14.99,11.329a16.527,16.527,0,0,0,2.586-.739c1.056-.211,9.237-.95,9.237-.95s2.744.61,0,1.783-2.534,2.229-2.534,2.229-.552.889.552,1.733,1.753.386,3.328,2.621-2.225.969-2.225.969.845,2.414-.845,2.157-.211,2.347-2.956,1.995-8.622-4.056-10.1-7.944c0,0-23.963-11.453-27.552-14.409s-18.667-18.79-19.732-19" transform="translate(-106.008 -287.086)"/><g transform="translate(84.119 64.457)"><g transform="translate(9.078)"><path class="e" d="M1.882,0H18.7a1.882,1.882,0,0,1,1.882,1.882V14.075a0,0,0,0,1,0,0H0a0,0,0,0,1,0,0V1.882A1.882,1.882,0,0,1,1.882,0Z"/><g class="ab"><path class="m" d="M1.882,0H18.7a1.882,1.882,0,0,1,1.882,1.882V14.075a0,0,0,0,1,0,0H0a0,0,0,0,1,0,0V1.882A1.882,1.882,0,0,1,1.882,0Z"/><rect class="n" width="5.067" height="10.134" transform="translate(14.409 1.323)"/></g><path class="g" d="M1.882,0H18.7a1.882,1.882,0,0,1,1.882,1.882V14.075a0,0,0,0,1,0,0H0a0,0,0,0,1,0,0V1.882A1.882,1.882,0,0,1,1.882,0Z"/></g><g transform="translate(39.498)"><path class="e" d="M1.882,0H18.7a1.882,1.882,0,0,1,1.882,1.882V14.075a0,0,0,0,1,0,0H0a0,0,0,0,1,0,0V1.882A1.882,1.882,0,0,1,1.882,0Z"/><g class="ab"><path class="m" d="M1.882,0H18.7a1.882,1.882,0,0,1,1.882,1.882V14.075a0,0,0,0,1,0,0H0a0,0,0,0,1,0,0V1.882A1.882,1.882,0,0,1,1.882,0Z"/><rect class="n" width="3.061" height="10.134" transform="translate(16.081 1.323)"/></g><path class="g" d="M1.882,0H18.7a1.882,1.882,0,0,1,1.882,1.882V14.075a0,0,0,0,1,0,0H0a0,0,0,0,1,0,0V1.882A1.882,1.882,0,0,1,1.882,0Z"/></g><path class="b" d="M1.882,0H18.7a1.882,1.882,0,0,1,1.882,1.882V14.075a0,0,0,0,1,0,0H0a0,0,0,0,1,0,0V1.882A1.882,1.882,0,0,1,1.882,0Z" transform="translate(33.094)"/><path class="b" d="M1.882,0H18.7a1.882,1.882,0,0,1,1.882,1.882V14.075a0,0,0,0,1,0,0H0a0,0,0,0,1,0,0V1.882A1.882,1.882,0,0,1,1.882,0Z" transform="translate(63.514)"/><rect class="n" width="5.067" height="10.134" transform="translate(47.503 1.323)"/><rect class="n" width="5.067" height="10.134" transform="translate(77.589 1.323)"/><g transform="translate(0 7.501)"><path class="e" d="M296.219,370.325v57.79H203.11v-57.79a3.64,3.64,0,0,1,3.642-3.642h85.824A3.64,3.64,0,0,1,296.219,370.325Z" transform="translate(-203.11 -366.683)"/><g class="ac"><path class="m" d="M296.219,370.325v57.79H203.11v-57.79a3.64,3.64,0,0,1,3.642-3.642h85.824A3.64,3.64,0,0,1,296.219,370.325Z" transform="translate(-203.11 -366.683)"/></g><path class="g" d="M296.219,370.325v57.79H203.11v-57.79a3.64,3.64,0,0,1,3.642-3.642h85.824A3.64,3.64,0,0,1,296.219,370.325Z" transform="translate(-203.11 -366.683)"/></g><path class="b" d="M302.2,370.325v57.79H233.11v-57.79a3.64,3.64,0,0,1,3.642-3.642h61.808A3.64,3.64,0,0,1,302.2,370.325Z" transform="translate(-209.094 -359.182)"/><path class="n" d="M298.49,373.052H239.427a1.5,1.5,0,0,1-1.5-1.5h0a1.5,1.5,0,0,1,1.5-1.5H298.49a1.5,1.5,0,0,1,1.5,1.5h0A1.5,1.5,0,0,1,298.49,373.052Z" transform="translate(-210.054 -359.853)"/></g><g transform="translate(0 88.089)"><path class="q" d="M161.231,432.135c-4.811,0-11.552-3.09-19.325-6.356-8.061-3.394-17.243-6.981-26.561-7.517-3.474-.2-1.369,13.873-1.369,13.873h-7.6s-7.493-10.022-8.341-19c0,0,6.132-3.786,7.6-4.011a13.393,13.393,0,0,1,1.529-.072c1.649-.016,3.851.072,3.851.072a.025.025,0,0,1-.016-.008c-.352-.208-5.964-3.586-9.062-7.021a17.26,17.26,0,0,1-3.81-9.983,48.308,48.308,0,0,1,.588-5.283l39.958.664s.432.3,1.2.873c4.635,3.378,21.574,15.962,30.044,25.449,2.738,3.066,4.587,5.8,4.859,7.805C176.041,430.87,168.492,432.135,161.231,432.135Z" transform="translate(-98.03 -386.834)"/><path d="M169.917,413.819l-19.437,4.443a28.666,28.666,0,0,0-8.574,7.517c-8.061-3.394-17.243-6.981-26.561-7.517-3.474-.2-1.369,13.873-1.369,13.873h-7.6s-7.493-10.022-8.341-19c0,0,7.077,10.087,8.766,15.178,0,0,2.746-9.478,7.181-13.281a36.551,36.551,0,0,0-6.812-5.98c1.649-.016,3.851.072,3.851.072a.025.025,0,0,1-.016-.008c-.352-.208-5.964-3.586-9.062-7.021-2.554-2.834-3.59-7.321-3.81-9.983-.109-1.316.046-5.283.046-5.283s29.806,4.25,41.7,1.536C144.508,391.748,161.447,404.333,169.917,413.819Z" transform="translate(-98.03 -386.834)"/><path class="g" d="M148.8,419.692s15.834,7.934,20.057,11.04,5.484,2.261,5.484,2.261" transform="translate(-108.158 -393.388)"/><path class="g" d="M102.912,418.637s3.8,5.805,4.011,7.547" transform="translate(-99.004 -393.178)"/></g><path d="M177.749,279.387s8.45-3.671,7.659,11.928,2.058,16.391,2.058,16.391-21.218,8.709-26.6,1.266S160.589,281.154,177.749,279.387Z" transform="translate(-110.156 -277.237)"/><path class="c" d="M175.685,313.515s-8.726,4.116-9.517,7.917-11.718-1.915-11.718-1.915l7.918-11.387Z" transform="translate(-109.285 -283.045)"/><path class="q" d="M107.272,366.288c-20.043,25.485-3.77,37.784,18.919,35.751l-4.548,7.177,11.41,1.979s8.756-5.713,20.681-11.823c20.3-10.4,28.5-9.783,26.391-20.2s-26.97-17.171-51.91-6.193C128.215,372.982,114.664,356.889,107.272,366.288Z" transform="translate(-98.065 -294.059)"/><g transform="translate(15.626 112.369)"><path class="c" d="M118.113,432.489s5.207-14.422,7.389-15.2,10.363,2.322,11.41,4.645c0,0,2.781-4.261,3.92-2.447s-.505,4.77,0,7.093,6.126,5.489,8.383,5.911,3.522,1.689,3.522,2.956v2.745H118.113A7.235,7.235,0,0,1,118.113,432.489Z" transform="translate(-117.549 -417.165)"/><path class="g" d="M144.931,426.094s-4.589,2.265-6.265,1.631.858,3.8,1.491,4.223,4.773-1.478,4.773-1.478" transform="translate(-121.649 -418.946)"/><path class="g" d="M123.665,423.12s6.224.117,8.124,2.381" transform="translate(-118.769 -418.353)"/><path class="g" d="M118.253,436.307s9.922,2.322,10.767,2.322a24.281,24.281,0,0,0,4.011-1.161s2.718,1.372,4.526,2.217,13.631,0,13.631,0" transform="translate(-117.69 -420.983)"/></g><path class="g" d="M133.164,406.725c9.484-1.03,27.884-12.707,34.258-16.765s8.064-3,8.064-3" transform="translate(-105.039 -298.745)"/><path class="b" d="M98.207,373.049l1.515-11.488,3.652-2.756c5.912-14.357,32.714-41.16,40.015-41.075,10.979.127,12.916,11.645,14.269,24.254s-15.747,10.709-15.747,10.709v3.167l-9.724,5.035,5.889-.186S121.133,377.177,98.207,373.049Z" transform="translate(-98.065 -284.96)"/><g transform="translate(40.811)"><path class="c" d="M157.367,287.886c2.294-7.2,12.818-9.125,16.584-7.943a13.4,13.4,0,0,1,7.133,6.507c.962,2.067-1.047,5.737.384,7.875,2.05,3.064,1.876,9.531,1.136,13.575-.4,2.165-9.388,3.447-16.739-1.586C157.974,300.911,155.142,294.865,157.367,287.886Z" transform="translate(-150.531 -277.358)"/><path d="M166.466,277.267s9.257-1.511,9.32.869c.412,15.792-9.056,19.108-9.056,19.108s-3.867-3.078-4.737-.966,1.367,7.953,4.1,8.077a6.266,6.266,0,0,0-.113,6.6s-15.671,2.614-16.969-4.647a58.308,58.308,0,0,0,1.3-7.666C151.327,288.465,148.945,281.616,166.466,277.267Z" transform="translate(-149.011 -276.795)"/><path class="c" d="M186.26,297.486c1.93,1.744,3.316,1.744,3.293,2.361-.072,1.949-2.423,2.92-2.423,2.92" transform="translate(-156.441 -280.922)"/><path class="g" d="M186.258,308.13a7.113,7.113,0,0,1-4.216.106" transform="translate(-155.6 -283.045)"/><path d="M180.533,284.2s6.15-1.787,5.021,8.2a14.146,14.146,0,0,0,2.558-7.4c-.015-6.775-9.071-5.418-9.071-5.418l1.181,4.8" transform="translate(-155.002 -277.331)"/><path class="g" d="M187.483,291.408a2.05,2.05,0,0,0-1.631-.294" transform="translate(-156.36 -279.644)"/><path class="g" d="M181.528,291.355s-3.309.186-4.737,2.422" transform="translate(-154.553 -279.699)"/><path d="M181.421,297.695c.05.53-.175.984-.5,1.015s-.635-.373-.684-.9.175-.983.5-1.014S181.371,297.166,181.421,297.695Z" transform="translate(-155.238 -280.783)"/></g><path class="g" d="M133.813,414.681s7.364.778,8.964,4.011" transform="translate(-105.168 -304.3)"/><path class="c" d="M157.1,324.058a13.681,13.681,0,0,1,10.123-1.267c5.857,1.479,21.058,23.225,23.169,25.336s6.07,3.238,9.712,7.038c5.764,6.014,14.145,11.33,14.99,11.33a16.556,16.556,0,0,0,2.587-.739c1.056-.211,9.237-.95,9.237-.95s2.744.61,0,1.783-2.534,2.229-2.534,2.229-.552.889.551,1.733,1.754.386,3.329,2.621-2.225.968-2.225.968.845,2.415-.845,2.158-.211,2.347-2.956,1.995-8.621-4.056-10.1-7.944c0,0-23.963-11.454-27.552-14.409s-18.667-18.79-19.732-19" transform="translate(-109.814 -285.883)"/><path class="b" d="M152.8,321.159s11.815-3.167,15.936-.845,11.933,13.09,11.933,13.09-9.521,8.527-12.466,7.747-11.957-2.048-11.957-2.048" transform="translate(-108.956 -285.306)"/><path class="g" d="M164.137,345.3s-4.281,2.355-5.86,2.355" transform="translate(-110.048 -290.46)"/><path class="g" d="M157.1,330.549c.355.633.235,7.559,7.754,9.712" transform="translate(-109.814 -287.518)"/><path class="g" d="M106.912,368.792s16.046,2.745,21.535-2.111" transform="translate(-99.802 -294.725)"/><path class="g" d="M136.923,371.623s-4-.707-5.477,1.351-9.5,3.959-9.5,3.959" transform="translate(-102.801 -295.687)"/><path class="g" d="M100.391,390.739s-2.31,9.971,7.555,14.437" transform="translate(-98.454 -299.524)"/><path class="g" d="M106.912,391.249s.053,4.909,1.636,7.6l4.909,1.583,5.489-3.056s-1.162-6.286-1.266-7.552" transform="translate(-99.802 -299.342)"/></g></g></svg>