<svg xmlns="http://www.w3.org/2000/svg" width="46.115" height="46.129" viewBox="0 0 46.115 46.129">
  <g id="Group_40" data-name="Group 40" transform="translate(0.354 0.377)">
    <g id="Group_36" data-name="Group 36" transform="translate(0)">
      <path id="Path_585" data-name="Path 585" d="M270.581-2224.615a22.859,22.859,0,0,0-26.063-11.148,21.7,21.7,0,0,0-5.179,2.057c-.425.236-.7.558-.412,1.044.249.422.634.4,1.025.167.125-.073.253-.14.38-.206a20.97,20.97,0,0,1,10.24-2.411,15.838,15.838,0,0,1,3.54.317c11.428,2.053,19.292,12.606,17.547,23.917a20.4,20.4,0,0,1-10.744,15.494,18.7,18.7,0,0,1-10.3,2.85c-.151,0-.289-.019-.436-.021a20.78,20.78,0,0,1-4.128-.393.74.74,0,0,1-.413-.179,17.611,17.611,0,0,1-4.218-1.605,21.479,21.479,0,0,1-7.717-32.306c.153-.2.317-.392.463-.6.253-.353.364-.765-.008-1.061a.7.7,0,0,0-1.039.2c-.115.135-.228.276-.34.417a23.659,23.659,0,0,0-1.441,26.386c5.606,9.039,16.554,12.966,27.419,8.978C271.444-2197.367,277.122-2212.8,270.581-2224.615Z" transform="translate(-228 2236.531)" fill="#797979" stroke="#797979" stroke-width="0.7"/>
      <path id="Path_586" data-name="Path 586" d="M233.775-2233.437a.649.649,0,0,1-.682.657.584.584,0,0,1-.64-.587.6.6,0,0,1,.665-.668C233.513-2234.039,233.692-2233.8,233.775-2233.437Z" transform="translate(-224.046 2238.749)" fill="#797979" stroke="#797979" stroke-width="0.7"/>
    </g>
    <g id="Group_37" data-name="Group 37" transform="translate(10.762 9.939)">
      <path id="Path_591" data-name="Path 591" d="M238.04-2218.754q0-3.616,0-7.231c0-.852.057-.912.88-.914,1.118,0,2.236,0,3.353,0,.446,0,.836.017.829.642,0,.447.279.178.442.111a11.94,11.94,0,0,1,4.619-.849,6.153,6.153,0,0,1,6.212,6.152c.032,3.135,0,6.267.013,9.4,0,.589-.234.818-.827.806-1.467-.024-2.936-.008-4.405-.008-.884,0-.942-.055-.942-.92q0-3.812,0-7.625a2.522,2.522,0,0,0-2.515-2.626,2.564,2.564,0,0,0-2.6,2.63c-.008,2.564,0,5.129,0,7.691,0,.816-.034.848-.861.85-1.072,0-2.147,0-3.221,0-.95,0-.969-.017-.969-.942Q238.039-2215.171,238.04-2218.754Zm.98-.035c0,2.192.015,4.384-.011,6.576-.006.5.147.647.634.617a15.8,15.8,0,0,1,1.905,0c.478.029.587-.158.583-.6-.019-2.345-.011-4.69-.008-7.037a3.482,3.482,0,0,1,.113-1.1,3.63,3.63,0,0,1,4.041-2.415,3.5,3.5,0,0,1,2.97,3.486c.006,2.3.03,4.605-.015,6.905-.013.663.193.812.806.774.874-.052,1.754-.037,2.63,0,.495.021.676-.1.67-.641-.028-2.893-.006-5.788-.017-8.68a5.018,5.018,0,0,0-4.33-5.011,9.42,9.42,0,0,0-5.837,1.115c-.759.416-1.02.3-1.025-.577,0-.4-.111-.542-.521-.523a18,18,0,0,1-1.971,0c-.489-.031-.636.115-.631.615C239.035-2223.13,239.02-2220.959,239.02-2218.789Z" transform="translate(-229.845 2235.06)" fill="#797979" stroke="#797979" stroke-width="0.7"/>
      <path id="Path_592" data-name="Path 592" d="M239.831-2218.826c0,2.431-.013,4.864.009,7.3.006.61-.177.868-.827.853-1.511-.036-3.023-.03-4.536,0-.582.011-.778-.233-.778-.778q.009-7.362,0-14.724c0-.561.244-.776.8-.769q2.266.029,4.536,0c.595-.008.808.234.8.825C239.82-2223.691,239.831-2221.259,239.831-2218.826Zm-1.02.038c0-2.189-.009-4.379.009-6.567,0-.436-.087-.622-.57-.6-1.006.038-2.015.026-3.021,0-.387-.007-.533.087-.533.506q.023,6.634,0,13.267c0,.451.157.553.568.543.961-.023,1.926-.034,2.889,0,.506.019.676-.119.67-.651C238.794-2214.454,238.811-2216.621,238.811-2218.789Z" transform="translate(-233.7 2235.104)" fill="#797979" stroke="#797979" stroke-width="0.7"/>
      <path id="Path_593" data-name="Path 593" d="M236.984-2224.712a3.271,3.271,0,0,1-3.274-3.306,3.239,3.239,0,0,1,3.255-3.25,3.224,3.224,0,0,1,3.261,3.3A3.238,3.238,0,0,1,236.984-2224.712Zm.017-5.572a2.308,2.308,0,0,0-2.292,2.3,2.326,2.326,0,0,0,2.239,2.295,2.323,2.323,0,0,0,2.292-2.308A2.3,2.3,0,0,0,237-2230.284Z" transform="translate(-233.691 2231.268)" fill="#797979" stroke="#797979" stroke-width="0.7"/>
    </g>
  </g>
</svg>
